<?xml version="1.0" encoding="UTF-8"?> <svg xmlns="http://www.w3.org/2000/svg" xmlns:xlink="http://www.w3.org/1999/xlink" width="17px" height="20px" viewBox="0 0 17 19" version="1.1"><g id="surface1"><path style=" stroke:none;fill-rule:nonzero;fill:rgb(100%,100%,100%);fill-opacity:1;" d="M 16.980469 4.765625 C 15.875 4.765625 14.855469 4.40625 14.035156 3.804688 C 13.097656 3.113281 12.421875 2.097656 12.183594 0.925781 C 12.125 0.632812 12.09375 0.335938 12.089844 0.0351562 L 8.933594 0.0351562 L 8.933594 8.464844 L 8.929688 13.078125 C 8.929688 14.3125 8.109375 15.359375 6.96875 15.730469 C 6.628906 15.839844 6.265625 15.886719 5.910156 15.867188 C 5.433594 15.839844 4.988281 15.699219 4.601562 15.472656 C 3.777344 14.992188 3.21875 14.121094 3.207031 13.121094 C 3.179688 11.5625 4.472656 10.289062 6.066406 10.289062 C 6.382812 10.289062 6.683594 10.339844 6.96875 10.429688 L 6.96875 7.296875 C 6.667969 7.253906 6.367188 7.234375 6.058594 7.234375 C 4.3125 7.234375 2.679688 7.941406 1.511719 9.222656 C 0.628906 10.1875 0.0976562 11.417969 0.015625 12.710938 C -0.0898438 14.410156 0.546875 16.023438 1.777344 17.214844 C 1.960938 17.386719 2.148438 17.550781 2.347656 17.699219 C 3.40625 18.496094 4.699219 18.925781 6.058594 18.925781 C 6.367188 18.925781 6.667969 18.902344 6.96875 18.859375 C 8.238281 18.675781 9.414062 18.109375 10.339844 17.214844 C 11.476562 16.113281 12.105469 14.65625 12.109375 13.105469 L 12.09375 6.210938 C 12.636719 6.621094 13.234375 6.960938 13.867188 7.21875 C 14.855469 7.628906 15.90625 7.835938 16.988281 7.835938 L 16.988281 4.765625 C 16.988281 4.765625 16.980469 4.765625 16.980469 4.765625 Z M 16.980469 4.765625 "></path></g></svg> 