<?xml version="1.0" encoding="UTF-8"?> <svg xmlns="http://www.w3.org/2000/svg" width="34" height="35" viewBox="0 0 34 35" fill="none"><path d="M12.1207 13.4524C12.082 13.4907 12.0046 13.5673 11.9658 13.6057C12.779 14.6406 13.631 15.6372 13.6697 17.0172C13.7084 18.3971 12.8952 19.4321 12.1207 20.5053C12.4305 20.467 12.6629 20.3903 12.8565 20.2754C13.3986 19.9687 13.9408 19.6621 14.5216 19.3937C15.5672 18.9721 15.877 19.1637 15.877 20.2754C15.877 20.3903 15.9157 20.5053 15.9544 20.7353C18.0843 19.5087 19.1298 21.387 20.6014 22.2303C20.4077 21.6936 20.1367 21.1953 19.9043 20.7353C19.3622 19.6621 19.2847 18.5504 19.9431 17.5155C20.4852 16.6339 20.9886 15.7139 21.6856 14.9856C23.3508 13.2607 25.1321 11.6124 26.8747 9.96419C27.0296 9.81087 27.1845 9.58088 27.3394 9.42755C27.3007 9.38922 27.2232 9.35089 27.1845 9.27423C26.4875 9.7342 25.8292 10.1942 25.1321 10.6542C24.7062 10.9608 24.3964 10.9608 23.9317 10.6158C22.6925 9.7342 21.4533 8.89091 20.1367 8.16261C18.3941 7.20433 17.0387 6.01605 17.1549 3.83116C17.1549 3.71616 17.1549 3.56284 17.1162 3.44784C16.9226 2.79621 16.4191 2.48956 15.6834 2.25957C15.7221 2.98787 15.7995 3.60117 15.7995 4.17614C15.7995 4.63612 15.8383 5.13443 15.6834 5.59441C15.5672 5.86273 14.9863 6.05438 14.9476 6.28437C14.8702 7.166 14.1344 7.20433 13.631 7.54931C12.9727 8.00929 12.3144 8.43093 11.6173 8.85258C12.508 9.81087 13.2825 10.4625 14.4829 9.8492C14.9476 9.61921 15.4123 9.65754 15.9157 9.92586C16.2255 10.0792 16.7289 9.8492 17.1549 9.81087C17.3872 9.77254 17.6196 9.65754 17.8519 9.65754C18.2779 9.7342 18.7039 9.8492 19.0911 10.0025C19.6333 10.2325 20.2916 10.3858 20.6014 10.8075C20.9886 11.3441 21.3371 11.6508 22.0342 11.5741C22.1891 11.5358 22.4989 11.8424 22.5763 11.9958C22.615 12.1491 22.4601 12.4941 22.2665 12.5707C21.6469 12.9157 20.9886 13.184 20.369 13.529C19.9818 13.7207 19.5945 13.9123 19.3235 14.219C18.6651 14.9473 18.123 14.9473 17.6196 14.0657C17.426 13.7207 17.2323 13.3374 17 12.9924C16.7289 13.6057 16.6515 14.1423 16.5353 14.7173C16.4191 15.2539 16.0706 15.4073 15.5672 15.1773C15.2574 15.0239 14.9863 14.8706 14.7153 14.7173C13.8246 14.3723 12.9727 13.9123 12.1207 13.4524Z" fill="white"></path><path d="M34 18.2055C33.9613 18.0905 33.9613 17.9755 33.9226 17.8988C33.6128 17.8605 33.303 17.7838 32.9932 17.7838C31.9476 17.7838 30.9408 17.7455 29.8952 17.7838C29.3143 17.7838 28.8497 17.6305 28.5399 17.1322C28.2688 16.6722 28.1139 16.2122 27.8428 15.7522C27.4556 15.1006 27.0683 14.4873 26.6424 13.9123C26.5649 13.7973 26.41 13.644 26.2551 13.6057C25.5968 13.5673 24.4738 14.8706 24.59 15.4839C24.861 16.5572 24.4351 17.3622 23.738 18.1288C23.5444 18.3588 23.3895 18.6654 23.2346 18.9721C23.5444 19.1254 23.8155 19.4321 24.164 19.4321C24.7062 19.5087 24.9385 19.7004 24.9772 20.1987C25.0547 21.9236 23.3508 23.7252 21.6469 23.7252C21.4533 23.7252 21.221 23.6869 21.0661 23.7635C20.9112 23.8402 20.7175 24.1468 20.7563 24.2235C21.0661 24.8368 20.6401 25.1818 20.2916 25.6034C20.1754 25.7568 19.9431 26.0634 19.9818 26.1017C20.369 26.6 20.7175 27.1367 21.221 27.4817C21.3759 27.5967 21.8793 27.2133 22.2278 27.0217C22.6538 26.7534 23.0797 26.4851 23.5057 26.1784C24.861 25.1818 25.9841 23.9552 26.7198 22.4602C27.4943 20.8503 28.3075 19.2404 30.5148 19.2787C30.5923 19.2787 30.6697 19.2787 30.7084 19.2021C31.2506 18.4738 32.0638 18.7038 32.7995 18.5888C33.2255 18.5121 33.6128 18.3204 34 18.2055Z" fill="white"></path><path d="M7.24146 28.6699C7.31891 28.7466 7.39635 28.8233 7.4738 28.9383C7.7836 28.7466 8.13212 28.5933 8.40319 28.3633C8.98405 27.9033 9.5262 27.4433 10.0296 26.9067C10.3781 26.5617 10.6879 26.5234 11.1139 26.7534C11.7722 27.1367 12.4305 27.4817 13.0888 27.865C13.6697 28.21 14.3667 28.5166 14.7153 29.0149C15.1412 29.6282 15.3736 30.4332 15.5672 31.1998C15.7995 32.2348 15.9157 33.2697 16.0706 34.3047C16.1093 34.458 16.1868 34.573 16.3804 34.918C16.4966 34.4197 16.574 34.1513 16.6128 33.8447C16.8064 32.8097 16.9226 31.7748 17.2323 30.7782C17.5421 29.7432 18.2779 28.9766 19.4009 28.6699C20.6788 28.3633 20.7175 28.1333 20.0592 27.0217C19.6333 26.3317 19.246 26.2167 18.4715 26.485C16.9226 27.06 15.3736 26.7917 13.9408 26.0251C13.3986 25.7568 12.8952 25.4884 12.0433 25.0668C12.5467 24.6835 13.0888 24.3385 13.5148 23.9168C14.0569 23.4185 14.6378 22.8819 15.0638 22.2686C15.2187 22.0769 15.0251 21.617 14.9863 21.272C14.6765 21.3486 14.2893 21.3103 14.1344 21.4636C13.2437 22.4219 12.2756 23.3035 11.2688 24.1468C9.68109 25.3734 8.51936 27.0984 7.24146 28.6699Z" fill="white"></path><path d="M0 18.5504C0 18.6271 0.0387244 18.7038 0.0387244 18.8188C0.309795 18.8188 0.580866 18.8571 0.851936 18.8571C2.55581 18.8571 4.29841 18.8571 6.00228 18.8571C6.23462 18.8571 6.54442 18.8188 6.66059 18.9338C7.39636 19.6237 8.24829 19.2787 9.02278 19.1637C9.25513 19.1254 9.5262 18.9721 9.60364 18.7804C9.64237 18.6271 9.44875 18.3588 9.33257 18.1671C9.0615 17.7071 8.55809 17.2472 8.51936 16.7872C8.40319 15.1006 8.9066 13.5673 10.1845 12.3791C10.3394 12.2257 10.4943 12.0341 10.7267 11.8041C10.3394 11.6891 10.0683 11.5741 9.79727 11.4975C9.5262 11.4208 9.25513 11.3441 8.98405 11.2675C7.9385 10.8841 7.7836 10.9225 7.20273 11.8808C7.04784 12.1108 6.97039 12.3791 6.81549 12.6091C6.23462 13.759 5.69248 14.8706 5.15034 16.0206C5.07289 16.1739 5.11162 16.3655 5.15034 16.5572C5.34396 17.1705 5.11162 17.5155 4.53075 17.5922C4.02733 17.6688 3.48519 17.6305 2.94305 17.6305C1.89749 17.5922 0.968109 18.1671 0 18.5504Z" fill="white"></path><path d="M10.6105 23.7635C10.4169 23.5335 10.262 23.3419 10.1071 23.1885C9.33257 22.3453 8.55809 21.4636 8.51936 20.237C8.51936 19.777 8.17084 19.6237 7.7836 19.8154C7.24146 20.0454 6.73804 20.3903 6.23462 20.697C5.80866 20.927 5.80866 21.2336 6.07973 21.617C6.50569 22.2686 6.89294 22.9586 7.31891 23.5719C7.70615 24.1468 8.09339 24.7218 8.55809 25.2584C8.71298 25.4118 9.17768 25.6034 9.25513 25.5268C9.68109 24.9901 10.1071 24.4151 10.6105 23.7635Z" fill="white"></path><path d="M12.0433 10.8841C12.1207 10.8458 12.3531 10.7692 12.5467 10.6925C12.5854 10.6925 12.508 10.3858 12.4305 10.3092C11.9271 9.96419 11.4237 9.61921 10.8815 9.35089C10.5718 9.19756 9.79727 9.81087 9.83599 10.2325C9.87471 10.4242 10.2232 10.6542 10.4943 10.7308C10.959 10.8458 11.4237 10.8458 12.0433 10.8841Z" fill="white"></path><path d="M25.9453 12.7624C25.6355 12.6857 25.4032 12.5707 25.2483 12.6474C24.8998 12.8007 24.5125 12.9924 24.2415 13.2607C24.0866 13.3757 23.9704 13.7207 24.0478 13.874C24.2027 14.2573 24.4738 14.1807 24.7449 13.9507C25.0159 13.7207 25.3257 13.4907 25.5968 13.2224C25.6743 13.1074 25.7517 12.9924 25.9453 12.7624Z" fill="white"></path><path d="M16.2642 0.917969C15.877 2.02958 16.1868 2.52789 17.1549 2.37456C16.8451 1.87626 16.6128 1.45461 16.2642 0.917969Z" fill="white"></path><path d="M4.6082 19.9687C4.6082 20.0837 4.56948 20.1604 4.56948 20.2754C4.84055 20.352 5.11162 20.5053 5.42141 20.5053C5.49886 20.5053 5.61503 20.237 5.84738 19.892C5.26651 19.9304 4.91799 19.9304 4.6082 19.9687Z" fill="white"></path><path d="M16.6515 22.1919C16.303 22.0003 16.1093 21.8086 15.9544 21.8469C15.7995 21.8469 15.5672 22.1153 15.5672 22.2686C15.5672 22.4219 15.7608 22.6902 15.9157 22.6902C16.0706 22.6902 16.2255 22.4602 16.6515 22.1919Z" fill="white"></path></svg> 