<?xml version="1.0" encoding="UTF-8"?> <svg xmlns="http://www.w3.org/2000/svg" width="24" height="19" viewBox="0 0 24 19" fill="none"><path d="M5.10417 13.4545C5.431 12.1317 6.41148 11.2474 7.79223 11.2585C9.1436 11.2697 9.89273 12.1391 9.99556 13.1015C10.069 13.8112 9.80093 14.3834 9.41167 14.6138C8.69559 15.0411 8.19617 14.3128 8.47526 14.0416C8.6552 13.8669 8.73599 13.7183 8.69927 13.4545C8.65887 13.1907 8.46057 12.9268 7.99053 12.9268C7.52049 12.9268 7.12389 13.2687 7.03943 13.971C6.94028 14.8033 7.48009 15.7025 8.43119 15.9031C9.63568 16.1595 10.8549 15.5092 11.2845 14.4614C11.7141 13.4136 11.6003 11.7787 10.5684 10.7755C9.75319 9.98403 8.69559 9.69049 7.79223 9.69049L4.78102 9.82426C4.55702 9.8354 4.35872 9.68306 4.30363 9.46384L3.01469 4.15041C3.00367 4.11326 3 4.07238 3 4.03523C3 3.77141 3.17994 3.55962 3.44067 3.55962H8.9453C8.96366 3.55962 8.98203 3.55591 8.99671 3.55219C9.12157 3.52246 9.20236 3.39613 9.17298 3.26608L8.55972 0.583362C8.55238 0.549921 8.54871 0.512764 8.54871 0.475607C8.54871 0.211794 8.75802 0 9.01875 0H14.7143C15.0338 0 15.3129 0.215509 15.3937 0.527626L16.0216 3.21035C16.0767 3.41843 16.264 3.56334 16.4733 3.56334H20.1272C20.4577 3.56334 20.7404 3.79371 20.8139 4.12069L21.989 9.40438C21.9963 9.43783 22 9.47127 22 9.50842C22 9.77224 21.7907 9.98403 21.53 9.98403H17.788C17.7659 9.98403 17.7402 9.98775 17.7182 9.99146C17.5273 10.0286 17.4024 10.2181 17.4428 10.4113C17.553 10.9798 17.6301 11.5372 17.6668 12.0945C17.7806 13.7406 17.3547 15.5464 16.0694 16.9546C13.8844 19.3513 9.84499 19.4887 7.45806 18.1585C5.5375 17.0847 4.69289 15.1117 5.10417 13.4545Z" fill="white"></path></svg> 