<svg xmlns="http://www.w3.org/2000/svg" width="74.36" height="68.055" viewBox="0 0 74.36 68.055"><defs><style>.a{fill:#fff;fill-rule:evenodd;}</style></defs><path class="a" d="M2830.855,1449.773l6.5,4.332-6.493,4.32a30.624,30.624,0,0,1-7.908,16.709l-2.3,2.234a31.014,31.014,0,0,1-42.083-1.117l1.452,1.44-2.632-2.619.708.708a30.761,30.761,0,0,1-8.5-17.28l-6.6-4.395,6.617-4.407a30.763,30.763,0,0,1,26.144-26.082l4.419-6.616,4.407,6.6a30.913,30.913,0,0,1,16.6,7.821l2.259,2.3A30.794,30.794,0,0,1,2830.855,1449.773Zm-30.675-21.638a25.985,25.985,0,1,0,18.4,7.589A25.97,25.97,0,0,0,2800.18,1428.135Zm-20.135,2.359-2.632,2.619Z" transform="translate(-2763 -1417)"/></svg>