<?xml version="1.0" encoding="UTF-8"?> <svg xmlns="http://www.w3.org/2000/svg" width="18" height="18" viewBox="0 0 18 18" fill="none"><path d="M17.4016 9.2001C17.4016 9.75238 16.9538 10.2001 16.4016 10.2001H10.2016V16.4001C10.2016 16.9524 9.75385 17.4001 9.20156 17.4001H8.80156C8.24928 17.4001 7.80156 16.9524 7.80156 16.4001V10.2001H1.60156C1.04928 10.2001 0.601562 9.75238 0.601562 9.2001V8.8001C0.601562 8.24781 1.04928 7.8001 1.60156 7.8001H7.80156V1.6001C7.80156 1.04781 8.24928 0.600098 8.80156 0.600098H9.20156C9.75385 0.600098 10.2016 1.04781 10.2016 1.6001V7.8001H16.4016C16.9538 7.8001 17.4016 8.24781 17.4016 8.8001V9.2001Z" fill="white"></path></svg> 