<?xml version="1.0" encoding="UTF-8"?> <svg xmlns="http://www.w3.org/2000/svg" xmlns:xlink="http://www.w3.org/1999/xlink" version="1.1" id="Слой_1" x="0px" y="0px" width="17px" height="17px" viewBox="0 0 340.38 381.06" style="enable-background:new 0 0 340.38 381.06;" xml:space="preserve"> <style type="text/css"> .st0{fill:#ffff;} </style> <path class="st0" d="M0,190.62C0,129.26,0,67.9,0,6.55c0-6.49,0.01-6.5,6.33-6.5c39.27,0,78.54,0,117.81,0 c6.02,0,6.09,0.07,6.1,5.94c0.01,23.03,0,46.05,0.01,69.08c0,5.5,0.15,5.65,5.57,5.65c9.85,0.02,19.7-0.11,29.55,0.06 c3.68,0.07,4.9-1.29,4.84-4.9c-0.17-10.25-0.07-20.5-0.05-30.74c0.01-4.85,0.31-5.13,5.29-5.14c9.58-0.02,19.17,0,28.75-0.01 c5.87-0.01,5.9-0.03,5.9-6.12c0.01-9.72,0.09-19.43-0.04-29.15c-0.05-3.39,1.11-4.73,4.62-4.72c40.33,0.08,80.67,0.08,121,0 c3.41-0.01,4.72,1.13,4.71,4.62c-0.08,40.33-0.08,80.65,0,120.98c0.01,3.43-1.17,4.75-4.64,4.7c-10.11-0.14-20.24,0.08-30.35-0.11 c-3.83-0.07-5.14,1.28-5.07,5.09c0.19,9.98-0.07,19.97,0.13,29.94c0.08,3.88-1.39,5.1-5.14,5.03c-10.11-0.18-20.23-0.07-30.35-0.05 c-5.02,0.01-5.3,0.27-5.31,5.1c-0.03,9.98,0.1,19.97-0.06,29.94c-0.06,3.61,1.17,4.96,4.84,4.9c10.38-0.17,20.77,0.05,31.15-0.11 c3.65-0.06,4.93,1.26,4.87,4.89c-0.16,10.25-0.07,20.5-0.05,30.74c0.01,4.89,0.27,5.14,5.26,5.15c9.72,0.02,19.43-0.01,29.15,0.01 c5.26,0.01,5.52,0.25,5.52,5.32c0.01,39.93,0.01,79.86,0,119.78c0,4.81-0.31,5.1-5.32,5.1c-39.8,0.01-79.6,0.01-119.41,0 c-5.32,0-5.49-0.19-5.5-5.74c-0.02-9.98-0.13-19.97,0.06-29.94c0.07-3.78-1.18-5.19-5.04-5.11c-10.11,0.2-20.23-0.03-30.35,0.11 c-3.45,0.05-4.72-1.22-4.67-4.67c0.14-10.11-0.08-20.23,0.11-30.34c0.07-3.86-1.33-5.11-5.12-5.04c-9.85,0.19-19.7,0.05-29.55,0.07 c-5.09,0.01-5.29,0.22-5.3,5.52c-0.01,23.03,0,46.05-0.01,69.08c0,6.01-0.06,6.07-5.97,6.07c-39.4,0.01-78.8,0.01-118.21,0 c-6.02,0-6.06-0.04-6.06-5.97C0,313.59,0,252.11,0,190.62z"></path> </svg> 