<svg version="1.0" xmlns="http://www.w3.org/2000/svg" width="389pt" height="376pt" viewBox="0 0 389 376"><path d="M252.989 4.817c-.011 4.95-3.412 28.517-4.539 31.454-.945 2.462 1.248 2.161 2.596-.357 1.806-3.374 1.901-1.857.384 6.098-.785 4.119-1.428 7.852-1.429 8.297-.002 1.451 2.118-.457 4.076-3.668l1.916-3.141.009 27.5c.006 15.125.29 31.325.632 36 .655 8.952-.296 9.929-2.613 2.683-2.064-6.456-2.358-3.242-.597 6.537 1.527 8.479 1.538 9.827.133 15.224-1.474 5.658-1.456 6.002.416 7.745 1.442 1.344 1.744 2.401 1.147 4.016-1.119 3.024-2.963 3.394-3.927.788-.795-2.149-.11-10.674 1.325-16.493.562-2.278.457-2.736-.436-1.903-2.082 1.942-6.076 15.037-7.196 23.591-.954 7.294-1.493 8.741-4.398 11.812-4.869 5.147-9.026 12.813-11.924 21.987-3.332 10.546-3.223 12.69.338 6.642 1.577-2.679 5.504-8.079 8.727-12 5.858-7.128 5.859-7.128 5.559-3.629-.511 5.954-4.065 17.813-7.198 24.021-1.645 3.257-2.99 6.451-2.99 7.098 0 1.347-11.033 23.372-19.478 38.881-6.201 11.389-17.491 29-18.59 29-1.29 0-10.71-14.52-18.239-28.114-9.325-16.835-19.692-37.427-19.695-39.121-.001-.696-1.305-3.74-2.898-6.765-2.974-5.647-6.458-16.412-7.607-23.5l-.648-4 4.146 4c2.28 2.2 6.217 7.26 8.749 11.245 2.531 3.985 4.756 7.092 4.944 6.905.734-.735-4.949-18.367-7.331-22.743-1.388-2.55-4.51-6.907-6.938-9.683-3.779-4.32-4.415-5.677-4.415-9.425 0-6.804-5.925-26.799-7.941-26.799-.438 0-.188 2.588.557 5.75 2.486 10.565 1.473 17.229-2.16 14.214-1.896-1.574-1.87-4.868.044-5.602 1.944-.746 1.928-5.401-.033-10.095-1.355-3.243-1.366-4.373-.095-9.718 2.083-8.762 2.636-13.549 1.565-13.549-.515 0-.953.788-.972 1.75-.02.963-.679 2.875-1.465 4.25-1.284 2.247-1.432.879-1.462-13.5-.018-8.8.261-24.389.619-34.643l.652-18.643 2.47 2.935c1.358 1.615 2.649 2.757 2.868 2.538.218-.219-.281-3.275-1.11-6.792-.829-3.517-1.514-7.232-1.522-8.256-.013-1.637.215-1.577 1.899.5 2.137 2.636 3.792 2.05 2.267-.803C139.843 32.831 137 13.203 137 6.47c0-3.009-.372-5.47-.827-5.47-1.192 0-16.283 8.23-20.185 11.008-2.136 1.522-5.193 2.51-8.646 2.797-2.938.243-5.342.86-5.342 1.37 0 .51-1.62 1.604-3.6 2.431-3.334 1.393-3.902 1.355-7.695-.522-2.253-1.115-4.345-1.777-4.65-1.472-.305.306-.448 6.705-.318 14.222.205 11.837-.045 14.402-1.864 19.166-2.25 5.892-2.685 9.491-1.472 12.178.571 1.264-1.544 4.117-8.572 11.566C62.91 85.318 56.356 94 58.537 94c1.952 0 1.87.413-.946 4.771-3.984 6.168-4.526 12.759-.738 8.979.689-.687.38.775-.686 3.25s-2.246 6.248-2.623 8.384c-.566 3.211-.425 3.784.813 3.309 1.243-.477 1.331-.096.517 2.24-1.183 3.393-.752 14.639.551 14.39.509-.097 2.67-4.372 4.802-9.5 3.811-9.166 20.504-40.533 23.963-45.028 1.749-2.274 1.766-2.243 1.788 3.436.012 3.153-.421 8.778-.962 12.5a742.758 742.758 0 00-1.97 14.979c-.823 6.857-2.107 11.258-4.827 16.54-.212.413.729.75 2.091.75 3.875 0 4.9 4.76 2.164 10.05-.839 1.622-2.189 2.95-3 2.95-.885 0-1.474.949-1.474 2.378 0 3.505-2.813 9.622-4.424 9.622-.769 0-2.337 1.913-3.486 4.25-1.149 2.338-5.983 9.425-10.743 15.75-9.575 12.723-15.698 24.375-15.842 30.15-.052 2.075-.472 4.128-.932 4.562-.461.433-.61-2.183-.332-5.814.567-7.419 3.539-14.246 9.844-22.615l3.93-5.216-4.494-13.45c-8.396-25.131-14.197-61.324-13.245-82.642.655-14.674 6.983-42.606 11.839-52.259 3.43-6.818 9.779-15.865 14.714-20.966C67.357 7.138 69.07 5 68.636 5c-1.258 0-12.349 8.8-19.376 15.373C37.846 31.051 32.288 40.268 27.477 56.5l-2.371 8-.097-5.5-.097-5.5-2.047 3.88c-5.816 11.028-9.258 37.389-7.308 55.964l.857 8.156-2.457-4.5-2.457-4.5-.285 10.856c-.18 6.876.314 14.209 1.348 20 2.259 12.652 2.265 12.593-.813 8.149L9 147.536l.017 8.482c.021 10.097 2.094 20.69 5.328 27.232 1.292 2.613 2.177 4.75 1.967 4.75-.21 0-1.565-.775-3.011-1.723l-2.63-1.722.694 2.763c2.853 11.366 8.165 19.707 17.905 28.116 6.354 5.486 16.961 13.54 17.851 13.555.342.006.946-4.139 1.343-9.212.449-5.744 1.629-11.636 3.129-15.619 2.901-7.707 2.899-7.686.464-6.002-1.205.834-.655-.41 1.45-3.28 1.865-2.542 4.095-4.893 4.954-5.223 1.4-.537 1.395-.276-.045 2.51-4.368 8.447-6.609 16.759-7.95 29.492-.767 7.281-2.047 14.799-2.843 16.706-.797 1.907-3.965 6.204-7.039 9.548-7.004 7.618-12.972 16.889-20.167 31.328-5.984 12.009-10.476 17.611-16.917 21.098l-4 2.165 5 .261c7.206.377 8.973.925 12.467 3.864 3.933 3.31 6.271 7.981 8.448 16.875 2.408 9.84 5.34 14.26 14.677 22.133 9.584 8.079 15.259 15.556 17.018 22.42.698 2.721 1.555 4.947 1.905 4.947.35 0 1.351-5.062 2.224-11.25 1.911-13.545 4.956-22.197 9.247-26.277 2.536-2.411 3.312-4.119 3.819-8.404.809-6.829 4.174-11.763 12.686-18.601 11.284-9.065 16.216-11.626 21.712-11.275 4.291.275 4.822.571 5.037 2.807.133 1.375.49 4.075.794 6 .304 1.925.794 5.044 1.089 6.931.397 2.542.77 3.06 1.441 2 .6-.948.912.594.924 4.569.014 4.195.616 6.978 2.001 9.25 2.296 3.766 4.093 4.245 3.749 1-.168-1.59.395-1.076 1.92 1.75 2.39 4.428 7.974 10.201 8.937 9.238.339-.339-.077-2.556-.925-4.927-2.388-6.672-6.655-29.479-6.666-35.62-.006-3.213 1.694-1.842 2.55 2.056.782 3.559 3.388 7.65 4.946 7.763.55.039 2.008 2.191 3.24 4.781 3.086 6.489 8.935 13.12 10.07 11.417.628-.944 1.624-.189 3.696 2.801C154.596 333.468 165.53 344 167.07 344c.525 0-.253-1.912-1.73-4.25-8.182-12.949-18.702-41.256-21.44-57.688-1.607-9.643-3.712-16.49-6.199-20.16-3.07-4.531-4.389-4.668-3.891-.405.458 3.926-1.092 6.503-3.913 6.503-5.744 0-2.439-21.711 4.409-28.967 1.787-1.893 2.694-3.947 2.694-6.103 0-3.043.194-2.862 3.047 2.848 2.726 5.456 8.715 12.222 10.817 12.222.437 0 .759-1.012.715-2.25-.068-1.934.166-1.802 1.668.944C155.453 250.729 164.79 262 165.925 262c.469 0 .79-.667.714-1.483-.076-.815 1.851 1.227 4.283 4.539 5.897 8.031 14.68 16.865 14.263 14.347-.926-5.59-.682-5.83 2.169-2.138 1.569 2.032 3.894 6.256 5.165 9.385l2.313 5.689 1.584-3.792c.871-2.085 1.584-3.998 1.584-4.25 0-.252 1.665-2.966 3.699-6.031 3.767-5.675 5.717-5.905 2.836-.334-.872 1.687-1.176 3.068-.675 3.068 1.449 0 12.497-12.231 16.235-17.972 2.155-3.311 3.283-4.42 3.073-3.019-.182 1.216.093 2.05.611 1.852 1.309-.501 8.894-9.416 12.082-14.199 1.877-2.816 2.549-3.34 2.326-1.811-.172 1.182.07 2.149.538 2.149 1.984 0 7.486-5.903 10.253-11 2.266-4.174 2.99-4.932 3.004-3.144.01 1.331 1.15 3.246 2.619 4.402 6.762 5.319 11.286 29.742 5.509 29.742-3.068 0-5.452-3.54-4.749-7.053.446-2.234.272-2.994-.62-2.704-2.629.856-5.982 9.232-8.403 20.997-4.114 19.99-12.839 44.954-19.956 57.097-1.906 3.251-3.559 6.319-3.673 6.817-.538 2.336 8.805-5.851 13.51-11.838 3.108-3.955 5.276-5.998 5.278-4.974.002 1.46.254 1.531 1.58.447 2.223-1.818 7.35-8.704 9.257-12.433.884-1.729 2.971-4.507 4.637-6.173 1.768-1.768 3.029-4.077 3.029-5.547 0-1.385.45-2.796 1-3.136 1.75-1.082 1.11 7.923-1.523 21.426-1.388 7.117-3.194 14.545-4.013 16.507-.82 1.962-1.069 3.567-.554 3.567 1.946 0 6.963-5.165 8.986-9.252 1.656-3.346 2.103-3.753 2.103-1.915.001 1.417.492 2.174 1.251 1.926 2.018-.657 4.081-5.861 4.555-11.492.242-2.879.835-4.99 1.317-4.691.483.298.897-1.172.92-3.267.024-2.095.618-6.284 1.321-9.309l1.278-5.5 4.43-.281c5.745-.365 14.281 4.541 24.563 14.118 6.027 5.613 7.611 7.748 8.853 11.931.832 2.802 1.513 6.128 1.513 7.39 0 1.314 1.017 2.963 2.38 3.855 4.758 3.118 10.62 21.937 10.62 34.097 0 5.583 1.588 5.656 3.046.14 1.78-6.738 6.499-13.156 15.807-21.502 12.554-11.255 13.229-12.258 16.693-24.828 4.122-14.958 7.397-18.409 18.365-19.353l6.589-.567-4.655-2.737c-6.175-3.629-9.46-7.998-16.323-21.701-6.733-13.447-12.525-22.463-19.311-30.062-2.701-3.025-5.634-6.902-6.518-8.617-1.9-3.686-3.675-13.808-3.685-21.019-.008-5.414-3.577-17.406-7.696-25.864l-2.435-5 5.161 5.5c2.838 3.025 4.441 5.133 3.561 4.685-2.082-1.061-2.022-.295.538 6.85 1.176 3.281 2.483 9.934 2.905 14.786.422 4.852 1.007 9.062 1.301 9.356.294.294 3.375-1.623 6.846-4.259 17.216-13.074 23.04-19.855 27.42-31.923 1.351-3.72 2.255-6.964 2.01-7.209-.245-.245-1.663.352-3.151 1.327l-2.705 1.773 2.042-4.003c3.446-6.755 5.43-16.296 5.566-26.769l.129-9.886-3 4.383-3 4.383 1.201-4.997c2.117-8.808 3.411-21.743 3.101-30.997l-.302-9-2.5 4.992c-1.83 3.653-2.453 4.323-2.323 2.5 1.727-24.297 1.289-33.83-2.181-47.495-3.151-12.41-7.914-22.708-6.711-14.509.241 1.643.123 3.78-.263 4.75-.484 1.215-1.299-.561-2.625-5.717-4.776-18.576-15.326-32.673-35.397-47.303l-5-3.644 6 7.493C338.497 26.3 342.448 35.252 347.992 59c5.139 22.013 4.573 42.873-2.089 77-2.441 12.503-6.973 28.75-10.309 36.962l-2.409 5.927 4.367 5.624c5.175 6.663 8.959 14.371 9.917 20.195.798 4.846-.167 9.398-1.526 7.201-.472-.765-.423-1.612.112-1.943 1.403-.867-1.727-10.54-5.497-16.988-1.775-3.037-6.737-10.237-11.027-16-4.289-5.763-8.712-12.357-9.828-14.654-1.116-2.297-2.851-4.391-3.854-4.653-2.109-.552-3.849-4.501-3.849-8.736 0-1.891-.513-2.935-1.443-2.935-2.273 0-4.557-4.093-4.557-8.163 0-3.981 1.335-5.479 4.426-4.969 1.81.298 1.831.173.348-2.091-.868-1.324-2.084-4.178-2.702-6.342-1.555-5.447-3.417-23.222-3.502-33.435l-.07-8.5 9.242 16.593c9.335 16.76 15.955 30.28 18.193 37.157 3.166 9.731 5.456-2.292 2.405-12.625-.393-1.33-.189-1.65.7-1.1 1.752 1.083.761-7.214-1.374-11.493-1.363-2.731-1.384-3.138-.137-2.659 2.984 1.145.53-8.44-3.222-12.586-1.492-1.649-1.486-1.787.075-1.787 2.639 0-5.216-10.953-15.26-21.278-8.258-8.489-8.503-8.875-7.429-11.719.928-2.459.721-3.885-1.268-8.721-2.142-5.209-2.38-7.294-2.401-21.032-.013-8.387-.154-15.25-.313-15.25-.158 0-2.053.9-4.211 2-4.983 2.541-5.46 2.516-9.905-.5-2.314-1.57-5.082-2.5-7.444-2.5-2.499 0-5.418-1.054-8.705-3.141-2.72-1.728-8.433-5.073-12.696-7.433L253 .135l-.011 4.682m70.485 228.933c3.378 3.163 7.844 7.038 9.922 8.613 4.365 3.306 14.014 15.968 19.104 25.071 6.661 11.911 9.232 22.884 5.99 25.574-2.36 1.959-9.199.556-13.348-2.739-2.003-1.591-6.117-4.302-9.142-6.025-7.773-4.428-22-17.004-22-19.447 0-.228 2.625-2.113 5.834-4.19 5.502-3.56 9.166-7.832 9.166-10.686 0-.734-1.072-.263-2.539 1.115-2.024 1.902-3.597 2.377-7.762 2.343-6.461-.053-10.976-1.121-10.181-2.408.33-.534 1.425-.971 2.433-.971 1.767 0 1.765-.134-.059-3.711-1.041-2.042-1.892-4.981-1.892-6.533 0-5.562 3.822-11.606 7.415-11.726.503-.016 3.68 2.558 7.059 5.72m-246.063-2.673c2.063 2.452 2.589 4.139 2.589 8.309 0 3.052-.612 6.04-1.468 7.173-1.998 2.642-1.89 3.441.468 3.441 2.135 0 2.685 1.459.953 2.529-.576.356-3.876.692-7.333.746-5.024.079-6.923-.354-9.453-2.156-1.742-1.24-3.165-1.887-3.163-1.437.01 2.279 4.496 7.672 8.39 10.089 2.419 1.501 5.233 3.248 6.252 3.883 1.7 1.057 1.355 1.666-4.146 7.315-3.3 3.389-8.925 8.074-12.5 10.412-3.575 2.337-7.786 5.12-9.357 6.184-7.389 5.004-10.411 6.403-13.858 6.419-6.866.03-7.304-5.173-1.547-18.393 4.925-11.31 14.921-25.699 22.417-32.269 3.654-3.202 8.713-7.896 11.244-10.431 2.531-2.535 5.348-4.672 6.262-4.75.914-.077 2.826 1.244 4.25 2.936m207.29-172.398c3.253 3.971 3.352 4.32 1.992 7-2.27 4.471-3.163 24.927-1.322 30.271 1.262 3.665 1.284 4.654.138 6.44-1.066 1.662-1.423 10.717-1.681 42.668l-.328 40.559 2.847 4.316 2.847 4.317-1.612 5.743c-.886 3.159-2.658 11.974-3.936 19.589l-2.325 13.845-2.798-14.963c-1.538-8.23-3.398-16.982-4.133-19.449-1.267-4.253-1.207-4.672 1.16-8.087 1.373-1.981 2.877-4.929 3.342-6.55.465-1.621.468-20.427.008-41.791-.664-30.771-1.132-39.293-2.256-41.008-1.232-1.879-1.222-2.425.072-4.122 2.481-3.256.567-33.833-3.314-52.957-.481-2.373.278-1.642 3.634 3.5 2.333 3.575 5.782 8.381 7.665 10.679M111.89 79.693c-.867 12.303-.789 14.601.58 17.248 1.383 2.675 1.401 3.334.144 5.307-1.172 1.837-1.498 9.707-1.775 42.752l-.339 40.5 3.039 4.5c2.849 4.219 2.965 4.749 1.86 8.5-.648 2.2-2.431 10.634-3.963 18.743-1.531 8.108-2.927 14.599-3.102 14.425-.174-.175-1.245-5.78-2.379-12.456-1.134-6.677-2.88-15.092-3.881-18.702-1.775-6.4-1.773-6.623.08-8.978 4.842-6.156 4.882-6.664 3.857-48.599-.754-30.853-1.26-39.663-2.372-41.362-1.208-1.843-1.212-2.435-.027-4.056 2.036-2.784 1.907-24.635-.182-30.765l-1.569-4.607 4.5-5.526c2.476-3.039 5.77-7.671 7.32-10.294l2.819-4.769-1.805 11.973c-.992 6.585-2.255 18.36-2.805 26.166m217.655 125.393c3.297 6.377 6.016 26.914 3.563 26.914-1.834 0-10.928-9.102-12.588-12.599-2.078-4.379-1.494-8.331 2.016-13.635 3.027-4.573 4.901-4.755 7.009-.68m-263.844-.836c5.277 5.794 5.805 12.372 1.473 18.35-2.552 3.521-9.185 9.4-10.607 9.4-1.196 0-.494-13.497 1.007-19.356C59.159 206.453 61.366 202 62.849 202c.441 0 1.725 1.013 2.852 2.25M321.5 189c.848 3.859-.231 8.768-2.692 12.25-2.572 3.638-3.274 3.477-4.634-1.063-1.289-4.304-.299-9.287 2.451-12.325 2.433-2.689 4.121-2.295 4.875 1.138m-250.045-2.379c3.78 1.451 5.648 9.349 3.528 14.923-.863 2.271-1.249 2.48-2.566 1.388-3.695-3.067-5.267-9.16-3.787-14.682.676-2.522.605-2.481 2.825-1.629" fill="#FFB200FF" stroke="#FFB200FF"/><path d="M167.709 55.744c-1.987 4.266-4.492 10.906-5.567 14.756-1.075 3.85-2.697 8.446-3.603 10.214-2.096 4.084-3.111 15.895-1.944 22.614.827 4.761.78 4.993-.589 2.922-2.132-3.226-3.007-2.788-3 1.5.007 5.195 1.765 11.019 4.571 15.149 2.675 3.936 2.545 4.772-.491 3.147-1.168-.625-2.086-.704-2.086-.18 0 1.95 9.144 12.975 17.943 21.634 10.673 10.503 14.568 17.274 13.809 24.005-.294 2.611.037 4.854.89 6.02 1.908 2.61 1.732 7.394-.302 8.175-2.064.792-5.265-2.939-9.612-11.2-2.503-4.756-3.229-5.545-3.505-3.805-.191 1.207.12 3.887.691 5.955.738 2.675.723 3.957-.055 4.437-1.376.851.358 6.656 3.771 12.623 4.614 8.068 12.102 23.828 13.84 29.13.963 2.937 2.118 4.962 2.568 4.5.449-.462 1.967-3.911 3.372-7.664 1.406-3.753 5.714-12.911 9.573-20.352 6.292-12.132 8.793-19.54 6.017-17.824-1.232.761-1.324-.749-.124-2.05.481-.522 1.168-3.425 1.526-6.45l.651-5.5-3.625 6.5c-3.905 7.003-8.072 12-10.008 12-2.257 0-2.481-3.299-.496-7.311 1.529-3.09 1.737-4.454.914-5.992-1.204-2.249.205-8.238 2.97-12.625.891-1.414 6.362-7.561 12.156-13.658 5.795-6.098 12.075-13.253 13.957-15.902l3.421-4.815-2.671.671c-3.317.832-3.314.561.054-4.529 2.165-3.272 2.807-5.58 3.12-11.228l.395-7.111-2.127 1.912-2.128 1.911.758-3.411c1.555-7.007.282-21.713-2.091-24.15-.675-.694-1.774-3.662-2.442-6.596-1.495-6.572-5.74-17.5-8.585-22.105-2.375-3.843-2.374-3.998-.062 8.439 2.043 10.99 1.475 31.94-1.099 40.5-.909 3.025-5.407 12.7-9.995 21.5-5.113 9.807-9.343 19.46-10.928 24.939-2.667 9.219-3.541 11.215-3.541 8.085 0-5.931-6.15-21.093-15.268-37.639-7.919-14.371-8.925-18.194-9.479-36.008-.378-12.16-.115-17.45 1.184-23.864.918-4.532 1.493-8.416 1.277-8.632-.216-.216-2.018 3.097-4.005 7.363" fill="#FFB200FF" stroke="#FFB200FF"/><path d="M193.586 15.066c-.971 7.318-5.137 19.973-10.021 30.442l-4.202 9.008 1.792 3.992c2.365 5.266 2.305 9.638-.174 12.789l-2.02 2.567 3.011 5.925c2.35 4.624 12.028 38.303 12.028 41.857 0 2.431 2.047-2.093 3.46-7.646 6.31-24.801 7.822-29.798 10.518-34.776l3.027-5.589-2.202-2.345c-2.711-2.886-2.861-7.616-.415-13.042 1.771-3.927 1.764-4.014-.676-8.857-3.95-7.836-9.415-23.281-11.053-31.234-.832-4.039-1.71-7.542-1.952-7.784s-.747 1.87-1.121 4.693m41.847 276.137c-11.822 14.081-22.326 28.554-25.98 35.797-1.804 3.575-4.439 8.75-5.855 11.5-1.417 2.75-3.444 8.413-4.504 12.585-2.211 8.7-3.785 23.917-2.473 23.911.483-.002 1.747-2.139 2.808-4.75 1.143-2.813 4.661-7.596 8.64-11.746 9.937-10.365 17.928-23.785 8.931-15-6.986 6.822-4.305 1.695 3.301-6.313 6.675-7.027 7.741-8.76 12.426-20.187 5.225-12.744 11.893-33.713 11.003-34.603-.27-.27-4.004 3.692-8.297 8.806m-89.428-7.618c-.008 3.224 6.547 23.161 11.509 35.003 3.841 9.168 5.437 11.681 11.419 17.978 7.498 7.894 10.573 13.863 3.684 7.151-2.136-2.081-4.055-3.612-4.265-3.402-.918.918 9.721 15.575 13.448 18.526 2.657 2.105 5.404 5.802 7.769 10.457l3.659 7.202-.555-10c-.72-12.968-3.308-21.788-10.314-35.148-6.356-12.123-11.895-20.204-23.783-34.7-13.416-16.359-12.565-15.475-12.571-13.067m-78.786-48.688c-2.905 2.992-4.93 5.776-4.5 6.185C66.015 244.226 73.665 250 74.534 250c1.163 0 4.479-8.38 4.471-11.3-.007-2.641-2.761-7.519-4.765-8.442-1.332-.613-2.978.474-7.021 4.639m245.854-2.262c-2.614 3.322-2.644 8.509-.084 14.151l1.945 4.285 6.42-5.255 6.42-5.255-5.365-5.28c-2.952-2.905-5.793-5.281-6.315-5.281-.522 0-1.882 1.186-3.021 2.635m10.286-24.973c-2.618 6.229-2.266 10.649 1.185 14.913 1.653 2.043 4.082 4.429 5.397 5.302l2.392 1.588-.645-7.626c-.692-8.186-3.395-16.908-5.453-17.594-.726-.242-1.949 1.211-2.876 3.417M60.04 210.605c-1.136 3.678-2.03 9.329-2.018 12.75l.021 6.145 4.979-5.176c3.914-4.069 4.978-5.879 4.978-8.466C68 211.527 65.083 204 63.404 204c-.759 0-2.194 2.818-3.364 6.605" fill="#FFB200FF" stroke="#FFB200FF"/></svg>