<svg version="1.0" xmlns="http://www.w3.org/2000/svg" width="1993pt" height="2000pt" viewBox="0 0 1993 2000"><path d="M457 .777c0 .428.608 1.666 1.351 2.75.743 1.085 5.758 10.523 11.144 20.973s10.12 19.45 10.52 20c.4.55 5.577 10.45 11.506 22 5.928 11.55 11.1 21.45 11.493 22 .392.55 4.887 9.1 9.988 19s11.18 21.6 13.509 26c7.448 14.074 21.684 41.198 31.991 60.953l5.715 10.953-2.359 1.88a603.77 603.77 0 00-6.752 5.52 654.308 654.308 0 01-7.56 6.168c-17.136 13.67-63.057 59.603-79.88 79.9-2.109 2.544-5.484 6.618-7.5 9.053-2.016 2.435-4.13 4.91-4.697 5.5-.567.59-3.246 3.998-5.954 7.573-2.707 3.575-5.183 6.725-5.503 7-3.739 3.218-38.466 54.174-48.012 70.449-7.672 13.082-4.898 12.388-24.5 6.128-9.35-2.986-21.725-6.853-27.5-8.595-5.775-1.741-14.325-4.415-19-5.942-4.675-1.527-13.9-4.468-20.5-6.536-6.6-2.067-13.8-4.327-16-5.022-2.2-.695-6.7-2.046-10-3.002s-9.825-2.989-14.5-4.517c-4.675-1.529-13.225-4.217-19-5.975-5.775-1.757-14.325-4.445-19-5.973-4.675-1.528-11.2-3.571-14.5-4.541-3.3-.97-9.825-2.986-14.5-4.481a1510.18 1510.18 0 00-16-5.005 1111.724 1111.724 0 01-16-5.049c-4.675-1.519-13.9-4.408-20.5-6.42-6.6-2.011-15.047-4.591-18.771-5.734-7.659-2.349-9.379-1.982-4.522.964 1.811 1.099 12.743 7.748 24.293 14.776 11.55 7.027 22.009 13.272 23.242 13.876 1.233.605 2.246 1.437 2.25 1.849.004.413.423.75.931.75.507 0 5.795 2.99 11.75 6.643 5.955 3.654 12.402 7.532 14.327 8.618 1.925 1.085 4.694 2.82 6.154 3.856s3.148 1.883 3.75 1.883c.603 0 1.1.338 1.104.75.004.413 1.017 1.237 2.25 1.831 1.233.595 9.442 5.492 18.242 10.882s17.35 10.591 19 11.557c2.779 1.629 25.156 15.167 59 35.695 7.7 4.67 15.575 9.398 17.5 10.507 1.925 1.108 5.75 3.466 8.5 5.24 8.699 5.612 15.496 9.538 16.515 9.538.542 0 .985.45.985 1s.563 1.014 1.25 1.032c.688.017 2.095.671 3.127 1.453 2.025 1.533 1.856 2.277-3.078 13.515-3.378 7.696-4.329 9.99-9.326 22.5-5.117 12.811-17.664 49.866-21.077 62.25a968.88 968.88 0 01-1.821 6.5c-1.855 6.512-7.851 30.356-8.613 34.25-.431 2.2-.91 4.45-1.066 5-.155.55-.755 3.475-1.333 6.5a594.901 594.901 0 01-2.122 10.5c-.588 2.75-1.463 7.475-1.943 10.5a3288.76 3288.76 0 01-2.438 15c-2.234 13.568-3.387 21.612-4.101 28.616l-.624 6.116 8.952 17.884c8.669 17.317 12.616 24.803 14.176 26.884.412.55 2.099 3.475 3.749 6.5 7.587 13.907 9.749 17.44 26.312 43 9.197 14.193 32.583 46.926 35.007 49 .322.275 1.234 1.448 2.027 2.607 1.274 1.861 4.878 6.213 11.921 14.393 1.184 1.375 4.26 4.965 6.837 7.978 12.854 15.031 37.828 40.016 53.206 53.229 3.013 2.588 6.603 5.676 7.978 6.86 1.375 1.184 5.2 4.22 8.5 6.747 3.3 2.526 6.225 4.851 6.5 5.167 1.702 1.953 30.635 21.477 40.5 27.329 8.316 4.933 36.442 19.115 45.5 22.942 13.764 5.815 16.077 5.96 12 .748-1.076-1.375-1.966-2.792-1.978-3.148-.019-.567-3.52-6.723-9.31-16.372-1.956-3.258-20.098-39.939-23.731-47.98-3.987-8.823-6.383-14.623-9.705-23.5-13.974-37.329-19.786-56.411-27.26-89.5-2.318-10.265-3.992-8.453 14.746-15.964 9.206-3.691 20.915-8.471 26.02-10.623 5.105-2.152 9.497-3.913 9.761-3.913.263 0 2.386-.853 4.718-1.896 7.521-3.365 21.42-9.098 25.384-10.471l3.855-1.336 8.09 16.102c9.371 18.648 13.368 26.041 18.047 33.37 1.85 2.899 3.363 5.472 3.363 5.719 0 .247 2.089 3.726 4.641 7.731 2.553 4.004 5.916 9.306 7.474 11.781 1.558 2.475 3.233 4.978 3.723 5.563.49.585 1.443 2.093 2.116 3.351 4.786 8.944 37.635 51.915 52.429 68.586 14.088 15.875 37.057 39.059 50.117 50.587 2.75 2.427 5.225 4.639 5.5 4.915.499.5 3.393 2.937 12.469 10.498 9.376 7.812 11.071 9.155 14.531 11.516 1.925 1.313 3.725 2.656 4 2.984.275.328 2.075 1.678 4 3 1.925 1.322 3.725 2.693 4 3.046.882 1.133 32.265 21.504 39 25.314 16.475 9.322 48 23.884 48 22.173 0-.18-2.863-4.536-6.361-9.68-22.901-33.67-40.997-73.175-51.696-112.853a936.938 936.938 0 00-2.056-7.5c-2.876-10.235-5.904-27.587-8.811-50.5-.593-4.675-1.078-19.045-1.077-31.934l.001-23.434 9.75 9.399c21.958 21.169 28.274 27.046 39.25 36.519 6.325 5.459 11.725 10.176 12 10.482 1.008 1.124 23.388 18.623 30.338 23.722 23.887 17.525 53.485 35.757 55.224 34.017.302-.302-2.309-4.987-5.803-10.41-3.495-5.424-8.109-13.011-10.255-16.861-4.127-7.405-15.504-30.167-15.504-31.019 0-.277-.849-2.41-1.887-4.742-4.591-10.311-8.915-23.074-13.126-38.739-3.433-12.769-4.752-40.297-2.486-51.864 2.281-11.646 9.163-21.591 18.131-26.204 4.096-2.106 6.077-2.43 14.798-2.417 7.156.011 11.511.537 15.049 1.816 6.107 2.209 17.592 8.179 20.154 10.476 1.038.931 4.133 3.456 6.877 5.61 19.276 15.134 38.424 42.845 52.228 75.583 9.895 23.469 13.632 36.284 21.36 73.25a540.81 540.81 0 002.022 9.25c.509 2.2 1.633 8.5 2.497 14 .865 5.5 1.962 12.25 2.438 15 2.432 14.055 4.238 26.428 5.984 41 2.078 17.344 3.011 25.387 4.003 34.5.568 5.225 1.238 11.3 1.489 13.5.451 3.962 2.977 31.437 3.953 43 3.494 41.4 6.345 81.825 6.478 91.863l.038 2.863-15.25-.665c-8.387-.366-16.487-.902-18-1.193-4.366-.837-3.195.793 4.032 5.609 3.695 2.463 6.943 4.739 7.218 5.058.275.32 4.668 3.447 9.763 6.95l9.263 6.369 4.237-2.348c2.33-1.291 6.856-4.071 10.058-6.177 3.201-2.106 6-3.829 6.219-3.829.219 0 3.788-2.213 7.93-4.917 4.143-2.705 8.095-5.118 8.781-5.363 3.353-1.198-1.128-1.329-15.557-.455-8.694.526-16.007.755-16.253.509-.422-.422 1.103-34.113 1.981-43.774.225-2.475.707-9.45 1.07-15.5.363-6.05.849-13.25 1.081-16 1.668-19.843 2.638-31.907 3.016-37.5.636-9.397 3.466-35.499 5.421-50 .482-3.575 1.386-11 2.009-16.5 1.158-10.231 3.648-28.45 4.988-36.5.412-2.475 1.25-7.65 1.862-11.5.612-3.85 1.336-8.238 1.61-9.752.273-1.514.98-5.564 1.57-9 1.114-6.491 4.519-23.298 6.127-30.248a348.09 348.09 0 001.823-8.5c.494-2.475 1.854-7.65 3.024-11.5 1.169-3.85 3.048-10.14 4.174-13.978 8.334-28.393 26.543-63.418 43.446-83.563 15.405-18.361 29.755-29.302 47.357-36.106 4.857-1.877 22.443-1.798 27 .121 9.796 4.127 16.986 14.49 19.614 28.272 6.649 34.865-9.804 89.304-42.847 141.769-3.632 5.767-6.256 10.613-5.831 10.77 2.763 1.018 34.848-19.028 57.064-35.651 11.553-8.645 13.349-10.059 19.929-15.69 1.964-1.681 4.921-4.082 6.571-5.336 3.032-2.304 8.553-7.073 24.978-21.573 4.962-4.381 15.391-14.205 23.175-21.832l14.154-13.867.725 8.704c1.215 14.586-.362 40.073-4.139 66.887-1.811 12.859-10.279 46.819-14.855 59.573-4.63 12.904-6.705 18.359-8.653 22.739-1.037 2.332-1.885 4.428-1.885 4.658 0 2.106-18.893 39.833-20.25 40.436-.412.184-.75.716-.75 1.184 0 1.133-5.079 9.384-12.82 20.829-3.477 5.14-6.054 9.613-5.726 9.941.961.961 7.007-1.511 24.046-9.832 17.405-8.499 25.813-13.034 26.333-14.205.184-.412.731-.75 1.217-.75.773 0 11.742-6.632 14.45-8.737.55-.427 4.15-2.799 8-5.27 9.768-6.27 34.519-25.006 43.5-32.928 4.125-3.639 9.075-7.895 11-9.457 10.642-8.639 44.905-43.826 58.043-59.608 3.434-4.125 7.642-9.117 9.35-11.093 16.826-19.461 49.508-67.566 63.798-93.907 6.549-12.072 7.233-13.034 8.809-12.395.825.335 4.65 1.426 8.5 2.423 11.606 3.009 34.058 9.201 43 11.86 1.65.491 7.725 2.093 13.5 3.56 11.213 2.85 16.692 4.299 21.5 5.69 1.65.477 5.588 1.573 8.75 2.436 6.075 1.657 6.747 2.707 4.878 7.629-.48 1.263-1.34 3.872-1.911 5.797-5.984 20.158-17.277 52.194-22.914 65a704.109 704.109 0 00-2.816 6.5c-5.211 12.253-20.75 44.196-25.783 53-10.183 17.815-14.465 25.222-15.726 27.205-.771 1.212-1.127 2.479-.791 2.816.649.649 25.937-11.645 27.813-13.521.275-.275 2.911-1.791 5.858-3.368 7.176-3.842 28.074-17.097 36.142-22.925 3.575-2.582 7.597-5.485 8.938-6.451 6.091-4.387 30.154-24.13 35.551-29.167 15.723-14.675 35.495-35.135 44.084-45.618 3.892-4.75 4.126-5.432 5.251-15.318.648-5.691 1.429-10.753 1.736-11.25.307-.497 2.5-.903 4.874-.903 8.289 0 10.142-.854 13.793-6.356 7.501-11.308 10.773-16.661 10.773-17.629 0-.558.45-1.015 1-1.015s1-.417 1-.927c0-.509 2.303-4.672 5.117-9.25 2.815-4.577 5.402-8.998 5.75-9.823.348-.825 2.821-5.462 5.494-10.305 2.674-4.843 4.698-8.97 4.497-9.17-.2-.2-3.962-1.069-8.361-1.932-7.855-1.54-9.466-1.844-18.497-3.495-2.475-.452-8.887-1.659-14.25-2.681l-9.75-1.858-.009-5.529c-.011-6.681-1.784-41.067-2.403-46.589a887.705 887.705 0 01-1.069-10.441c-1.427-14.757-2.955-25.889-6.108-44.5-3.462-20.432-3.297-19.554-5.537-29.5-.558-2.475-1.461-6.525-2.007-9a300.08 300.08 0 00-1.89-8c-.493-1.925-1.619-6.425-2.502-10-.883-3.575-2.467-9.977-3.52-14.227-1.804-7.283-3.542-13.156-8.073-27.273a665.253 665.253 0 01-2.975-9.5c-.578-1.925-1.918-5.862-2.978-8.75a5400.004 5400.004 0 01-4.026-11c-1.154-3.162-2.468-6.65-2.92-7.75-.453-1.1-2.054-5.375-3.559-9.5-1.505-4.125-3.739-9.75-4.964-12.5-1.226-2.75-3.687-8.375-5.469-12.5-4.167-9.646-23.686-49.388-28.732-58.5-11.868-21.434-27.671-46.771-41.787-67-2.687-3.85-5.145-7.225-5.462-7.5-.318-.275-2.784-3.65-5.48-7.5-4.204-6.004-28.785-37.056-30.477-38.5-.322-.275-1.876-2.075-3.455-4-11.319-13.807-44.685-48.037-62.598-64.22-11.681-10.553-21.411-18.485-20.89-17.029.215.598 6.915 7.781 14.89 15.962 7.975 8.181 17.2 17.971 20.5 21.754 3.3 3.784 6.473 7.364 7.051 7.956 1.255 1.285 20.02 24.947 23.112 29.142 1.189 1.614 3.678 4.96 5.531 7.435 5.589 7.468 24.806 36.891 24.806 37.983 0 .559.45 1.017 1 1.017s1 .413 1 .917c0 .505 2.095 4.442 4.656 8.75 7.995 13.452 11.205 19.394 18.275 33.833 8.492 17.342 13.667 28.49 16.245 35 1.089 2.75 2.572 6.35 3.295 8 3.144 7.175 9.683 25.07 13.884 38 9.55 29.388 13.076 42.771 18.575 70.5 5.334 26.896 6.198 32.691 10.087 67.729.563 5.076 1.291 21.951 1.617 37.5.71 33.845-.765 63.977-4.564 93.271-1.747 13.466-4.784 31.547-5.403 32.167-.376.376-5.658 1.371-17.667 3.33-3.025.493-10.9 1.845-17.5 3.003-6.6 1.158-14.7 2.548-18 3.088-12.627 2.068-17.372 2.871-29 4.912-6.6 1.158-14.475 2.512-17.5 3.008a757.47 757.47 0 00-9.242 1.577l-3.742.674 5.378-11.379c8.276-17.51 10.606-22.828 10.606-24.21 0-.698.38-1.697.844-2.22.464-.522 1.858-3.65 3.098-6.95 1.239-3.3 2.622-6.9 3.072-8 1.618-3.948 6.95-21.418 8.892-29.133 7.629-30.307 8.47-34.972 12.105-67.176 1.204-10.665 1.188-55.482-.023-65.191-.446-3.575-1.317-11.225-1.936-17-1.184-11.046-1.944-15.526-5.26-31-5.753-26.845-11.081-45.575-17.778-62.5-9.873-24.948-13.84-34-21.693-49.5-12.237-24.153-23.685-44.253-28.325-49.733-.574-.679-2.023-2.929-3.22-5-1.803-3.122-5.729-8.807-9.511-13.771-.421-.552-2.789-3.702-5.262-7-2.474-3.298-4.727-6.221-5.006-6.496-.28-.275-1.847-2.3-3.484-4.5-3.329-4.476-14.605-16.661-24.524-26.5-40.091-39.769-86.391-71.539-138.489-95.024-5.127-2.311-11.946-4.975-26-10.158-32.089-11.833-63.268-18.846-64.773-14.568-.814 2.313 1.326 6.071 7.567 13.291 3.413 3.948 7.781 9.114 9.706 11.479 3.518 4.322 19 26.629 19 27.376 0 .22 1.781 3.332 3.958 6.915 5.544 9.125 11.306 21.085 17.193 35.689 5.012 12.434 6.415 16.41 8.821 25 .693 2.475 1.627 5.625 2.076 7 8.097 24.811 11.583 82.521 6.463 107-.287 1.375-.994 5.425-1.571 9-1.413 8.769-7.193 25.725-12.098 35.494-14.573 29.021-39.112 48.449-71.342 56.482-9.26 2.307-31.276 2.797-39.236.872-23.227-5.617-50.009-20.436-66.337-36.707-13.041-12.995-18.537-21.882-24.322-39.327-7.207-21.731-8.778-37.579-5.731-57.814 4.011-26.631 18.679-56.651 35.638-72.936 3.568-3.426 6.488-6.614 6.488-7.082 0-.791-6.519 1.944-21.687 9.099-3.403 1.606-6.428 2.919-6.722 2.919-.294 0-4.811 2.025-10.037 4.5-5.227 2.475-9.717 4.5-9.979 4.5-.262 0-4.661 1.975-9.776 4.388-13.619 6.428-22.868 10.612-23.453 10.612-.439 0-11.788 5.163-31.846 14.487-5.667 2.634-10.082 4.61-23.167 10.367-19.781 8.703-26.019 12.987-30.066 20.646-5.567 10.537 4.46 37.964 19.309 52.813 6.606 6.606 7.622 6.335 4.924-1.313-2.065-5.854-1.88-10.213.664-15.625 3.052-6.493 6.58-8.367 15.765-8.371 4.086-.002 8.811.429 10.5.958 1.689.528 6.845 1.891 11.457 3.029 9.839 2.425 13.392 4.673 16.254 10.284 1.767 3.464 2.012 5.288 1.565 11.665-.698 9.956-1.776 13.201-7.544 22.696-5.519 9.087-6.912 10.909-13.204 17.271-9.177 9.279-19.989 16.472-40.457 26.915-28.847 14.718-50.607 16.842-78.078 7.62-19.505-6.548-38.134-19.702-50.191-35.442-2.317-3.025-4.667-6.044-5.222-6.708-.555-.664-1.009-1.408-1.009-1.654 0-.245-1.567-3.218-3.482-6.607-1.916-3.388-4.141-8.044-4.946-10.346-.804-2.302-2.436-6.885-3.626-10.185-2.876-7.976-4.435-14.343-5.877-24-.657-4.4-1.616-10.737-2.132-14.082-2.064-13.395-.407-59.839 2.443-68.446.268-.81.719-3.497 1.003-5.972 1.151-10.04 11.802-45.83 17.124-57.542 6.08-13.379 10.467-22.021 15.925-31.369 8.632-14.787 8.973-15.359 9.846-16.538a8329.02 8329.02 0 0013.524-18.38c2.451-3.361 7.064-8.785 11.965-14.07 11.707-12.625 4.282-14.275-26.767-5.946-11.81 3.168-21.969 6.299-25.5 7.86-1.1.486-4.063 1.551-6.585 2.367-17.898 5.787-48.941 20.134-68.696 31.749-4.554 2.678-8.494 4.869-8.756 4.869-.892 0-26.943 17.384-34.463 22.996-21.198 15.823-30.027 23.154-44.666 37.087-2.841 2.704-5.374 4.917-5.629 4.917-.254 0-1.047-1.462-1.761-3.25-.714-1.787-2.286-5.5-3.494-8.25-1.208-2.75-3.866-9.05-5.907-14a1105.41 1105.41 0 00-7.195-16.985l-3.484-7.985 12.823-12.515c16.094-15.708 34.349-31.678 49.74-43.515a7283.31 7283.31 0 008.487-6.542C753.009 167.844 798.21 138 800.433 138c.199 0 3.221-1.699 6.715-3.776 3.494-2.076 7.702-4.438 9.352-5.248 1.65-.81 3.225-1.721 3.5-2.024.275-.304 2.975-1.725 6-3.159 3.025-1.434 12.025-5.72 20-9.525 21.016-10.026 20.586-9.841 39.321-16.927 15.69-5.935 37.146-13.293 47.179-16.18 10.399-2.992 22.856-6.208 31.5-8.131 5.225-1.163 11.3-2.529 13.5-3.037 2.2-.508 6.7-1.428 10-2.046 3.3-.618 8.025-1.506 10.5-1.974 31.533-5.96 79.565-9.713 109.865-8.585 36.632 1.364 61.776 3.972 92.635 9.608 11.818 2.158 13.026 2.29 12 1.305-1.939-1.86-39.39-10.161-64.75-14.351-18.692-3.088-23.016-3.709-41.75-5.99-20.836-2.538-33.152-3.149-73.5-3.646-41.401-.51-55.435-.042-83 2.765-37.292 3.797-76.422 10.816-111 19.911-17.116 4.502-17.476 4.602-23 6.399-2.75.895-6.35 2.034-8 2.531-21.305 6.421-44.672 14.817-63.241 22.721-5.632 2.397-10.456 4.359-10.72 4.359-1.613 0-49.491 23.357-62.039 30.265-14.555 8.013-38.287 22.13-45.299 26.946l-4.298 2.952-81.624-81.582C495.385 36.712 458.282 0 457.827 0c-.455 0-.827.35-.827.777m963 337.106c19.377 12.805 49.632 36.692 51.944 41.012 1.718 3.211 5.306 19.671 6.562 30.105 2.499 20.763 1.321 59.521-2.478 81.5-1.055 6.105-1.505 8.458-4.492 23.5-2.475 12.465-6.718 27.229-7.559 26.304-.401-.442-1.984-3.054-3.516-5.804-9.191-16.493-11.806-20.978-17.494-30-13.147-20.854-23.787-35.877-38.76-54.724-9.779-12.309-11.207-13.775-11.207-11.5 0 .766-.848 4.056-1.885 7.309a791.747 791.747 0 00-3.672 11.915c-5.124 17.199-22.389 52.713-36.999 76.109-21.149 33.865-36.9 54.017-60.415 77.294-10.742 10.634-32.089 28.956-41.473 35.597a549.01 549.01 0 00-6.941 5.034c-2.263 1.669-7.715 5.493-12.115 8.497-4.4 3.005-8.595 6.027-9.321 6.716-.727.689-1.708 1.253-2.179 1.253-.471 0-1.452.563-2.179 1.25-.726.688-6.463 4.625-12.747 8.75s-11.909 7.965-12.5 8.533c-.591.568-2.649 2.109-4.574 3.424-5.546 3.789-18.22 13.264-21.435 16.024-8.214 7.051-22.457 20.186-22.741 20.971-.178.492-2.143 2.842-4.366 5.221-23.024 24.645-45.546 62.473-54.001 90.7-1.012 3.379-2.162 5.802-2.555 5.385-.393-.417-1.654-3.835-2.803-7.595-7.309-23.934-30.772-63.546-50.978-86.064-19.552-21.79-31.817-31.784-75.937-61.878-19.546-13.332-33.453-22.988-36.684-25.47-.55-.423-3.025-2.314-5.5-4.202-18.894-14.418-41.828-35.68-54.523-50.549-3.288-3.85-6.208-7.225-6.491-7.5-4.493-4.373-31.986-42.896-31.986-44.819 0-.558-.342-1.164-.76-1.348-.802-.351-10.336-16.133-15.52-25.689-13.738-25.326-26.698-56.868-30.229-73.573l-.619-2.93-2.52 2.93a3924.204 3924.204 0 01-5.547 6.429c-7.664 8.861-30.083 39.961-37.486 52a5860.636 5860.636 0 01-9.195 14.885c-2.86 4.611-7.469 12.595-10.243 17.741-2.775 5.146-5.406 9.581-5.848 9.854-.443.273-1.022-.511-1.289-1.742-.266-1.231-1.406-5.613-2.533-9.738-7.531-27.559-12.162-61.574-12.191-89.54-.022-20.776 1.582-35.631 5.552-51.436 2.177-8.664 2.786-9.885 6.748-13.524 7.884-7.242 21.937-18.53 31.124-25 3.123-2.2 8.385-5.942 11.692-8.316 6.788-4.872 28.78-18.184 30.04-18.184.453 0 .836 2.588.851 5.75.144 30.065 6.217 74.84 12.92 95.25.452 1.375 1.391 4.525 2.088 7 7.19 25.536 18.793 53.392 32.49 78 7.731 13.891 25.757 40.071 34.425 50 1.2 1.375 4.515 5.186 7.366 8.469 7.106 8.181 23.793 24.771 32.22 32.031 3.83 3.3 7.836 6.788 8.903 7.75 2.433 2.196 3.414 2.196 5.444 0 1.591-1.722 7.874-7.345 13.688-12.25 1.629-1.375 5.655-4.525 8.946-7 3.291-2.475 6.578-5.062 7.304-5.75.727-.687 1.708-1.25 2.179-1.25.471 0 1.452-.563 2.179-1.252 3.631-3.44 22.084-14.356 36.821-21.783 21.612-10.892 53.928-21.09 74.5-23.51 4.457-.525 3.915-.199-5 3.003-10.908 3.918-25.803 10.585-26.333 11.787-.184.415-.766.755-1.295.755-1.902 0-15.494 9.839-19.088 13.817-5.418 5.997-6.384 8.566-7.78 20.683-1.379 11.975-.838 48.839.889 60.5 2.422 16.359 6.346 33.874 10.005 44.658 2.86 8.43 3.433 9.284 12.305 18.342 15.855 16.187 23.812 25.811 35.879 43.396 10.42 15.184 15.931 24.577 24.555 41.846 3.775 7.558 7.167 13.633 7.54 13.5.372-.133 3.642-6.092 7.268-13.242 7.59-14.97 8.674-16.919 14.571-26.178 15.246-23.944 30.342-43.477 45.742-59.185 5.049-5.15 9.447-10.325 9.773-11.5a36.549 36.549 0 011.481-4.137c2.464-5.556 5.693-17.943 9.125-35 3.755-18.657 5.135-60.013 2.571-77-1.752-11.604-6.046-17.447-19.344-26.324-5.949-3.971-19.018-10.751-24.952-12.944-1.601-.592-6.737-2.452-11.412-4.134-7.29-2.623-7.987-3.061-4.899-3.078 1.98-.011 4.905.381 6.5.872 1.594.491 5.599 1.425 8.899 2.076 13.248 2.615 35.23 9.577 46.5 14.728 3.025 1.382 7.3 3.212 9.5 4.067 2.2.854 4.45 1.877 5 2.273.55.395 4.375 2.504 8.5 4.687 22.514 11.911 50.466 31.949 62.114 44.527 2.602 2.81 1.505 3.42 15.386-8.557 6.848-5.908 25.324-24.21 30.518-30.229 8.484-9.833 12.922-15.341 19.222-23.855 3.707-5.01 7.232-9.693 7.834-10.407 4.898-5.81 30.926-52.899 30.926-55.95 0-.483 1.186-3.324 2.635-6.315 3.735-7.706 10.678-27 14.193-39.437 5.14-18.183 6.894-25.445 8.215-34 .424-2.75 1.263-7.925 1.863-11.5 2.725-16.226 4.087-29.66 4.714-46.518l.678-18.209 7.101 4.006c3.906 2.203 12.276 7.425 18.601 11.604m89.385 79.367c9.322 9.468 24.995 33.043 35.734 53.75 5.589 10.777 17.12 41.873 19.838 53.5.643 2.75 1.571 6.575 2.062 8.5 3.465 13.579 5.904 32.143 6.863 52.236.991 20.761-.144 51.144-2.382 63.764-.146.825-.596 3.975-1 7-.736 5.523-1.846 11.09-4.982 25-3.682 16.331-14.419 45.288-23.174 62.5-3.95 7.767-10.094 14.5-13.23 14.5-3.165 0-4.158-3.108-5.212-16.3-2.073-25.956-5.069-46.428-9.909-67.7a1984.42 1984.42 0 01-1.797-8c-.55-2.475-1.97-7.875-3.156-12-1.185-4.125-2.999-10.425-4.029-14-2.764-9.588-9.151-28.029-13.89-40.11l-4.163-10.61 1.461-5.89c.804-3.239 2.432-9.715 3.619-14.39 1.187-4.675 2.295-9.175 2.461-10 .167-.825 1-4.875 1.851-9 .852-4.125 1.776-8.85 2.053-10.5.278-1.65 1.001-5.925 1.608-9.5 6.797-40.066 7.285-65.645 1.969-103.185-2.044-14.431.006-17.079 7.405-9.565m-848.96 2.269c-.042 3.289-.618 9.581-1.281 13.981-2.099 13.936-2.437 18.613-2.526 35-.105 19.35 1.356 38.077 4.329 55.5 3.141 18.406 4.147 23.925 5.009 27.5.53 2.2 2.865 11.749 5.189 21.221 3.389 13.815 4.008 17.671 3.133 19.5-3.903 8.157-14.24 37.173-17.734 49.779a1403.54 1403.54 0 01-4.537 16c-1.047 3.575-2.655 10.1-3.574 14.5l-2.606 12.5c-3.809 18.3-7.753 48.496-7.883 60.357-.208 18.925-9.307 15.981-20.24-6.549-8.254-17.007-9.2-19.293-13.59-32.821-2.229-6.868-4.492-13.837-5.029-15.487-1.734-5.322-5.274-21.767-8.072-37.5-4.29-24.123-4.038-74.322.52-103.313l.756-4.814 4.106.616c2.258.339 6.13 1.045 8.605 1.569 20.654 4.378 27.097 5.313 24.917 3.618-1.52-1.182-22.483-15.921-27.258-19.165-5.671-3.853-5.824-4.076-5.256-7.628.836-5.228 9.627-30.851 14.026-40.883 8.209-18.718 20.224-38.742 34.376-57.29 11.439-14.99 14.748-16.392 14.62-6.191M1477.052 665.5c.479 1.1 1.533 4.25 2.342 7 .809 2.75 2.366 7.925 3.459 11.5 2.826 9.246 4.629 16.712 7.485 31 2.338 11.696 3.089 16.516 5.652 36.291 1.352 10.431 1.287 46.767-.101 56.099-.611 4.109-1.849 8.298-2.75 9.307-.902 1.009-3.889 4.507-6.639 7.774-15.307 18.181-46.003 48.426-61.942 61.029-2.087 1.65-6.553 5.201-9.926 7.891l-6.132 4.891.5-8.891c1.313-23.345-.223-80.414-2.519-93.615-.218-1.252-.875-6.326-1.461-11.276-.587-4.95-1.753-12.756-2.593-17.346l-1.527-8.346 8.351-11.154c4.593-6.135 10.151-13.629 12.351-16.654 6.092-8.378 17.398-25.946 17.398-27.035 0-.531.45-.965 1-.965s1-.395 1-.879c0-.483 1.612-3.521 3.581-6.75 3.572-5.856 18.327-35.386 22.42-44.871l2.157-5 3.512 9c1.932 4.95 3.904 9.9 4.382 11m-771.529 7c8.321 17.128 23.824 43.667 28.227 48.321.688.727 1.25 1.708 1.25 2.179 0 .471.587 1.452 1.305 2.179.718.726 3.141 4.021 5.386 7.321 2.244 3.3 7.535 10.5 11.757 16 7.028 9.155 7.626 10.296 7.08 13.5-6.047 35.483-7.916 59.165-7.873 99.75.021 19.388-.165 35.25-.414 35.25-.486 0-7.141-5.122-11.241-8.652a4124.468 4124.468 0 00-11-9.387c-16.005-13.621-41.416-39.177-55.147-55.461l-7.588-9-1.133-9.068c-2.956-23.675-.793-57.483 5.885-91.978 4.138-21.372 11.703-46.186 19.631-64.389l1.496-3.434 2.545 5.934c1.4 3.264 5.825 12.685 9.834 20.935M525.344 531.511A3773.438 3773.438 0 01543 534.915a8819.505 8819.505 0 0018.882 3.724c2.263.442 2.349.738 1.734 5.975-.357 3.03-.9 8.744-1.208 12.698-.309 3.953-.977 10.776-1.484 15.162-1.2 10.359-1.19 46.465.016 57.458.517 4.713 1.459 13.518 2.095 19.568 1.6 15.235 6.167 38.178 10.649 53.5 3.738 12.773 10.418 32.31 13.763 40.25l1.58 3.75h-3.464c-1.906 0-5.624-.406-8.264-.903-2.639-.497-8.399-1.396-12.799-1.999-19.734-2.702-44.553-6.16-50.5-7.035a763.246 763.246 0 00-11.129-1.553c-4.534-.584-4.643-.683-5.318-4.803-.828-5.056-2.288-27.372-3.197-48.86-.843-19.953 1.424-61.258 4.713-85.847 2.202-16.465 4.39-30.332 5.917-37.5.468-2.2 1.386-6.7 2.04-10 2.146-10.835 4.236-19.5 4.704-19.5.252 0 6.379 1.13 13.614 2.511M636.583 287.75c2.701 2.063 5.514 4.319 6.251 5.015.736.696 2.988 2.493 5.003 3.994 2.014 1.501 3.888 2.96 4.163 3.241.275.281 2.3 1.835 4.5 3.453 2.2 1.618 4.225 3.214 4.5 3.547.275.333 2.182 1.869 4.238 3.413 4.083 3.065 4.052 3.421-.745 8.748-1.654 1.837-5.655 6.939-8.892 11.339-3.236 4.4-7.088 9.575-8.561 11.5-5.237 6.849-24.04 36.16-24.04 37.475 0 .176-1.728 3.179-3.841 6.673-8.733 14.445-25.924 51.275-31.672 67.852-1.43 4.125-3.009 8.4-3.509 9.5-.5 1.1-1.868 5.15-3.04 9-1.172 3.85-2.927 9.475-3.9 12.5-2.327 7.231-3.786 12.342-5.357 18.763l-1.288 5.263-7.446-5.178a3081.169 3081.169 0 00-16.94-11.661C535.205 484.81 526 478.098 526 477.599c0-1.545 6.671-20.172 13.466-37.602 8.518-21.848 24.568-55.053 36.975-76.497a21656 21656 0 007.517-13c1.576-2.73 20.281-31.245 23.615-36 3.98-5.676 14.028-19.165 15.11-20.283.682-.706 2.684-3.293 4.448-5.75 1.764-2.457 3.508-4.467 3.874-4.467.367 0 2.877 1.688 5.578 3.75m139.104 254c12.423 18.65 20.446 29.97 34.03 48.015 15.427 20.494 14.93 19.374 10.631 23.955-.634.675-2.2 2.926-3.481 5.003-1.28 2.078-3.012 4.576-3.848 5.553-6.147 7.187-24.139 41.79-30.532 58.724-.934 2.475-2.122 5.598-2.64 6.939l-.941 2.439-2.205-2.439c-1.212-1.341-4.903-6.039-8.202-10.439-3.3-4.4-6.258-8.225-6.574-8.5-.316-.275-2.449-3.2-4.738-6.5-2.29-3.3-5.622-8.025-7.404-10.5-4.673-6.489-15.335-24.119-20.561-34-2.473-4.675-5.486-10.3-6.696-12.5-4.771-8.676-4.747-9.208.794-17.5 6.236-9.334 19.569-26.704 26.098-34 12.14-13.565 20.014-22 20.538-22 .312 0 2.891 3.488 5.731 7.75m622.118-1.934c3.132 3.199 8.395 8.893 11.695 12.654 3.3 3.76 6.474 7.33 7.054 7.933 5.673 5.9 26.779 35.987 26.779 38.173 0 1.17-10.852 22.95-15.16 30.424-2.9 5.033-20.59 32.387-22.17 34.283-.558.669-5.815 7.487-11.683 15.151l-10.667 13.933-1.288-2.933c-4.152-9.458-5.365-12.393-5.365-12.975 0-.358-1.592-4.095-3.538-8.305-9.892-21.401-20.92-40.256-32.15-54.968l-3.352-4.391 3.27-4.291c6.007-7.884 21.071-27.938 25.195-33.542 2.241-3.046 8.8-12.598 14.575-21.226 5.775-8.629 10.637-15.699 10.805-15.712.168-.013 2.868 2.593 6 5.792M1315.886 656.5c7.429 10.839 15.006 26.13 20.562 41.5 3.417 9.451 9.552 30.816 9.552 33.264 0 2.236-5.866 8.071-30.393 30.236-4.538 4.101-15.52 12.5-16.344 12.5-.67 0-.839-6.757-.498-19.861.979-37.605-4.669-64.412-16.131-76.565l-3.458-3.667 14.162-14.422 14.162-14.422 1.794 2.219c.987 1.22 3.954 5.368 6.592 9.218m-434.889 19.003c-4.617 4.178-10.776 16.135-13.134 25.497-3.698 14.683-4.264 20.887-4.267 46.75-.002 14.438-.166 26.25-.365 26.25-.648 0-4.717-2.282-5.231-2.934-.275-.348-2.731-2.419-5.458-4.6-7.083-5.666-21.114-18.417-33.384-30.34l-3.473-3.374 1.2-5.126c2.605-11.137 8.912-31.001 12.238-38.541 1.112-2.522 2.664-6.047 3.449-7.835 3.668-8.348 4.992-11.032 7.277-14.75 5.057-8.226 9.718-15.077 11.9-17.49 1.238-1.369 2.251-2.935 2.251-3.479 0-.545 6.519 5.574 14.486 13.597 14.212 14.313 14.448 14.622 12.511 16.375m202.314-121.253a607.538 607.538 0 012.676 13.75c.64 3.575 1.556 8.525 2.036 11 .479 2.475 1.081 6.975 1.338 10 .258 3.025.938 9.55 1.513 14.5 1.79 15.419 2.004 18.46 2.707 38.5.609 17.336-1.159 55.309-3.119 66.993-.229 1.371-.663 5.196-.963 8.5-1.347 14.822-7.242 48.507-8.489 48.507-.639 0-2.062-6.815-5.012-24-1.488-8.664-2.824-18.627-4.024-30-.61-5.775-1.553-14.272-2.096-18.881-2.31-19.605-1.789-63.575 1.049-88.619.561-4.95 1.281-11.475 1.599-14.5.318-3.025.971-7.525 1.451-10 .479-2.475 1.354-7.2 1.943-10.5s1.748-9.469 2.576-13.708c.827-4.239 1.504-7.952 1.504-8.25 0-.298.405-.542.9-.542.494 0 1.579 3.263 2.411 7.25" fill="#FFB200FF" stroke="#FFB200FF"/><path d="M226.34 579.25c.296 18.838.99 38.75 1.543 44.25 1.575 15.673 4.17 35.949 6.015 47 .928 5.555 1.426 8.343 4.063 22.75 2.756 15.056 7.608 35.573 13.185 55.75l1.796 6.5c.456 1.65 3.758 11.775 7.339 22.5 8.173 24.483 12.261 35.214 20.953 55l3.515 8c7.61 17.317 23.081 47.058 32.252 62.002 2.75 4.48 4.999 8.315 4.999 8.522 0 .43 22.952 35.445 24.237 36.976.462.55 5.738 7.906 11.726 16.346 11.239 15.846 14.794 20.685 16.57 22.562.568.601 2.106 2.667 3.417 4.592 2.198 3.226 16.233 21.08 18.545 23.592.553.6 2.13 2.595 3.505 4.433 3.195 4.271 12.86 15.661 27.5 32.411 24.714 28.276 67.849 70.079 93.971 91.07 2.734 2.197 5.659 4.551 6.5 5.231 9.497 7.686 24.154 18.716 26.529 19.964 1.65.868 3.225 1.889 3.5 2.269.62.857 14.669 10.282 17.773 11.923 1.999 1.057 2.784.798 6.5-2.146 9.066-7.182 17.658-11.579 32.227-16.492 19.862-6.698 36.336-9.255 59.622-9.255 24.568 0 43.945 2.805 72.378 10.478 16.234 4.381 19.99 5.512 25 7.529 1.1.443 6.95 2.719 13 5.059 6.05 2.339 14.757 5.982 19.349 8.094 4.592 2.112 8.581 3.84 8.865 3.84 1.89 0 43.59 22.05 49.44 26.143 1.46 1.021 2.947 1.857 3.305 1.857.358 0 3.224 1.688 6.37 3.75 3.145 2.063 6.457 4.2 7.359 4.75 3.175 1.936 19.318 12.89 19.812 13.444.275.309 3.2 2.584 6.5 5.056s6.225 4.729 6.5 5.015c.275.286 4.1 3.485 8.5 7.109 10.939 9.011 27.35 25.48 35.686 35.81a2868.6 2868.6 0 008.285 10.237c.756.919 1.926 2.719 2.601 4 .675 1.281 1.573 2.558 1.995 2.837 1.005.665 7.19 11.525 11.978 21.032 4.693 9.319 9.214 22.967 11.001 33.21.744 4.263 1.717 7.75 2.164 7.75.446 0 2.719-.892 5.051-1.982 9.05-4.23 20.428-6.283 35.239-6.359 12.113-.062 15.011.25 21.5 2.313 22.077 7.017 25.387 16.464 17.177 49.028-5.833 23.137-13.907 43.27-24.053 59.982-3.827 6.303-3.893 6.565-2.382 9.5 2.024 3.93 5.681 7.124 11.258 9.833 3.829 1.859 6.214 2.185 16 2.185 9.869 0 12.138-.315 16-2.223 8.658-4.278 11.501-8.079 9.966-13.331-3.849-13.169-5.218-32.469-2.94-41.446 4.265-16.805 11.287-29.796 22.369-41.384 8.977-9.387 15.78-13.497 22.448-13.563 4.767-.047 5.602.271 7.745 2.947 1.96 2.448 2.403 4.154 2.407 9.275.005 5.923.159 6.333 2.755 7.319 7.966 3.026 40.561 19.358 51.75 25.93 17.59 10.331 18.602 10.95 28.465 17.414 7.718 5.057 31.136 21.572 32.035 22.591.275.312 2.075 1.649 4 2.971 1.925 1.322 3.725 2.674 4 3.004.275.331 5 4.155 10.5 8.499 5.5 4.343 10.493 8.37 11.096 8.947.602.578 4.652 4.157 9 7.955 24.502 21.403 40.981 42.568 48.544 62.345a116.282 116.282 0 001.852 4.5c.546 1.238 1.616 4.725 2.378 7.75 1.571 6.239 1.342 6.164 12.63 4.112 3.575-.65 8.479-1.446 10.899-1.769 4.257-.569 4.377-.512 3.719 1.784-3.051 10.654-2.797 32.006.531 44.745 2.546 9.745 4.063 13.214 8.974 20.517 11.408 16.969 27.701 28.38 47.974 33.601 5.093 1.312 25.751.867 32.403-.697 9.427-2.217 25.466-11.35 32.782-18.666 18.313-18.313 25.483-45.634 19.127-72.877-.978-4.187.676-3.234 5.091 2.935 2.2 3.074 6.025 8.149 8.5 11.278 2.475 3.129 8.55 11.002 13.5 17.496 4.95 6.494 9.45 12.311 10 12.927.55.617 3.698 4.719 6.995 9.117 3.297 4.399 6.581 8.613 7.297 9.366 2.471 2.596 2.448.199-.057-6.076-1.382-3.461-6.186-16.193-10.676-28.293-11.656-31.414-12.087-32.547-14.174-37.239-1.037-2.332-1.883-4.582-1.88-5 .003-.419-1.324-4.136-2.95-8.261-1.625-4.125-4.578-12-6.561-17.5-1.982-5.5-3.986-10.9-4.452-12-.466-1.1-1.835-4.7-3.042-8-1.207-3.3-2.558-6.9-3.002-8-.444-1.1-2.243-5.825-3.998-10.5-1.755-4.675-3.55-9.4-3.99-10.5-.439-1.1-1.577-4.25-2.528-7-1.795-5.192-9.01-24.501-10.462-28-.456-1.1-2.265-5.825-4.02-10.5-4.131-11.006-4.524-12.02-5.816-15-.596-1.375-1.813-4.75-2.704-7.5-1.441-4.445-4.056-11.446-11.953-32-7.062-18.381-18.522-49.486-18.49-50.186.02-.448 2.993-3.064 6.608-5.814 3.614-2.75 7.085-5.452 7.713-6.004.628-.553 3.617-3.015 6.642-5.471 23.522-19.1 53.631-47.6 73.5-69.572 4.95-5.474 9.225-10.178 9.5-10.453 6.55-6.55 31.569-37.669 45.121-56.122 10.674-14.534 29.079-42.779 28.671-44.002-.29-.871-3.075.957-9.792 6.43-.825.673-3.075 2.319-5 3.66-1.925 1.341-3.725 2.684-4 2.986-4.03 4.418-64.54 43.048-67.431 43.048-.198 0-1.733-2.139-3.411-4.753-10.818-16.859-44.4-28.255-83.158-28.219-23.521.022-55.593 5.197-80.5 12.989-8.356 2.615-16.213 5.201-18 5.924-1.1.446-6.5 2.506-12 4.578-10.925 4.117-47.824 22.544-54.924 27.429-2.44 1.679-4.694 3.052-5.009 3.052-.806 0-20.845 13.517-28.118 18.966a4786.569 4786.569 0 01-9.409 7.034c-6.218 4.631-18.51 14.46-22.502 17.993-11.708 10.364-16.069 14.425-26.788 24.944-6.462 6.343-11.75 12.219-11.75 13.059 0 2.712 24.093 26.189 40.026 39.004a587.483 587.483 0 018.913 7.351c6.508 5.494 8.018 6.723 13.064 10.635 2.473 1.917 4.986 3.942 5.584 4.5 1.02.952 4.618 3.762 24.749 19.326 4.49 3.472 8.839 6.853 9.664 7.515.825.661 3.075 2.298 5 3.639 1.925 1.341 3.725 2.7 4 3.02.275.321 5.9 4.581 12.5 9.467s12.509 9.269 13.131 9.74c1.082.818 17.415-7.051 38.619-18.606 4.813-2.623 8.751-4.39 8.751-3.928.001.463 1.117 2.191 2.481 3.841 2.901 3.511 2.715 3.27 8.515 11.004 2.474 3.298 4.766 6.221 5.094 6.496.328.275 5.03 6.35 10.45 13.5 5.42 7.15 10.124 13.225 10.455 13.5.33.275 1.682 2.075 3.004 4 1.322 1.925 2.674 3.725 3.005 4 .33.275 1.924 2.3 3.542 4.5 1.618 2.2 3.191 4.225 3.495 4.5.305.275 1.643 2.075 2.973 4 1.331 1.925 2.884 4.008 3.452 4.63.568.621 4.408 5.535 8.533 10.92 4.125 5.386 10.2 13.25 13.5 17.478 3.3 4.227 6.992 8.988 8.204 10.579a6966.197 6966.197 0 0020.248 26.432c5.983 7.765 6.201 8.219 3 6.246-12.608-7.77-32.791-14.261-44.452-14.295-2.2-.007-5.676-.289-7.725-.628l-3.724-.615-.276-15.008-.275-15.008-8.589-2.819c-4.724-1.55-12.824-4.945-18-7.545-8.949-4.495-11.917-6.279-31.911-19.181-8.01-5.169-36.524-25.086-47.5-33.179-2.75-2.028-8.077-5.897-11.837-8.597-11.383-8.175-51.068-37.776-52.524-39.178-1.241-1.196-8.924-7.2-22.686-17.732-2.875-2.2-7.641-6.073-10.59-8.606a617.77 617.77 0 00-11.363-9.465c-6.49-5.256-10.604-8.784-13.907-11.929-1.156-1.1-5.075-4.587-8.708-7.75-6.514-5.669-6.694-5.75-12.796-5.75-14.244 0-18.505-8.378-11.553-22.713 2.501-5.156 13.828-23.005 15.414-24.287.34-.275 2.403-2.75 4.584-5.5 6.619-8.344 19.901-20.737 27.33-25.5 3.86-2.475 7.045-5.133 7.077-5.906.064-1.521-2.963-5.79-7.554-10.653-7.93-8.4-31.518-23.813-33.357-21.796-.428.47-2.234 4.68-4.013 9.355-6.927 18.206-19.604 39.648-30.663 51.862l-4.854 5.361-6.04-5.361c-3.322-2.949-8.226-7.162-10.898-9.362-2.672-2.2-5.354-4.458-5.96-5.019-1.253-1.158-16.222-13.372-18.564-15.147-.846-.642-4.069-3.188-7.162-5.659-5.653-4.516-28.29-21.662-32.903-24.923-1.36-.961-6.073-4.347-10.473-7.524-9.76-7.046-22.65-15.544-36.105-23.801-15.227-9.344-19.274-11.455-23.78-12.405-19.19-4.047-64.149-18.755-84.365-27.6a1109.27 1109.27 0 00-6.5-2.816c-8.273-3.55-14.457-6.455-30.25-14.21-9.35-4.591-18.125-9.02-19.5-9.843-1.375-.822-9.25-5.399-17.5-10.17s-18.242-10.859-22.205-13.529c-3.963-2.67-7.638-4.854-8.167-4.854-.529 0-1.111-.349-1.295-.776-.183-.426-4.262-3.348-9.064-6.493-4.803-3.145-9.528-6.387-10.5-7.203-.973-.816-6.77-5.207-12.882-9.756-6.112-4.55-13.259-10.072-15.883-12.272-4.442-3.724-6.516-5.51-15.401-13.267-3.137-2.738-4.326-3.055-15.5-4.134-23.611-2.279-31.757-3.325-51.603-6.625-11.122-1.85-17.952-3.12-23.5-4.371-2.2-.496-6.25-1.385-9-1.977-27.025-5.815-65.353-18.259-87.983-28.565-2.759-1.257-6.142-2.636-7.517-3.064-2.993-.933-33.811-16.695-43-21.994-3.575-2.061-7.96-4.583-9.744-5.605-10.296-5.895-51.487-34.606-54.256-37.818-.275-.319-2.75-2.354-5.5-4.523-15.83-12.484-46.42-42.387-62-60.607-13.386-15.655-17.842-21.005-19.442-23.343-.793-1.159-1.702-2.332-2.021-2.607-.706-.61-12.789-17.15-16.072-22-1.303-1.925-2.67-3.725-3.038-4-1.212-.905-17.927-27.043-17.927-28.032 0-.533-.45-.968-1-.968s-1-.493-1-1.096c0-.602-.847-2.29-1.883-3.75-5.531-7.797-29.778-53.63-36.585-69.154-1.567-3.575-4.276-9.65-6.019-13.5-1.743-3.85-3.768-8.575-4.501-10.5-.733-1.925-1.71-3.927-2.172-4.45-.462-.523-.84-1.54-.84-2.261 0-.721-.852-3.218-1.893-5.55-2.267-5.075-8.094-20.707-11.085-29.739-1.184-3.575-2.542-7.4-3.017-8.5-.905-2.094-8.363-26.174-9.447-30.5-.344-1.375-1.777-6.775-3.184-12-1.407-5.225-2.947-11.3-3.422-13.5-.475-2.2-1.505-6.475-2.289-9.5-.784-3.025-2.012-8.537-2.728-12.25-.716-3.712-1.714-6.75-2.217-6.75-.545 0-.698 13.821-.378 34.25m1242.076 995.263c10.296 3.123 17.16 8.949 22.371 18.987 2.253 4.341 2.599 6.253 2.62 14.5.03 11.494-2.086 16.756-9.868 24.539-7.755 7.754-13.038 9.882-24.539 9.882-7.843 0-10.309-.395-14.136-2.267-16.018-7.833-24.24-25.455-19.369-41.51 3.064-10.099 11.186-19.279 19.892-22.486 2.812-1.036 5.788-2.134 6.613-2.442 2.932-1.091 11.573-.672 16.416.797" fill="#FFB200FF" stroke="#FFB200FF"/><path d="M312 932.932c0 1.774 3.461 15.845 7.519 30.568.91 3.3 2.018 7.35 2.464 9 1.944 7.208 11.886 37.29 15.863 48 1.634 4.4 3.967 10.7 5.185 14 1.218 3.3 2.609 6.428 3.092 6.95.482.523.877 1.522.877 2.22 0 .699 1.176 3.872 2.614 7.05l5 11.06c1.312 2.903 2.386 5.551 2.386 5.883 0 .332 3.825 8.398 8.5 17.923 4.675 9.525 8.49 17.678 8.479 18.116-.012.439-1.7 2.003-3.75 3.475-4.095 2.941-7.367 5.515-13.755 10.823-5.855 4.865-6.806 5.621-16.974 13.497-4.95 3.834-9.601 7.547-10.337 8.252-.735.705-2.985 2.509-5 4.01-2.014 1.501-3.888 2.96-4.163 3.241-.275.281-2.3 1.845-4.5 3.475-2.2 1.631-4.9 3.802-6 4.825-1.755 1.633-8.65 7.077-20.102 15.871-6.405 4.919-10.673 8.285-18.813 14.836-4.447 3.579-13.304 10.612-19.682 15.629-6.379 5.017-12.454 9.83-13.5 10.697-1.047.866-4.828 3.884-8.403 6.706a2307.783 2307.783 0 00-10 7.937c-1.925 1.542-10.475 8.263-19 14.935-8.525 6.672-16.218 12.733-17.095 13.468-1.571 1.316-34.879 27.663-46.219 36.56-3.198 2.508-6.798 5.402-8 6.429-1.202 1.027-8.036 6.41-15.186 11.962s-13.601 10.681-14.337 11.397c-.735.717-2.985 2.531-5 4.032-2.014 1.501-3.888 2.96-4.163 3.241-.275.281-2.3 1.843-4.5 3.469-2.2 1.627-4.56 3.503-5.245 4.168-.684.665-2.44 2.15-3.902 3.3-5.021 3.95-1.651 3.077 8.741-2.264l31.406-16.14c11.55-5.935 25.05-12.93 30-15.545 4.95-2.614 19.35-10.042 32-16.505 50.664-25.888 64.586-33.026 78-39.993 16.135-8.38 41.405-21.406 63-32.474a13672.35 13672.35 0 0031.5-16.212 27406.3 27406.3 0 0136.5-18.81c11-5.657 20.45-10.6 21-10.984 3.112-2.176 4.399-1.761 7.157 2.306 1.561 2.301 3.086 4.409 3.389 4.684.304.275 2.678 3.65 5.275 7.5 2.598 3.85 6.176 9.051 7.951 11.557 3.327 4.697 19.724 26.053 20.687 26.943.298.275 3.463 4.1 7.034 8.5 3.572 4.4 7.397 8.936 8.5 10.08 1.104 1.145 3.132 3.457 4.507 5.139 15.3 18.713 59.234 61.728 79.484 77.82 2.742 2.179 5.948 4.861 7.125 5.961 2.442 2.283 4.078 3.623 10.391 8.514 2.475 1.917 4.725 3.726 5 4.019.275.293 2.975 2.303 6 4.467 3.025 2.164 5.725 4.197 6 4.518.275.322 2.75 2.137 5.5 4.033 2.75 1.897 5.225 3.719 5.5 4.048.275.33 7.025 4.961 15 10.291 7.975 5.331 14.992 10.076 15.594 10.545.602.468 2.485 1.572 4.186 2.451 1.701.88 3.338 1.996 3.637 2.48.62 1.002-4.185 12.575-14.171 34.134-5.311 11.466-7.693 16.737-11.746 26a1376.811 1376.811 0 01-5.99 13.5 949.282 949.282 0 00-3.81 8.5c-.847 1.925-3.416 7.55-5.71 12.5s-5.298 11.7-6.674 15a380.29 380.29 0 01-5.306 12 894.405 894.405 0 00-4.817 10.5 1408.19 1408.19 0 01-5.96 13 922.721 922.721 0 00-7.215 16 916.544 916.544 0 01-7.144 15.849c-2.131 4.592-3.874 8.517-3.874 8.721 0 .416-3.18 7.435-9.639 21.272-2.399 5.139-4.361 9.594-4.361 9.901 0 .307-1.071 2.853-2.381 5.657a555.403 555.403 0 00-3.923 8.6c-.848 1.925-3.206 7.1-5.239 11.5-7.632 16.517-9.457 20.561-9.457 20.955 0 .385-2.84 6.714-8.996 20.045a883.677 883.677 0 00-4.321 9.5 5222.09 5222.09 0 01-6.716 15c-2.841 6.325-5.85 13.075-6.686 15a610.584 610.584 0 01-3.806 8.5c-1.257 2.75-3.295 7.25-4.527 10-1.233 2.75-3.525 7.854-5.094 11.343-1.57 3.489-2.854 6.564-2.854 6.834 0 1.409 2.256-.845 6.681-6.677 2.713-3.575 12.627-16.674 22.03-29.109 21.726-28.731 34.048-44.976 35.583-46.914.663-.838 3.224-4.213 5.689-7.5 2.466-3.287 6.407-8.452 8.758-11.477 2.351-3.025 4.621-5.95 5.044-6.5.423-.55 1.86-2.575 3.194-4.5 1.334-1.925 2.699-3.725 3.034-4 .583-.479 15.327-19.847 19.487-25.6 1.1-1.521 3.811-5.045 6.025-7.833 2.214-2.787 6.714-8.667 10-13.067 3.286-4.4 6.222-8.225 6.523-8.5.302-.275 1.63-2.075 2.952-4 1.322-1.925 2.651-3.725 2.954-4 .303-.275 4.6-5.884 9.549-12.464 4.948-6.581 9.532-12.656 10.187-13.5 2.953-3.813 11.269-14.765 22.046-29.036 6.438-8.525 11.973-15.725 12.299-16 .327-.275 3.148-3.977 6.27-8.227 3.122-4.25 6.334-8.525 7.138-9.5.804-.975 4.152-5.373 7.44-9.773 3.288-4.4 9.428-12.5 13.644-18 4.216-5.5 9.24-12.137 11.163-14.75 1.924-2.612 3.843-4.75 4.265-4.75.423 0 3.868 1.379 7.657 3.064l9.888 4.4c4.206 1.872 26.126 10.398 31.277 12.166l4.277 1.468 12.723-8.758c6.998-4.816 13.173-9.131 13.723-9.587.55-.457 7.525-5.611 15.5-11.454 7.975-5.842 16.794-12.462 19.598-14.711a935.948 935.948 0 018.956-7.088c6.915-5.375 29.933-23.845 30.446-24.43.275-.313 2.75-2.355 5.5-4.536 2.75-2.181 5.225-4.213 5.5-4.514.275-.301 2.975-2.56 6-5.02 3.025-2.46 5.725-4.704 6-4.986.275-.283 3.648-3.214 7.496-6.514 11.881-10.19 13.769-11.84 19.474-17.029a2728.89 2728.89 0 0114.277-12.841l8.747-7.812-3.132-4.361c-6.658-9.271-23.864-26.795-38.362-39.073-8.58-7.265-35.169-26.431-40.764-29.382-2.605-1.374-4.736-2.837-4.736-3.25 0-.414-.481-.752-1.07-.752-.588 0-3.032-1.35-5.43-3-2.398-1.65-4.571-3-4.828-3-.257 0-3.551-1.874-7.32-4.163-3.769-2.29-15.642-8.478-26.386-13.75-19.921-9.777-24.879-12.023-35.466-16.064-3.3-1.26-6.9-2.636-8-3.059-6.015-2.312-13.423-4.948-16.5-5.871a621.11 621.11 0 01-9.5-2.984c-10.358-3.341-25.554-6.643-42.5-9.236-4.806-.735-16.54-1.276-27-1.245-19.593.058-31.651 1.747-46 6.442-13.551 4.434-29.158 13.282-37.462 21.239l-4.609 4.416-12.715-7.652c-22.383-13.472-32.358-20.466-69.015-48.39-2.035-1.55-6.174-4.975-9.199-7.613-3.025-2.637-10.9-9.505-17.5-15.263-11.958-10.431-51.911-49.619-58.522-57.401-1.913-2.252-6.926-7.877-11.14-12.5-8.942-9.81-12.729-14.306-28.56-33.906-6.442-7.975-11.974-14.725-12.293-15-.32-.275-1.663-2.075-2.985-4-1.322-1.925-2.671-3.725-2.997-4-.326-.275-4.048-5.225-8.272-11-4.223-5.775-8.046-10.95-8.496-11.5-.45-.55-2.353-3.25-4.229-6s-3.995-5.595-4.708-6.321c-.714-.727-1.298-1.708-1.298-2.179 0-.471-.562-1.452-1.25-2.179-.687-.726-5.477-7.733-10.643-15.571-5.166-7.837-9.553-14.25-9.75-14.25-.196 0-.357.87-.357 1.932m1606-384.581c0 .194-1.321 5.481-2.935 11.75-4.076 15.834-11.318 38.612-18.088 56.899a1813.144 1813.144 0 00-6.179 17c-1.668 4.675-3.43 8.928-3.915 9.45-.486.523-.883 1.524-.883 2.225 0 .701-1.35 4.222-3 7.825-1.65 3.603-3 6.75-3 6.995 0 .245-1.072 2.822-2.382 5.725-1.311 2.904-4.339 9.78-6.731 15.28-2.391 5.5-9.788 20.8-16.438 34-11.117 22.068-14.63 28.752-19.449 37a446.162 446.162 0 00-4.239 7.5c-3.379 6.116-7.918 13.602-15.463 25.5l-7.289 11.5c-6.307 9.976-30.688 44.48-33.446 47.332-.621.643-2.217 2.743-3.548 4.668-1.33 1.925-2.684 3.725-3.008 4-.323.275-4.62 5.446-9.548 11.491-26.501 32.511-55.646 59.409-89.91 82.979-26.168 18.001-60.937 36.405-90.549 47.93-9.625 3.745-18.4 7.189-19.5 7.652-2.423 1.019-17.383 5.897-27 8.804-12.14 3.669-40.251 10.436-58.5 14.082-9.846 1.967-24.78 4.3-38.5 6.014-20.262 2.532-25.321 3.05-29.775 3.049-4.42-.001-5.243.428-11.055 5.749-11.443 10.479-14.091 12.75-23.67 20.302-28.847 22.741-56.889 40.891-89.5 57.925-3.85 2.012-7.9 4.174-9 4.807-1.1.632-4.925 2.47-8.5 4.085a1741.27 1741.27 0 00-16.342 7.533c-5.414 2.529-10.031 4.598-10.261 4.598-.23 0-2.439.9-4.908 2a3048.55 3048.55 0 01-8.739 3.874c-2.337 1.031-8.975 3.536-14.75 5.566s-12.277 4.369-14.45 5.198c-3.612 1.377-15.783 5.404-31.05 10.274-3.3 1.052-10.05 2.903-15 4.112-10.7 2.613-10.087 2.309-16.167 7.996-10.721 10.028-22.112 16.838-32.157 19.224-2.847.676-5.176 1.704-5.176 2.284 0 2.593 16.649 16.262 28.5 23.399 16.906 10.182 26.851 11.683 38.17 5.762 6.181-3.233 12.628-13.588 17.462-28.051 1.129-3.376 3.219-7.2 4.644-8.499 2.21-2.011 3.268-2.271 7.158-1.754 6.815.905 17.194 6.487 30.066 16.172 6.325 4.759 11.725 8.943 12 9.298.275.355 4.301 4.02 8.946 8.145 4.646 4.125 9.463 8.513 10.705 9.75 2.455 2.447 3.884 2.812 4.854 1.241 1.517-2.453 20.781-16.625 31.681-23.307 14.893-9.128 46.837-24.704 58.814-28.676 1.375-.456 6.325-2.253 11-3.993 20.581-7.658 53.996-16.866 72-19.84 3.575-.59 9.65-1.642 13.5-2.337 9.641-1.74 52.71-1.724 62 .024 19.128 3.598 32.323 7.448 45.137 13.17 5.969 2.665 18.229 10.372 19.489 12.252.67.998 19.799-11.678 31.368-20.784 8.529-6.714 15.034-11.946 15.506-12.471.275-.306 2.975-2.556 6-5 29.651-23.953 81.347-74.987 106.961-105.589 1.354-1.617 6.699-7.89 11.879-13.94s10.149-11.9 11.042-13l7.71-9.5c9.61-11.844 31.134-40.529 35.114-46.797 1.992-3.137 3.931-5.928 4.308-6.203.378-.275 1.265-1.597 1.972-2.937.706-1.34 1.695-2.915 2.196-3.5 2.93-3.416 22.559-35.924 32.039-53.063 3.169-5.728 20.524-40.754 23.536-47.5 11.065-24.779 24.624-60.363 30.372-79.704a2179.4 2179.4 0 013.932-13.046c7.694-25.202 15.139-57.575 18.916-82.25.632-4.125 1.552-9.975 2.046-13 .84-5.149 1.36-9.652 3.953-34.192 1.351-12.781 1.37-72.808.024-72.808-.55 0-1 .158-1 .351m-777 874.753c-9.544 2.029-20.241 6.69-26.748 11.653-3.593 2.741-8.252 9.849-8.252 12.592 0 3.347 10.704 23.393 19.137 35.84l3.855 5.689-5.583 5.583c-16.535 16.534-35.496 23.412-56.987 20.669-8.731-1.114-20.409-4.505-24.422-7.091-1.375-.886-3.74-2.235-5.255-2.997-1.515-.762-5.987-4.371-9.937-8.021l-7.183-6.635 6.472-9.943c13.636-20.95 15.144-26.087 10.405-35.439-8.443-16.662-26.418-24.887-45.703-20.912-11.561 2.383-18.081 5.341-37.145 16.85-11.201 6.762-38.575 24.69-39.654 25.97-.275.327-3.088 2.285-6.252 4.353-3.164 2.067-6.539 4.413-7.5 5.212-.961.799-3.769 2.9-6.239 4.669l-4.49 3.215 2.99.852c3.982 1.135 28.733 4.735 46.991 6.836 17.204 1.979 30.111 2.98 49.276 3.823 10.602.466 19.475 1.045 19.717 1.287.242.243.934 4.468 1.537 9.391a1667.87 1667.87 0 001.969 15.45c.48 3.575 1.334 10.1 1.897 14.5.564 4.4 1.507 11.6 2.096 16 3.866 28.863 5.003 37.678 5.548 43 .371 3.626 1.761 14.264 4.475 34.25a3839.676 3839.676 0 014.01 30.25c.599 4.675 1.487 11.425 1.975 15 .488 3.575 1.373 10.325 1.968 15 .595 4.675 1.508 11.425 2.03 15a731.416 731.416 0 011.516 11c.312 2.475.971 7.425 1.463 11 1.076 7.812 2.574 19.452 3.99 31 1.619 13.207 1.909 15.46 4.124 32 1.142 8.525 2.46 18.425 2.928 22 .469 3.575 1.364 10.325 1.988 15 .624 4.675 1.536 11.65 2.026 15.5.937 7.359 2.207 16.984 3.893 29.5 2.011 14.926 3.176 23.641 4.146 31 .544 4.125 1.426 10.65 1.961 14.5.534 3.85 1.644 12.625 2.467 19.5.823 6.875 1.918 15.65 2.434 19.5a4256.582 4256.582 0 014.132 32c1.265 10.046 2.469 13.544 3.266 9.486.268-1.367 1-6.311 1.625-10.986.626-4.675 1.549-11.2 2.051-14.5.503-3.3 2.516-18.15 4.473-33 1.958-14.85 3.985-29.925 4.503-33.5.519-3.575 1.437-10.1 2.04-14.5.602-4.4 1.491-10.7 1.976-14 .892-6.073 2.334-16.237 4.115-29 .538-3.85 1.39-9.925 1.895-13.5.505-3.575 1.415-10.1 2.023-14.5a2511.5 2511.5 0 012.051-14.5c1.45-9.968 4.621-33.149 6.361-46.5A2671.549 2671.549 0 011114 1726c.51-3.575 1.421-10.1 2.024-14.5.602-4.4 1.491-10.7 1.976-14 .907-6.176 2.197-15.386 3.993-28.5.565-4.125 1.456-10.425 1.981-14 2.066-14.074 6.701-47.808 8.519-62 .881-6.875 2.004-15.2 2.495-18.5.491-3.3 1.385-9.6 1.987-14 2.728-19.951 4.563-33.042 6.025-43 1.195-8.14 2.821-19.984 3.534-25.746.474-3.832 1.009-4.835 2.777-5.208 1.204-.253 6.239-1.178 11.189-2.054 8.767-1.552 11.658-2.141 22-4.485 10.746-2.436 29.326-7.251 46.75-12.117 5.5-1.536 5.922-2.767 1.786-5.209-1.63-.963-3.542-2.322-4.25-3.019-1.286-1.268-17.41-12.196-27.802-18.843-9.095-5.818-24.03-13.454-31.484-16.096-10.279-3.645-15.481-3.963-26.5-1.619" fill="#FFB200FF" stroke="#FFB200FF"/><path d="M951.997 1327.763c-2.534 2.929-24.614 23.107-33.087 30.237a1025.04 1025.04 0 00-10.379 8.875c-8.455 7.353-9.695 8.382-20.031 16.624-5.5 4.386-10.565 8.513-11.255 9.171-3.96 3.777-36.728 27.895-71.777 52.83-6.185 4.4-15.008 10.69-19.607 13.977-27.921 19.959-55.033 36.173-70.361 42.077-9.443 3.638-10.5 5.009-10.5 13.614 0 3.82.508 8.963 1.128 11.427.621 2.465.922 4.689.668 4.942-.253.253-4.023.716-8.378 1.028-22.783 1.634-43.856 9.898-55.927 21.932-7.248 7.226-15.48 21.301-18.425 31.503a663.451 663.451 0 01-2.183 7.399c-1.436 4.714-1.043 24.88.609 31.302 1.885 7.323 7.335 18.475 12.04 24.637 9.913 12.983 28.826 23.622 49.226 27.691 7.437 1.483 21.209.815 29.456-1.43 17.695-4.815 33.736-17.132 42.455-32.599 10.014-17.764 11.892-40.892 5.459-67.242-.858-3.512-.782-3.713 1.229-3.258 9.11 2.058 11.802 2.442 16.643 2.376 9.776-.134 10.189-.443 12.593-9.416 6.363-23.749 16.66-37.144 49.979-65.022 7.19-6.016 14.328-11.838 15.861-12.938 1.534-1.1 3.301-2.465 3.928-3.033.626-.568 2.714-2.137 4.639-3.486 1.925-1.349 4.175-3.003 5-3.676 10.886-8.882 61.112-42.305 63.574-42.305.175 0 3.155-1.678 6.622-3.728 11.125-6.579 12.148-7.135 21.804-11.864 30.934-15.148 42.056-19.408 50.676-19.408 11.476 0 17.947 5.785 31.83 28.456l1.809 2.955 3.282-8.455c8.439-21.742 4.291-30.778-15.433-33.626-4.63-.668-18.124 1.019-27.164 3.397-3.025.795-6.85 1.803-8.5 2.239-5.064 1.337-20.737 6.761-25.653 8.877l-4.653 2.003-.644-8.173c-1.459-18.485-6.06-45.31-10.407-60.673-3.438-12.149-3.52-12.272-6.146-9.237M702 1574.392c12.251 3.73 20.756 12.379 24.358 24.767.903 3.107 1.642 7.193 1.642 9.08 0 3.88-3.377 14.988-5.704 18.761-2.478 4.02-9.383 10.005-14.788 12.819-4.348 2.264-6.26 2.612-14.508 2.644-8.559.033-10.072-.253-15.278-2.889-13.788-6.982-22.703-23.606-19.748-36.824 4.73-21.158 24.934-34.172 44.026-28.358M196 765.643c-20.625 5.242-39.075 9.905-41 10.361-1.925.456-8.9 2.253-15.5 3.994-6.6 1.74-13.8 3.556-16 4.036-2.2.479-12.1 2.959-22 5.511-9.9 2.553-19.575 5.013-21.5 5.469-1.925.455-7.1 1.799-11.5 2.986-4.4 1.187-9.575 2.537-11.5 3.001-7.481 1.801-36.807 9.118-42.5 10.605a511.18 511.18 0 01-10.25 2.561c-2.337.547-4.25 1.362-4.25 1.812 0 .449 6.188 1.089 13.75 1.423 7.563.335 22.975 1.059 34.25 1.61 11.275.551 29.95 1.455 41.5 2.007 11.55.553 30 1.442 41 1.977 11 .534 30.125 1.442 42.5 2.018 12.375.575 30.825 1.47 41 1.989 46.073 2.349 48.355 2.365 47.581.338-.387-1.013-2.962-7.691-5.724-14.841-2.761-7.15-5.927-15.475-7.036-18.5-1.109-3.025-2.41-6.4-2.892-7.5-.716-1.637-3.071-8.907-9.473-29.25-.216-.687-.97-1.225-1.675-1.194-.704.03-18.156 4.344-38.781 9.587m1493.431 346.111c-4.988 4.81-12.638 11.892-17 15.737-4.362 3.845-8.156 7.226-8.431 7.514-.275.287-2.975 2.541-6 5.008-9.677 7.893-10.262 8.534-8.807 9.65.719.551 2.882 1.613 4.807 2.359 1.925.747 8.147 3.522 13.827 6.168 5.68 2.645 10.515 4.81 10.744 4.81.352 0 6.49 2.681 23.929 10.452 1.65.735 5.025 2.233 7.5 3.329 10.854 4.803 14.884 6.609 20.82 9.326 3.476 1.591 6.5 2.893 6.72 2.893.437 0 7.825 3.293 19.299 8.604 4.037 1.868 7.522 3.396 7.746 3.396.224 0 3.896 1.612 8.161 3.583s12.029 5.404 17.254 7.628c5.225 2.225 11.75 5.062 14.5 6.305 2.75 1.243 7.025 3.159 9.5 4.258a4169.75 4169.75 0 0119.5 8.701c2.75 1.238 8.375 3.716 12.5 5.506 10.446 4.533 15.507 6.778 22.82 10.126 3.476 1.591 6.487 2.893 6.691 2.893.204 0 4.218 1.786 8.92 3.968 20.61 9.565 24.768 10.417 14.938 3.059-3.228-2.416-6.094-4.67-6.369-5.008-.275-.339-2.075-1.697-4-3.019-1.925-1.322-3.725-2.674-4-3.005-.275-.33-2.291-1.927-4.48-3.548-2.189-1.621-4.664-3.504-5.5-4.184-.836-.68-9.395-7.33-19.02-14.778-9.625-7.447-18.194-14.119-19.042-14.825-.848-.707-6.923-5.374-13.5-10.372a3316.787 3316.787 0 01-19.958-15.287c-4.4-3.41-10.475-8.066-13.5-10.345-3.025-2.28-5.725-4.385-6-4.678-.778-.831-17.976-14.136-22.474-17.388-2.214-1.601-4.251-3.188-4.526-3.528-.275-.34-3.875-3.167-8-6.281-4.125-3.115-14.25-10.882-22.5-17.26-24.287-18.777-26.622-20.523-27.444-20.517-.306.002-4.637 3.94-9.625 8.75m211.311-325.074c-.291 1.001-2.603 7.631-5.138 14.734-2.535 7.103-4.436 13.088-4.224 13.299.36.361 11.976-.771 28.12-2.738 30.149-3.674 37.705-4.556 55.5-6.473 16.571-1.785 18.944-2.29 16.882-3.596-.76-.481-2.68-.882-4.266-.891-1.586-.008-4.511-.443-6.5-.966-1.989-.523-8.791-1.9-15.116-3.06-6.325-1.16-13.3-2.516-15.5-3.014-2.2-.498-6.475-1.373-9.5-1.945-3.025-.572-9.1-1.748-13.5-2.612-4.4-.864-10.475-1.999-13.5-2.521-12.464-2.152-12.696-2.156-13.258-.217M674 956.059c-4.654 1.805-12.151 4.564-21.25 7.82-6.5 2.326-14.811 5.34-34.75 12.604-8.525 3.105-18.987 6.813-23.25 8.24-4.262 1.427-7.75 2.952-7.75 3.389 0 .994 15.182 5.891 29.019 9.36 5.764 1.445 12.262 3.101 14.439 3.68l3.958 1.053 8.942-9.353c4.918-5.143 14.997-15.511 22.397-23.038 7.4-7.527 13.295-14.094 13.1-14.593-.195-.499-2.38-.121-4.855.838m774.719 26.72c-3.146 3.178-5.719 6.268-5.719 6.867 0 .598 5.469 6.21 12.154 12.471l12.154 11.383 5.096-.27c11.762-.622 48.047-7.692 47.126-9.182-.236-.381-3.713-1.959-7.729-3.507s-7.728-3.203-8.251-3.678c-.522-.474-1.522-.863-2.22-.863-.699 0-3.647-1.081-6.55-2.402-2.904-1.32-9.484-4.019-14.622-5.997-5.139-1.977-10.989-4.317-13-5.2a298.633 298.633 0 00-6.158-2.62c-1.375-.558-3.281-1.412-4.236-1.898-.955-.486-1.87-.883-2.032-.883-.162 0-2.868 2.601-6.013 5.779" fill="#FFB200FF" stroke="#FFB200FF"/></svg>