<svg xmlns="http://www.w3.org/2000/svg" viewBox="0 0 1000 1012"><path d="M427.402 992.003c-7.446-1.092-11.815-2.75-14.345-5.443-3.4-3.619-2.399-6.051 2.511-6.1 12.028-.12 18.693-17.986 12.556-33.662-2.588-6.61-10.122-15.481-14.814-17.442-4.179-1.746-17.902-1.823-18.969-.106-.427.688-.791 5.525-.809 10.75-.028 8.46-.323 9.993-2.693 14-4.003 6.77-7.7 9.737-16.229 13.02-12.266 4.724-24.61 3.747-24.61-1.947 0-1.4.999-1.925 4.381-2.307 4.894-.551 8.38-2.77 11.514-7.328 4.78-6.952.896-22.511-7.895-31.632-4.541-4.712-4.752-4.806-10.744-4.806-13.483 0-32.525-4.253-40.693-9.088-3.668-2.171-3.88-2.197-3.097-.371 4.558 10.624 6.697 22.353 4.547 24.943-1.83 2.204-2.614 1.893-4.066-1.612-1.564-3.776-10.785-13.07-16.837-16.971-2.414-1.557-7.87-3.99-12.125-5.406-10.365-3.452-22.949-9.914-31.485-16.168-9.928-7.274-22.887-22.754-27.776-33.18-4.676-9.972-6.006-9.691-6.566 1.386-.55 10.91 2.491 19.123 9.838 26.557 3.948 3.995 6.997 6.079 10.687 7.305 6.608 2.195 8.21 3.96 5.905 6.508-2.247 2.483-8.486 4.096-17.353 4.487-5.934.262-8.18-.102-12.25-1.989-2.742-1.27-4.985-1.92-4.985-1.445 0 .476 1.774 3.11 3.943 5.853 5.625 7.116 11.274 9.517 32.057 13.623 9.625 1.902 19.3 4.112 21.5 4.91 10.487 3.809 17.208 7.591 21.193 11.928 8.356 9.091 15.226 27.565 12.7 34.148-.748 1.95-2.393 2.085-2.393.196 0-.762-1.825-4.12-4.057-7.46-4.64-6.951-13.095-13.097-24.443-17.77l-7-2.882-23-.001c-21.74-.001-23.267-.124-27.877-2.251-3.076-1.419-6.797-2.25-10.073-2.25-4.114 0-7.102-.928-14.357-4.459-16.227-7.898-26.175-20.653-31.227-40.041-1.146-4.4-2.62-8.484-3.275-9.076-.655-.591-4.341-2.36-8.191-3.932-10.195-4.161-21.623-15.68-27.372-27.587-6.847-14.183-8.567-23.849-8.346-46.905.155-16.184.6-21.54 2.619-31.5l2.432-12-3.33-6.127c-4.93-9.071-14.134-31.16-16.026-38.46-4.055-15.651-5.45-31.625-3.723-42.663 1.021-6.536 5.28-2.517 9.658 9.113 5.236 13.91 10.186 21.797 20.655 32.914 5.527 5.868 11.394 11.627 13.038 12.798l2.99 2.128 3.93-2.601c2.163-1.431 4.215-2.602 4.56-2.602.345 0 2.364-1.376 4.488-3.057 4.454-3.529 10.927-5.127 10.927-2.7 0 .828-.628 3.285-1.396 5.46-1.346 3.816-2.019 9.827-1.738 15.53.109 2.22 1.068 3.206 5.1 5.25 2.732 1.384 5.455 2.517 6.052 2.517.596 0 1.79-1.688 2.654-3.75 1.953-4.665 1.271-25.726-1.109-34.25-4.012-14.37-15.625-31.429-24.15-35.474-1.968-.934-7.744-2.536-12.835-3.56-5.091-1.025-10.566-2.422-12.167-3.107-5.851-2.502-15.446-10.048-20.801-16.36-11.598-13.672-22.41-39.218-24.57-58.058-.627-5.468-2.27-17.141-3.652-25.941-3.119-19.865-5.186-24.685-13.2-30.776-7.172-5.451-7.604-8.086-1.398-8.533 9.039-.652 21.594 5.14 30.55 14.095 5.555 5.556 9.294 11.778 15.153 25.214 1.438 3.3 3.324 7.085 4.19 8.411l1.574 2.411 1.336-2.41c.735-1.327 1.352-3.03 1.372-3.787.063-2.47 5.214-12.98 6.627-13.522 2.196-.842 3.139 2.255 3.621 11.897.408 8.14.89 9.931 5.048 18.744 5.269 11.168 12.062 20.35 18.079 24.433 7.24 4.913 7.035 5.03 8.253-4.712 1.024-8.182 3.814-15.934 5.997-16.662.526-.175 2.971 3.58 5.433 8.344a5325.567 5325.567 0 007.657 14.757c1.75 3.353 5.35 8.192 8 10.755 6.265 6.055 20.035 15.841 22.29 15.841.968 0 2.904.9 4.303 2 1.398 1.1 2.798 2 3.111 2 .313 0 .506-4.073.428-9.05-.11-7.13.202-9.393 1.474-10.664 2.217-2.217 4.18-.453 5.56 4.994 2.315 9.141 11.214 18.346 26.132 27.03 7.693 4.48 17.697 17.209 24.511 31.19 6.208 12.737 7.517 18.114 7.496 30.8-.027 17.217-3.835 27.498-15.428 41.656-8.829 10.784-14.159 20.7-19.161 35.65-2.932 8.76-3.437 11.553-3.19 17.64.234 5.765.627 7.296 1.937 7.546.903.172 5.094-2.029 9.312-4.89 9.07-6.155 9.197-6.103 12.522 5.098 2.395 8.066 6.438 14.362 13.259 20.65 5.325 4.908 14.779 11.375 21.313 14.578 2.723 1.336 8.558 4.442 12.967 6.903 4.408 2.461 8.908 4.784 10 5.161 2.77.958-12.812-13.571-19.591-18.267-13.216-9.155-25.268-25.728-27.889-38.35-1.558-7.507-.425-9.717 7.739-15.096 3.774-2.486 7.689-5.434 8.699-6.55 3.666-4.051 5.542-2.296 14.397 13.471 3.398 6.05 8.53 14.15 11.403 17.999 6.998 9.372 28.002 30.497 34.214 34.412 2.744 1.728 9.944 4.797 16 6.819l11.012 3.676 24.5.568 24.5.568 11 3.833c16.937 5.902 21.319 8.289 28.545 15.55 8.975 9.016 14.394 19.634 17 33.313 3.26 17.108 2.393 24.44-4.658 39.39-5.058 10.724-11.017 16.756-21.198 21.46-8.595 3.97-10.587 4.264-19.787 2.915zM194.91 928.718c-.875-.67-5.15-3.918-9.498-7.218-4.35-3.3-10.517-8.641-13.706-11.87-3.19-3.228-6.057-5.611-6.373-5.295-1.028 1.027 4.372 9.033 9.83 14.573 5.286 5.367 15.348 11.121 19.338 11.06 1.777-.028 1.823-.167.409-1.25zm-26.12-89.968c1.606-12.05 5.102-18.982 15.002-29.74 16.829-18.29 32.205-42.224 35.668-55.518 4.69-18.004-2.085-49.539-13.962-64.992-7.697-10.015-19.176-20.97-25.02-23.877-11.049-5.498-11.294-5.296-3.76 3.103 9.674 10.783 13.9 16.555 17.719 24.2 4.793 9.597 6.37 15.137 8.577 30.139 2.72 18.483 2.609 26.055-.478 32.685-2.164 4.65-2.792 5.25-5.49 5.25-4.123 0-7.046-3.111-7.046-7.5 0-3.853-1.357-4.57-2.965-1.566-2.171 4.058-1.215 10.377 2.44 16.112 1.91 3 3.483 5.904 3.494 6.454.076 3.785-3.118 9.835-10.13 19.192-12.767 17.036-19.628 33.952-18.532 45.69 1.173 12.561 2.84 12.698 4.483.368zm-37.899-.625c2.358-7.47 6.45-14.361 15.41-25.957 5.507-7.126 5.625-7.41 4.218-10.13-1.367-2.644-6.885-7.987-8.346-8.082-.37-.024-2.573-.41-4.894-.86-5.512-1.067-6.394-.055-10.929 12.535-3.465 9.62-3.543 10.16-3.09 21.369.455 11.24 2.568 19.842 4.57 18.606.478-.297 1.856-3.663 3.061-7.481zM570.43 989.066c-9.762-4.686-15.892-10.999-20.816-21.438-7.051-14.95-7.918-22.282-4.658-39.39 2.606-13.679 8.025-24.297 17-33.314 7.226-7.26 11.608-9.647 28.545-15.55l11-3.832 24.5-.568 24.5-.568 11.012-3.676c6.056-2.022 13.256-5.09 16-6.82 6.212-3.914 27.216-25.04 34.214-34.411 2.874-3.85 8.005-11.949 11.403-17.999 8.855-15.767 10.731-17.522 14.397-13.47 1.01 1.115 4.925 4.063 8.7 6.55 8.163 5.378 9.296 7.588 7.738 15.095-2.62 12.622-14.673 29.195-27.889 38.35-6.779 4.696-22.361 19.225-19.59 18.267 1.09-.377 5.59-2.7 10-5.16 4.408-2.462 10.243-5.568 12.966-6.904 6.534-3.203 15.988-9.67 21.313-14.578 6.821-6.288 10.864-12.584 13.259-20.65 3.325-11.201 3.452-11.253 12.522-5.099 4.218 2.862 8.409 5.063 9.312 4.891 1.31-.25 1.703-1.78 1.937-7.545.247-6.088-.258-8.88-3.19-17.641-5.002-14.95-10.332-24.866-19.161-35.65-11.593-14.158-15.4-24.44-15.428-41.657-.02-12.685 1.288-18.062 7.496-30.799 6.814-13.981 16.818-26.71 24.51-31.19 14.919-8.684 23.818-17.889 26.133-27.03 1.38-5.447 3.343-7.211 5.56-4.994 1.272 1.271 1.584 3.534 1.474 10.664-.078 4.977.115 9.05.428 9.05s1.713-.9 3.111-2c1.399-1.1 3.335-2 4.303-2 2.255 0 16.025-9.786 22.29-15.841 2.65-2.563 6.25-7.402 8-10.754 1.749-3.353 5.195-9.994 7.657-14.758 2.462-4.765 4.907-8.519 5.433-8.344 2.183.728 4.973 8.48 5.997 16.662 1.218 9.741 1.014 9.625 8.253 4.712 6.017-4.084 12.81-13.265 18.08-24.433 4.157-8.813 4.64-10.604 5.047-18.744.482-9.642 1.425-12.74 3.621-11.897 1.413.542 6.564 11.052 6.627 13.522.02.756.637 2.46 1.372 3.786l1.336 2.411 1.574-2.41c.866-1.327 2.752-5.112 4.19-8.412 5.86-13.436 9.598-19.658 15.154-25.214 8.955-8.954 21.51-14.747 30.55-14.095 6.205.447 5.773 3.082-1.399 8.533-8.014 6.091-10.081 10.91-13.2 30.776-1.381 8.8-3.025 20.473-3.652 25.941-2.16 18.84-12.972 44.386-24.57 58.058-5.355 6.312-14.95 13.858-20.8 16.36-1.602.685-7.077 2.082-12.168 3.107-5.091 1.024-10.867 2.626-12.835 3.56-8.525 4.045-20.138 21.104-24.15 35.474-2.38 8.524-3.062 29.585-1.109 34.25.863 2.063 2.058 3.75 2.654 3.75.597 0 3.32-1.133 6.051-2.517 4.033-2.044 4.992-3.03 5.101-5.25.28-5.703-.392-11.714-1.738-15.53-.768-2.175-1.396-4.632-1.396-5.46 0-2.427 6.473-.829 10.928 2.7 2.123 1.681 4.142 3.057 4.487 3.057.345 0 2.397 1.17 4.56 2.602l3.93 2.601 2.99-2.128c1.644-1.17 7.511-6.93 13.038-12.798 10.47-11.117 15.42-19.004 20.655-32.914 4.377-11.63 8.637-15.649 9.658-9.113 1.726 11.038.332 27.012-3.723 42.662-1.892 7.302-11.096 29.39-16.026 38.46l-3.33 6.128 2.432 12c2.019 9.96 2.464 15.316 2.62 31.5.22 23.056-1.5 32.722-8.347 46.905-5.749 11.908-17.177 23.426-27.372 27.587-3.85 1.571-7.536 3.34-8.19 3.932-.656.592-2.13 4.676-3.276 9.076-5.052 19.388-15 32.143-31.227 40.041-7.255 3.53-10.243 4.459-14.357 4.459-3.276 0-6.997.831-10.073 2.25-4.61 2.127-6.138 2.25-27.877 2.25l-23 .002-7 2.882c-11.348 4.673-19.802 10.819-24.443 17.77-2.232 3.34-4.057 6.698-4.057 7.46 0 1.889-1.645 1.754-2.393-.196-2.526-6.583 4.344-25.057 12.7-34.148 3.985-4.337 10.706-8.12 21.193-11.927 2.2-.8 11.875-3.009 21.5-4.91 20.783-4.107 26.432-6.508 32.057-13.624 2.169-2.744 3.943-5.377 3.943-5.853 0-.475-2.243.175-4.985 1.445-4.07 1.887-6.316 2.251-12.25 1.99-8.867-.392-15.106-2.005-17.353-4.488-2.305-2.548-.703-4.313 5.905-6.508 3.69-1.226 6.74-3.31 10.687-7.305 7.347-7.434 10.388-15.646 9.838-26.557-.56-11.077-1.89-11.358-6.566-1.386-4.89 10.426-17.848 25.906-27.776 33.18-8.536 6.254-21.12 12.716-31.485 16.168-4.255 1.417-9.711 3.85-12.125 5.406-6.052 3.9-15.273 13.195-16.837 16.971-1.452 3.505-2.237 3.816-4.066 1.612-2.15-2.59-.011-14.32 4.547-24.943.783-1.826.571-1.8-3.097.371-8.168 4.835-27.21 9.088-40.693 9.088-5.992 0-6.203.094-10.744 4.806-8.791 9.12-12.675 24.68-7.895 31.632 3.133 4.558 6.62 6.777 11.514 7.328 3.382.382 4.381.907 4.381 2.307 0 5.694-12.344 6.67-24.61 1.948-8.528-3.284-12.226-6.251-16.23-13.021-2.369-4.007-2.664-5.54-2.692-14-.018-5.225-.382-10.063-.81-10.75-1.066-1.717-14.79-1.64-18.968.106-4.692 1.96-12.227 10.831-14.814 17.442-6.137 15.676.528 33.542 12.556 33.662 3.101.03 4.116.465 4.391 1.88.947 4.87-8.008 9.105-21.323 10.086-6.584.484-7.48.285-15.071-3.36zm261.077-61.909c3.487-1.65 8.24-5.11 11.333-8.25 5.457-5.539 10.857-13.545 9.83-14.572-.317-.316-3.185 2.067-6.374 5.295-3.19 3.229-9.357 8.57-13.706 11.87-4.349 3.3-8.623 6.548-9.498 7.218-3.12 2.389 2.121 1.417 8.415-1.56zm20.947-80.895c.367-.955.925-4.502 1.24-7.88 1.096-11.738-5.765-28.654-18.532-45.69-7.012-9.357-10.206-15.407-10.13-19.192.011-.55 1.584-3.454 3.495-6.454 3.654-5.735 4.61-12.054 2.439-16.112-1.608-3.004-2.965-2.287-2.965 1.566 0 4.389-2.923 7.5-7.046 7.5-2.698 0-3.326-.6-5.49-5.25-3.087-6.63-3.197-14.202-.478-32.685 3.6-24.47 8.4-34.388 26.295-54.339 7.535-8.399 7.29-8.6-3.76-3.103-5.843 2.907-17.322 13.862-25.019 23.877-11.877 15.453-18.651 46.988-13.962 64.992 3.463 13.294 18.84 37.228 35.668 55.517 9.9 10.759 13.396 17.69 15.002 29.741 1.221 9.167 1.955 10.868 3.243 7.512zm40.235-4.012c1.006-2.378 1.756-7.959 2.051-15.25.454-11.21.376-11.749-3.089-21.369-4.535-12.59-5.417-13.602-10.929-12.535-2.321.45-4.524.836-4.894.86-1.461.095-6.98 5.438-8.346 8.081-1.407 2.72-1.289 3.005 4.218 10.131 8.266 10.697 13.141 18.568 14.715 23.758 1.944 6.413 3.438 10.074 4.112 10.074.317 0 1.29-1.687 2.162-3.75zM505.1 915.742c-10.842-19.166-30.826-46.935-36.61-50.875-1.912-1.302-3.48-2.663-3.483-3.026-.016-1.56-14.214-11.628-22.69-16.09-21.126-11.122-29.554-12.704-61.817-11.603-10.45.357-19.75.45-20.669.209-1.297-.342-1.816-2.155-2.33-8.149-1.138-13.228-2.482-20.474-5.068-27.312-4.12-10.9-7.276-15-14.51-18.857-6.165-3.285-6.797-3.41-16.417-3.25-11.318.19-16.368 1.145-28.506 5.395-4.675 1.637-10.075 3.442-12 4.011-1.925.57-5.075 2.274-7 3.788-1.925 1.514-6.085 4.4-9.244 6.412-3.16 2.013-8.216 5.672-11.236 8.132-3.02 2.46-6.308 4.473-7.306 4.473-.998 0-2.346.532-2.997 1.183-2.314 2.314-2.01.21 1.116-7.694 4.693-11.872 8.822-18.914 17.289-29.489 4.183-5.225 9.165-11.927 11.072-14.894 5.453-8.487 13.13-16.106 16.229-16.106 2.914 0 5.947-1.775 10.803-6.324 7.915-7.414 10.186-28.94 4.925-46.676-5.013-16.898-10.762-25.38-24.052-35.485-10.678-8.12-35.47-16.515-48.77-16.515H225l-.035-6.25c-.087-15.646-5.988-32.584-15.625-44.85-4.539-5.778-12.792-12.041-22.089-16.764-4.1-2.082-25.87-8.136-29.26-8.136-1.16 0-6.058 2.025-10.886 4.5-9.246 4.74-15.879 5.85-19.43 3.25-1.555-1.138-1.272-1.848 3.17-7.94 6.345-8.702 8.479-13.387 11.819-25.956 2.25-8.468 2.737-12.358 2.674-21.354-.068-9.55-.49-12.226-3.207-20.304-3.948-11.74-7.647-19.207-12.975-26.196-9.424-12.361-23.873-45.818-28.936-67-4.598-19.24-5.584-68.608-1.787-89.5 1.689-9.293 7.063-30.329 7.983-31.25.286-.285 3.797 1.066 7.802 3.005 4.005 1.938 9.307 4.267 11.782 5.175l4.5 1.65v9.254c0 10.903.635 12.209 9.55 19.628 5.983 4.98 6.134 5.038 12.957 5.038h6.902l.6 3.75c1.07 6.68 6.589 23.427 10.443 31.692 3.521 7.549 22.085 33.707 29.255 41.222 1.66 1.74 2.716 3.652 2.346 4.25-.376.609-3.654 1.086-7.464 1.086-8.949 0-12.43 2.28-16.855 11.036-7.802 15.44-3.544 38.665 8.447 46.076 8.763 5.416 25.456 2.772 32.319-5.119 1.925-2.213 4.04-4.017 4.701-4.008.66.009 4.113 4.192 7.673 9.297 4.443 6.373 9.472 11.904 16.045 17.647 9.554 8.348 12.086 11.78 19.6 26.571 2.73 5.374 6.428 7.076 8.9 4.096 3.342-4.025-7.873-27.998-20.862-44.596-4.95-6.325-9.013-11.776-9.028-12.113-.055-1.172 10.5 1.262 15.72 3.625 12.989 5.88 29.103 19.451 42.614 35.887 5.185 6.309 13.164 11.601 17.49 11.601 3.027 0 3.314-.235 2.746-2.25-1.25-4.433-2.572-23.346-1.975-28.25 1.06-8.71 5.198-23.246 8.899-31.26 4.711-10.202 10.891-16.615 12.892-13.377.293.474-.122 4.861-.923 9.75-2.753 16.797-1.356 33.84 3.617 44.112 2.692 5.56 10.89 13.63 17.108 16.84 6.843 3.533 14.537 3.408 18.24-.294 1.5-1.501 3.373-3.976 4.162-5.5 1.276-2.469 1.979-2.771 6.447-2.771 5.464 0 10.135-1.968 16.256-6.848 3.185-2.54 4.237-2.89 6.315-2.1 9.315 3.542 20.206-1.525 38.067-17.708 13.309-12.058 23.272-24.098 38.278-46.256C498 410.203 506.752 399.5 508 399.5c1.248 0 10 10.703 16.018 19.588 15.006 22.158 24.97 34.198 38.278 46.256 17.86 16.183 28.752 21.25 38.067 17.708 2.078-.79 3.13-.44 6.315 2.1 6.121 4.88 10.792 6.848 16.256 6.848 4.468 0 5.17.302 6.447 2.77.789 1.525 2.661 4 4.163 5.5 3.702 3.703 11.396 3.828 18.24.295 6.217-3.21 14.415-11.28 17.107-16.84 4.973-10.272 6.37-27.315 3.617-44.112-.8-4.889-1.216-9.276-.923-9.75 2-3.238 8.18 3.175 12.892 13.378 3.701 8.013 7.84 22.55 8.899 31.259.597 4.904-.726 23.817-1.975 28.25-.568 2.015-.28 2.25 2.746 2.25 4.326 0 12.305-5.292 17.49-11.6 13.51-16.437 29.625-30.008 42.615-35.888 5.218-2.363 15.774-4.797 15.72-3.625-.016.337-4.08 5.788-9.029 12.113-12.99 16.598-24.204 40.57-20.863 44.597 2.473 2.979 6.171 1.277 8.901-4.097 7.514-14.79 10.046-18.223 19.6-26.571 6.573-5.743 11.602-11.274 16.045-17.647 3.56-5.105 7.012-9.289 7.673-9.297.66-.01 2.776 1.795 4.701 4.008 6.863 7.891 23.556 10.535 32.319 5.119 11.991-7.411 16.25-30.635 8.447-46.076C833.341 407.28 829.86 405 820.911 405c-3.81 0-7.088-.477-7.464-1.086-.37-.598.686-2.51 2.346-4.25 7.17-7.515 25.734-33.673 29.255-41.222 3.854-8.265 9.373-25.013 10.442-31.692l.6-3.75h15.806l6.054-5.038c8.915-7.419 9.55-8.725 9.55-19.628v-9.253l4.5-1.666c2.475-.916 7.358-3.004 10.85-4.64 3.494-1.635 6.687-2.591 7.097-2.124 1.083 1.234 5.714 19.377 7.619 29.849 3.798 20.883 2.813 70.256-1.786 89.5-5.063 21.182-19.512 54.639-28.936 67-5.328 6.989-9.027 14.457-12.975 26.196-2.717 8.078-3.14 10.754-3.207 20.304-.063 8.996.424 12.886 2.674 21.354 3.34 12.57 5.474 17.254 11.819 25.956 4.442 6.092 4.725 6.802 3.17 7.94-3.551 2.6-10.184 1.49-19.43-3.25-4.828-2.475-9.727-4.5-10.887-4.5-3.389 0-25.16 6.054-29.26 8.136-2.062 1.048-6.8 3.878-10.527 6.29-15.814 10.23-27.062 33.12-27.186 55.324L791 637h-6.83c-13.298 0-38.091 8.396-48.77 16.515-13.289 10.105-19.038 18.587-24.05 35.485-5.262 17.736-2.99 39.262 4.924 46.676 4.878 4.57 7.891 6.324 10.86 6.324 2.04 0 4.188 1.63 8.897 6.75 3.415 3.712 7.385 8.325 8.822 10.25 1.437 1.925 6.102 7.852 10.365 13.17 9.384 11.708 14.254 19.71 18.449 30.32 3.125 7.903 3.43 10.007 1.116 7.693-.65-.65-2.59-1.183-4.309-1.183-2.08 0-3.936-.87-5.55-2.606-5.314-5.712-24.304-18.899-28.854-20.037-2.514-.629-8.395-2.494-13.07-4.146-12.078-4.267-17.15-5.232-28.506-5.422-9.62-.16-10.252-.035-16.417 3.25-11.76 6.269-17.262 19.242-19.577 46.17-.515 5.993-1.034 7.806-2.331 8.148-.918.242-10.219.148-20.669-.209-32.263-1.1-40.69.481-61.817 11.603-8.476 4.462-22.674 14.53-22.69 16.09-.004.363-1.57 1.724-3.482 3.026-5.785 3.94-25.769 31.709-36.611 50.875-1.32 2.334-2.625 4.243-2.9 4.243-.275 0-1.58-1.91-2.9-4.243zM466.282 799.65c4.712-1.978 37.08-33.906 39.248-38.716.976-2.163 2.087-3.933 2.47-3.933s1.494 1.77 2.47 3.933c2.204 4.888 34.572 36.753 39.384 38.773 4.157 1.745 8.22.945 12.197-2.402 2.314-1.948 3.627-2.368 5.726-1.835 7.373 1.874 9.673 1.746 11.936-.663 3.1-3.3 10.902-25.895 13.342-38.639 1.123-5.867 2.695-13.46 3.493-16.873.799-3.413 1.452-7.714 1.452-9.558 0-3.93 2.116-7.291 4.105-6.52.767.297 5.186 7.458 9.819 15.912 4.633 8.455 8.607 15.596 8.832 15.87 1.148 1.404 3.157-4.002 4.196-11.29.644-4.515 2.467-13.833 4.051-20.708 1.585-6.875 3.844-17.666 5.02-23.98 2.689-14.427 10.897-41.806 15.942-53.177 4.456-10.046 17.358-30.606 26.884-42.843 3.64-4.675 10.468-12.325 15.176-17 11.435-11.356 26.32-27.988 25.65-28.659-.82-.82-16.057 5.277-26.175 10.474-7.327 3.763-10.487 6.182-17 13.013-4.4 4.615-11.305 11.08-15.343 14.365-7.35 5.98-19.417 12.305-21.76 11.406-.886-.34-.273-2.443 2.123-7.288 3.842-7.768 10.271-28.754 11.193-36.533l.619-5.225-2.916 1.892a1574.151 1574.151 0 01-6.916 4.453c-2.2 1.408-6.925 5.22-10.5 8.472-3.575 3.251-9.65 8.27-13.5 11.154-3.85 2.883-10.16 8.572-14.024 12.643C595.09 605.003 584 611.012 584 606.72c0-.704 2.246-7.094 4.992-14.2 6.185-16.005 7.39-22.323 6.485-34.009-.959-12.397-2.21-15.1-7.651-16.532-6.65-1.75-20.484-9.908-26.333-15.528-2.891-2.778-6.493-7.49-8.004-10.473-1.706-3.367-6.514-9.221-12.687-15.45-11.098-11.197-13.894-15.985-20.415-34.964-2.067-6.014-4.575-11.752-5.573-12.75-2.511-2.511-11.117-2.511-13.628 0-.998.998-3.506 6.736-5.572 12.75-6.522 18.979-9.318 23.767-20.416 34.965-6.173 6.228-10.98 12.082-12.687 15.45-1.511 2.981-5.113 7.694-8.004 10.472-5.85 5.62-19.682 13.777-26.333 15.528-5.442 1.433-6.692 4.135-7.651 16.532-.904 11.686.3 18.004 6.485 34.01 2.746 7.105 4.992 13.495 4.992 14.199 0 4.292-11.09-1.717-19.476-10.553-3.863-4.07-10.174-9.76-14.024-12.643-3.85-2.884-9.925-7.903-13.5-11.154-3.575-3.252-8.3-7.064-10.5-8.472a1595.29 1595.29 0 01-6.916-4.453l-2.916-1.892.62 5.225c.92 7.779 7.35 28.765 11.192 36.533 2.396 4.845 3.009 6.948 2.123 7.288-2.343.899-14.41-5.426-21.76-11.406-4.038-3.285-10.943-9.75-15.343-14.365-6.513-6.831-9.673-9.25-17-13.013-10.118-5.197-25.355-11.294-26.175-10.474-.67.671 14.215 17.303 25.65 28.659 4.708 4.675 11.537 12.325 15.176 17 9.526 12.237 22.428 32.797 26.884 42.843 5.045 11.37 13.253 38.75 15.942 53.177 1.176 6.314 3.435 17.105 5.02 23.98 1.584 6.875 3.407 16.193 4.05 20.708 1.04 7.288 3.049 12.694 4.197 11.29.225-.274 4.199-7.415 8.832-15.87 4.633-8.454 9.052-15.615 9.819-15.912 1.989-.771 4.105 2.59 4.105 6.52 0 1.844.653 6.145 1.452 9.558.798 3.414 2.37 11.006 3.493 16.873 2.44 12.744 10.242 35.338 13.342 38.64 2.268 2.414 4.53 2.536 12.014.647 2.117-.534 3.338-.202 5 1.36 2.237 2.1 6.16 4.008 8.481 4.123.705.035 2.73-.545 4.5-1.288zm-9.551-56.52c-1.523-.896-4.673-4.386-7-7.756s-7.455-10.344-11.395-15.5c-3.94-5.155-9.716-14.21-12.836-20.123-5.63-10.667-5.701-10.75-9.337-10.765-5.013-.021-5.774-.684-9.664-8.415-4.59-9.122-6.603-20.083-8.937-48.641-1.403-17.168-4.857-34.73-8.039-40.885-.748-1.445-3.196-4.851-5.441-7.568-5.88-7.116-5.02-7.819 1.668-1.362 3.163 3.053 7.775 7.058 10.25 8.901 2.475 1.843 8.325 7.032 13 11.532 7.91 7.612 15.025 12.453 18.305 12.453.762 0 2.118.81 3.014 1.8 2.23 2.464 7.153 14.641 9.696 23.984 3.014 11.07 3.033 11.11 4.074 8.41 1.212-3.147-.49-14.696-3.751-25.448-2.2-7.253-2.457-9.19-1.497-11.297 1.885-4.137 1.363-8.45-2.36-19.503-3.662-10.87-7.083-25.677-6.148-26.612.297-.297 1.806 1.328 3.353 3.61 1.548 2.283 5.25 7.617 8.229 11.853 8.715 12.398 16.557 29.852 20.086 44.708 2.71 11.409 6.44 21.256 9.07 23.945 1.41 1.442 1.14-5.204-.467-11.49-.767-3.003-1.722-7.485-2.121-9.96-1.15-7.126-6.333-23.766-9.15-29.375-3.804-7.577-15.89-27.972-22-37.125-6.578-9.853-6.8-12.028-1.372-13.49 7.069-1.903 18.305-9.187 26.17-16.964 4.197-4.15 7.848-8.221 8.113-9.046.978-3.045 1.556-.37.755 3.5-3.662 17.714-4.178 21.461-3.644 26.5 1.364 12.877 5.898 21 11.722 21 1.543 0 3.073.433 3.4.963.327.53 2.215 1.41 4.195 1.957 6.754 1.865 13.622-3.359 19.1-14.527 1.454-2.966 2.907-5.393 3.228-5.393.32 0 1.774 2.427 3.228 5.393 5.478 11.168 12.346 16.392 19.1 14.527 1.98-.547 3.868-1.427 4.195-1.957.327-.53 1.857-.963 3.4-.963 5.824 0 10.358-8.123 11.722-21 .534-5.039.018-8.786-3.644-26.5-.8-3.87-.223-6.545.755-3.5.265.825 3.916 4.896 8.113 9.046 7.865 7.777 19.101 15.061 26.17 16.965 5.427 1.461 5.206 3.636-1.371 13.489-6.11 9.153-18.197 29.548-22.002 37.125-2.816 5.61-7.999 22.249-9.149 29.375-.4 2.475-1.354 6.957-2.121 9.96-1.607 6.286-1.877 12.932-.467 11.49 2.63-2.69 6.36-12.536 9.07-23.945 3.53-14.856 11.371-32.31 20.086-44.708 2.978-4.236 6.728-9.635 8.332-11.998 1.666-2.453 3.1-3.747 3.344-3.017.645 1.937-2.488 15.016-6.333 26.432-3.636 10.795-4.145 15.117-2.27 19.235.96 2.107.704 4.044-1.496 11.297-3.26 10.752-4.963 22.3-3.75 25.448 1.04 2.7 1.06 2.66 4.073-8.41 2.543-9.343 7.466-21.52 9.696-23.983.896-.99 2.252-1.801 3.014-1.801 3.28 0 10.396-4.841 18.305-12.454 4.675-4.499 10.525-9.688 13-11.53 2.475-1.844 7.088-5.85 10.25-8.902 6.688-6.457 7.549-5.754 1.668 1.362-2.245 2.717-4.693 6.123-5.441 7.568-3.182 6.155-6.636 23.717-8.039 40.885-2.334 28.558-4.348 39.519-8.937 48.641-3.89 7.731-4.651 8.394-9.664 8.415-3.636.015-3.708.098-9.337 10.765-3.12 5.912-8.896 14.971-12.836 20.13-3.94 5.16-9.189 12.26-11.664 15.781-4.812 6.844-9.647 10.423-10.628 7.867-.295-.77.282-4.916 1.282-9.214 1.87-8.037 2.649-32.34 1.086-33.906-.419-.42-1.356.053-2.084 1.048-2.515 3.439-21.336 4.857-25.524 1.924-2.005-1.405-2.655-1.438-4.874-.25-1.857.993-6.877 1.37-18.258 1.37-11.38 0-16.401-.377-18.258-1.37-2.219-1.188-2.869-1.155-4.874.25-4.188 2.933-23.01 1.515-25.524-1.924-.728-.995-1.665-1.467-2.084-1.048-1.585 1.588-.76 25.888 1.167 34.388 1.112 4.899 1.512 8.636.977 9.128-.497.458-2.15.1-3.673-.796zm-94.385 25.121c-.326-.963-2.123-5.713-3.994-10.557-1.872-4.844-5.452-15.87-7.957-24.5-2.505-8.631-7.215-21.997-10.467-29.7-5.018-11.89-7.14-15.568-14.027-24.312-4.462-5.666-8.296-10.119-8.52-9.895-.224.224 1.58 4.691 4.011 9.927 5.28 11.376 8.903 21.215 11.642 31.615 2.537 9.636 6.007 30.901 5.33 32.666-.938 2.444 2.391 6.94 12.408 16.756 9.642 9.45 12.803 11.635 11.574 8zm302.882-8c10.017-9.817 13.346-14.312 12.408-16.756-.677-1.765 2.793-23.03 5.33-32.666 2.74-10.4 6.362-20.24 11.642-31.615 2.43-5.236 4.235-9.703 4.011-9.927-.224-.224-4.058 4.229-8.52 9.895-6.886 8.744-9.009 12.423-14.027 24.311-3.252 7.704-7.962 21.07-10.467 29.7-2.505 8.632-6.085 19.657-7.957 24.5-4.67 12.092-4.732 12.308-3.477 12.308.61 0 5.586-4.388 11.057-9.75zM313.461 607.67c-11.096-19.222-43.322-54.636-49.746-54.666-1.133-.005.863 3.417 5.754 9.864 5.184 6.835 11.115 18.395 12.082 23.552.582 3.104 1.519 4.265 5.19 6.434 7.753 4.581 16.512 11.65 23.759 19.174 8.688 9.02 9.767 7.432 2.961-4.358zm392.18 4.21c7.12-7.39 15.908-14.47 23.619-19.026 3.67-2.17 4.607-3.33 5.189-6.434.967-5.157 6.898-16.717 12.082-23.552 4.89-6.447 6.887-9.87 5.754-9.864-4.49.021-22.302 17.848-39.466 39.496-8.687 10.956-17.15 26.5-14.428 26.5.216 0 3.478-3.204 7.25-7.12zM367.963 491.575c-6.115-3.824-8.532-6.7-12.962-15.418-5.176-10.185-6.2-22-1.614-18.635 9.236 6.777 13.186 7.532 33.328 6.372 38.17-2.198 40.58-2.696 43.868-9.055.951-1.84 2.949-3.187 6.444-4.348 7.601-2.525 16.117-10.88 20.496-20.108 1.927-4.06 4.085-7.383 4.795-7.383 2.843 0 10.392-5.87 12.055-9.373.95-2.003 2.383-8.005 3.183-13.336 1.21-8.061 1.913-10.17 4.169-12.526 2.29-2.39 2.77-3.88 3.075-9.549.199-3.694-.062-7.835-.58-9.204-.872-2.308-1.056-2.087-2.553 3.063-.888 3.053-2.75 7.097-4.137 8.988-4.407 6.003-6.736 12.03-7.67 19.844-1.134 9.503-3.425 12.093-10.693 12.093-5.907 0-8.48-1.761-10.004-6.85-.964-3.219-2.023-4.388-5.494-6.068-2.365-1.145-4.769-2.082-5.342-2.082-.572 0-7.84-2.475-16.149-5.5-8.309-3.025-15.984-5.5-17.055-5.5-1.072 0-4.575-2.188-7.786-4.863-3.21-2.675-7.677-5.797-9.925-6.938-5.08-2.578-14.655-10.343-24.162-19.594-5.008-4.873-7.25-6.501-7.25-5.264 0 2.596 1.48 5.076 9.146 15.316 3.77 5.036 6.854 9.338 6.854 9.56 0 .222-6.453.21-14.34-.028-9.9-.298-15.024-.064-16.553.754-2.734 1.463-6.098 6.817-6.103 9.712-.002 1.186-1.572 4.032-3.487 6.325-3.71 4.441-6.5 12.095-6.543 17.952-.015 1.962.984 7.489 2.22 12.281l2.244 8.713-3.328 7.787c-6.887 16.115-8.388 22.56-9.023 38.737l-.587 14.95-6.653-8.048c-3.66-4.426-10.072-11.144-14.25-14.928-4.178-3.785-7.597-7.247-7.597-7.695 0-.448 1.913-3.354 4.25-6.457l4.25-5.642-.257-20.565c-.35-28.06-1.773-45.713-4.742-58.866-1.375-6.094-2.501-11.505-2.501-12.024 0-.52 2.813.543 6.25 2.36 6.762 3.575 18.679 6.465 26.659 6.465 7.26 0 15.091-1.871 15.091-3.607 0-.792-2.482-4.693-5.515-8.667-5.91-7.743-12.514-22.885-14.324-32.839-1.534-8.441-.173-9.079 4.903-2.295 4.043 5.402 17.98 17.086 22.804 19.116 3.14 1.322 8.768 2.326 30.132 5.378 14.897 2.128 21.017 4.836 40.5 17.92C430.514 372.089 432.127 373 434.959 373c2.98 0 4.041-3.648 4.041-13.884 0-17.034-6.318-30.495-21.46-45.727-9.26-9.315-22.53-19.312-27.839-20.975-1.21-.379-3.209-1.476-4.44-2.438-3.612-2.818-.678-4.372 7.005-3.71 11.121.957 25.611 9.295 40.935 23.554 8.092 7.53 16.75 13.18 20.198 13.18.807 0 1.73-.834 2.054-1.853.913-2.877.981-14.267.107-18.048l-.785-3.402 4.825.662c5.806.795 11.744 3.71 16.152 7.927 3.71 3.548 7.248 12.056 7.248 17.426 0 3.326 1.113 4.757 13 16.713l13 13.075 13-13.075c11.887-11.956 13-13.387 13-16.713 0-5.37 3.539-13.878 7.248-17.426 4.408-4.217 10.346-7.132 16.152-7.927l4.825-.662-.785 3.402c-.874 3.781-.806 15.171.107 18.048.323 1.02 1.247 1.853 2.054 1.853 3.447 0 12.106-5.65 20.198-13.18 15.324-14.26 29.814-22.597 40.935-23.554 7.683-.662 10.617.892 7.006 3.71-1.232.962-3.23 2.06-4.441 2.438-5.31 1.663-18.578 11.66-27.838 20.975C585.318 328.62 579 342.082 579 359.116c0 10.236 1.062 13.884 4.041 13.884 2.832 0 4.445-.911 19.459-10.994 19.483-13.084 25.603-15.792 40.5-17.92 21.364-3.052 26.991-4.056 30.132-5.378 4.824-2.03 18.761-13.714 22.804-19.116 5.076-6.784 6.437-6.146 4.903 2.295-1.81 9.954-8.414 25.096-14.324 32.84-3.033 3.973-5.515 7.874-5.515 8.666 0 1.736 7.83 3.607 15.091 3.607 7.98 0 19.897-2.89 26.659-6.465 3.437-1.817 6.25-2.88 6.25-2.36s-1.126 5.93-2.501 12.024c-2.97 13.153-4.391 30.807-4.742 58.866l-.257 20.565 4.25 5.642c2.337 3.103 4.25 6.009 4.25 6.457 0 .448-3.419 3.91-7.597 7.695-4.178 3.784-10.59 10.502-14.25 14.928l-6.653 8.049-.587-14.95c-.635-16.179-2.136-22.623-9.023-38.738l-3.328-7.787 2.245-8.713c1.235-4.792 2.233-10.319 2.22-12.282-.044-5.856-2.833-13.51-6.544-17.95-1.915-2.294-3.485-5.14-3.487-6.326-.005-2.896-3.369-8.249-6.103-9.712-1.529-.818-6.653-1.052-16.554-.754-7.886.237-14.339.25-14.339.028s3.084-4.524 6.854-9.56c7.665-10.24 9.146-12.72 9.146-15.316 0-1.237-2.242.391-7.25 5.264-9.507 9.251-19.082 17.016-24.162 19.594-2.248 1.141-6.715 4.263-9.925 6.938-3.211 2.675-6.714 4.863-7.786 4.863-1.071 0-8.746 2.475-17.055 5.5-8.31 3.025-15.577 5.5-16.15 5.5-.572 0-2.976.937-5.34 2.082-3.472 1.68-4.53 2.85-5.495 6.068-1.525 5.089-4.097 6.85-10.004 6.85-7.268 0-9.559-2.59-10.693-12.093-.934-7.814-3.263-13.841-7.67-19.844-1.388-1.89-3.25-5.935-4.137-8.988-1.497-5.15-1.68-5.37-2.554-3.063-.517 1.369-.778 5.51-.579 9.204.305 5.67.785 7.159 3.075 9.55 2.256 2.354 2.959 4.464 4.169 12.525.8 5.331 2.233 11.333 3.183 13.336 1.663 3.504 9.212 9.373 12.055 9.373.71 0 2.868 3.322 4.795 7.383 4.379 9.229 12.895 17.583 20.496 20.108 3.495 1.16 5.493 2.509 6.444 4.348 3.288 6.36 5.698 6.857 43.868 9.055 20.142 1.16 24.092.405 33.328-6.372.883-.648 1.703-.606 2.433.124 2.61 2.61-2.862 18.776-9.307 27.493-2.689 3.637-12.348 9.861-15.303 9.861-2.14 0-5.436-2.814-5.436-4.642 0-.54-1.262-2.193-2.805-3.67-2.363-2.265-3.688-2.688-8.421-2.688-5.02 0-6.344-.49-12.446-4.601-6.761-4.556-6.895-4.597-13.627-4.13-6.121.424-7.469.15-13.5-2.74-9.604-4.604-28.294-21.745-38.216-35.05-8.003-10.73-25.237-31.35-33.962-40.634L509 391.5l-5.023 5.345c-8.725 9.284-25.959 29.903-33.962 40.635-9.922 13.304-28.612 30.445-38.216 35.048-6.031 2.891-7.379 3.165-13.5 2.741-6.732-.467-6.866-.426-13.627 4.13-6.143 4.14-7.404 4.601-12.563 4.601-4.978 0-6.09.37-8.422 2.805-1.478 1.542-2.687 3.273-2.687 3.845 0 1.656-3.474 4.35-5.61 4.35-1.074 0-4.416-1.541-7.427-3.425zm-96.244-116.788c-.562-6.298-6.266-21.523-9.334-24.913-.809-.894-2.942-1.865-4.74-2.157-1.798-.292-5.404-1.534-8.014-2.76-3.937-1.851-5.763-2.124-10.742-1.603-7.29.762-10.886-.546-18.007-6.55-7.794-6.572-9.586-11.607-6.356-17.854 1.444-2.793 3.474-3.994 3.474-2.056 0 .492 1.306 2.292 2.901 4 2.196 2.35 3.768 3.106 6.465 3.106 4.576 0 6.247-2.613 4.69-7.333-2.549-7.72-12.392-13.905-27.056-17-9.844-2.077-31.636-4.812-38.26-4.802-12.256.02-18.947 7.677-11.164 12.777 1.333.873 2.424 2.436 2.424 3.473 0 1.52-.745 1.885-3.85 1.885-4.628 0-11.678-4.662-13.282-8.783-1.504-3.865-.416-13.623 1.97-17.666l2.025-3.433-6.681-2.191c-9.714-3.185-26.51-11.263-32.387-15.577-6.225-4.57-13.51-15.396-17.738-26.36-3.08-7.986-3.864-13.373-2.103-14.461.524-.325 3.693 3.485 7.042 8.465 6.212 9.24 11.117 13.726 18.801 17.199 6.184 2.795 7.419 1.68 2.183-1.972a740.32 740.32 0 01-8.549-6.068c-4.685-3.39-14.832-17.866-18.68-26.653-3.4-7.762-6.319-18.602-8.214-30.513-1.885-11.839-2.473-43.454-.874-46.987l1.131-2.5 1.103 3c.607 1.65 1.596 3.849 2.197 4.887.602 1.037 3.796 8.237 7.098 16 7.528 17.693 12.44 25.11 25.189 38.033 10.109 10.247 10.127 10.26 18.18 12.402 4.606 1.226 12.642 2.368 18.75 2.665 18.198.885 26.988 2.534 42.14 7.904 4.953 1.756 7.338 3.533 14.244 10.609 6.34 6.498 8.295 8.011 8.3 6.425.01-3.833-4.982-16.783-9.09-23.583-8.645-14.307-27.144-32.682-44.9-44.599a9142.3 9142.3 0 01-18.829-12.675c-10.743-7.255-23.98-19.764-28.764-27.181-11.141-17.273-11.597-44.605-1.25-74.887 4.34-12.697 8.556-20.391 11.594-21.154 2.882-.723 4.555 1.157 3.698 4.154-.314 1.1-1.208 7.153-1.986 13.45-1.429 11.57-.803 28.146 1.407 37.272 3.372 13.92 10.666 27.159 17.625 31.99 5.007 3.475 25.015 12.432 33 14.772 19.63 5.753 56.757 18.582 61.465 21.238 8.958 5.055 14.24 8.776 19.12 13.469 5.374 5.168 5.77 4.943 8.273-4.691 2.164-8.33 2.285-12.34.724-24-1.76-13.154-6.282-26.776-12.613-38-2.948-5.225-5.842-10.788-6.432-12.361-.59-1.574-3.752-6.167-7.028-10.208-3.276-4.04-5.537-7.605-5.025-7.921 1.346-.832 15.499 6.521 22.536 11.71 7.207 5.312 18.602 16.644 22.642 22.515 1.602 2.33 3.868 4.746 5.034 5.37 2.112 1.13 2.119 1.093 1.49-8.485-.348-5.29-.249-9.62.22-9.62 1.525 0 7.738 8.347 10.948 14.708 3.094 6.132 8.14 22.668 10.77 35.292.883 4.242 1.296 12.487 1.188 23.736l-.166 17.237 3.785 7.456c2.082 4.101 4.632 8.223 5.667 9.16 1.802 1.63 1.95 1.536 3.465-2.193.87-2.143 4.137-9.071 7.26-15.396l5.677-11.5v-11.25c0-8.226.33-11.25 1.228-11.25 2.058 0 11.878 12.742 13.187 17.111.733 2.446 1.383 12.466 1.61 24.806.42 22.759 1.29 28.602 5.16 34.583 3.78 5.847 9.307 12.5 10.382 12.5.513 0 .933-2.678.933-5.951 0-5.963 1.908-15.14 3.934-18.927 1.465-2.735 4.99-5.088 6.662-4.447.996.382 1.1 1.024.386 2.36-.54 1.008-.982 3.922-.982 6.474 0 4.281.443 5.104 5.737 10.654 8.106 8.499 14.621 13.022 20.124 13.971 11 1.898 18.625 3.955 21.966 5.926l3.582 2.114 2.821-3.337c1.552-1.835 3.983-5.259 5.403-7.608 3.307-5.472 2.644-10.152-2.112-14.908-3.142-3.142-3.706-3.321-10.47-3.321-4.322 0-8.27-.58-9.982-1.464-3.624-1.875-8.069-7.141-8.069-9.562 0-1.767.206-1.786 3.656-.344 3.404 1.422 3.835 1.394 6.242-.403 9.366-6.993-.11-24.397-15.05-27.64-2.753-.598-8.445-7.577-11.633-14.262-1.634-3.426-1.62-3.58.496-5.292l2.179-1.764-2.695-2.525c-3.869-3.623-8.996-5.942-23.459-10.607-14.92-4.813-20.029-7.251-28.435-13.57-9.957-7.485-26.772-26.43-25.016-28.185.317-.318 3.1.367 6.184 1.52 5.627 2.106 14.531 2.857 14.531 1.226 0-.48-4.304-3.292-9.565-6.25-5.26-2.958-12.573-7.746-16.25-10.64-3.677-2.893-9.16-6.909-12.185-8.923-10.802-7.193-28.436-27.976-32.76-38.61-2.35-5.781-2.738-12.769-.74-13.333.55-.155 3.018 2.905 5.486 6.8 2.83 4.469 7.228 9.432 11.916 13.448 16.619 14.237 26.73 18.997 55.982 26.35 20.105 5.055 31.951 8.805 47.99 15.19 15.369 6.118 19.044 7.962 26.765 13.433l6.138 4.349 1.118-4.438c1.175-4.667 4-8.07 7.994-9.628 3.123-1.219 3.259-.967 1.888 3.5-1.745 5.686.029 12.063 7.963 28.624 3.82 7.975 7.232 16.299 7.58 18.497.774 4.874 2.263 6.057 8.705 6.912 3.992.53 5.99 1.552 10.015 5.126 2.765 2.456 5.298 4.465 5.629 4.465 1.44 0 5.607-5.636 8.963-12.122 3.586-6.93 3.626-7.138 3.091-16.2-.451-7.65-1.299-11.195-5.092-21.295-7.191-19.15-7.943-30.108-2.853-41.613 2.95-6.672 11.622-14.598 14.685-13.423 1.265.486 1.198 1.184-.47 4.86-2.21 4.867-2.756 18.64-.932 23.478 1.09 2.892 6.7 9.315 8.135 9.315.442 0 .807-2.137.812-4.75.013-8.51 2.032-17.576 5.97-26.805 2.124-4.98 4.439-11.842 5.142-15.25.704-3.407 1.55-6.195 1.88-6.195.33 0 1.176 2.788 1.88 6.195.703 3.408 3.018 10.27 5.142 15.25 3.938 9.23 5.957 18.295 5.97 26.805.004 2.612.37 4.75.812 4.75 1.435 0 7.044-6.423 8.135-9.315 1.824-4.838 1.278-18.611-.931-23.478-1.669-3.676-1.736-4.374-.47-4.86 3.062-1.175 11.733 6.75 14.684 13.423 5.09 11.505 4.338 22.463-2.853 41.613-3.793 10.1-4.64 13.645-5.092 21.296-.535 9.06-.495 9.269 3.09 16.199 3.357 6.486 7.525 12.122 8.964 12.122.331 0 2.864-2.01 5.63-4.465 4.023-3.574 6.022-4.596 10.014-5.126 6.442-.855 7.931-2.038 8.704-6.912.349-2.198 3.76-10.522 7.581-18.497 7.934-16.561 9.708-22.938 7.963-28.624-1.37-4.467-1.235-4.719 1.888-3.5 3.994 1.558 6.82 4.961 7.994 9.628l1.118 4.438 6.138-4.35c7.721-5.47 11.396-7.314 26.765-13.432 16.039-6.385 27.885-10.135 47.99-15.19 29.251-7.353 39.363-12.113 55.982-26.35 4.688-4.016 9.086-8.98 11.916-13.448 2.468-3.895 4.936-6.955 5.486-6.8 1.998.564 1.61 7.552-.74 13.334-4.324 10.633-21.958 31.416-32.76 38.609-3.025 2.014-8.508 6.03-12.185 8.924-3.677 2.893-10.99 7.681-16.25 10.639-5.26 2.958-9.565 5.77-9.565 6.25 0 1.63 8.904.88 14.531-1.226 3.084-1.153 5.867-1.838 6.184-1.52 1.756 1.755-15.06 20.7-25.016 28.185-8.406 6.319-13.516 8.757-28.435 13.57-14.463 4.665-19.59 6.984-23.459 10.607l-2.695 2.525 2.179 1.764c2.115 1.713 2.13 1.866.496 5.292-3.188 6.685-8.88 13.664-11.633 14.262-5.215 1.132-7.946 2.602-11.912 6.413-7.676 7.376-9.069 16.799-3.138 21.227 2.407 1.797 2.838 1.825 6.242.403 3.45-1.442 3.656-1.423 3.656.344 0 2.42-4.445 7.687-8.07 9.562-1.71.885-5.659 1.464-9.98 1.464-6.765 0-7.329.179-10.471 3.321-4.757 4.757-5.42 9.436-2.112 14.908 1.42 2.349 3.851 5.773 5.403 7.608l2.82 3.337 3.583-2.114c3.341-1.97 10.966-4.028 21.966-5.926 5.503-.95 12.018-5.472 20.124-13.971 5.294-5.55 5.737-6.373 5.737-10.655 0-2.551-.442-5.465-.982-6.474-.714-1.335-.61-1.977.386-2.359 1.672-.641 5.197 1.712 6.662 4.447 2.026 3.788 3.934 12.964 3.934 18.927 0 3.273.42 5.951.933 5.951 1.075 0 6.601-6.653 10.383-12.5 3.868-5.981 4.74-11.824 5.159-34.583.227-12.34.877-22.36 1.61-24.806 1.309-4.37 11.129-17.111 13.187-17.111.898 0 1.228 3.024 1.228 11.25v11.25l5.677 11.5c3.123 6.325 6.39 13.253 7.26 15.396 1.515 3.73 1.663 3.823 3.465 2.193 1.035-.937 3.585-5.059 5.667-9.16l3.785-7.456-.166-17.237c-.108-11.249.305-19.494 1.188-23.736 2.63-12.624 7.676-29.16 10.77-35.292 3.21-6.36 9.423-14.708 10.948-14.708.469 0 .568 4.33.22 9.62-.629 9.578-.622 9.615 1.49 8.485 1.166-.624 3.432-3.04 5.034-5.37 4.04-5.871 15.435-17.203 22.642-22.516 7.037-5.188 21.19-12.541 22.536-11.709.512.316-1.75 3.881-5.025 7.921-3.276 4.04-6.438 8.634-7.028 10.208-.59 1.573-3.484 7.136-6.432 12.361-6.331 11.224-10.853 24.846-12.613 38-1.56 11.66-1.44 15.67.724 24 2.502 9.634 2.899 9.859 8.272 4.69 4.88-4.692 10.163-8.413 19.12-13.468 4.71-2.656 41.836-15.485 61.466-21.238 7.985-2.34 27.993-11.297 33-14.772 6.96-4.831 14.253-18.07 17.625-31.99 2.21-9.126 2.836-25.702 1.407-37.271-.778-6.298-1.672-12.351-1.986-13.451-.857-2.997.816-4.877 3.698-4.154 3.038.763 7.255 8.457 11.593 21.154 6.328 18.517 8.458 33.089 6.996 47.851-1.17 11.817-3.63 19.881-8.244 27.036-4.785 7.417-18.022 19.926-28.765 27.181-5.128 3.464-13.6 9.167-18.828 12.675-17.757 11.917-36.256 30.292-44.9 44.599-4.11 6.8-9.1 19.75-9.09 23.583.003 1.586 1.959.073 8.3-6.425 6.905-7.076 9.29-8.853 14.244-10.609 15.151-5.37 23.941-7.019 42.139-7.904 6.108-.297 14.144-1.439 18.75-2.665 8.053-2.142 8.071-2.155 18.18-12.402 12.75-12.923 17.661-20.34 25.189-38.033 3.302-7.763 6.496-14.963 7.098-16 .601-1.038 1.59-3.237 2.197-4.887l1.103-3 1.131 2.5c1.599 3.533 1.01 35.148-.874 46.987-1.895 11.911-4.813 22.75-8.213 30.513-3.85 8.787-13.996 23.264-18.681 26.653a740.32 740.32 0 01-8.55 6.068c-5.235 3.652-4 4.767 2.184 1.972 7.684-3.473 12.589-7.96 18.801-17.2 3.349-4.98 6.518-8.789 7.042-8.464 1.76 1.088.977 6.475-2.103 14.462-4.228 10.963-11.513 21.789-17.738 26.359-5.878 4.314-22.673 12.392-32.387 15.577l-6.681 2.19 2.026 3.434c2.385 4.043 3.473 13.801 1.97 17.666-1.605 4.121-8.655 8.783-13.283 8.783-3.105 0-3.85-.365-3.85-1.885 0-1.037 1.09-2.6 2.424-3.473 7.783-5.1 1.092-12.757-11.164-12.777-6.624-.01-28.416 2.725-38.26 4.803-14.664 3.094-24.507 9.279-27.055 16.999-1.558 4.72.113 7.333 4.689 7.333 2.697 0 4.269-.755 6.465-3.106 1.595-1.708 2.901-3.508 2.901-4 0-1.938 2.03-.737 3.474 2.056 3.23 6.247 1.438 11.282-6.356 17.854-7.121 6.004-10.716 7.312-18.007 6.55-4.979-.52-6.805-.248-10.742 1.603-2.61 1.226-6.216 2.468-8.014 2.76-1.798.292-3.931 1.263-4.74 2.157-3.068 3.39-8.772 18.615-9.334 24.913-.639 7.162-1.679 7.502-5.004 1.635-3.118-5.502-4.343-12.398-4.4-24.76-.038-8.018-.37-10.662-1.341-10.662-.71 0-4.398 2.602-8.196 5.783-8.016 6.715-13.73 9.395-27.071 12.7-6.957 1.723-10.16 2.11-11.504 1.391-1.682-.9-1.346-1.503 3.492-6.265 4.362-4.292 6.109-7.106 9.428-15.189 5.207-12.681 6.72-19.216 5.834-25.205-.63-4.26-2.787-8.215-4.48-8.215-.359 0-2.877 2.092-5.596 4.648-9.317 8.76-19.946 16.68-26.219 19.537-7.916 3.605-25.104 7.812-31.925 7.814-7.545.002-14.82 1.782-22.937 5.616-8.522 4.023-19.704 12.574-23.862 18.245-2.298 3.135-3.677 4.098-5.89 4.116l-2.89.024.544-5.25c.885-8.542 5.742-21.596 10.876-29.226 7.244-10.766 22.87-24.158 35.502-30.425 7.076-3.51 13.358-9.944 13.358-13.679 0-4.877-10.185-11.603-15.143-10-.746.24-4.042.698-7.324 1.016-12.196 1.182-26.796 10.272-43.74 27.233-9.944 9.954-11.816 11.434-12.433 9.826-.444-1.157.326-4.945 1.983-9.747 1.49-4.32 2.468-8.245 2.174-8.72-.723-1.17-9.68-3.028-14.598-3.028-11.336 0-22.493 11.715-26.277 27.593-1.295 5.433-2.138 6.633-10.525 14.968L509 345.62l-9.117-9.06c-8.386-8.335-9.23-9.535-10.525-14.968C485.574 305.715 474.418 294 463.08 294c-4.918 0-13.875 1.857-14.598 3.027-.294.476.685 4.4 2.174 8.72 1.657 4.803 2.427 8.591 1.983 9.748-.617 1.608-2.489.128-12.433-9.826-16.944-16.961-31.544-26.051-43.74-27.233-3.282-.318-6.578-.776-7.324-1.017-4.958-1.602-15.143 5.124-15.143 10.001 0 3.735 6.282 10.168 13.358 13.679 12.631 6.267 28.258 19.659 35.502 30.425 5.134 7.63 9.991 20.684 10.876 29.226l.544 5.25-2.89-.024c-2.213-.018-3.592-.981-5.89-4.116-4.158-5.67-15.34-14.222-23.862-18.245-8.118-3.833-15.392-5.614-22.937-5.616-6.82-.002-24.01-4.209-31.925-7.814-6.273-2.857-16.902-10.777-26.22-19.537-2.718-2.556-5.236-4.648-5.594-4.648-1.694 0-3.851 3.954-4.481 8.215-.886 5.99.627 12.524 5.834 25.205 3.32 8.083 5.066 10.897 9.428 15.19 4.838 4.761 5.174 5.364 3.492 6.264-1.344.72-4.547.332-11.504-1.392-13.341-3.304-19.055-5.985-27.071-12.699-3.798-3.18-7.486-5.783-8.196-5.783-.97 0-1.303 2.644-1.34 10.663-.058 12.361-1.283 19.257-4.401 24.76-3.325 5.866-4.365 5.526-5.004-1.636zm92.661-68.037c-.405-.688-6.445-8.9-13.42-18.25-16.154-21.653-26.921-32.094-44.5-43.152-7.128-4.483-15.107-10.042-17.732-12.354-3.93-3.461-5.033-3.986-6.25-2.976-.813.675-1.478 2.072-1.478 3.104 0 1.033-.422 1.878-.938 1.878-3.333 0-15.353-3.584-19.404-5.786-6.485-3.525-8.658-6.477-8.658-11.76 0-3.571.52-4.714 3.158-6.934 2.378-2 3.8-2.498 5.75-2.015 3.353.832 6.762 4.043 7.526 7.09.739 2.942 1.696 3.024 4.111.355 4.157-4.593.293-14.9-6.857-18.294-6.629-3.145-16.23-1.137-21.39 4.475-6.787 7.383-9.02 22.875-4.537 31.485 3.084 5.923 6.957 10.204 11.115 12.287 4.56 2.284 15.57 4.795 24.412 5.568 13.798 1.205 35.95 10.385 49.75 20.617 4.237 3.142 14.51 12.507 22.829 20.812 8.32 8.305 15.604 15.1 16.188 15.1.585 0 .731-.563.325-1.25zm305.753-13.85c8.32-8.305 18.592-17.67 22.83-20.812 13.799-10.232 35.951-19.412 49.75-20.617 8.84-.773 19.851-3.284 24.411-5.568 4.158-2.083 8.031-6.364 11.115-12.287 4.482-8.61 2.25-24.102-4.538-31.485-5.158-5.612-14.76-7.62-21.39-4.475-7.149 3.393-11.013 13.701-6.856 18.294 2.415 2.67 3.372 2.587 4.11-.355.765-3.047 4.174-6.258 7.527-7.09 1.95-.483 3.372.014 5.75 2.015 2.637 2.22 3.158 3.363 3.158 6.934 0 5.283-2.173 8.235-8.658 11.76-4.05 2.202-16.07 5.786-19.404 5.786-.516 0-.938-.845-.938-1.878 0-1.032-.665-2.43-1.478-3.104-1.217-1.01-2.32-.485-6.25 2.976-2.625 2.312-10.604 7.871-17.731 12.354-17.58 11.058-28.347 21.499-44.501 43.152-14.427 19.339-14.536 19.5-13.095 19.5.584 0 7.869-6.795 16.188-15.1zm-159.197-4.15c.623-1.788 2.248-4.938 3.612-7 2.815-4.256 5.668-4.835 8.892-1.807l2.068 1.944-.004-6.86c-.005-8.512 1.542-10.456 12.1-15.202 4.066-1.829 7.395-3.915 7.395-4.637 0-.722-.725-3.534-1.614-6.25l-1.614-4.936 5.114-4.802c6.15-5.773 6.865-8.46 1.365-5.122-5.89 3.574-10.571 5.922-11.806 5.922-.624 0-1.871.815-2.773 1.811-1.286 1.421-1.439 2.51-.71 5.055 1.255 4.372-1.386 7.134-6.821 7.134-2.456 0-5.185.898-7.5 2.47l-3.64 2.47-.001-3.22c0-1.771.515-7.988 1.146-13.816 1.111-10.256 1.067-10.832-1.39-18-1.395-4.072-3.107-9.992-3.805-13.154-.698-3.162-1.575-5.75-1.95-5.75s-1.252 2.587-1.95 5.75-2.41 9.082-3.805 13.154c-2.456 7.167-2.5 7.744-1.39 18 .631 5.828 1.147 12.045 1.146 13.816v3.22l-3.64-2.47c-2.316-1.572-5.044-2.47-7.5-2.47-5.435 0-8.076-2.762-6.822-7.134.73-2.544.577-3.634-.71-5.055-.901-.996-2.15-1.811-2.773-1.811-1.234 0-5.915-2.348-11.806-5.922-5.5-3.337-4.784-.65 1.365 5.122l5.115 4.802-1.615 4.937c-.888 2.715-1.615 5.527-1.614 6.249 0 .722 3.329 2.808 7.396 4.637 10.557 4.746 12.104 6.69 12.099 15.202l-.004 6.86 2.068-1.944c3.224-3.028 6.078-2.449 8.892 1.807 1.364 2.062 2.99 5.212 3.612 7 .623 1.787 1.494 3.25 1.936 3.25.443 0 1.314-1.463 1.936-3.25zM427 239.118c-.825-.451-5.775-1.6-11-2.554-10.603-1.936-16.714-5.275-23.881-13.051-3.887-4.217-4.288-5.378-5.356-15.513-.226-2.15-.826-2.541-4.28-2.796-3.39-.25-4.671.265-8.232 3.313-3.34 2.86-4.595 4.895-6.038 9.793-1.87 6.351-4.245 8.41-5.756 4.99-.784-1.776-2.297-54.678-1.63-56.993.518-1.8 21.069-11.48 23-10.833.92.307 2.792 1.422 4.16 2.476l2.487 1.916-2.237 2.382c-2.641 2.811-3.034 9.338-.815 13.552 2.312 4.392 10.723 11.976 16.57 14.94 3.686 1.869 6.394 4.179 8.389 7.154 2.736 4.083 2.822 4.484 1.213 5.66-1.209.885-2.668.998-4.835.377-3.843-1.102-5.485.092-6.332 4.604-.827 4.41.866 9.23 5.193 14.783 4.133 5.306 7.396 6.682 15.838 6.682 3.768 0 6.914.555 8.1 1.43 1.915 1.408 1.915 1.48.035 5-2.038 3.814-2.279 3.955-4.593 2.688zm159.428-2.65c-1.906-3.567-1.905-3.626.013-5.039 1.188-.874 4.333-1.429 8.1-1.429 8.443 0 11.706-1.376 15.84-6.682 4.326-5.553 6.019-10.374 5.192-14.783-.847-4.512-2.49-5.706-6.332-4.604-2.167.621-3.626.508-4.835-.376-1.61-1.177-1.523-1.578 1.213-5.66 1.995-2.976 4.703-5.286 8.389-7.155 5.847-2.964 14.258-10.548 16.57-14.94 2.219-4.214 1.826-10.741-.815-13.552l-2.237-2.382 2.487-1.916c1.368-1.054 3.24-2.169 4.16-2.476 1.931-.646 22.482 9.032 23 10.833.667 2.315-.846 55.217-1.63 56.992-1.51 3.42-3.886 1.362-5.756-4.99-1.443-4.897-2.698-6.933-6.038-9.792-3.56-3.048-4.841-3.563-8.233-3.313-3.453.255-4.053.646-4.28 2.796-1.038 9.856-1.508 11.295-4.926 15.079-7.35 8.135-12.688 11.111-24.2 13.49-5.836 1.207-11.317 2.49-12.182 2.851-1.121.469-2.124-.377-3.5-2.952zM169 203.964c-3.575-.401-9.65-.789-13.5-.86-7.604-.143-11.5-.872-11.5-2.155 0-1.177 11.63-18.396 13.437-19.897 1.267-1.05 2.557-.512 7.79 3.255 3.45 2.482 8.402 6.699 11.005 9.37l4.731 4.854-1.967 3.235c-1.081 1.779-2.31 3.165-2.731 3.082-.42-.084-3.69-.482-7.265-.884zm668.14-1.555c-1.193-2.62-.991-3.002 4.556-8.618 6.796-6.88 15.694-13.286 17.18-12.367 1.866 1.153 13.216 18.799 12.835 19.953-.225.68-4.479 1.363-10.791 1.733-5.731.335-13.145.932-16.475 1.325-5.92.7-6.083.655-7.304-2.026zm-371.78-47.428c-4.562-3.774-9.555-5.963-13.634-5.975-1.765-.006-3.359-2.957-4.402-8.15-.501-2.498-.232-2.71 4.823-3.802 10.826-2.339 26.193-4.115 27.168-3.14 1.9 1.9-5.633 25.086-8.15 25.086-.52 0-3.133-1.809-5.805-4.02zm78.095-1.489c-3.352-7.579-5.98-18.367-4.768-19.578.975-.975 16.342.801 27.168 3.14 5.055 1.092 5.324 1.304 4.823 3.801-1.043 5.194-2.637 8.145-4.402 8.15-4.079.013-9.072 2.202-13.634 5.976-2.672 2.21-5.285 4.019-5.805 4.019-.52 0-2.042-2.478-3.382-5.508zm-328.65-17.834c-4.782-1.664-8.495-3.35-8.251-3.744 1.672-2.706 28.487-16.63 37.358-19.398l2.412-.753-1.912 3.034c-2.455 3.898-18.25 22.516-19.761 23.295-.633.326-5.063-.77-9.845-2.434zm570.647-3.856c-3.273-3.959-7.863-9.374-10.201-12.033-5-5.689-5.624-8.242-1.645-6.729 12.287 4.671 38.182 18.506 36.949 19.74-.56.56-17.026 6.22-18.095 6.22-.582 0-3.735-3.239-7.008-7.198zM410.22 96.082c-2.888-3.906-12.386-11.122-20.29-15.414-9-4.888-23.803-9.458-34.46-10.638-13.944-1.544-27.944-6.773-31.123-11.624-.92-1.404-4.187-4.26-7.26-6.348-9.988-6.782-17.539-16.285-21.104-26.56-2.822-8.13-3.72-21.289-1.637-23.998 2.285-2.971 4.443-1.122 9.282 7.956 4.538 8.514 14.176 19.093 21.176 23.244 3.697 2.193 6.086 2.672 17 3.408 22.1 1.491 28.613 3.28 42.276 11.612l9.421 5.745 8.485.018c6.756.013 8.534.323 8.731 1.517.332 2.018-2.632 5.388-6.497 7.387l-3.16 1.634 6.97 14.108C412.501 87.18 415 93.45 415 95.62c0 4.227-1.865 4.408-4.781.463zM603 95.62c0-2.17 2.499-8.439 6.97-17.49l6.972-14.108-3.161-1.634c-3.865-1.999-6.83-5.37-6.497-7.387.197-1.194 1.975-1.504 8.731-1.517l8.485-.018 9.421-5.745c13.663-8.332 20.177-10.12 42.276-11.612 10.914-.736 13.303-1.215 17-3.408 7-4.15 16.638-14.73 21.176-23.244 4.84-9.078 6.997-10.927 9.282-7.956 2.083 2.71 1.185 15.868-1.637 23.999-3.565 10.274-11.116 19.777-21.103 26.559-3.074 2.087-6.341 4.944-7.261 6.348-3.179 4.85-17.18 10.08-31.124 11.624-10.656 1.18-25.46 5.75-34.46 10.638-7.903 4.292-17.4 11.508-20.289 15.414-2.916 3.945-4.781 3.764-4.781-.463z" fill="#f5b105"/></svg>