<svg version="1.0" xmlns="http://www.w3.org/2000/svg" width="2000pt" height="1786pt" viewBox="0 0 2000 1786"><path d="M1415.316 233.75c-6.487 17.153-8.746 33.301-8.641 61.75.149 40.35 5.427 65.558 18.538 88.545 15.497 27.168 39.411 50.162 73.584 70.751 5.663 3.412 10.532 6.204 10.819 6.204.288 0 2.405 1.327 4.704 2.95 14.75 10.407 22.468 22.569 34.832 54.885 4.833 12.632 14.194 41.804 17.541 54.665.991 3.805-6.664-7.964-9.087-13.97a4864.974 4864.974 0 01-7.196-18.03c-2.621-6.6-5.646-13.575-6.723-15.5a1009.669 1009.669 0 01-4.884-8.887c-8.682-15.982-23.236-31.062-35.303-36.579-10.628-4.859-17.326-6.033-40-7.008-26.011-1.12-39.777-5.484-52.802-16.74-3.192-2.758-5.996-4.821-6.233-4.585-1.203 1.204 7.086 24.836 13.038 37.169 9.701 20.104 18.314 31.859 30.997 42.305 12.802 10.544 19.942 13.134 49 17.772 12.924 2.062 18.627 3.338 26 5.815 21.922 7.364 37.37 22.019 48.411 45.927 3.728 8.073 8.001 26.122 9.662 40.811.341 3.025.992 7.075 1.445 9 .453 1.925 1.115 6.563 1.471 10.306.356 3.743.842 7.793 1.079 9 .238 1.207.886 7.369 1.441 13.694.554 6.325 1.214 13.075 1.465 15l.458 3.5-1.593-3.5c-4.595-10.097-6.663-17.755-13.37-49.5-3.333-15.775-13.095-35.738-22.9-46.83-7.138-8.074-23.366-17.538-33.819-19.723-6.209-1.298-15.945-2.551-30.75-3.957-24.676-2.345-36.849-6.567-46.408-16.098l-5.407-5.392.629 6c2.585 24.63 17.316 54.474 35.325 71.561 15.656 14.855 29.653 22.249 49.861 26.338 4.4.89 11.6 2.356 16 3.257 12.081 2.474 19.501 6.467 26.932 14.494 16.347 17.655 26.898 54.885 26.458 93.35-.228 19.832-4.432 66.687-7.09 79-.118.55-.504-14.525-.858-33.5-.67-36.019-1.42-44.146-5.531-59.956-6.39-24.572-14.781-39.471-28.659-50.888-14.165-11.653-25.821-16.246-53.752-21.179-8.712-1.538-17.607-4.725-22.595-8.094-4.201-2.837-9.8-8.638-10.652-11.036-.264-.741-.824-1.027-1.244-.635-.91.846 1.055 17.587 3.143 26.788 10.249 45.152 33.147 76.593 67.105 92.139 21.321 9.761 26.965 12.974 32.488 18.497 7.465 7.466 10.265 13.014 12.169 24.114 3.666 21.38.954 65.311-5.418 87.75-8.563 30.155-27.453 80.5-30.204 80.5-1.061 0-.966-9.619.138-14 .859-3.404 7.485-23.486 9.075-27.5 1.197-3.025 3.767-13.992 5.473-23.36 3.01-16.532 1.682-46.979-2.667-61.14-8.399-27.345-19.301-42.927-41.616-59.48l-12.891-9.56c-11.279-8.362-23.297-23.673-24.909-31.734-.355-1.774-1.103-3.226-1.663-3.226-1.256 0-.255 38.302 1.179 45.092.592 2.803.645 8.98.135 15.862-.943 12.744.505 27.933 3.768 39.546 4.341 15.446 12.919 34.318 18.847 41.465 25.538 30.791 32.409 47.139 32.305 76.857-.044 12.399-3.217 37.406-6.05 47.678-1.348 4.889-7.132 17.874-8.166 18.333-.412.184-.75.728-.75 1.211 0 1.149-15.195 26.662-20.707 34.769-2.361 3.472-4.293 6.735-4.293 7.25 0 .515-.378.937-.839.937-.462 0-1.379 1.183-2.038 2.629-2.308 5.065-2.119 1.615.319-5.856 1.354-4.147 5.568-13.583 9.365-20.967 11.802-22.957 15.527-37.319 15.51-59.806-.014-17.716-3.415-36.879-8.785-49.5l-4.047-9.5c-3.073-7.208-9.703-17.887-13.97-22.5a1740.36 1740.36 0 00-9.395-10c-7.78-8.227-10.619-11.918-14.419-18.746-2.909-5.228-8.593-19.952-10.714-27.754a487.77 487.77 0 00-1.638-5.917c-.707-2.418-2.133.113-3.331 5.917-4.85 23.481-5.239 27.266-5.341 52-.082 19.861.244 26.299 1.719 34 2.495 13.02 6.287 27.296 9.185 34.578 1.331 3.344 2.419 6.416 2.419 6.827 0 .896 12.652 26.28 16.938 33.984 4.723 8.488 8.062 19.875 8.061 27.489-.001 10.508-3.234 23.792-11.225 46.122-3.352 9.367-12.661 28.896-14.777 31-.276.275-1.769 2.368-3.318 4.652-3.136 4.625-23.426 24.719-31.179 30.877-2.75 2.184-5.225 4.231-5.5 4.548-1.085 1.251-19.717 14.923-20.338 14.923-1.247 0-.663-7.196.841-10.349 1.687-3.538 6.49-8.989 10.997-12.481 21.183-16.41 29.945-27.275 38.89-48.223 5.746-13.457 7.756-41.165 4.168-57.447-4.316-19.585-10.088-32.977-24.14-56-5.035-8.25-10.388-17.444-11.895-20.431-3.351-6.643-3.888-5.967-5.498 6.931-1.378 11.036-3.951 21.864-8.183 34.436-1.654 4.915-3.439 11.44-3.967 14.5a8786.88 8786.88 0 00-1.931 11.265c-2.392 14.031-1.673 43.942 1.507 62.722 2.583 15.251 2.455 31.701-.327 42.077-3.373 12.579-4.868 16.678-9.701 26.596-7.36 15.107-14.097 22.425-27.64 30.026-15.346 8.613-49.215 25.368-60.283 29.823l-4 1.61 3.592-3.278c15.565-14.201 32.068-26.777 35.138-26.777 1.406 0 13.867-8.394 17.4-11.72 7.425-6.993 15.165-19.623 17.441-28.461 3.266-12.684 4.983-27.632 4.575-39.819-.548-16.388-1.971-24.777-6.758-39.854-4.663-14.684-5.909-28-3.973-42.476 1.137-8.505 4.665-18.674 6.973-20.101 2.651-1.638.792-2.462-2.476-1.097-10.322 4.313-22.97 18.399-31.475 35.053-6.284 12.306-10.203 23.769-14.863 43.475-2.187 9.252-3.987 23.933-4.597 37.5-.927 20.624-3.332 44.191-5.153 50.482-3.233 11.174-9.562 21.939-20.588 35.018-5.591 6.633-17.966 18.887-21.597 21.387-5.95 4.097-31.074 11.654-58.797 17.687-22.008 4.79-37.678 7.902-39.842 7.913-1.812.01-1.753-.201.627-2.238 18.918-16.197 22.386-18.228 34.373-20.134 17.202-2.735 25.402-6.668 36.277-17.398 18.375-18.131 29.614-45.324 32.948-79.717 1.004-10.367 1.001-51.4-.006-63-1.31-15.095-3.663-29.5-4.818-29.5-.428 0-1.077 2.138-1.441 4.75-3.227 23.113-14.376 45.035-33.44 65.75-20.103 21.844-32.761 40.276-44.401 64.653-6.399 13.401-10.077 24.803-12.201 37.83-2.325 14.255-7.55 22.216-21.418 32.634-3.575 2.686-6.725 5.108-7 5.383-2.978 2.978-11.05 7.295-16.601 8.877-11.15 3.179-22.674 6.807-25.899 8.154-26.129 10.909-40.804 20.124-53.526 33.611-13.876 14.709-20.911 28.446-25.484 49.764-2.288 10.668-2.287 37.601.002 50.108 2.275 12.429 6.671 25.121 10.723 30.956 5.144 7.407 14.719 14.501 19.601 14.521 2.77.011 5.843-1.476 9.021-4.366 5.889-5.354 6.156-14.747.627-22.125-3.428-4.576-9.964-18.28-11.923-25-.961-3.3-2.181-7.35-2.711-9-1.651-5.144-2.224-24.8-.923-31.675 3.891-20.559 14.141-37.71 30.916-51.734 15.269-12.765 30.57-19.693 65.677-29.735 22.839-6.533 31.098-4.83 45.233 9.325 6.317 6.328 8.056 8.942 13.75 20.671 3.584 7.385 6.517 13.758 6.517 14.162 0 .878 6.329 13.588 10.947 21.986 8.701 15.82 22.317 29.297 38.053 37.66 11.316 6.015 21.036 8.973 45.5 13.849 3.3.658 16.463 1.431 29.25 1.719 20.349.458 23.25.334 23.25-.994 0-.834-1.162-1.809-2.583-2.165-7.14-1.793-20.742-14.264-28.654-26.275-2.523-3.829-8.903-15.474-14.179-25.878-13.027-25.692-12.632-25.012-21.668-37.314-5.029-6.847-9.13-11.096-17.208-17.83-8.899-7.419-23.909-14.592-34.069-16.282-6.38-1.062-23.292-.502-30.639 1.013-7.577 1.563-12.23 1.414-18.251-.586l-5.139-1.707 14.945-3.301c12.439-2.748 26.565-5.972 30.945-7.063 14.433-3.594 12.662-3.564 24.263-.416 32.371 8.783 34.83 9.726 44.952 17.255 3.182 2.367 6.01 4.532 6.285 4.812.275.279 3.2 2.531 6.5 5.003s6.225 4.747 6.5 5.056c1.247 1.399 18.031 11.987 22.729 14.339 14.348 7.182 25.901 9.869 42.271 9.833 22.825-.05 40.929-6.141 59.509-20.022 10.89-8.135 16.171-13.928 30.665-33.632 8.494-11.548 8.76-12.065 6.104-11.879-7.783.547-22.545.201-26.875-.629-6.043-1.158-15.113-4.364-31.403-11.099-6.875-2.842-17.675-6.522-24-8.177-10.07-2.635-13.303-3.023-26-3.116-18.798-.137-26.546 1.572-50.5 11.138-26.547 10.601-42.607 14.821-51.814 13.614-2.648-.347-4.562-.884-4.253-1.192.736-.736 10.42-4.233 13.369-4.828 1.267-.255 3.967-1.09 6-1.855 9.983-3.755 18.125-6.959 22.198-8.734l8-3.486c21.065-9.174 56.689-29.433 64.5-36.68 1.794-1.665 3.132-1.789 13-1.206 23.054 1.361 32.61 3.224 44.16 8.61 28.822 13.439 50.91 13.278 78.588-.574 4.812-2.407 11.787-6.523 15.5-9.146 8.073-5.702 25.482-22.841 30.304-29.835 1.897-2.75 3.73-5.225 4.075-5.5.346-.275 4.582-7.025 9.415-15 4.833-7.975 10.064-15.978 11.623-17.785 3.806-4.41 3.578-5.851-.541-3.421-8.943 5.277-26.786 7.329-38.624 4.444-4.777-1.165-11.802-1.599-26.5-1.638-19.144-.051-20.385.066-29 2.735-20.989 6.504-39.853 18.539-56.446 36.015-5.637 5.938-11.72 10.63-18.054 13.929-3.824 1.992-13.279 4.721-16.356 4.721-1.768 0-1.725-.196.496-2.25 1.337-1.237 4.44-3.816 6.896-5.73 9.928-7.738 36.78-34.003 46.464-45.448 5.075-5.998 15-16.219 17.583-18.108 6.557-4.793 19.6-12.758 24.917-15.216 6.339-2.93 6.996-3.02 26.5-3.622 18.493-.572 26.986-1.542 40-4.571 18.617-4.332 45.005-26.999 64.678-55.555 3.031-4.4 6.753-10.25 8.271-13 1.518-2.75 3.144-5.473 3.613-6.051 1.101-1.357 12.938-25.143 12.938-25.998 0-.357.618-2.067 1.374-3.8 2.33-5.344 7.45-19.839 9.237-26.151.934-3.3 2.259-7.8 2.943-10 .684-2.2.842-4 .351-4s-2.862 2.4-5.268 5.333c-11.778 14.358-27.521 22.805-47.116 25.279-7.724.976-17.848 3.443-24.021 5.855-6.811 2.661-14.5 6.501-14.5 7.241 0 .436-.474.792-1.053.792-1.955 0-15.751 10.856-23.136 18.204-4.032 4.013-9.463 9.996-12.069 13.296-2.606 3.3-5.108 6.457-5.561 7.016-.452.559-3.885 5.734-7.629 11.5-17.235 26.551-24.871 37.152-31.157 43.257-4.727 4.592-6.487 4.856-3.173.477 11.628-15.363 26.792-40.369 41.013-67.634 3.837-7.356 17.593-27.367 20.703-30.116.311-.275 4.578-5.146 9.483-10.824 7.441-8.615 21.153-21.863 29.17-28.181 3.708-2.922 13.027-8.826 22.909-14.513 28.988-16.684 53.772-41.729 67.272-67.982 7.422-14.433 13.902-32.338 16.645-46 .884-4.4 1.88-9.125 2.214-10.5 1.117-4.599 1.555-45.621.47-44.02-.551.813-1.299 3.288-1.661 5.5-2.154 13.147-13.406 25.325-33.44 36.19-5.494 2.98-21.04 13.243-26 17.165-4.651 3.678-24.988 23.75-28.536 28.165-4.491 5.588-13.614 20.068-17.366 27.564-6.899 13.784-12.515 32.862-15.583 52.936-.672 4.4-1.924 9.58-2.782 11.511-2.076 4.672-8.909 12.326-14.341 16.063l-4.39 3.021 3.605-9.797c5.798-15.752 13.048-37.089 15.902-46.798 1.455-4.95 3.042-10.125 3.525-11.5.483-1.375 2.253-8.35 3.932-15.5 4.748-20.224 5.972-23.771 15.524-45 10.865-24.149 13.993-29.327 22.346-37 27.052-24.847 38.108-38.721 52.649-66.068 17.365-32.659 23.611-84.568 16.598-137.932-1.363-10.373-3.083-17.618-4.042-17.025-.419.259-1.07 4.42-1.446 9.248-1.976 25.33-9.752 44.103-27.32 65.961-12.345 15.359-18.928 23.976-21.25 27.816-1.331 2.2-2.729 4.225-3.106 4.5-.378.275-2.97 5-5.761 10.5-7.278 14.344-12.024 27.401-15.628 43-.89 3.85-2.045 8.8-2.567 11-.522 2.2-1.878 10.075-3.014 17.5-2.88 18.823-8.801 48.482-9.532 47.75-.226-.226.041-3.974.593-8.33.551-4.356 1.229-9.72 1.504-11.92 1.991-15.887 2.901-35.846 3.031-66.5.083-19.525.482-37.75.886-40.5 1.716-11.69 9.033-35.765 14.712-48.414 3.916-8.721 7.813-14.341 20.52-29.593 17.048-20.463 21.121-27.986 25.71-47.493 5.332-22.664 5.017-55.164-.79-81.5-2.852-12.931-8.296-31.397-9.715-32.95-.477-.522-.868-1.579-.868-2.349 0-1.459-1.043-4.04-6.331-15.673-5.379-11.835-10.286-20.724-11.242-20.368-.502.187-.82.79-.707 1.34 1.415 6.849 3.28 23.442 3.28 29.187 0 9.192-2.428 24.849-5.138 33.125-1.137 3.472-5.116 12.284-8.844 19.582-7.32 14.332-13.51 30.8-16.955 45.106-1.192 4.95-2.586 10.575-3.099 12.5-1.156 4.345-3.484 20.176-4.962 33.751-.708 6.5-.924 21.32-.59 40.5.491 28.165.433 29.629-.84 21.249-2.934-19.315-4.913-30.095-11.384-62-3.208-15.814-4.718-43.38-3.247-59.269 1.211-13.087 4.542-29.057 7.387-35.417.815-1.823 3.275-7.191 5.467-11.929 2.191-4.738 4.314-9.688 4.717-11 .403-1.312 1.05-2.835 1.438-3.385 4.096-5.806 9.054-32.63 9.044-48.926-.009-14.871-3.362-36.774-7.527-49.175-7.095-21.121-16.56-35.473-32.314-48.997-6.582-5.65-20.77-14.119-21.848-13.041-.231.232 1.068 2.832 2.888 5.78 5.187 8.405 6.872 12.327 10.468 24.359 1.443 4.828 1.779 9.418 1.722 23.5-.039 9.625-.569 20.2-1.176 23.5-2 10.862-2.707 23.662-2.707 49 0 33.444.454 37.403 8.363 73 2.078 9.355 2.93 16.451 3.299 27.5l.217 6.5-1.241-4.5c-.683-2.475-2.793-8.572-4.69-13.55-1.896-4.977-3.448-9.409-3.448-9.849 0-.439-.631-2.217-1.403-3.95s-2.634-6.526-4.137-10.651c-2.436-6.682-4.729-12.368-7.46-18.5-.49-1.1-1.875-4.25-3.079-7-1.203-2.75-3.183-7.25-4.398-10-5.014-11.34-7.098-20.784-9.489-43-.592-5.5-1.294-11.35-1.56-13-.265-1.65-.909-6.15-1.431-10-2.972-21.952-10.198-44.857-18.928-60-8.312-14.418-19.944-26.903-43.115-46.274-11.606-9.703-24.537-23.182-30.104-31.379-8.356-12.305-15.661-31.972-16.087-43.312-.196-5.211-2.027-4.308-4.493 2.215m-834.793-.085c-1.727 13.82-7.649 29.292-15.881 41.491-5.279 7.822-17.421 20.037-35.135 35.344-13.184 11.393-24.815 23.024-30.002 30-15.081 20.285-23.434 44.063-27.93 79.5-5.728 45.158-5.975 46.256-15.078 67.016-3.734 8.516-7.628 17.403-8.655 19.748-2.317 5.296-14.613 39.123-16.442 45.236-1.281 4.279-1.319 4.01-.786-5.468.563-9.982 1.194-14.398 3.795-26.532 7.149-33.351 8.098-41.781 8.051-71.5-.03-18.874-.52-28.676-2-40-2.276-17.419-2.659-45.965-.727-54.278 1.859-8.004 6.101-18.072 10.286-24.418 2.066-3.132 3.528-5.923 3.249-6.202-.858-.858-13.579 5.995-18.824 10.141-15.829 12.512-28.445 30.714-35.292 50.92-5.096 15.037-7.739 37.448-6.82 57.837.564 12.525 3.007 28.928 4.616 31 .427.55 1.088 2.301 1.469 3.892.381 1.591 3.425 9.016 6.764 16.5 8.072 18.09 11.451 28.155 13.292 39.595 2.923 18.166 1.379 57.93-2.971 76.513-3.136 13.393-6.667 32.466-10.463 56.5-.486 3.077-.841-7.305-.922-27-.162-39.08-1.626-53.009-8.51-81-2.342-9.522-6.204-21.319-9.217-28.151-.765-1.733-1.39-3.446-1.39-3.806 0-.36-2.547-5.692-5.661-11.849-3.113-6.157-6.435-12.769-7.382-14.694-3.957-8.041-6.149-20.012-6.501-35.5-.188-8.25.033-17.475.492-20.5.458-3.025 1.158-7.637 1.556-10.25.765-5.026-.261-6.236-2.114-2.492-.61 1.233-2.921 5.842-5.135 10.242-13.391 26.613-20.552 50.193-24.748 81.5-3.116 23.246-.564 52.651 6.292 72.5 3.335 9.657 10.646 22.225 16.902 29.058 18.608 20.324 24.904 30.565 32.193 52.367 4.458 13.335 9.529 34.072 9.432 38.575-.87 40.447.301 83.707 2.665 98.5 1.405 8.787 2.132 21.245.992 17-1.186-4.415-4.304-19.761-6.402-31.5-.884-4.95-2.021-11.25-2.526-14a252.56 252.56 0 01-1.585-10c-.914-6.848-4.979-23.048-8.656-34.5-3.64-11.336-10.888-26.66-17.508-37.021-5.126-8.022-6.139-9.378-19.31-25.846-14.394-17.996-16.887-21.854-23.351-36.133-3.457-7.638-8.431-32.688-8.628-43.45-.011-.6-.351-.6-.924 0-1.002 1.048-3.306 14.49-5.134 29.95-1.372 11.604-.791 54.251.92 67.5 1.004 7.771 1.522 10.427 4.101 21 8.581 35.19 29.517 69.463 58.055 95.039 4.579 4.104 9.74 8.924 11.468 10.713 9.494 9.824 26.978 49.442 33.638 76.222 2.124 8.539 4.825 18.901 6.001 23.026 3.176 11.134 14.448 45.048 16.786 50.5.471 1.1 1.78 4.361 2.908 7.246l2.05 5.246-2.693-1.398c-4.489-2.33-12.526-10.782-15.456-16.253-1.74-3.249-3.116-7.878-3.716-12.5-5.964-45.915-27.4-83.034-63.983-110.794-4.146-3.146-14.963-10.277-24.038-15.847-22.445-13.776-31.117-23.079-32.667-35.042-1.414-10.911-2.274-6.484-2.301 11.842-.037 24.652 1.646 35.054 9.469 58.533 5.418 16.257 15.847 35.417 26.476 48.641 4.75 5.909 22.508 23.588 28.023 27.898 6.675 5.217 17.754 12.928 18.575 12.928.859 0 19.467 11.348 24.425 14.896 19.559 13.995 50.982 49.47 61.371 69.283 14.877 28.375 27.871 50.133 38.886 65.112 2.746 3.736 4.71 7.076 4.362 7.423-1.726 1.726-14.932-14.992-28.606-36.214-30.636-47.549-56.477-68.617-90.218-73.559-19.305-2.828-30.535-6.878-39.67-14.307-4.425-3.598-13.624-12.992-15.311-15.634-.877-1.375-1.84-2.267-2.139-1.982-1.323 1.259 6.955 27.456 13.898 43.982 6.457 15.371 20.521 40.614 27.544 49.437.465.585 3.473 4.438 6.684 8.563 3.211 4.125 10.081 11.722 15.268 16.883 17.824 17.733 32.47 25.896 51.271 28.577 2.663.379 5.813.88 7 1.113 1.188.233 10.71.69 21.16 1.015 10.45.326 20.575 1.053 22.5 1.616 4.18 1.223 20.86 11.161 30.139 17.958 3.652 2.675 8.582 7.445 10.956 10.601 6.089 8.094 44.865 46.612 54.13 53.769 4.438 3.429 7.112 6.103 6.285 6.285-2.716.597-13.972-2.894-19.688-6.105-3.143-1.767-10.352-7.743-16.019-13.28-14.051-13.73-27.245-23.483-38.485-28.448-9.869-4.36-10.895-4.777-14.318-5.831a419.968 419.968 0 01-7-2.237c-1.925-.637-11.216-1.385-20.647-1.661-14.436-.422-18.387-.209-25 1.354-5.472 1.292-11.339 1.825-19.353 1.756-11.38-.097-14.382-.764-26.25-5.832-2.431-1.038-2.185.517.551 3.477 1.266 1.37 5.861 8.34 10.212 15.49 12.085 19.859 17.499 27.344 26.209 36.239 15.393 15.72 33.195 27.023 51.795 32.886 7.838 2.471 10.577 2.835 21.483 2.854 14.838.025 20.819-1.336 37.787-8.602 15.338-6.567 21.326-7.802 45.814-9.45 9.905-.667 10.133-.632 14.481 2.188 2.43 1.577 4.643 3.138 4.918 3.469 1.526 1.84 31.315 19.09 42.457 24.586 13.489 6.653 40.547 18.33 42.474 18.33.603 0 1.878.411 2.833.913.955.502 5.561 2.132 10.236 3.623 4.675 1.491 8.871 3.049 9.325 3.462 1.588 1.447-8.318 2.105-14.543.965-8.711-1.595-16.038-3.963-40.282-13.02-25.321-9.459-29.394-10.567-42.116-11.45-21.415-1.488-41.324 3.009-68.884 15.559-2.2 1.002-7.6 3.076-12 4.61-7.383 2.574-9.176 2.791-23.249 2.814-8.387.013-15.249.13-15.25.26 0 .13 2.587 3.796 5.749 8.147 3.163 4.351 6.425 8.892 7.25 10.092 5.993 8.713 18.245 21.4 26.812 27.764 7.398 5.496 19.779 12.134 27.482 14.735 10.269 3.467 18.893 4.778 31.706 4.818 14.368.045 22.066-1.403 34.407-6.471 11.837-4.862 22.822-11.934 42.885-27.609 14.25-11.133 20.03-13.89 40.412-19.278 23.644-6.251 22.313-6.071 29.944-4.03a453.915 453.915 0 0013.852 3.423l15.5 3.52c4.675 1.061 11.417 2.513 14.982 3.227l6.481 1.298-3.981 1.839c-3.081 1.423-5.68 1.749-11.482 1.439-4.125-.221-8.625-.713-10-1.095s-7.45-.864-13.5-1.071c-17.083-.585-31.184 3.916-45.5 14.521-15.876 11.761-25.598 24.927-41.347 55.995-17.219 33.967-25.552 44.529-41.403 52.474-2.887 1.447-5.25 3.111-5.25 3.696 0 1.465 43.12.504 53-1.181 4.125-.704 10.875-2.145 15-3.204 4.125-1.058 9.525-2.389 12-2.958 11.064-2.545 28.681-12.623 38.888-22.247 10.207-9.623 21.553-27.449 29.012-45.58 6.58-15.995 13.367-27.945 19.43-34.216 9.932-10.271 21.866-15.238 31.17-12.974 45.366 11.042 67.63 20.769 84.734 37.017 18.863 17.919 28.27 40.362 27.214 64.931-.733 17.081-7.842 37.73-17.297 50.242-2.186 2.893-2.641 4.54-2.622 9.5.027 6.942 1.815 10.325 7.11 13.45 4.546 2.681 7.232 2.586 13.058-.465 10.905-5.709 17.871-17.86 22.926-39.985 2.632-11.521 2.654-45.902.036-56-3.808-14.685-7.568-23.586-14.144-33.478-5.903-8.878-18.244-21.438-27.015-27.494-13.699-9.457-36.875-20.381-51-24.037-17.243-4.463-19.541-5.464-29.309-12.764-5.32-3.975-12.209-9.604-15.31-12.51-6.249-5.856-11.881-15.356-11.881-20.042 0-3.802-2.344-14.768-4.847-22.675-8.889-28.08-28.067-58.848-54.229-87-17.041-18.338-29.555-43.105-31.583-62.512-2.287-21.878-8.138 25.284-7.631 61.512.51 36.514 5.891 61.416 18.041 83.5 1.967 3.575 3.842 6.725 4.166 7 .324.275 1.865 2.383 3.426 4.684 3.826 5.641 13.053 14.315 19.864 18.672 5.755 3.681 15.097 6.66 27.293 8.702 5.992 1.003 15.057 5.124 17.5 7.956.275.319 3.2 2.641 6.5 5.161 7.364 5.623 10.413 8.825 8.403 8.825-.775 0-11.307-2.067-23.405-4.594a15210.912 15210.912 0 00-26.446-5.507c-2.446-.502-5.821-1.335-7.5-1.851-1.678-.516-5.752-1.677-9.052-2.579-3.3-.903-11.729-3.453-18.732-5.668l-12.731-4.026-8.853-8.637c-9.705-9.469-15.281-15.978-22.82-26.638-10.357-14.644-12.719-23.31-14.857-54.5-2.976-43.408-5.431-59.334-12.178-78.99-3.67-10.692-11.852-28.238-13.45-28.843-.483-.184-.879-.794-.879-1.356 0-1.674-5.887-8.865-12.988-15.864-6.868-6.771-14.758-11.496-16.462-9.859-.595.571-.507.912.233.912 3.647 0 9.223 20.52 9.219 33.922-.003 8.518-2.426 21.054-6.469 33.462-5.645 17.326-7.112 39.286-4.015 60.103 4.067 27.339 14.604 43.059 36.814 54.925 7.108 3.797 11.811 6.627 12.668 7.623.275.319 1.442 1.23 2.593 2.023 6.313 4.35 23.887 19.942 22.476 19.942-3.234 0-57.808-27.205-68.796-34.294-21.537-13.896-36.702-54.626-32.284-86.706.644-4.675 1.787-13 2.541-18.5.931-6.791 1.253-16.899 1.005-31.5-.4-23.514-1.636-31.556-7.574-49.27-3.641-10.864-6.484-22.852-7.406-31.23-.964-8.755-1.692-12.5-2.43-12.5-.359 0-1.398 1.72-2.309 3.823-.911 2.102-5.308 9.64-9.771 16.75-6.52 10.387-14.946 26.116-20.051 37.427-1.951 4.322-6.087 19.605-7.442 27.5-4.591 26.737 1.8 55.614 16.772 75.776 5.526 7.443 12.856 14.648 25.848 25.411 9.942 8.236 13.006 12.742 13.188 19.393l.14 5.157-12-9.347c-16.713-13.018-20.832-16.628-35.827-31.403-12.745-12.559-19.574-24.188-28.179-47.987-10.341-28.599-12.347-39.115-10.006-52.433 1.459-8.298 3.146-12.159 16.637-38.067 17.525-33.655 24.383-71.651 20.307-112.5-1.638-16.416-4.843-33.12-7.034-36.665-.388-.628-1.903 3.09-3.366 8.262-5.186 18.33-12.196 31.358-23.088 42.903-18.201 19.292-23.391 27.581-30.645 48.941-6.73 19.818-9.107 45.851-5.804 63.559 2.874 15.404 5.446 22.766 13.502 38.655 6.726 13.264 10.533 22.251 11.46 27.045l.637 3.3-2.297-2.966c-4.19-5.411-19.989-31.031-27.77-45.034l-5.002-9c-2.492-4.484-4.999-15.824-8.178-37-1.665-11.095-.448-41.542 1.979-49.5 3.982-13.055 10.509-24.751 20.89-37.437 5.03-6.147 14.4-19.768 16.56-24.071 5.903-11.765 11.519-29.404 13.688-42.992.615-3.85 1.03-15.1.923-25-.107-9.9.324-22.95.959-29 1.306-12.467 1.541-31.5.389-31.5-.421 0-1.527 2.144-2.458 4.764-4.06 11.433-14.712 23.346-32.032 35.823-31.2 22.477-45.122 44.52-50.201 79.48-3.903 26.863-.403 51.089 12.775 88.433 2.817 7.982 4.301 18.57 2.942 20.997-.699 1.251-2.529-2.244-7.686-14.678-3.722-8.975-7.162-17.219-7.645-18.319-1.243-2.835-7.85-22.083-9.526-27.75-.772-2.612-2.119-7.112-2.992-10-6.324-20.904-8.345-33.93-10.048-64.75-.833-15.076 1.787-37.52 5.165-44.246 6.131-12.206 14.104-18.608 33.471-26.877 17.107-7.304 26.984-13.786 38.598-25.332 19.653-19.538 30.702-42.709 38.324-80.371.593-2.93 1.052-8.105 1.019-11.5-.049-5.214-.244-5.871-1.25-4.226-2.808 4.593-10.394 10.996-16.07 13.564-3.366 1.524-10.171 3.538-15.121 4.477-26.302 4.987-36.068 8.2-47.629 15.673-22.403 14.479-34.662 37.587-40.5 76.338-1.114 7.389-1.516 19.007-1.541 44.5-.036 36.636-.225 37.035-3.791 8-2.812-22.906-2.901-23.827-3.768-39-1.867-32.695.411-54.895 8.109-79 9.113-28.538 22.946-43.07 45.12-47.4 15.514-3.029 19.068-3.821 26-5.798 7.504-2.14 17.787-6.611 18.333-7.972.184-.457.956-.83 1.717-.83 2.182 0 20.59-15.266 25.519-21.163 16.184-19.363 27.858-46.09 29.154-66.744l.277-4.408-4.805 5.041c-5.137 5.389-15.749 11.256-23.763 13.138-5.364 1.26-17.916 2.807-33.77 4.161-18.482 1.578-33.515 6.216-42.662 13.161-7.011 5.323-16.389 15.872-20.737 23.325-7.651 13.117-11.993 26.248-17.355 52.489-2.779 13.6-5.02 20.879-9.237 30-.957 2.071-1.065 1.298-.625-4.5.292-3.85.951-10.6 1.464-15l1.46-12.5c.675-5.777 4.291-29.987 5.452-36.5 3.107-17.431 4.334-22.184 7.483-29 13.973-30.243 36.387-46.904 68.595-50.991 12.085-1.533 34.56-6.619 39.75-8.995 13.368-6.12 27.08-19.08 36.891-34.869 3.026-4.871 5.775-9.596 6.108-10.5.333-.905.863-1.87 1.178-2.145C583.64 491.633 596 458.17 596 453.194c0-.722-2.137.483-4.75 2.679-14.676 12.335-27.525 16.509-54.25 17.622-8.525.355-19.325 1.312-24 2.127-17.81 3.104-32.243 13.39-45.782 32.63-5.294 7.523-13.599 24.196-19.549 39.248-6.237 15.774-8.678 20.886-11.702 24.5-2.038 2.435-2.078 2.441-1.53.25.31-1.237.752-3.037.982-4 4.469-18.668 22.914-69.168 29.311-80.25 4.181-7.243 10.833-15.45 15.983-19.721 2.633-2.183 10.967-7.635 18.521-12.115 23.743-14.083 38.204-25.369 53.928-42.089 20.525-21.824 33.742-48.437 37.782-76.075 4.578-31.325 4.755-56.786.555-80-2.812-15.541-7.341-30-9.397-30-.479 0-1.19 2.549-1.579 5.665" fill="#FFB200FF" stroke="#FFB200FF"/><path d="M60.5 905.184c-2.548 1.43-23.426 15.35-25.75 17.168-1.635 1.279-1.479 1.857 2.37 8.759a1266.31 1266.31 0 017.882 14.389c2.068 3.85 5.215 9.7 6.992 13 1.777 3.3 5.498 10.275 8.268 15.5a3152.914 3152.914 0 008.545 16c5.322 9.86 52.782 104.558 60.392 120.5 8.438 17.678 16.803 35.391 20.071 42.5 1.391 3.025 4.643 10 7.227 15.5 8.796 18.718 10.304 21.998 17.005 37 3.686 8.25 7.721 17.25 8.966 20a823.25 823.25 0 014.434 10c1.192 2.75 2.634 5.831 3.202 6.847.569 1.016.833 2.049.586 2.296-.45.45-3.174-4.142-10.169-17.143-2.072-3.85-4.789-8.8-6.039-11-1.25-2.2-3.362-6.025-4.694-8.5-4.413-8.204-10.003-18.445-12.28-22.5-1.235-2.2-4.168-7.586-6.517-11.969-2.349-4.384-5.169-9.559-6.267-11.5a781.128 781.128 0 01-4.982-9.031c-1.643-3.025-4.957-8.972-7.365-13.215-2.407-4.244-4.377-7.913-4.377-8.154 0-.241-1.622-3.295-3.603-6.785-1.982-3.49-5.655-10.171-8.162-14.846-2.507-4.675-5.611-10.179-6.897-12.23-1.286-2.052-2.338-3.98-2.338-4.285 0-.305-1.952-4.026-4.338-8.27A1146.743 1146.743 0 0194.289 1070c-5.381-10-9.158-16.855-11.296-20.5-1.631-2.782-4.894-8.76-12.28-22.5a460.153 460.153 0 00-6.335-11.304c-1.858-3.192-3.378-6.02-3.378-6.284 0-.265-2.107-4.178-4.682-8.697-2.575-4.518-5.317-9.47-6.092-11.003-1.096-2.166-1.892-2.651-3.568-2.175-3.706 1.052-26.358 12.301-33.184 16.479-3.58 2.191-6.951 3.984-7.492 3.984-.54 0-.982.378-.982.839 0 .462-1.125 1.353-2.5 1.979-1.375.627-2.5 1.64-2.5 2.252 0 .612 2.362 4.432 5.25 8.489s7.725 10.849 10.75 15.093c4.244 5.954 21.968 32.002 36.981 54.348 1.025 1.525 8.256 12.644 18.21 28 7.735 11.933 33.986 53.656 36.894 58.638 1.328 2.276 5.78 9.701 9.892 16.5 4.113 6.799 7.978 13.287 8.59 14.417.612 1.131 4.335 7.319 8.273 13.752 3.938 6.434 7.16 12.146 7.16 12.695 0 .549.45.998 1 .998s1 .509 1 1.131c0 1.017 2.376 5.144 17.644 30.646 2.396 4.002 4.356 7.534 4.356 7.848 0 .314 2.395 4.464 5.322 9.223s5.612 9.438 5.968 10.399c.355.962 2.235 4.233 4.178 7.27 1.942 3.037 3.532 5.749 3.532 6.026 0 .403 7.252 13.341 16.229 28.957.632 1.1 2.129 3.8 3.326 6s9.212 16.738 17.811 32.307c8.599 15.568 15.634 28.499 15.634 28.735 0 .235 1.287 2.572 2.86 5.193 1.573 2.621 5.112 9.04 7.863 14.265 8.714 16.545 18.663 35.154 24.059 45 1.357 2.475 5.391 10.125 8.966 17 3.575 6.875 8.633 16.55 11.239 21.5 22.031 41.844 31.151 59.698 67.422 132 30.178 60.154 44.018 88.231 58.659 119 2.879 6.05 5.375 11.172 5.548 11.381.172.21 5.617-1.891 12.099-4.667 24.417-10.461 52.954-20.412 78.019-27.206 8.121-2.201 16.341-4.446 18.266-4.987 3.311-.932 6.997-1.774 23.5-5.371 3.85-.839 11.05-2.253 16-3.142 4.95-.889 9.9-1.841 11-2.115 5.788-1.441 38.927-5.869 59-7.883 51.397-5.156 122.56-5.542 171.5-.931 30.543 2.879 57.396 6.29 70.885 9.007 5.871 1.182 7.813 2.043 9.472 4.201 1.814 2.356 10.043 11.403 14.682 16.141 5.271 5.382 16.827 14.751 25.159 20.396 32.372 21.936 65.634 28.094 96.302 17.83 25.706-8.604 51.733-26.949 73.082-51.513 5.632-6.48 5.184-6.311 24.418-9.178 24.959-3.72 52.251-6.599 82.5-8.705 33.029-2.299 113.936-1.28 138.045 1.739 2.175.272 8.23.93 13.455 1.463 28.254 2.878 53.36 6.735 79 12.135 17.136 3.608 38.858 8.878 45 10.915 1.375.457 5.2 1.598 8.5 2.537 7.572 2.154 24.358 7.416 27 8.464 1.1.437 4.925 1.782 8.5 2.989 3.575 1.207 7.4 2.563 8.5 3.011 1.1.449 5.6 2.229 10 3.955 8.551 3.356 8.473 3.323 18.82 7.971 3.751 1.684 7.126 3.06 7.5 3.057.374-.003 3.342-5.516 6.595-12.25 20.512-42.462 31.665-65.116 55.505-112.744 25.494-50.932 40.183-79.869 54.062-106.5 3.439-6.6 9.631-18.525 13.76-26.5 4.129-7.975 8.74-16.75 10.247-19.5 1.508-2.75 5.336-9.95 8.509-16a2779.31 2779.31 0 019.522-18c2.065-3.85 5.493-10.375 7.617-14.5 2.125-4.125 4.099-7.725 4.387-8 .288-.275 2.043-3.425 3.901-7 3.551-6.836 7.479-14.162 12.063-22.5 1.512-2.75 4.329-7.925 6.259-11.5 6.771-12.54 9.502-17.535 11.753-21.5a964.52 964.52 0 005.023-9c3.008-5.466 16.057-28.943 17.819-32.059.603-1.068 6.286-11.056 12.628-22.197 6.341-11.141 11.53-20.443 11.53-20.671 0-.228 2.25-4.042 5-8.476 2.75-4.434 5-8.279 5-8.544 0-.265 1.948-3.761 4.329-7.768s7.868-13.36 12.194-20.785c12.992-22.303 43.512-72.667 59.689-98.5 13.13-20.968 33.149-52.329 34.483-54.022.443-.562 7.749-11.354 16.235-23.982 8.487-12.628 17.937-26.439 21-30.691 11.759-16.323 16.07-22.694 16.07-23.752 0-.603-1.125-1.608-2.5-2.235-1.375-.626-2.5-1.517-2.5-1.979 0-.461-.442-.839-.982-.839-.541 0-3.912-1.793-7.492-3.984-6.826-4.178-29.478-15.427-33.184-16.479-1.676-.476-2.472.009-3.568 2.175-.775 1.533-3.517 6.485-6.092 11.003-2.575 4.519-4.682 8.432-4.682 8.697 0 .264-1.52 3.092-3.378 6.284a460.153 460.153 0 00-6.335 11.304c-7.386 13.74-10.649 19.718-12.28 22.5-2.138 3.645-5.915 10.5-11.296 20.5a1146.743 1146.743 0 01-8.373 15.215c-2.386 4.244-4.338 7.965-4.338 8.27 0 .305-1.046 2.233-2.324 4.285-1.278 2.051-4.709 8.23-7.624 13.73s-5.637 10.45-6.05 11c-.412.55-2.433 4.15-4.491 8-2.058 3.85-4.987 9.25-6.51 12-1.523 2.75-4.11 7.475-5.749 10.5a747.351 747.351 0 01-4.976 9.031c-1.098 1.941-3.918 7.116-6.267 11.5-2.349 4.383-5.283 9.769-6.519 11.969-2.228 3.967-5.501 9.982-12.242 22.5-1.926 3.575-3.827 6.95-4.225 7.5-.398.55-3.235 5.725-6.303 11.5-7.919 14.905-11.681 21.603-11.702 20.836-.01-.365 3.176-7.79 7.079-16.5 3.903-8.71 8.001-17.861 9.106-20.336 1.105-2.475 3.476-7.65 5.268-11.5 1.792-3.85 4.062-8.8 5.044-11 4.362-9.77 19.494-42.36 27.163-58.5a6499.79 6499.79 0 0010.627-22.5c5.781-12.316 55.987-112.487 59.893-119.5 1.379-2.475 4.89-9 7.803-14.5 2.913-5.5 6.657-12.475 8.321-15.5 1.664-3.025 4.693-8.65 6.731-12.5a904.083 904.083 0 017.827-14.389c3.849-6.902 4.005-7.48 2.37-8.759-.962-.753-6.745-4.719-12.851-8.814-11.046-7.408-16.069-10.237-16.781-9.45-.205.226-2.173 4.237-4.372 8.912-2.2 4.675-8.061 16.825-13.026 27a7863.68 7863.68 0 00-15.519 32 75047.89 75047.89 0 01-13.717 28.5 6943.37 6943.37 0 00-12.216 25.5 5204.347 5204.347 0 01-11.517 24c-7.909 16.363-16.921 35.194-22.971 48a8898.797 8898.797 0 01-19.289 40.5c-2.636 5.5-6.611 13.873-8.833 18.606-9.802 20.876-12.373 26.299-19.548 41.232-4.186 8.711-7.61 16.009-7.61 16.217 0 .208-2.197 5.006-4.882 10.662-9.074 19.111-13.853 29.264-15.903 33.783-1.122 2.475-5.005 10.736-8.628 18.359-3.623 7.622-6.587 13.979-6.587 14.125 0 .147-2.53 5.61-5.623 12.141-6.418 13.554-11.675 24.766-16.351 34.875-1.781 3.85-4.926 10.6-6.988 15-2.062 4.4-4.455 9.575-5.318 11.5-.863 1.925-4.12 8.9-7.238 15.5-3.118 6.6-6.796 14.475-8.173 17.5-1.377 3.025-3.984 8.65-5.793 12.5-1.809 3.85-4.458 9.586-5.888 12.747a1597.027 1597.027 0 01-6.211 13.5 1918.472 1918.472 0 00-5.435 11.753c-1.002 2.2-3.608 7.825-5.791 12.5-7.15 15.312-11.191 24.141-11.191 24.448 0 .167-2.504 5.646-5.564 12.177s-6.174 13.225-6.919 14.875c-.746 1.65-3.193 6.964-5.437 11.809-2.244 4.845-4.08 8.992-4.08 9.214 0 .223-2.475 5.632-5.5 12.021-3.025 6.39-5.5 11.773-5.5 11.963 0 .314-3.077 7.098-9.522 20.993-5.923 12.773-9.991 21.676-13.477 29.5a2556.113 2556.113 0 01-6.975 15.5c-1.753 3.85-3.777 8.35-4.497 10-.72 1.65-2.449 5.475-3.841 8.5-2.407 5.227-8.322 18.409-14.137 31.5-4.434 9.983-4.865 10.656-6.504 10.148-.851-.263-7.397-2.498-14.547-4.966-20.518-7.083-46.599-14.64-64.5-18.691-26.41-5.977-36.785-7.953-62.5-11.904-27.189-4.178-37.457-5.281-66-7.09-18.113-1.149-61.099-1.14-79 .016-43.916 2.835-81.593 9.318-122 20.99-7.467 2.158-33.826 11.058-36.921 12.467-1.693.772-8.254 3.51-14.579 6.085-12.469 5.078-30.939 13.862-40.5 19.263-3.3 1.864-8.763 4.915-12.14 6.779-9.932 5.484-37.61 23.522-43.813 28.552-8.525 6.915-11.218 8.851-12.308 8.851-1.114 0-4.881-2.638-13.739-9.62-1.1-.868-3.8-2.766-6-4.219-2.2-1.453-4.225-2.879-4.5-3.168-.82-.861-16.936-11.344-25-16.26-12.673-7.727-34.375-18.999-52-27.008-11.627-5.284-37.809-15.223-48.25-18.317-2.612-.775-7.112-2.122-10-2.995-21.621-6.536-51.557-13.182-74.25-16.482-55.087-8.012-123.13-7.828-184 .496-9.787 1.338-13.75 1.971-25 3.994-29.619 5.324-27.21 4.815-55 11.619-9.35 2.289-21.5 5.51-27 7.157-5.5 1.648-12.025 3.566-14.5 4.263-2.475.696-9.9 3.171-16.5 5.5s-12.699 4.445-13.554 4.703c-1.149.346-2.497-1.698-5.173-7.848a919.71 919.71 0 00-7.565-16.815c-2.17-4.675-6.662-14.575-9.98-22-3.319-7.425-7.878-17.464-10.131-22.309-2.253-4.845-4.097-8.999-4.097-9.231 0-.232-1.74-4.143-3.867-8.691a1330.302 1330.302 0 01-6.123-13.269c-1.241-2.75-4-8.757-6.133-13.349-2.132-4.592-3.877-8.521-3.877-8.731 0-.21-1.741-4.103-3.869-8.651a1809.925 1809.925 0 01-6.598-14.269c-1.502-3.3-3.777-8.25-5.056-11a995.597 995.597 0 01-4.902-10.75c-2.697-6.022-5.67-12.542-11.057-24.25-6.393-13.892-8.828-19.134-12.544-27-2.078-4.4-4.779-10.25-6-13-1.222-2.75-4.002-8.825-6.178-13.5-2.176-4.675-4.774-10.3-5.775-12.5-2.443-5.373-7.009-15.271-11.535-25-2.046-4.4-4.854-10.475-6.238-13.5-1.385-3.025-4.932-10.589-7.883-16.808-2.951-6.22-5.365-11.461-5.365-11.648 0-.382-8.452-18.355-16.594-35.287-2.973-6.183-5.406-11.42-5.406-11.637 0-.392-6.27-13.864-14.483-31.12-2.356-4.95-5.745-12.15-7.531-16-3.639-7.843-8.288-17.691-17.636-37.359-3.493-7.347-6.35-13.491-6.35-13.652 0-.269-5.612-12.104-18.012-37.989-2.635-5.5-6.129-12.925-7.765-16.5-1.636-3.575-6.001-12.8-9.7-20.5-8.807-18.331-14.309-29.859-19.805-41.5-6.069-12.851-15.083-31.686-22.973-48a3339.67 3339.67 0 01-11.013-23c-2.466-5.225-7.962-16.7-12.214-25.5A19436.03 19436.03 0 0197.302 972a8054.794 8054.794 0 00-16.735-34.5c-5.637-11.55-11.539-23.812-13.116-27.25-2.974-6.483-3.606-6.944-6.951-5.066M785 1685.019c31.729 1.506 71.609 5.01 89.5 7.865 3.3.526 9.375 1.471 13.5 2.1s10.65 1.745 14.5 2.479c3.85.735 8.603 1.61 10.562 1.946 3.006.516 3.851 1.273 5.41 4.851 4.804 11.021 18.498 26.686 30.224 34.573 11.126 7.484 20.25 11.577 34.804 15.613 3.3.915 7.382 2.089 9.071 2.609 6.494 1.999 15.613.561 32.905-5.189 24.081-8.007 45.364-25.829 56.067-46.95 2.616-5.164 2.661-5.188 12.957-6.911 33.319-5.577 35.15-5.853 50-7.533 81.518-9.224 183.367-8.275 265 2.468 26.886 3.539 54.628 7.686 64.5 9.644 1.375.272 4.525.886 7 1.362 2.475.477 8.1 1.565 12.5 2.417 4.4.852 11.6 2.239 16 3.083 7.319 1.404 14.352 2.958 25 5.524 2.2.53 6.925 1.6 10.5 2.378 3.575.777 7.175 1.654 8 1.949.825.295 2.738.807 4.25 1.139 2.115.463 2.75 1.185 2.75 3.129 0 3.264-4.478 7.85-6.794 6.958-2.06-.794-11.334-3.164-20.206-5.163-3.575-.806-8.075-1.843-10-2.304-1.925-.461-9.35-2.006-16.5-3.434-7.15-1.427-15.025-3.043-17.5-3.591-2.475-.547-7.2-1.435-10.5-1.971-3.3-.537-8.7-1.471-12-2.077-16.422-3.014-57.541-8.429-83.5-10.998-9.185-.908-14.58-1.357-50-4.157-22.185-1.754-117.714-1.753-139 .002-42.033 3.465-41.413 3.405-68 6.609-30.626 3.691-34.335 4.438-36.5 7.359-17.759 23.964-41.838 42.982-64.605 51.028-11.652 4.118-14.614 4.674-24.895 4.674-11.367 0-17.202-1.307-30-6.719-20.532-8.682-40.123-24.49-56.696-45.747-4.842-6.21-4.401-5.999-15.804-7.561-24.407-3.343-48.98-6.142-65.5-7.462a6134.006 6134.006 0 01-27-2.234c-20.112-1.713-116.131-1.678-138 .051l-28.5 2.251c-31.837 2.512-78.304 8.215-102.5 12.582-4.675.843-12.1 2.154-16.5 2.912-16.632 2.868-32.714 6.069-42.5 8.46-1.925.471-6.425 1.536-10 2.368a656.795 656.795 0 00-14 3.47c-6.595 1.721-7.77 1.785-9.734.53-4.198-2.68-3.815-9.401.535-9.401.857 0 2.939-.449 4.628-.998 1.689-.549 8.471-2.184 15.071-3.633 6.6-1.449 13.575-2.985 15.5-3.412 9.594-2.13 42.589-8.647 48.5-9.579 1.65-.261 5.475-.918 8.5-1.462 16.065-2.887 50.426-7.62 71.5-9.848 5.5-.582 14.275-1.514 19.5-2.071 40.063-4.273 113.057-6.111 158-3.978" fill="#FFB200FF" stroke="#FFB200FF"/><path d="M269 750.652c-.825.272-2.4.864-3.5 1.315-1.1.452-4.25 1.579-7 2.505-2.75.926-5.9 2.076-7 2.555-1.1.479-6.725 2.431-12.5 4.336-10.713 3.535-14.543 5.146-33 13.887a4002.728 4002.728 0 01-17 8.004c-3.575 1.667-7.175 3.592-8 4.277-.825.686-6 3.605-11.5 6.487-20.92 10.964-30.692 16.401-50 27.814-12.849 7.595-38.235 24.122-44 28.643-17.709 13.891-17.321 13.503-16.122 16.088.617 1.332 1.46 2.425 1.872 2.429.413.004.75.4.75.88 0 .479 2.521 5.317 5.603 10.75 6.91 12.182 12.982 23.286 22.625 41.378 2.492 4.675 6.35 11.904 8.574 16.065 15.335 28.696 41.706 81.461 63.69 127.435 3.156 6.6 8.386 17.516 11.623 24.257 3.237 6.742 5.885 12.44 5.885 12.664 0 .224 2.192 5.058 4.872 10.743 4.992 10.592 8.166 17.477 12.716 27.586 4.525 10.051 6.116 13.52 10.818 23.581 2.527 5.407 4.594 9.988 4.594 10.18 0 .192 1.306 3.193 2.902 6.669 1.596 3.476 8.071 17.795 14.389 31.82 6.318 14.025 13.112 28.967 15.098 33.204 1.986 4.237 3.611 7.937 3.611 8.222 0 .285 1.975 4.693 4.388 9.796s5.522 11.978 6.909 15.278c1.386 3.3 4.396 10.05 6.687 15 4.245 9.167 4.831 10.463 9.504 21a2824.413 2824.413 0 0013.258 29.5c3.511 7.684 7.668 16.861 9.513 21 7.381 16.565 12.731 28.392 19.372 42.823 1.853 4.028 3.369 7.482 3.369 7.677 0 .195 1.629 3.874 3.62 8.177 5.933 12.822 8.99 19.536 11.302 24.823a1865.2 1865.2 0 003.076 7c.488 1.1 1.979 4.475 3.312 7.5 3.594 8.157 6.54 14.673 10.174 22.5 1.787 3.85 4.234 9.25 5.437 12l3.064 7c.481 1.1 2.215 4.925 3.852 8.5 1.638 3.575 5.546 12.35 8.685 19.5 3.139 7.15 6.051 13.45 6.471 14 .419.55 1.092 2.073 1.495 3.385.403 1.312 2.525 6.262 4.715 11 7.858 16.994 9.093 19.718 12.296 27.115a922.52 922.52 0 006.929 15.5c4.136 8.991 4.584 9.987 7.646 17 1.2 2.75 3.614 8.15 5.363 12 1.75 3.85 6.08 13.64 9.622 21.756 4.742 10.864 6.837 14.644 7.941 14.331.825-.233 7.8-2.778 15.5-5.655 7.7-2.877 16.25-5.822 19-6.544 2.75-.722 7.7-2.032 11-2.911 19.042-5.071 34.23-8.429 47.5-10.505 3.575-.559 7.175-1.22 8-1.469 1.325-.401 13.265-2.063 39.5-5.499 50.179-6.571 145.556-6.589 183.5-.035 3.025.522 10 1.662 15.5 2.531 5.5.87 11.8 1.988 14 2.484 2.2.496 8.5 1.85 14 3.009 5.5 1.159 11.575 2.528 13.5 3.043 33.744 9.027 59.756 17.718 80.5 26.896 2.75 1.217 6.575 2.905 8.5 3.752 5.842 2.568 24.153 11.861 30 15.224 3.025 1.74 6.625 3.701 8 4.357 1.375.657 2.725 1.428 3 1.715.71.739 4.226 2.91 6 3.705 6.363 2.852 27.205 18.636 37 28.02 7.655 7.335 10.228 7.272 18.444-.455 12.865-12.098 23.909-19.931 50.208-35.609 7.291-4.346 45.042-22.641 46.719-22.641.314 0 2.946-1.078 5.849-2.395 5.143-2.334 20.632-7.9 35.78-12.86 15.538-5.087 29.336-8.736 50.5-13.355l11-2.405c2.2-.482 8.5-1.592 14-2.467 5.5-.874 12.7-2.029 16-2.565 20.088-3.267 47.807-4.86 84.5-4.855 40.099.005 79.473 2.155 106.5 5.816 3.85.521 9.025 1.202 11.5 1.512 8.227 1.032 30.435 4.758 41.5 6.964 16.607 3.31 18.623 3.795 40.5 9.737 7.21 1.958 28.358 9.073 32.5 10.933 7.78 3.495 7.202 3.784 11.644-5.816 2.225-4.809 4.639-10.094 5.365-11.744 2.521-5.736 6.698-15.03 8.989-20a1718.72 1718.72 0 004.787-10.5c4.907-10.874 7.911-17.552 9.22-20.5.733-1.65 2.719-6.069 4.414-9.82 1.695-3.751 3.081-6.98 3.081-7.177 0-.326 2.221-5.219 9.987-22.003 4.794-10.36 7.013-15.374 7.013-15.847 0-.251 1.843-4.438 4.095-9.305 2.252-4.866 4.688-10.198 5.414-11.848 2.336-5.316 14.793-32.858 19.592-43.32 1.594-3.476 2.899-6.48 2.899-6.677 0-.196 1.626-3.877 3.614-8.18 3.101-6.712 8.014-17.605 14.127-31.323.858-1.925 2.802-6.2 4.32-9.5 2.877-6.253 13.424-29.731 18.418-41 .731-1.65 4.476-9.975 8.321-18.5 3.846-8.525 8.191-18.2 9.656-21.5 1.464-3.3 3.509-7.8 4.544-10 1.035-2.2 3.076-6.7 4.535-10 1.46-3.3 3.787-8.475 5.172-11.5 1.384-3.025 3.32-7.3 4.301-9.5 7.723-17.307 15.596-34.868 17.596-39.25 1.318-2.887 3.555-7.837 4.971-11 1.417-3.162 3.608-8 4.871-10.75 1.262-2.75 3.215-7.025 4.339-9.5a2952.6 2952.6 0 015.629-12.272c1.972-4.274 3.586-7.954 3.586-8.177 0-.223 1.617-3.925 3.593-8.228s4.19-9.173 4.919-10.823c.73-1.65 3.388-7.424 5.908-12.831 2.519-5.407 4.58-10.013 4.58-10.235 0-.222 2.25-5.187 5-11.032s5-10.757 5-10.915c0-.159 1.744-4.046 3.875-8.638 4.827-10.401 8.096-17.575 13.829-30.349 2.469-5.5 6.644-14.5 9.278-20 2.635-5.5 7.372-15.4 10.527-22 21.892-45.792 48.348-98.727 63.689-127.435 2.224-4.161 6.082-11.39 8.574-16.065 9.643-18.092 15.715-29.196 22.625-41.378 3.082-5.433 5.603-10.271 5.603-10.75 0-.48.338-.876.75-.88.413-.004 1.255-1.097 1.872-2.429 1.199-2.585 1.587-2.197-16.122-16.088-5.765-4.521-31.151-21.048-44-28.643-19.308-11.413-29.08-16.85-50-27.814-5.5-2.882-10.675-5.801-11.5-6.487-.825-.685-4.425-2.61-8-4.277a4002.728 4002.728 0 01-17-8.004c-18.457-8.741-22.287-10.352-33-13.887-5.775-1.905-11.4-3.857-12.5-4.336-1.1-.479-4.25-1.622-7-2.538-2.75-.916-5.768-2.068-6.706-2.559-.939-.491-3.414-1.154-5.5-1.474-3.496-.535-4.776.076-16.294 7.77-19.111 12.767-39 27.461-39 28.813 0 .44 1.913 1.227 4.25 1.75 2.338.523 4.901 1.121 5.696 1.331.941.247 1.911-.984 2.775-3.525 2.108-6.195 5.658-8.592 12.724-8.594 5.091-.001 6.349.385 8.75 2.686 2.57 2.462 2.805 3.297 2.805 9.965 0 8.451-.807 7.687 13 12.315 5.225 1.751 10.4 3.55 11.5 3.998 1.1.449 5.6 2.264 10 4.035 13.399 5.393 19.386 7.969 29.5 12.694 14.017 6.549 37.161 18.548 44 22.812 1.925 1.2 5.075 2.928 7 3.841 1.925.912 4.705 2.67 6.178 3.906l2.679 2.247-2.5 5.345c-3.032 6.485-4.222 19.894-2.485 27.994 1.641 7.652 5.504 15.206 10.253 20.051 4.612 4.704 13.31 10.078 16.375 10.116 1.1.014 2.584.395 3.299.848 1.35.857.185 4.66-4.676 15.271-1.102 2.406-3.099 7.075-4.437 10.375-3.292 8.114-20.533 49.498-21.664 52-.497 1.1-2.315 5.375-4.039 9.5-3.262 7.803-5.501 13.088-6.992 16.5-.48 1.1-2.276 5.375-3.991 9.5-1.715 4.125-3.51 8.4-3.989 9.5-1.703 3.911-6.033 14.293-15.014 36-5.006 12.1-9.711 23.35-10.454 25-.744 1.65-2.548 5.925-4.01 9.5-1.462 3.575-3.27 7.85-4.017 9.5-.748 1.65-2.33 5.475-3.516 8.5-1.186 3.025-2.757 6.85-3.491 8.5-2.561 5.754-9.492 22.22-22.521 53.5-17.283 41.493-17.981 43.164-19.003 45.5-3.158 7.215-5.101 11.793-7.426 17.5-1.457 3.575-3.053 7.4-3.547 8.5-3.914 8.715-6.012 13.646-6.012 14.129 0 .313-.641 1.987-1.425 3.72-4.437 9.809-6.575 14.773-6.575 15.269 0 .307-1.35 3.475-3 7.04s-3 6.704-3 6.976c0 .272-1.173 3.053-2.607 6.18-1.434 3.127-3.479 7.936-4.546 10.686-1.066 2.75-2.56 6.35-3.32 8-.76 1.65-3.917 9.075-7.014 16.5-3.098 7.425-6.45 15.3-7.448 17.5-.998 2.2-5.441 12.584-9.872 23.076-4.431 10.491-9.437 22.09-11.125 25.775-1.687 3.684-3.068 6.957-3.068 7.273 0 .316-.641 1.992-1.425 3.725-4.684 10.353-7.163 16.084-10.232 23.651-1.896 4.675-4.293 10.3-5.327 12.5-1.034 2.2-5.319 12.1-9.524 22-4.204 9.9-8.253 19.351-8.997 21.002a591.507 591.507 0 00-3.495 7.998 702.305 702.305 0 01-3.485 7.998c-5.719 12.782-9.515 21.599-9.515 22.102 0 .329-.641 2.016-1.425 3.749-1.289 2.85-4.536 10.149-8.074 18.151-.73 1.65-2.56 5.83-4.068 9.289l-2.741 6.29-2.596-2.425c-5.696-5.322-8.687-6.154-22.096-6.151-11.859.003-12.808.157-18.5 2.984-7.363 3.658-17.197 13.27-20.481 20.02-3.161 6.497-4.07 20.68-1.637 25.557 1.775 3.558 2.355 3.473-6.882 1.007-21.444-5.724-70.203-13.721-98-16.072-6.6-.558-16.976-1.462-23.059-2.007-14.247-1.278-68.541-1.284-82.882-.009-6.083.541-16.234 1.441-22.559 2.001-11.838 1.047-30.307 3.344-40 4.973-15.453 2.598-40.257 7.77-50.5 10.53-3.3.889-10.275 2.742-15.5 4.118-8.687 2.287-31.7 9.46-36.5 11.376-1.1.44-6.05 2.278-11 4.086-4.95 1.808-9.45 3.58-10 3.938-.55.358-3.25 1.458-6 2.445-14.604 5.242-54.413 24.627-69.25 33.721-2.47 1.514-3.25 1.661-3.25.611 0-.76.535-1.917 1.188-2.57.727-.727 1.213-4.596 1.25-9.95.05-6.99-.373-9.672-2.087-13.262-3.404-7.128-6.377-9.302-13.413-9.811-5.539-.4-6.432-.165-10.878 2.869-2.664 1.818-5.679 4.686-6.702 6.374-1.823 3.01-1.863 1.648-2.114-72.182l-.257-75.25H994l-.038 74.75-.037 74.75-3.213-3.6c-5.475-6.136-9.926-8.197-16.65-7.711-4.854.351-6.334.929-8.866 3.461-6.87 6.871-8.571 18.397-4.614 31.283l.747 2.434-3.575-2.21c-6.488-4.01-20.029-11.107-35.754-18.74-8.525-4.138-16.227-7.916-17.115-8.395-3.381-1.823-31.799-12.932-40.885-15.983-5.225-1.754-10.4-3.56-11.5-4.013-3.22-1.327-7.707-2.84-12-4.047-2.2-.618-6.25-1.789-9-2.601-8.243-2.435-23.6-6.472-30-7.886-25.405-5.613-38.156-7.993-56-10.452l-15-2.068c-28.054-3.869-99.287-4.761-133-1.666-26.24 2.409-37.153 3.831-62 8.075-17.3 2.956-41.134 7.977-48.406 10.199-1.494.456-2.177.363-1.801-.246.334-.539 1.032-3.647 1.553-6.907 1.148-7.192-.065-15.975-3-21.729-3.4-6.665-12.189-15.093-19.636-18.83-6.547-3.286-7.013-3.368-19.21-3.368-11.452 0-12.835.203-16.5 2.419-2.2 1.33-4.931 3.245-6.07 4.255-2.047 1.816-2.094 1.78-4.391-3.419-1.278-2.89-3.212-7.26-4.299-9.71-1.087-2.451-4.358-10.111-7.268-17.024-2.911-6.912-6.457-15.116-7.882-18.23-1.424-3.115-2.59-5.904-2.59-6.2 0-.295-1.099-2.911-2.441-5.814-1.343-2.902-6.101-13.812-10.574-24.245-4.474-10.432-9-20.87-10.059-23.195-1.059-2.325-1.926-4.475-1.926-4.778 0-.303-1.575-3.96-3.5-8.128-1.925-4.167-3.5-7.794-3.5-8.059 0-.265-.948-2.563-2.107-5.107-1.159-2.544-4.792-10.957-8.074-18.695-3.281-7.739-6.57-15.42-7.308-17.07-.738-1.65-3.225-7.5-5.526-13-4.171-9.966-6.847-16.17-9.557-22.151-.786-1.733-1.428-3.419-1.428-3.746 0-.327-1.575-4.004-3.5-8.172-1.925-4.167-3.5-7.794-3.5-8.059 0-.433-1.542-4.052-5.486-12.872-.738-1.65-8.182-19.2-16.543-39-17.52-41.488-23.588-55.785-25.469-60-.737-1.65-7.246-17.175-14.466-34.5-7.22-17.325-14.656-35.1-16.526-39.5-1.87-4.4-5.473-12.95-8.007-19-2.534-6.05-5.014-11.9-5.511-13-.496-1.1-2.091-4.925-3.543-8.5s-3.244-7.85-3.982-9.5c-.738-1.65-2.538-5.925-4-9.5-1.462-3.575-3.266-7.85-4.01-9.5-.743-1.65-5.448-12.9-10.454-25-8.981-21.707-13.311-32.089-15.014-36-.479-1.1-2.282-5.375-4.006-9.5-3.262-7.803-5.501-13.088-6.992-16.5-.48-1.1-2.276-5.375-3.991-9.5-1.715-4.125-3.525-8.4-4.022-9.5-1.131-2.502-18.372-43.886-21.664-52-1.338-3.3-3.335-7.969-4.437-10.375-4.861-10.611-6.026-14.414-4.676-15.271.715-.453 2.199-.834 3.299-.848 3.065-.038 11.763-5.412 16.375-10.116 4.749-4.845 8.612-12.399 10.253-20.051 1.737-8.1.547-21.509-2.485-27.994l-2.5-5.345 2.679-2.247c1.473-1.236 4.253-2.994 6.178-3.906 1.925-.913 5.075-2.641 7-3.841 6.839-4.264 29.983-16.263 44-22.812 10.114-4.725 16.101-7.301 29.5-12.694 4.4-1.771 8.9-3.586 10-4.035 1.1-.448 6.275-2.247 11.5-3.998 13.728-4.602 13-3.942 13-11.779 0-6.066.295-7.066 2.944-9.965 2.725-2.984 3.414-3.223 9.303-3.223 5.882 0 6.601.248 9.557 3.298 1.993 2.056 3.196 4.315 3.196 6 0 1.486.428 2.702.951 2.702 2.561 0 11.049-2.262 11.049-2.944 0-.716-4.321-4.112-20.498-16.108-12.235-9.074-30.986-20.945-32.962-20.869-1.122.043-2.715.301-3.54.573m1604.82 109.056c7.71 4.78 11.18 11.131 11.18 20.459 0 8.767-4.136 15.876-11.485 19.739-9.521 5.003-20.785.567-25.43-10.015-3.237-7.375-3.453-10.832-1.077-17.183 3.228-8.627 6.533-11.953 14.992-15.084 2.378-.88 8.892.268 11.82 2.084m-1731.058-.177c4.399 2.195 7.722 6.475 10.23 13.177 2.376 6.351 2.16 9.808-1.077 17.183C142.948 910.322 115 902.96 115 880.167c0-9.266 3.487-15.699 11.042-20.369 5.03-3.109 10.836-3.202 16.72-.267m1420.098 734.255c3.719 2.378 4.659 3.383 6.51 6.963 4.478 8.659-.26 19.527-11.37 26.086-3.624 2.139-5.766 2.657-11 2.661-5.578.003-7.139-.425-11-3.018-3.6-2.418-4.843-4.052-6.216-8.171-1.6-4.802-1.606-5.474-.078-9.958 2.673-7.844 10.238-14.571 18.794-16.711 3.4-.851 11.585.374 14.36 2.148m-1104.837.226c5.195 2.65 11.473 10.117 12.954 15.407 1.072 3.827 1.001 5.072-.517 9.047-5.465 14.31-25.554 15.305-36.251 1.797-6.24-7.88-6.586-16.211-.941-22.669 5.82-6.658 15.874-8.113 24.755-3.582M1214.5 134.073c-13.2.417-27.6.996-32 1.287-4.4.292-9.687.555-11.75.585L1167 136v45h-63v-22H887v23h-58v-21.941c0-13.28-.388-22.181-.982-22.548-.54-.334-4.478-.776-8.75-.983-16.324-.79-56.26-1.979-67.268-2.003l-11.5-.025-.632 8.5c-.348 4.675-.929 13.9-1.292 20.5s-.886 13.463-1.163 15.25l-.504 3.25h-7.711c-7.509 0-7.795-.09-10.868-3.439-3.193-3.479-11.977-8.561-14.797-8.561-1.32 0-1.533 2.487-1.533 17.939v17.94l4.25-1.48c5.778-2.012 11.835-6.327 14.25-10.154 1.944-3.079 2.206-3.169 9.311-3.206l7.312-.039-.534 4.25c-.293 2.338-.779 8.75-1.078 14.25-.3 5.5-.759 13.6-1.021 18-.262 4.4-.703 12.05-.982 17-.935 16.634-2.492 41.022-3.004 47.036-.279 3.28-.959 14.064-1.511 23.964-1.227 21.998-3.578 59.94-4.926 79.5-1.311 19.013-1.878 27.992-3.065 48.5-.541 9.35-1.258 19.315-1.595 22.145l-.611 5.145 4.068.687c7.314 1.236 14.944 9.108 17.868 18.436 2.404 7.667 3.194 15.503 4.196 41.587 1.624 42.286 5.671 57.023 18.721 68.171l5.534 4.728 4.198-2.227c15.584-8.267 23.991-30.045 27.086-70.172 1.053-13.646 3.457-30.062 5.272-36 3.356-10.978 9.48-17.706 18.785-20.639l5.598-1.765-.685-141.141-.684-141.142 20.974-.572c11.535-.315 24.627-.322 29.093-.016l8.119.557.28 11.421.281 11.422 107.894-.092c59.341-.051 108.241-.308 108.667-.571.426-.263.519-5.649.208-11.97l-.566-11.492H1167l.041 76.75c.022 42.213 0 85.075-.049 95.25-.049 10.175.228 39.538.615 65.25l.703 46.75h2.378c3.709 0 11.932 4.628 14.632 8.235 4.677 6.248 7.825 14.283 9.116 23.265.316 2.2.777 5.125 1.025 6.5.248 1.375.714 5.65 1.035 9.5 4.113 49.299 10.49 68.224 26.437 78.457l4.982 3.197 4.513-3.104c8.082-5.561 13.003-13.975 16.607-28.397 2.031-8.128 3.195-22.775 4.445-55.968.328-8.698 1.033-18.115 1.566-20.927 2.298-12.118 9.159-21.337 18.088-24.302l5.075-1.686-.647-9.635c-.356-5.299-1.081-15.71-1.611-23.135-1.072-14.989-3.349-48.972-4.926-73.5-.566-8.8-1.473-21.625-2.015-28.5-1.153-14.611-2.742-38.88-3.568-54.5-.32-6.05-.766-12.8-.99-15-.224-2.2-.875-11.875-1.447-21.5-.571-9.625-1.248-19.525-1.503-22-.255-2.475-.718-9.225-1.029-15-.311-5.775-.746-11.676-.967-13.113-.388-2.524-.19-2.636 5.796-3.274 5.687-.606 6.322-.476 7.698 1.579 3.722 5.56 14.276 12.763 18.75 12.798.954.008 1.25-4.237 1.25-17.92v-17.93l-3.084.884c-4.798 1.376-11.529 5.666-14.156 9.023-2.318 2.963-2.589 3.04-9.671 2.751l-7.285-.298-.339-4.5c-.187-2.475-.828-11.7-1.425-20.5-.597-8.8-1.351-17.462-1.674-19.25l-.589-3.25-8.138.158c-4.477.087-18.939.499-32.139.915" fill="#FFB200FF" stroke="#FFB200FF"/><path d="M914.314 253.95c-6.545 3.991-5.839-8.89-7.817 142.55-.281 21.45-.73 54.075-.999 72.5-.871 59.772-1.468 105.549-2.005 154-.29 26.125-.737 56.05-.992 66.5-.255 10.45-.755 49.15-1.111 86-.355 36.85-.926 79.681-1.268 95.18-.342 15.499-.251 29.74.203 31.646 1.825 7.673 10.247 10.556 15.497 5.307 3.139-3.139 4.051-9.75 4.127-29.883L920 864h22.301l-.59 17.467c-.325 9.622-.179 18.902.326 20.66 1.389 4.845 4.736 7.873 8.703 7.873 8.523 0 10.079-3.624 10.335-24.076.107-8.483.409-16.886.673-18.674l.479-3.25H992v18.886c0 19.712.506 22.511 4.635 25.638 3.002 2.274 8.678 1.837 11.215-.864 3.434-3.655 4.201-8.058 4.126-23.66-.039-7.975-.05-15.737-.023-17.25L1012 864h24v18.55c0 19.817.567 22.633 5.217 25.889 2.944 2.063 8.215 1.987 10.35-.149 4.169-4.169 4.712-7.823 3.979-26.79l-.696-18 11.075-.112 11.075-.112.098 9.112a996.07 996.07 0 01.016 17.067c-.14 13.742 3.296 20.545 10.376 20.545 7.566 0 10.864-6.785 10.08-20.741-.239-4.267-.696-24.634-1.015-45.259-.318-20.625-.793-48.3-1.054-61.5-2.85-143.843-3.491-177.263-4.469-233-.532-30.25-1.209-68.725-1.506-85.5-.296-16.775-.756-36.575-1.021-44-.265-7.425-.716-31.95-1.003-54.5-1.08-84.84-1.804-104.249-4.048-108.589-1.781-3.445-6.77-5.538-10.267-4.308-1.444.508-3.703 2.492-5.021 4.41l-2.396 3.487.675 41c.371 22.55.852 43.7 1.068 47 .217 3.3.696 29.175 1.064 57.5.369 28.325.777 55.1.906 59.5.13 4.4.531 24.2.893 44 .361 19.8 1.093 54.9 1.626 78 .533 23.1 1.185 56.963 1.447 75.25l.479 33.25h-19.655l-.623-10.25c-.343-5.637-.863-38.825-1.155-73.75-.293-34.925-.751-71.375-1.018-81-.53-19.024-2.261-169.855-2.635-229.5-.128-20.35-.655-38.711-1.172-40.802-.998-4.04-5.91-8.698-9.17-8.698-.996 0-3.302 1.137-5.124 2.527-4.084 3.115-5.501 7.869-4.932 16.54.232 3.538.695 39.283 1.027 79.433.333 40.15 1.021 97.3 1.53 127 .508 29.7 1.222 90.675 1.585 135.5s.857 81.838 1.096 82.25c.24.413-4.766.75-11.123.75H1011l-.038-155.25c-.048-190.9-.696-277.079-2.117-281.577-1.067-3.379-5.83-7.162-9.024-7.169-.923-.002-3.286 1.512-5.25 3.364L991 258.736V696h-27.164l.592-55.25c.326-30.387.811-63.125 1.078-72.75.658-23.717 1.387-71.357 2.533-165.5.529-43.45 1.256-92.609 1.617-109.242.597-27.596.501-30.584-1.107-34.15-2.41-5.345-7.167-7.923-11.389-6.174-6.699 2.775-6.585 2-7.287 49.566-.349 23.65-.91 55.825-1.246 71.5-.336 15.675-.852 50.325-1.146 77-.295 26.675-.735 56.375-.978 66-.244 9.625-.687 46.075-.986 81-.298 34.925-.81 71.263-1.137 80.75l-.595 17.25-10.642-.003-10.643-.002.07-7.748c.481-53.123 1.551-135.287 1.931-148.247.265-9.075.714-37.425.997-63 .283-25.575.733-62.925 1.001-83 1.926-144.367 1.962-132.518-.41-136.355-1.62-2.623-6.285-5.723-8.488-5.641-.056.002-1.535.878-3.287 1.946M992 828v16h-30v-32h30v16m-.229-95.75l.466 16.75H962.83l.453-16.25.452-16.25 4.382-.65c2.411-.357 8.614-.582 13.785-.5l9.403.15.466 16.75" fill="#FFB200FF" stroke="#FFB200FF"/><path d="M1129 774.225c-6.007 1.509-10.125 3.847-14.526 8.249-6.316 6.315-7.984 10.534-7.92 20.026.048 7.042.488 8.925 3.675 15.728 1.992 4.251 5.652 10.368 8.134 13.593 4.62 6.005 18.157 19.194 22.637 22.056 5.425 3.466 5.221 3.91-1.545 3.367-11.001-.883-17.385 2.818-22.645 13.128-2.656 5.206-2.903 13.312-.516 16.954.949 1.448 3.142 3.365 4.874 4.261 2.703 1.398 3.699 1.447 7.031.347 2.135-.704 5.413-2.975 7.284-5.047 5.31-5.878 7.983-7.221 14.346-7.212 7.112.01 13.157 2.939 16.637 8.06 2.195 3.23 2.534 4.81 2.534 11.798 0 27.928-17.772 61.684-43.245 82.139-17.918 14.389-33.736 22.368-54.108 27.293-24.445 5.909-41.393-.258-49.37-17.965-3.88-8.614-5.651-19.92-4.776-30.5.409-4.95.801-10.8.871-13l.128-4h-37.702l.602 4.5c1.774 13.269 1.811 22.69.121 31-3.978 19.557-12.65 28.947-29.623 32.075-18.457 3.401-53.742-9.282-76.398-27.46-13.468-10.806-26.415-27.122-34.476-43.445C833.626 925.188 831 914.877 831 900.809v-10.403l3.75-3.614c6.535-6.298 14.621-8.335 21.564-5.434 1.788.747 5.589 3.672 8.447 6.5 4.304 4.259 5.809 5.142 8.767 5.142 7.536 0 11.472-4.266 11.472-12.432 0-7.522-5.504-16.797-12.2-20.56-4.355-2.448-12.667-3.16-17.8-1.527-1.735.553-.96-.425 2.532-3.193 28.951-22.953 41.37-47.052 32.952-63.944-5.169-10.373-15.098-16.758-25.901-16.657-10.562.1-17.423 6.208-19.158 17.057-.799 4.999 1.296 9.302 5.919 12.159 5.835 3.607 11.718 2.169 12.803-3.129.305-1.491.689-1.557 2.823-.485 3.442 1.729 7.032 7.408 7.021 11.109-.023 7.572-9.314 18.2-25.311 28.953-9.917 6.666-15.457 11.764-21.351 19.649-10.623 14.21-19.166 38.38-17.537 49.616l.708 4.884-1.671-3.5c-.919-1.925-3.293-7.318-5.275-11.984-3.665-8.626-10.333-20.575-13.62-24.404-4.501-5.244-5.658-6.383-9.139-8.998-8.579-6.443-16.948-6.547-23.555-.29-8.065 7.638-5.326 16.287 8.478 26.777 3.18 2.417 6.067 4.845 6.415 5.396.376.595.173.672-.5.19-4.622-3.316-16.671-7.493-26.633-9.233-4.053-.708-20.551-.792-23.504-.12-13.089 2.98-21.434 8.585-27.05 18.168-3.213 5.483-5.759 15.779-4.895 19.793 2.276 10.571 9.247 15.705 21.325 15.705 7.115 0 10.095-.93 31.66-9.882 16.08-6.676 25.132-8.719 32.53-7.343 11.073 2.059 18.062 6.541 33.872 21.719 32.239 30.953 44.357 41.159 62.128 52.327 8.513 5.35 25.305 13.264 35.407 16.687 9.333 3.164 14.038 6.204 22.814 14.744 6.911 6.726 11.914 14.209 13.63 20.387 3.725 13.417-3.325 35.795-14.146 44.9-6.185 5.205-15.216 8.916-29.271 12.028-6.211 1.375-12.752 1.784-29.25 1.827-11.687.031-21.25.357-21.25.725 0 .661 5.577 5.757 26.215 23.953 3.645 3.213 4.785 3.589 4.785 1.578 0-2.172 5.881-9.671 8.281-10.558 3.195-1.182 7.6.405 11.492 4.141 7.818 7.506 10.129 18.258 6.234 29.006-3.675 10.144-11.923 21.019-21.455 28.289-4.845 3.696-4.526 4.806 1.198 4.173 8.926-.988 12.622-3.579 19.164-13.434 2.275-3.428 6.886-8.947 10.245-12.265l6.108-6.032-1.253-5.905c-1.868-8.801-.871-23.905 2.177-32.979l2.49-7.415 1.909 5.371c1.755 4.934 5.658 9.903 11.099 14.13 2.21 1.717 5.85 3.828 6.602 3.828.232 0 .719-3.037 1.082-6.75 1.136-11.626 5.601-22.53 12.936-31.595l4.172-5.155.017 8.5c.009 4.675.582 10.371 1.273 12.657 1.358 4.496 7.025 13.499 8.858 14.075.716.224 1.564-2.679 2.318-7.939 2.573-17.928 9.177-35.637 17.309-46.41 1.784-2.365 3.83-4.538 4.546-4.83 1.878-.765 5.323 1.78 10.134 7.486 10.959 12.996 16.771 27.135 17.764 43.211.331 5.363.946 9.75 1.367 9.75.892 0 6.12-6.501 7.788-9.684 2.241-4.276 4.051-15.826 3.427-21.871l-.612-5.927 4.466 5.491c7.683 9.448 13.782 24.971 13.847 35.241.009 1.513.269 2.75.577 2.75 1.312 0 9.788-7.163 12.47-10.538 1.606-2.02 3.206-5.205 3.558-7.078.982-5.234 1.994-4.87 3.863 1.387a740.275 740.275 0 002.63 8.628c1.3 4.101 1.142 22.124-.233 26.715l-1.152 3.845 7.404 7.771c4.072 4.273 9.138 10.393 11.258 13.599 4.73 7.154 7.969 9.208 16.896 10.714 8.617 1.453 10.118.38 5.007-3.579-6.923-5.364-15.733-14.99-18.628-20.353-3.434-6.363-5.605-14.044-5.621-19.893-.029-10.309 9.371-22.218 17.537-22.218 3.028 0 8.171 4.912 9.686 9.25 1.125 3.221 1.713 3.356 4.336 1 1.071-.962 3.743-3.278 5.938-5.147 7.802-6.64 21.491-19.366 21.492-19.98 0-.343-8.311-.468-18.469-.278-50.245.938-71.268-11.148-76.478-43.966-1.29-8.123-.143-15.108 3.614-22.011 2.992-5.496 12.466-15.765 19.332-20.953 2.475-1.87 4.65-3.741 4.833-4.158.184-.416.982-.757 1.775-.757 3.502 0 16.835-5.409 30.026-12.181 21.704-11.142 37.954-23.988 70.839-56 15.055-14.655 20.553-19.057 27.806-22.261 12.273-5.421 20.86-4.37 45.213 5.536 19.734 8.027 26.751 9.62 34.915 7.925 15.89-3.298 19.537-21.6 7.621-38.24-8.721-12.179-25.195-17.392-46.528-14.722-11.883 1.487-23.208 5.52-30.13 10.73-1.252.942-.224-.087 2.286-2.287 17.154-15.04 18.892-17.334 18.039-23.817-.433-3.297-1.44-4.977-4.751-7.933-3.906-3.487-4.641-3.75-10.463-3.75-5.459 0-6.886.428-11.122 3.334-6.812 4.674-14.458 14.52-19.931 25.666-2.566 5.225-5.003 10.4-5.416 11.5-.413 1.1-1.822 4.427-3.131 7.393l-2.381 5.394.345-6.519c.453-8.57-2.468-19.266-8.852-32.413-2.709-5.58-5.504-10.767-6.209-11.527-.706-.76-2.388-2.945-3.738-4.855-4.877-6.902-9.601-11.144-20.753-18.634-11.174-7.504-19.874-15.695-22.913-21.571-.851-1.645-1.547-5.068-1.547-7.607 0-4.105.448-5.033 4.045-8.388 4.173-3.893 6.478-4.864 5.501-2.317-.311.808.582 2.596 2.01 4.024 2.006 2.006 3.175 2.428 5.34 1.925 6.177-1.434 11.26-7.167 11.267-12.71.005-3.737-3.228-10.654-6.516-13.942-4.249-4.249-12.015-6.152-18.48-4.528" fill="#FFB200FF" stroke="#FFB200FF"/><path d="M706.995 719.75c-.002 7.013-.423 19.95-.934 28.75-.511 8.8-1.191 26.8-1.512 40-.855 35.222-1.643 57.841-2.062 59.178-.203.647-.439 9.197-.524 19-.127 14.524.094 17.747 1.191 17.415 12.487-3.777 20.489-5.239 29.595-5.405 9.574-.176 11.695-.677 9.251-2.188-.55-.34-1-2.856-1-5.592 0-12.186 11.8-23.922 24.033-23.902 11.584.018 27.069 8.935 36.011 20.735 1.351 1.782 2.682 3.245 2.958 3.25.276.005 1.615-2.128 2.975-4.741 1.361-2.612 2.71-4.975 2.999-5.25.288-.275 2.324-3.175 4.524-6.445 2.2-3.27 7.246-9.345 11.214-13.5l7.213-7.555.037-60.781c.028-47.774-.232-60.866-1.214-61.177-1.547-.49-24.32-1.317-57.25-2.08-13.75-.318-32.812-1.002-42.361-1.52-9.548-.518-19.111-.942-21.25-.942H707l-.005 12.75M1261 706.653c-4.125.156-16.725.74-28 1.297-15.858.784-57.122 2.27-65.75 2.369-.986.011-1.25 12.912-1.25 61.13v61.116l5.661 5.467c6.351 6.134 17.93 21.259 21.211 27.708l2.158 4.239 8.235-8.266c11.226-11.27 18.924-15.131 30.235-15.167 9.444-.029 14.478 2.113 19.317 8.222 5.653 7.138 7.343 14.457 4.728 20.482-.689 1.589.025 1.75 7.783 1.75 8.559 0 19.293 1.773 27.408 4.528 2.383.81 4.613 1.472 4.954 1.472.341 0 .324-6.862-.039-15.25a14617.869 14617.869 0 01-4.999-128.25l-1.152-33-11.5-.066c-6.325-.036-14.875.062-19 .219m-31.5 230.373c-5.761 1.163-8.48 2.346-15.057 6.553-7.031 4.498-15.483 12.761-21.399 20.921-5.788 7.983-23.485 25.446-34.044 33.595-19.861 15.327-43.312 26.104-57.242 26.307-3.709.054-6.746.393-6.75.753-.005.36 1.998 1.831 4.451 3.268 7.989 4.682 14.538 15.133 14.54 23.205.001 3.277-2.007 8.653-4.337 11.614-3.539 4.497-16.672 7.368-22.724 4.967-2.997-1.189-8.457-7.117-9.457-10.268-1.207-3.805 3.682-5.206 8.519-2.441 5.821 3.327 11.11.604 11.292-5.814.144-5.079-2.437-8.241-8.32-10.195-4.291-1.426-5.849-1.508-9.788-.518-10.669 2.682-16.012 9.691-14.743 19.341 1.448 11.014 13.233 26.284 24.596 31.872 24.222 11.91 60.736 7.961 110.963-12.002 10.71-4.257 20.995-9.338 25.797-12.745 6.826-4.843 24.395-23.288 31.851-33.439 15.048-20.49 28.755-48.988 34.801-72.359 1.403-5.423 2.551-9.959 2.551-10.081 0-.122-2.798.356-6.218 1.06-8.154 1.681-12.982.909-20.282-3.24-18.536-10.536-26.985-12.778-39-10.354m-476.5 1.61c-6.69 1.77-10.832 3.642-17.51 7.913-10.084 6.451-16.996 7.878-25.63 5.291-2.13-.638-4.058-.975-4.284-.749-.947.947 5.558 22.771 9.959 33.409 11.453 27.688 23.991 47.35 42.93 67.326 12.195 12.862 21.924 19.387 38.484 25.811 3.603 1.397 7.901 3.118 9.551 3.823 4.625 1.977 23.521 8.344 28 9.434 2.2.535 6.923 1.699 10.496 2.586 16.965 4.21 39.337 5.297 52.004 2.528 18.746-4.098 33.567-17.391 38.568-34.593 1.278-4.397 1.333-6.014.319-9.399-2.462-8.215-12.326-13.903-21.877-12.613-5.848.789-9.284 3.398-10.431 7.92-1.84 7.257 3.197 12.21 9.549 9.389 7.331-3.256 9.872-3.072 9.872.715 0 3.207-6.428 10.229-10.635 11.617-4.655 1.537-11.018.786-16.714-1.971-3.437-1.664-5.052-3.271-6.691-6.655-5.124-10.586-.282-23.386 11.885-31.418l5.301-3.5-4.323-.094c-6.588-.144-12.754-1.29-18.823-3.499-3.025-1.101-6.326-2.268-7.335-2.593-3.831-1.235-19.059-9.423-25.546-13.735-7.922-5.267-26.664-21.223-33.13-28.207-2.482-2.679-8.057-9.268-12.389-14.641-11.328-14.05-21.461-21.307-33.819-24.22-7.597-1.792-10.613-1.77-17.781.125m173.313 285.121l-64.187.258-2.313 3.242c-2.03 2.847-2.311 4.404-2.3 12.743.01 7.766.402 10.23 2.147 13.5 6.996 13.114 20.519 19.258 33.151 15.063 8.641-2.87 13.841-11.087 11.28-17.823-1.438-3.784-6.793-6.967-10.537-6.265-6.907 1.297-10.656 2.74-13.639 5.25l-3.175 2.672-1.883-2.325c-4.291-5.299-2.856-10.699 3.733-14.053 3.649-1.858 15.531-1.941 20.719-.144 5.351 1.853 12.567 9.39 16.872 17.625 3.733 7.139 6.778 14.91 6.804 17.365.021 1.902 6.585 15.799 9.747 20.635 1.438 2.2 6.329 7.648 10.867 12.108 6.349 6.238 10.171 9.044 16.576 12.168 12.63 6.161 22.25 8.099 40.325 8.121 12.334.015 14.793-.26 25.5-2.856 16.179-3.923 32.026-15.697 42.452-31.541 4.751-7.221 11.548-21.633 11.548-24.488 0-2.317 8.918-19.63 11.655-22.627 4.942-5.41 8.753-6.755 19.345-6.823 7.062-.046 10.43.384 13.123 1.675 5.846 2.802 7.517 9.98 3.304 14.193-2.16 2.16-3.11 1.97-3.794-.758-.322-1.28-1.699-3.53-3.061-5-2.169-2.341-3.243-2.672-8.656-2.672-5.761 0-6.402.236-9.465 3.483-1.806 1.916-3.573 4.794-3.925 6.396-.683 3.112 1.318 9.108 3.903 11.692 4.853 4.854 17.19 6.029 24.957 2.378 13.015-6.118 20.502-22.739 16.147-35.85-2.945-8.865 3.246-8.251-79.693-7.905-40.337.168-102.224.422-137.527.563m787.488-403.612c-2.268.83-2.788 1.733-3.259 5.671-.309 2.576-1.419 9.859-2.468 16.184-1.728 10.425-1.776 12.248-.514 19.5.766 4.4 1.853 11.6 2.415 16 2.159 16.893 5.895 38.602 8.69 50.5 3.714 15.807 7.748 26.977 15.53 43 5.699 11.733 18.183 32.717 20.823 35 .318.275 1.675 2.075 3.016 4 3.441 4.94 7.99 10.423 16.33 19.682l3.865 4.29-1.51 3.764c-1.286 3.206-3.972 9.379-7.729 17.764-.493 1.1-3.883 8.975-7.533 17.5-5.872 13.716-8.254 19.233-11.444 26.5-.483 1.1-1.55 3.575-2.371 5.5a813.75 813.75 0 01-4.067 9.28c-1.416 3.178-2.575 6.031-2.575 6.338 0 .307-1.35 3.475-3 7.04s-3 6.644-3 6.842c0 .198-1.35 3.277-3 6.842-1.65 3.565-3 6.713-3 6.997 0 .283-1.575 3.925-3.5 8.092-1.925 4.168-3.5 7.84-3.5 8.161 0 .322-1.35 3.501-3 7.066s-3 6.704-3 6.976c0 .272-1.067 2.828-2.372 5.68s-4.279 9.686-6.609 15.186-5.151 12.025-6.269 14.5c-2.052 4.541-5.839 13.473-10.391 24.5-1.362 3.3-3.093 7.351-3.847 9.002a476.506 476.506 0 00-3.512 7.998 659.6 659.6 0 01-3.489 7.998c-.741 1.651-3.447 7.952-6.013 14.002-2.566 6.05-5.491 12.8-6.5 15-1.01 2.2-3.73 8.5-6.045 14s-5.228 12.25-6.474 15c-1.246 2.75-4.144 9.5-6.44 15-2.296 5.5-4.782 11.35-5.526 13-.743 1.65-4.334 9.975-7.979 18.5-3.645 8.525-7.032 16.4-7.526 17.5-.494 1.1-1.856 4.25-3.026 7a552.23 552.23 0 01-3.473 8c-.74 1.65-3.656 8.4-6.48 15-2.824 6.6-5.536 12.9-6.027 14-.491 1.1-1.842 4.25-3.002 7-1.16 2.75-2.539 5.9-3.065 7-.526 1.1-2.949 6.725-5.384 12.5l-4.427 10.5-5.312-.219c-7.284-.301-35.756 2.383-44.312 4.176-8.306 1.741-25.962 6.22-29.5 7.483-11.344 4.05-18.126 6.612-21.695 8.197-2.307 1.025-4.467 1.863-4.8 1.863-1.124 0-24.754 12.007-30.902 15.702-5.575 3.351-12.365 8.002-13.603 9.318-.275.292-2.525 2.069-5 3.947-5.799 4.402-19.152 18.177-22.727 23.445-1.525 2.249-3.346 4.694-4.047 5.434-3.898 4.116-13.572 27.937-14.411 35.485l-.315 2.832-34.989-.118c-36.647-.123-48.135.535-86.511 4.956-19.992 2.303-37.334 5.165-54.5 8.993-2.2.491-8.5 1.87-14 3.066-8.681 1.888-15.058 3.479-28 6.988-1.65.447-5.25 1.487-8 2.31s-6.8 2.021-9 2.662c-6.955 2.026-33.852 11.125-37.5 12.686-6.4 2.739-7.443 3.172-16.379 6.793-4.884 1.979-11.056 4.701-13.717 6.05-5.348 2.709-6.904 3.009-6.904 1.327 0-.618-1.642-4.781-3.649-9.25-7.882-17.555-18.472-30.58-29.065-35.748-6.273-3.06-17.571-3.781-23.305-1.487-2.212.885-4.462 1.609-5.001 1.609-.629 0-.98-21.525-.98-60.092 0-66.68.658-59.243-6.01-67.908-1.904-2.474-1.924-1.756-1.957 69.25-.023 50.179.288 71.75 1.034 71.75.586 0 2.499-1.087 4.25-2.417 5.5-4.175 11.083-5.856 17.95-5.403 17.846 1.176 32.057 16.242 40.318 42.743l2.765 8.868 11.575-5.833c23.294-11.738 36.309-16.952 65.625-26.293 4.427-1.411 9.827-3.017 12-3.57 2.172-.553 6.65-1.708 9.95-2.568 5.422-1.411 12.736-3.129 24-5.637 12.749-2.839 36.649-6.562 60-9.348 22.228-2.653 55.204-4.474 81-4.474 19.185 0 51.624 1.383 59 2.514l4 .614.115-8.348c.383-27.878 21.347-58.492 54.298-79.293 10.661-6.73 29.8-15.319 43.587-19.561 29.738-9.15 63.046-11.432 89.283-6.118l4.284.868 1.858-4.122c1.022-2.267 3.764-8.622 6.094-14.122 2.33-5.5 5.304-12.334 6.609-15.186 1.305-2.852 2.372-5.408 2.372-5.68 0-.272 1.308-3.338 2.907-6.814s4.786-10.82 7.083-16.32c2.297-5.5 5.263-12.375 6.593-15.277 1.329-2.903 2.417-5.459 2.417-5.681 0-.221 1.35-3.319 3-6.884 1.65-3.565 3-6.736 3-7.048 0-.311 1.575-3.93 3.5-8.042 1.925-4.111 3.5-7.75 3.5-8.086 0-.336 1.166-3.158 2.59-6.273 1.425-3.114 4.971-11.318 7.882-18.23 4.66-11.071 7.41-17.465 10.526-24.479 4.37-9.84 6.362-14.427 8.587-19.774 2.162-5.196 5.732-13.488 10.431-24.226 2.299-5.254 5.129-11.857 9.003-21 2.33-5.5 5.304-12.334 6.609-15.186 1.305-2.852 2.372-5.408 2.372-5.68 0-.272 1.387-3.563 3.082-7.314 6.032-13.347 6.719-14.917 10.194-23.32 1.933-4.675 4.712-11.2 6.176-14.5 3.266-7.362 3.78-8.523 6.991-15.78 1.406-3.178 2.557-6.031 2.557-6.338 0-.307 1.35-3.475 3-7.04s3-6.715 3-7c0-.285 1.35-3.435 3-7s3-6.644 3-6.842c0-.198 1.35-3.277 3-6.842 1.65-3.565 3-6.733 3-7.04 0-.307 1.151-3.16 2.557-6.338 1.406-3.179 2.95-6.68 3.431-7.78.481-1.1 2.706-6.163 4.943-11.251 2.238-5.089 4.069-9.501 4.069-9.805 0-.633 3.044-7.626 9.414-21.63 1.422-3.127 2.586-5.96 2.586-6.296 0-.336 1.575-3.975 3.5-8.086 1.925-4.112 3.5-7.735 3.5-8.053 0-.317.639-1.995 1.419-3.728s2.823-6.258 4.539-10.055c4.401-9.739 4.352-10.415-.958-13.352-10.803-5.974-27.854-20.589-36.5-31.284-8.587-10.624-19.368-30.372-24.817-45.46-5.292-14.654-9.968-35.182-11.844-52-1.515-13.579-1.793-54.04-.451-65.75l.888-7.75-2.388.079c-1.313.043-3.602.523-5.087 1.066M279.612 826.75c1.342 11.71 1.064 52.171-.451 65.75-1.876 16.818-6.552 37.346-11.844 52-5.449 15.088-16.23 34.836-24.817 45.46-8.646 10.695-25.697 25.31-36.5 31.284-5.31 2.937-5.359 3.613-.958 13.352 1.716 3.797 3.759 8.322 4.539 10.055.78 1.733 1.419 3.411 1.419 3.728 0 .318 1.575 3.941 3.5 8.053 1.925 4.111 3.5 7.75 3.5 8.086 0 .336 1.065 2.944 2.367 5.796 1.301 2.852 3.359 7.436 4.572 10.186s2.848 6.418 3.633 8.151c.786 1.733 1.428 3.42 1.428 3.749 0 .503 3.796 9.32 9.515 22.102.739 1.651 2.307 5.25 3.485 7.998s2.764 6.347 3.525 7.998c.761 1.651 2.256 5.252 3.322 8.002 1.067 2.75 3.138 7.7 4.603 11a4308.32 4308.32 0 017.079 16c1.454 3.3 3.249 7.35 3.99 9 .74 1.65 3.225 7.5 5.522 13 3.945 9.447 6.947 16.482 8.959 21 1.642 3.686 4.749 10.921 9.019 21 2.33 5.5 5.304 12.334 6.609 15.186 1.305 2.852 2.372 5.427 2.372 5.723 0 .295 1.094 2.911 2.432 5.814 1.337 2.902 4.753 10.677 7.59 17.277 2.837 6.6 6.05 14.025 7.14 16.5a954.832 954.832 0 013.478 8c.822 1.925 1.891 4.4 2.375 5.5.484 1.1 2.965 6.95 5.513 13 2.547 6.05 5.721 13.375 7.052 16.277 1.331 2.903 2.42 5.459 2.42 5.681 0 .221 1.35 3.319 3 6.884 1.65 3.565 3 6.744 3 7.066 0 .321 1.575 3.993 3.5 8.161 1.925 4.167 3.5 7.814 3.5 8.103 0 .289.641 1.944 1.425 3.677s2.623 5.851 4.087 9.151c1.463 3.3 3.263 7.35 3.998 9 .736 1.65 4.778 11.1 8.982 21 4.205 9.9 8.493 19.8 9.529 22 1.037 2.2 3.077 6.925 4.535 10.5 1.458 3.575 3.537 8.525 4.62 11 1.083 2.475 2.641 6.075 3.464 8 .822 1.925 1.887 4.4 2.367 5.5.479 1.1 2.222 5.15 3.873 9 3.326 7.755 2.903 7.58 12.62 5.216 3.18-.773 12.825-1.195 26.5-1.157 21.702.059 28.669.833 46 5.113 40.945 10.11 76.995 32.973 94.727 60.077 10.134 15.489 14.514 27.901 14.671 41.58l.102 8.829 3.5-.558c1.925-.307 15.81-1.103 30.855-1.769 43.255-1.915 91.682.611 136.645 7.129 20.342 2.948 56.904 10.857 72.819 15.752 13.401 4.122 32.598 10.642 36.42 12.371 2.332 1.054 4.494 1.917 4.805 1.917.311 0 2.454.836 4.761 1.858a272.432 272.432 0 007.686 3.25c1.921.766 9.455 4.396 16.744 8.068l13.252 6.677 1.563-5.677c7.759-28.166 24.281-46.176 42.364-46.176 4.844 0 7.486.662 12.607 3.159 3.563 1.737 6.479 3.537 6.479 4 0 .463.675.841 1.5.841 1.32 0 1.496-8.569 1.467-71.25-.032-67.524-.123-71.135-1.75-69.047-5.497 7.055-5.099 2.156-5.42 66.59-.163 32.748-.564 59.809-.891 60.135-.327.326-2.521-.086-4.876-.917-2.355-.831-7.022-1.511-10.372-1.511-17.424 0-32.279 13.667-43.204 39.75-2.131 5.088-4.216 9.25-4.632 9.25-.417 0-4.26-1.703-8.54-3.785-4.28-2.082-10.032-4.617-12.782-5.633s-7.25-2.853-10-4.081c-2.75-1.229-13.55-5.059-24-8.512-10.45-3.452-19.9-6.624-21-7.048-1.1-.424-4.025-1.292-6.5-1.929a1017.92 1017.92 0 01-10-2.651c-3.025-.82-7.075-1.916-9-2.436-5.334-1.439-15.71-3.882-23.5-5.533-3.85-.815-8.8-1.876-11-2.357-14.155-3.092-34.548-6.292-54.5-8.552-30.77-3.484-40.571-3.983-78.293-3.983h-38.794l-.502-2.5c-1.099-5.466-3.785-15.584-4.513-17-.425-.825-1.809-3.75-3.076-6.5-3.022-6.559-8.171-14.792-13.131-21-4.23-5.293-21.606-22.5-22.722-22.5-.362 0-1.965-1.129-3.563-2.51-8.621-7.447-35.188-21.502-54.041-28.59-17.471-6.569-28.539-9.813-45.865-13.441-10.34-2.166-38.231-4.635-44.09-3.904l-5.091.636-3.718-8.846c-2.045-4.865-4.575-10.645-5.622-12.845-1.047-2.2-3.549-8.04-5.559-12.977-3.168-7.78-4.766-11.518-9.42-22.023-4.349-9.818-6.315-14.348-9.981-23-2.33-5.5-5.12-12.025-6.2-14.5-1.08-2.475-2.636-6.075-3.459-8-.822-1.925-1.894-4.4-2.381-5.5-.487-1.1-3.872-8.975-7.522-17.5-6.461-15.091-9.63-22.416-11.465-26.5-.494-1.1-3.885-8.975-7.535-17.5-5.837-13.634-7.721-17.999-11.441-26.5a2417.135 2417.135 0 01-12.051-28c-2.322-5.5-5.288-12.334-6.593-15.186-1.305-2.852-2.372-5.408-2.372-5.68 0-.272-1.304-3.338-2.898-6.814s-4.802-10.82-7.128-16.32c-2.327-5.5-5.297-12.334-6.602-15.186-1.305-2.852-2.372-5.408-2.372-5.68 0-.272-1.35-3.411-3-6.976s-3-6.744-3-7.066c0-.321-1.575-3.993-3.5-8.161-1.925-4.167-3.5-7.809-3.5-8.092 0-.284-1.35-3.432-3-6.997s-3-6.644-3-6.842c0-.198-1.35-3.277-3-6.842-1.65-3.565-3-6.733-3-7.04 0-.48-1.243-3.404-6.002-14.118a683.16 683.16 0 01-3.016-7 563.603 563.603 0 00-3.473-8c-.741-1.65-4.33-9.975-7.975-18.5-3.645-8.525-7.031-16.4-7.524-17.5-3.757-8.385-6.443-14.558-7.729-17.764l-1.51-3.764 3.865-4.29c8.34-9.259 12.889-14.742 16.33-19.682 1.341-1.925 2.698-3.725 3.016-4 2.64-2.283 15.124-23.267 20.823-35 7.782-16.023 11.816-27.193 15.53-43 2.792-11.885 6.634-34.204 8.608-50 .515-4.125 1.65-11.724 2.523-16.886 1.51-8.936 1.489-9.928-.44-20.703-1.114-6.224-2.026-13.067-2.026-15.206 0-3.648-.239-3.96-3.866-5.047-7.448-2.231-7.524-2.155-6.522 6.592m994.372-341.5c-4.336 2.597-6.017 4.406-8.364 9.001l-2.937 5.75-.791 27.25c-.806 27.763-1.741 38.183-4.461 49.749-7.87 33.462-28.088 45.808-45.441 27.75-8.036-8.363-14.822-24.604-18.021-43.13-.487-2.816-1.073-6.02-1.302-7.12-.23-1.1-.746-5.15-1.148-9-.402-3.85-.916-7.9-1.142-9-.225-1.1-.878-8.075-1.45-15.5-.572-7.425-1.726-15.639-2.565-18.254-2.406-7.5-11.453-15.746-17.276-15.746-1.998 0-2.013.527-2.067 74.14l-.054 74.141 12.767-.655c19.945-1.023 53.201-2.468 70.768-3.075 8.8-.304 22.003-.826 29.341-1.159l13.34-.607-.575-6.642a4274.562 4274.562 0 01-1.623-19.643c-.576-7.15-1.947-23.575-3.046-36.5-1.1-12.925-2.639-31.6-3.42-41.5-.782-9.9-1.889-23.175-2.46-29.5-.572-6.325-1.044-12.062-1.048-12.75-.013-1.867-1.068-1.567-7.025 2m-557.428 1c-.266 1.238-.976 9-1.58 17.25a5238.61 5238.61 0 01-2.009 26.5c-.954 12.021-2.856 37.293-5.419 72-.833 11.275-1.787 22.411-2.12 24.747-.439 3.079-.237 4.376.733 4.713.737.256 19.564.969 41.839 1.586 22.275.616 42.3 1.268 44.5 1.449 2.2.18 11.78.619 21.288.974l17.288.647-.242-54.808c-.133-30.145-.409-63.715-.615-74.601-.423-22.42.159-21.343-8.618-15.965-9.781 5.993-11.45 10.601-13.133 36.258-.342 5.225-.812 10.625-1.044 12-.232 1.375-.868 6.325-1.414 11-1.376 11.798-4.787 26.936-8.112 36-2.818 7.682-9.449 18.399-13.686 22.119-17.951 15.761-38.01.175-44.557-34.619-.828-4.4-1.755-10.25-2.06-13-.305-2.75-.83-7.449-1.167-10.442-.336-2.993-.908-15.593-1.27-28-.655-22.443-.672-22.583-3.496-27.386C728.97 490.091 721.356 484 718.323 484c-.707 0-1.502 1.013-1.767 2.25m352.381 646.378c-1.34 1.46-5.51 4.661-9.265 7.112-5.432 3.547-7.217 5.367-8.734 8.905-5.073 11.834-18.982 25.501-32.355 31.789-5.164 2.429-6.69 2.705-12 2.174-6.914-.69-6.266-.691-13.583.013-6.235.6-11.514-1.216-19.821-6.82-10.173-6.862-21.497-19.507-24.225-27.051-.918-2.539-2.542-4.068-6.558-6.17-2.935-1.537-6.363-3.697-7.617-4.801-3.483-3.066-8.406-6.779-8.987-6.779-1.219 0-1.71 9.754-.784 15.551 1.124 7.033 5.609 17.59 9.159 21.556 3.973 4.44 11.065 9.573 17.333 12.546 5.955 2.825 11.951 3.392 23 2.177 2.599-.286 3.041.023 3.306 2.307.281 2.426-.119 2.739-4.981 3.905-10.69 2.565-19.865.495-31.092-7.015-7.222-4.83-15.733-12.947-15.733-15.005 0-.562-.758-1.022-1.684-1.022-2.356 0-10.58 8.8-15.879 16.991-7.352 11.365-13.38 14.163-30.079 13.959-8.182-.099-11.597.259-13.858 1.453-1.65.872-3.515 1.587-4.145 1.591-1.134.006-2.458 7.745-1.595 9.328.484.89 282.816.436 283.707-.456.997-.996-.725-9.866-1.915-9.866-.647 0-3.108-.933-5.47-2.074-3.855-1.863-4.806-1.952-9.319-.869-5.558 1.333-16.1.697-21.769-1.314-5.494-1.948-9.578-5.346-12.883-10.718-2.932-4.764-15.698-19.025-17.031-19.025-.357 0-1.387 1.238-2.29 2.75-5.229 8.766-20.693 19.251-31.361 21.263-6.652 1.256-15.16.737-18.663-1.138-1.163-.623-1.768-1.848-1.577-3.193.252-1.768.88-2.127 3.311-1.895 14.645 1.404 19.475.402 29.74-6.164 13.386-8.563 20.094-20.619 20.203-36.309.067-9.686-1-11.506-4.506-7.686M702.388 637.955c-3.339 1.388-6.388 5.987-6.388 9.634 0 3.372.64 4.22 8.39 11.13 5.954 5.309 4.511 11.15-3.617 14.64-3.904 1.677-7.724 5.15-7.898 7.18-.58 6.783.146 9.593 3.199 12.381 1.69 1.544 4.735 3.305 6.766 3.914 2.031.608 17.635 1.568 34.676 2.133 17.041.564 33.909 1.239 37.484 1.499 3.575.259 16.718.741 29.206 1.069 20.991.552 23.031.452 27-1.324 5.6-2.505 7.842-5.152 8.497-10.03.717-5.345-1.532-8.909-8.025-12.718-4.749-2.785-5.203-3.373-5.479-7.107-.268-3.638.084-4.378 3.315-6.963 7.795-6.238 9.486-8.211 9.482-11.066-.005-3.65-3.366-9.143-6.246-10.21-1.238-.458-14.625-1.198-29.75-1.644-15.125-.447-29.3-.9-31.5-1.009-2.2-.108-14.8-.491-28-.851-13.2-.359-27.375-.852-31.5-1.095-4.125-.242-8.45-.045-9.612.437m568.438-1.458c-.179.173-14.951.824-32.826 1.446-58.847 2.05-71.79 2.873-74.651 4.748-2.958 1.938-4.585 7.552-3.229 11.144.96 2.543 5.497 7.053 7.172 7.129 1.59.072 4.563 3.605 5.212 6.193.947 3.778-.778 6.317-6.994 10.294-4.034 2.58-5.649 4.307-6.27 6.704-1.826 7.047 1.197 12.435 8.648 15.417 3.645 1.458 6.504 1.621 19.443 1.107 8.343-.332 26.644-1.048 40.669-1.59 62.548-2.421 66.194-2.67 70.387-4.809 5.329-2.719 7.613-6.106 7.613-11.29 0-5.542-2.425-8.559-9.582-11.924-5.658-2.659-7.25-6.099-5.003-10.811.854-1.79 1.947-3.255 2.429-3.255.482 0 2.514-1.545 4.516-3.433 3.049-2.875 3.64-4.106 3.64-7.577 0-3.255-.632-4.776-2.949-7.093l-2.95-2.949-12.475.117c-6.861.064-12.621.259-12.8.432" fill="#FFB200FF" stroke="#FFB200FF"/><path d="M421.75 1503.663c-2.772.261-4.748.944-4.746 1.642.004 1.006 3.218 10.498 5.316 15.695.332.825 1.582 4.425 2.776 8 3.381 10.12 2.777 9.618 12.478 10.364 4.766.366 9.098.933 9.627 1.26.593.367.69 5.149.252 12.485l-.71 11.891h2.633c1.448 0 7.018 1.182 12.378 2.626 5.361 1.444 10.421 2.795 11.246 3.001.989.247 2.352-1.39 4-4.802 1.375-2.847 4.306-7.172 6.512-9.612l4.013-4.436 3.994 1.197c7.062 2.116 7.92 3.226 6.586 8.525-.636 2.524-2.494 6.436-4.13 8.695-1.636 2.258-2.975 4.539-2.975 5.067 0 .529 1.807 3.119 4.015 5.757 2.208 2.637 4.934 6.873 6.057 9.412 1.123 2.54 2.354 4.457 2.735 4.262.381-.196 2.268-1.036 4.193-1.866 1.925-.831 7.879-3.459 13.231-5.84 9.009-4.008 9.864-4.21 11.503-2.726 1.817 1.644 6.444 10.082 8.221 14.99 1.126 3.111 2.981 3.388 12.111 1.812 2.989-.516 8.697-1.237 12.684-1.602l7.25-.663-.024-3.148c-.063-8.095-5.157-22.544-11.861-33.649-5.529-9.157-20.858-24.773-30.615-31.187-19.04-12.517-41.127-21.046-65.5-25.293-8.762-1.526-34.851-2.647-43.25-1.857m1127.75.027c-25.279 1.665-57.279 12.259-77.176 25.549-20.873 13.942-33.217 28.352-40.746 47.561-2.912 7.431-5.269 19.918-3.994 21.162.817.797 10.205 2.198 25.003 3.731l5.086.528 3.731-7.856c3.654-7.695 6.134-11.365 7.68-11.365.425 0 1.38.563 2.122 1.25 1.896 1.758 6.164 4.718 14.578 10.112l7.26 4.653.982-2.583c1.329-3.495 6.015-10.11 10.448-14.749 2.006-2.099 3.508-4.124 3.336-4.5-.171-.376-2.449-3.912-5.061-7.858-2.612-3.946-4.749-8-4.749-9.007 0-1.295 2.51-3.105 8.565-6.177 9.965-5.056 9.068-5.451 15.101 6.658 2.78 5.581 4.012 7.151 5.235 6.671 3.673-1.444 20.316-5.47 22.612-5.47H1552v-10.531c0-7.512.358-10.665 1.25-10.995.688-.255 5.031-.803 9.652-1.219l8.402-.755 4.479-12c2.463-6.6 5.055-13.35 5.76-15 2.734-6.398 2.484-6.938-3.543-7.651-5.639-.668-19.599-.746-28.5-.159M246 834.093a3774.71 3774.71 0 01-16.178 8.602l-8.677 4.583-.689 7.345c-.378 4.039-.493 8.674-.254 10.3l.434 2.957-6.568.665c-3.612.366-9.043.956-12.068 1.31l-5.5.645-.226 5c-.209 4.614-1.719 15.92-2.839 21.25-.368 1.751-.022 2.25 1.561 2.25 3.683 0 14.413 3.341 19.504 6.073 4.856 2.605 4.992 2.8 4.735 6.78-.146 2.254-.718 5.287-1.271 6.741-1.004 2.641-1.011 2.642-10.234 2.208-7.502-.354-10.207-.938-14.447-3.119-2.869-1.476-5.416-2.683-5.661-2.683-.244 0-1.432 2.041-2.64 4.536-1.207 2.495-4.371 6.917-7.03 9.826-5.65 6.182-6.273 4.156 6.368 20.685l7.82 10.225-3.82 4.054c-2.101 2.23-4.832 4.902-6.07 5.937-1.237 1.035-2.25 2.268-2.25 2.74 0 .472 1.379 3.926 3.063 7.677 3.797 8.452 4.31 9.662 6.598 15.566 1.011 2.611 2.306 4.748 2.876 4.75 2.657.01 17.409-11.162 25.912-19.625 13.888-13.82 26.772-34.579 30.509-49.158.524-2.042 1.649-6.413 2.5-9.713 4.296-16.651 5.836-30.586 5.911-53.5.067-20.7-1.489-39.082-3.299-38.963-.314.021-3.945 1.846-8.07 4.056m1497.959 4.157c-.936 5.51-1.377 15.723-1.328 30.75.075 22.914 1.615 36.849 5.911 53.5.851 3.3 1.976 7.671 2.5 9.713.523 2.043 2.078 6.176 3.455 9.186 1.377 3.01 2.503 5.713 2.503 6.006 0 3.482 22.161 33.886 26.484 36.335.737.418 3.137 2.426 5.332 4.461 4.57 4.238 17.032 12.801 18.62 12.795.585-.002 1.892-2.139 2.903-4.75 2.288-5.904 2.801-7.114 6.598-15.566 1.684-3.751 3.063-7.205 3.063-7.677 0-.472-1.012-1.705-2.25-2.74-1.237-1.035-3.969-3.707-6.07-5.937l-3.82-4.054 7.82-10.225c12.641-16.529 12.018-14.503 6.368-20.685-2.659-2.909-5.823-7.331-7.03-9.826-1.208-2.495-2.396-4.536-2.64-4.536-.245 0-2.792 1.207-5.661 2.683-4.24 2.181-6.945 2.765-14.447 3.119-9.223.434-9.23.433-10.234-2.208-.553-1.454-1.125-4.487-1.271-6.741-.257-3.98-.121-4.175 4.735-6.78 5.091-2.732 15.821-6.073 19.504-6.073 1.583 0 1.929-.499 1.561-2.25-1.12-5.33-2.63-16.636-2.839-21.25l-.226-5-5.5-.645a954.028 954.028 0 00-12.068-1.31l-6.568-.665.434-2.957c.239-1.626.127-6.226-.247-10.223l-.681-7.267-4.685-2.585c-7.761-4.283-27.983-14.848-28.418-14.848-.224 0-1.037 3.713-1.808 8.25m-890.836 79.752a15.883 15.883 0 00-9.946 7.271c-1.578 2.624-1.561 2.974.327 6.5 1.105 2.064 3.558 4.535 5.496 5.536 3.339 1.727 10.151 1.793 148.5 1.451 135.736-.335 145.231-.47 148.621-2.112 4.399-2.13 7.444-7.26 6.513-10.97-.753-2.999-4.06-6.451-7.449-7.774-2.87-1.121-287.305-1.025-292.062.098m28.584-694.326c-2.598 1.077-4.41 2.781-5.75 5.408-2.379 4.663-2.444 6.826-.342 11.234 3.42 7.172-5.302 6.683 119.039 6.675 107.129-.006 111.964-.084 114.651-1.856 8.155-5.377 8.416-16.288.505-21.111-3.268-1.993-4.696-2.018-113.81-1.971-98.142.043-110.924.224-114.293 1.621M963.815 127l-82.685.5-3.052 2.925c-5.277 5.056-5.331 12.022-.139 17.833l2.897 3.242 67.332.147c37.033.081 88.248-.091 113.812-.38l46.48-.527 3.27-3.27c2.815-2.815 3.27-3.961 3.27-8.235 0-5.911-2.383-9.513-7.842-11.853-3.105-1.331-7.964-1.516-32.158-1.225-15.675.189-65.708.568-111.185.843M740.703 3.373c-2.089.783-5.557 2.588-7.707 4.011C728.803 10.159 721 19.747 721 22.125c0 .794 1.372 2.328 3.05 3.409l3.049 1.966-4.172-1.784c-3.843-1.643-4.366-1.659-6.604-.192-3.067 2.01-4.027 4.416-2.219 5.562.982.621.466.888-1.738.899-4.765.023-18.212 7.232-23.701 12.705-7.616 7.594-18.197 25.111-16.309 26.999.368.368 1.983-.303 3.589-1.49 1.606-1.187 6.213-3.855 10.237-5.927l7.318-3.768 19.943.262c19.549.256 26.557-.537 26.557-3.007 0-.598-2.649-4.067-5.886-7.709l-5.886-6.623 1.867-4.917c2.256-5.945 1.808-6.399-6.595-6.68l-6-.2 5.25-.367c3.844-.269 5.25-.77 5.25-1.872 0-1.273.472-1.227 3.077.302 4.797 2.817 5.065 3.535 3.274 8.789l-1.634 4.796 4.392 4.132c2.415 2.273 9.566 8.788 15.891 14.479 6.325 5.691 12.425 11.306 13.556 12.479 4.745 4.919 6.275 5.865 7.631 4.718.722-.611 5.942-4.593 11.6-8.848l10.288-7.738-4.788-4.5a2431.606 2431.606 0 00-13.175-12.235l-8.388-7.735 11.638-12.404C787.763 18.803 793 12.947 793 12.611c0-.336-.84-.611-1.867-.611-1.026 0-6.539-1.592-12.25-3.538-16.215-5.526-16.382-5.566-25.634-6.052-6.119-.322-9.891-.033-12.546.963m493.006-1.282c-3.185.466-10.61 2.613-16.5 4.772-5.89 2.158-11.577 4.084-12.638 4.28-1.061.197-1.876.721-1.812 1.167.064.445 5.095 6.001 11.179 12.347 6.084 6.346 11.062 11.845 11.062 12.219 0 .375-5.617 5.843-12.482 12.153-6.866 6.309-12.472 11.921-12.458 12.471.013.55 2.948 3.025 6.52 5.5 3.573 2.475 7.042 4.966 7.708 5.536.667.57 2.899 2.311 4.961 3.868l3.75 2.832 6.25-5.968c3.438-3.283 9.845-9.299 14.239-13.368a2185.44 2185.44 0 0013.802-12.904l5.815-5.504-2.189-4.95c-1.205-2.723-1.783-5.086-1.286-5.252 2.412-.804 13.6-8.727 14.077-9.968.785-2.046-5.176-10.271-10.262-14.158-7.544-5.766-15.601-7.141-29.736-5.073m7.208 99.273c-.229.2-9.642.693-20.917 1.096-44.37 1.585-56.604 2.272-59.152 3.323-1.458.601-3.821 2.626-5.25 4.499-4.833 6.337-2.847 14.524 4.528 18.669 3.392 1.906 4.874 2.082 13.59 1.617 5.381-.286 23.284-.977 39.784-1.535 36.889-1.246 42.18-1.716 46.063-4.091 8.579-5.248 7.682-17.44-1.634-22.19-3.028-1.545-15.654-2.574-17.012-1.388M739.5 103.19c-8.582 3.064-11.945 11.878-7.215 18.912 3.958 5.885 6.757 6.547 30.715 7.267 11.825.355 25.775.862 31 1.128 25.727 1.308 37.061 1.43 39.701.43 9.657-3.659 11.948-15.786 4.195-22.208-3.671-3.042-6.952-3.466-32.396-4.19-32.025-.912-51.741-1.604-57.5-2.016-3.025-.217-6.85.088-8.5.677" fill="#FFB200FF" stroke="#FFB200FF"/><path d="M740.157 63.284c-1.925 1.921-3.132 2.181-9.078 1.956-5.362-.203-6.984.07-7.437 1.25-.978 2.549.201 3.995 6.142 7.531 10.555 6.282 12.42 8.016 11.727 10.898-.342 1.42-1.722 3.406-3.066 4.414-2.373 1.78-3.081 4.845-1.856 8.037.816 2.128 4.545 2.476 38.911 3.624 42.801 1.43 56.283 1.431 58.004.003 3.289-2.73 7.496-10.455 7.496-13.764 0-4.053-3.024-8.677-7.029-10.748-2.302-1.19-3.843-1.277-7.766-.436-4.005.859-6.678.678-14.709-.999-15.966-3.335-17.371-3.116-29.281 4.553l-10.255 6.604-3.23-2.502c-1.776-1.375-4.13-3.336-5.23-4.356-1.1-1.02-5.375-4.779-9.5-8.352-4.125-3.573-7.725-6.722-8-6.997-2.773-2.773-3.673-2.883-5.843-.716m509.26-.518A2788.928 2788.928 0 011240.06 71a918.909 918.909 0 00-10.917 9.733c-2.554 2.328-5.211 4.027-5.906 3.776-.694-.251-5.136-3.034-9.87-6.184-7.914-5.266-9.105-5.746-14.768-5.95-3.449-.125-9.885.652-14.629 1.766-7.963 1.87-11.866 1.946-18.083.349-2.148-.551-3.349.03-6.75 3.265-3.635 3.458-4.137 4.473-4.137 8.368 0 4.661 1.3 7.24 6.379 12.66l3.077 3.282 14.022-.592c7.712-.326 17.622-.766 22.022-.977 4.4-.212 15.65-.65 25-.973 9.35-.324 20.699-.839 25.221-1.143l8.221-.555.663-3.534c.581-3.095.274-3.898-2.471-6.463-5.081-4.749-4.325-6.943 4.225-12.273 9.226-5.75 11.448-8.056 9.984-10.364-.871-1.371-2.309-1.626-7.612-1.345-5.581.296-6.845.04-8.635-1.75-1.153-1.153-2.208-2.089-2.346-2.08-.137.009-1.637 1.246-3.333 2.75M995.705 1079.263c-5.709 7.114-14.395 33.511-16.076 48.858l-.616 5.622 3.749 2.481c4.813 3.185 13.016 11.48 14.86 15.026 1.81 3.482 2.954 3.47 4.774-.049 1.717-3.319 7.75-9.685 12.91-13.621l3.694-2.817v-9.255c0-11.302-2.485-21.93-7.445-31.832-3.75-7.49-10.86-16.686-12.883-16.663-.645.008-1.98 1.02-2.967 2.25m38.065-134.577c-1.036.271-2.159 2.13-2.8 4.634-.588 2.299-1.287 4.82-1.554 5.603-.268.783-.751 5.283-1.075 10-1.33 19.4 6.057 35.475 19.159 41.687 5.422 2.57 9.761 2.924 16 1.303 2.2-.572 5.913-1.497 8.25-2.057 2.338-.56 4.25-1.363 4.25-1.785 0-.422-1.912-1.617-4.25-2.656-5.125-2.278-13.09-9.445-16.532-14.877-2.784-4.393-5.188-12.339-5.206-17.207-.015-3.984 2.573-14.198 5.079-20.043 1.05-2.45 1.909-4.642 1.909-4.871 0-.555-21.017-.312-23.23.269" fill="#FFB200FF" stroke="#FFB200FF"/><path d="M1060.422 944.5c-3.237 9.827-3.541 11.808-3.168 20.617.474 11.2.707 12.153 4.869 19.963 3.117 5.848 14.765 17.92 17.291 17.92 1.051 0 12.139-4.366 19.237-7.575 1.733-.784 3.646-1.425 4.25-1.425 2.337 0 .926-1.691-2.773-3.323-14.825-6.541-20.155-19.279-15.555-37.177.849-3.3 1.801-7.049 2.117-8.33l.574-2.331-13.256.331c-7.649.19-13.395.753-13.586 1.33m-116.854 2.25c2.913 6.519 6.328 18.487 6.375 22.345.11 8.939-5.343 20.698-12.324 26.572-1.663 1.399-5.407 3.89-8.321 5.534-5.323 3.004-6.062 4.79-1.989 4.81 1.205.006 4.4.681 7.1 1.5 16.993 5.155 31.472-5.006 36.233-25.428 1.707-7.324 1.139-22.881-1.125-30.833l-1.781-6.25h-12.475c-11.512 0-12.415.135-11.693 1.75" fill="#FFB200FF" stroke="#FFB200FF"/><path d="M913.309 946.722c2.343 4.685 3.991 14.951 3.461 21.558-.854 10.639-5.453 17.168-15.701 22.292l-5.43 2.715 3.93 1.807c6.579 3.026 19.403 7.906 20.775 7.906 4.182 0 15.093-11.942 19.643-21.5 3.306-6.943 3.923-22.311 1.245-31l-1.848-6-13.733-.278-13.732-.279 1.39 2.779m359.587-922.391c-4.505 2.022-6.07 3.755-4.786 5.302.912 1.099.605 1.367-1.567 1.367-2.522 0-2.656.216-2.017 3.25.377 1.788 1.087 3.678 1.579 4.2 1.809 1.921.709 4.195-5.105 10.55-3.271 3.575-5.959 6.831-5.973 7.237-.015.405 1.661 1.454 3.723 2.33 3.75 1.595 13.822 1.533 29.154-.178 8.7-.971 21.135 3.008 31.463 10.067 2.127 1.453 4.086 2.424 4.353 2.157.708-.708-3.848-10.251-7.932-16.613-8.81-13.724-24.131-23.653-37.288-24.166l-5-.194 4.75-.375c2.613-.206 4.75-.721 4.75-1.145 0-1.333-4.562-5.124-6.064-5.039-.79.045-2.608.607-4.04 1.25M953.393 1613.909c-11.725 5.325-23.393 26.581-23.393 42.616 0 2.832.425 3.286 4.104 4.388 2.257.676 4.657 1.442 5.332 1.701.818.314 1.534-1.345 2.146-4.972l.918-5.442 4.923 2.394c2.708 1.316 4.991 2.284 5.074 2.15.083-.134 1.366-2.621 2.853-5.526l2.702-5.281-3.108-4.518c-3.389-4.926-3.304-5.37 1.943-10.19 3.126-2.871 4.342-1.784 5.068 4.526l.545 4.745 6.25.298 6.25.297v-3.465c0-1.907.254-4.129.565-4.938.651-1.697 3.788-1.177 5.525.916 2.104 2.536 2.91 1.453 2.91-3.911 0-4.892-.329-5.638-4.25-9.636-2.337-2.384-6.05-5.162-8.25-6.175-5.131-2.363-12.876-2.353-18.107.023m76.926-.808c-1.75.506-5.687 3.211-8.75 6.01-5.443 4.974-5.569 5.212-5.569 10.489 0 5.716.391 6.25 2.921 3.99.869-.775 2.479-1.563 3.579-1.75 1.698-.289 2.075.339 2.5 4.16l.5 4.5 6.119.294 6.118.295.49-5.104c.692-7.197 1.826-7.87 6.163-3.658 1.985 1.928 3.602 3.881 3.592 4.34-.01.458-1.364 2.819-3.009 5.246-2.663 3.93-2.841 4.641-1.63 6.5.748 1.148 2.095 3.513 2.992 5.255l1.632 3.168 4.766-2.311 4.767-2.311 1 4.944c.55 2.718 1.45 4.947 2 4.952.901.009 9.669-2.206 10.231-2.584.128-.085-.445-4.337-1.271-9.448-1.416-8.754-5.206-18.942-8.146-21.899-.723-.727-1.314-1.642-1.314-2.033 0-1.65-9.82-10.57-13.5-12.262-4.267-1.963-10.981-2.288-16.181-.783m10.761-496.504c-2.368 9.405-7.358 15.337-22.005 26.157-6.791 5.016-13.197 13.271-14.895 19.193-.561 1.954-.773 5.916-.472 8.803l.546 5.25 4.623-.022c5.771-.027 11.85-2.736 18.468-8.23 14.606-12.124 22.411-26.106 21.25-38.07-.639-6.586-3.194-15.1-4.974-16.578-1.113-.924-1.595-.261-2.541 3.497m-85.595-2.347c-4.3 11.894-5.206 18.277-3.52 24.795 1.338 5.171 3.638 10.443 5.586 12.802.751.909 2.632 3.274 4.181 5.256 7.13 9.123 20.537 18.431 27.268 18.932 6.549.488 6.671.386 7.35-6.112 1.104-10.558-4.612-19.733-18.03-28.945-11.188-7.68-17.304-15.13-19.481-23.728-1.061-4.187-2.469-5.447-3.354-3m349.81-960.143c-6.154 1.78-6.295 2.5-6.295 32.161v26.823l2.414 2.414c4.463 4.463 10.69 4.482 15.125.047l2.367-2.367.06-26.891c.057-26.011-.01-26.964-2.049-29.153-1.944-2.086-6.104-4.265-7.732-4.051-.377.05-2.127.507-3.89 1.017M682.5 155.675c-1.1.292-2.787 1.23-3.75 2.083-1.589 1.409-1.749 4.136-1.735 29.647.009 15.452.346 28.59.75 29.195 2.724 4.079 12.086 4.64 15.78.945l2.455-2.454v-54.742l-2.357-2.214c-2.412-2.267-7.576-3.407-11.143-2.46m500.408-125.942a823.991 823.991 0 00-9.408 2.397c-5.535 1.459-22.089.491-26.843-1.569-2.114-.916-4.252-1.529-4.752-1.363-1.266.422 5.14 9.26 11.258 15.531 3.341 3.425 6.229 5.442 8.37 5.843 1.798.337 9.501-.324 17.118-1.47 12.61-1.897 14.336-1.953 19.289-.633l5.439 1.45 6.811-5.503c3.745-3.026 6.81-5.841 6.81-6.256 0-.415-1.687-2.376-3.75-4.359-2.962-2.847-4.851-3.749-8.99-4.295-9.245-1.219-15.809-1.149-21.352.227M850 30.416c-1.375.735-5.875 2.101-10 3.035-7.326 1.66-7.72 1.648-17-.517-11.739-2.738-26.612-3.556-33.771-1.856-3.898.925-5.944 2.097-7.86 4.499-1.424 1.786-2.519 3.625-2.434 4.085.086.461 3.075 3.165 6.644 6.009 5.978 4.763 6.74 5.098 9.698 4.25 4.659-1.337 16.018-1.069 25.223.594 4.4.795 9.253 1.455 10.785 1.465 5.053.036 10.355-4.321 18.058-14.84 5.966-8.147 6.112-9.639.657-6.724" fill="#FFB200FF" stroke="#FFB200FF"/><path d="M854.093 3.955c-7.303 6.413-17.907 8.278-30.593 5.381-5.562-1.27-11.618-1.45-14.633-.435-1.891.636-7.313 4.961-12.367 9.866l-9 8.733 11-.315c8.28-.237 13.349.192 20.5 1.735 18.918 4.08 25.134 2.112 33.967-10.754C854.767 15.544 860 2.329 860 .404c0-1.106-1.912.043-5.907 3.551M1137 1.434c0 2.43 5.207 13.832 8.38 18.35 1.655 2.357 5.059 5.653 7.564 7.326 4.341 2.898 4.933 3.019 12.556 2.566 4.4-.261 11.15-1.288 15-2.281 7.579-1.955 14.854-2.28 23.5-1.049l5.5.783-9.761-9.494c-9.261-9.008-10.028-9.526-15-10.126-3.308-.399-7.935-.057-12.554.929-4.024.859-8.887 1.562-10.808 1.562-7.601 0-17.58-3.925-21.264-8.364-1.676-2.019-3.113-2.112-3.113-.202m-45.84 942.316c-.5.963-1.438 4.837-2.083 8.609-2.566 15 3.294 27.885 16.176 35.569l3.754 2.239 4.762-2.833c2.62-1.559 6.443-3.692 8.497-4.741 4.443-2.27 4.704-3.359.984-4.112-5.067-1.025-9.645-3.951-11.706-7.481-1.684-2.883-2.034-5.174-1.989-13 .033-5.571.569-10.439 1.297-11.771.682-1.249.968-2.711.635-3.25-.333-.538-4.838-.979-10.011-.979-7.944 0-9.547.272-10.316 1.75m-202.698 1.5c3.135 10.144 3.09 21.42-.105 26.373-2.185 3.387-5.392 6.297-6.992 6.344-.625.018-2.583.642-4.353 1.386l-3.218 1.353 8.056 4.647c4.431 2.556 8.546 4.647 9.143 4.647 2.394 0 8.876-4.087 11.846-7.469 6.003-6.838 9.863-17.915 8.799-25.252-2.127-14.668-1.752-14.279-13.79-14.279-9.994 0-10.075.019-9.386 2.25" fill="#FFB200FF" stroke="#FFB200FF"/></svg>