<svg version="1.0" xmlns="http://www.w3.org/2000/svg" width="1862pt" height="2000pt" viewBox="0 0 1862 2000"><path d="M929.088 2.25c-.474 1.238-2.889 6.525-5.365 11.75a3263.039 3263.039 0 00-7.994 17c-3.36 7.218-5.997 12.827-16.219 34.5-2.594 5.5-6.075 12.925-7.736 16.5a2458.823 2458.823 0 01-7.296 15.5c-2.352 4.95-5.94 12.6-7.975 17-4.126 8.924-10.271 21.896-17.613 37.179-2.689 5.599-4.89 10.613-4.89 11.142 0 .529-1.237 1.244-2.75 1.588-8.082 1.84-45.038 14.283-49.486 16.662-.955.511-2.181.929-2.723.929-.543 0-3.361 1.065-6.264 2.366-2.902 1.301-7.302 3.163-9.777 4.137a329.353 329.353 0 00-9 3.731c-2.475 1.078-6.075 2.646-8 3.483-12.316 5.359-24.381 11.15-45.5 21.838-29.483 14.921-37.618 19.222-54.5 28.811-7.888 4.481-12.658 7.09-19.645 10.745l-6.144 3.214-4.856-3.531c-2.67-1.942-9.805-6.893-15.855-11.001a3988.32 3988.32 0 01-23.5-16.116 8490.543 8490.543 0 00-38-26.143c-8.209-5.621-12-7.57-12-6.17 0 .199.416 2.562.924 5.25.509 2.687 1.215 7.586 1.57 10.886.355 3.3.833 6.675 1.063 7.5.23.825 1.544 10.275 2.919 21 2.273 17.725 3.479 26.654 6.617 49a1521.92 1521.92 0 011.795 13.235l.741 5.735-6.064 4.212c-3.336 2.317-6.29 4.473-6.565 4.791-.275.318-3.874 3.041-7.998 6.052-4.124 3.011-8.399 6.217-9.5 7.124-1.101.907-7.627 6.23-14.502 11.829-27.85 22.68-59.176 52.865-78.974 76.098-3.01 3.533-5.749 6.649-6.086 6.924-1.363 1.114-23.267 28.87-27.024 34.245-.321.459-7.071-.319-15-1.729-7.929-1.41-18.466-3.208-23.416-3.996-4.95-.788-12.15-2.118-16-2.957-7.707-1.68-19.5-3.111-19.5-2.366 0 .47 1.637 3.682 18.503 36.303 4.834 9.35 10.868 21.113 13.41 26.14l4.621 9.141-3.517 7.426c-8.082 17.065-14.942 34.197-14.997 37.453-.011.639 2.793 2.97 6.23 5.181 3.438 2.211 17.79 11.813 31.894 21.339 14.105 9.526 37.047 24.97 50.983 34.32 13.936 9.35 29.075 19.588 33.643 22.75 4.568 3.163 8.626 5.744 9.018 5.736.392-.008 1.945-2.251 3.452-4.984 3.867-7.01 10.217-11.323 19.948-13.545 7.497-1.712 8.323-1.716 17.687-.077 19.516 3.416 33.737 10.253 45.417 21.834 13.503 13.391 18.643 30.172 14.27 46.599-2.282 8.571-6.771 14.065-15.014 18.37-17.567 9.175-43.859 9.936-76.305 2.21-32.234-7.675-75.726-28.887-112.243-54.74-26.901-19.046-60.19-50.212-78.507-73.501-2.746-3.491-6.467-8.16-8.269-10.376-1.802-2.215-6.494-8.809-10.428-14.652-3.933-5.843-8.421-12.379-9.974-14.524-1.552-2.145-2.822-4.508-2.822-5.25 0-.743-.45-1.35-1-1.35s-1-.459-1-1.02c0-.561-1.099-2.761-2.442-4.889-6.201-9.822-19.541-36.48-23.566-47.091-.73-1.925-1.668-3.955-2.085-4.512-.416-.557-1.723-3.707-2.903-7-1.181-3.293-2.51-6.888-2.955-7.988-.445-1.1-1.533-3.8-2.416-6-.884-2.2-2.792-7.825-4.24-12.5a2651.48 2651.48 0 00-4.975-15.856c-1.288-4.045-3.532-12.37-4.986-18.5-1.455-6.129-2.89-11.819-3.189-12.644-.3-.825-.673-2.133-.829-2.907-.156-.774-.993-4.824-1.861-9-9.747-46.903-12.976-81.517-13.023-139.593-.032-40.333.6-56.821 3.059-79.869.495-4.637.347-5.776-.702-5.427-3.197 1.066-22.491 37.785-31.681 60.296-15.557 38.105-26.966 79.275-33.252 120-.595 3.85-1.491 9.475-1.992 12.5-1.554 9.392-3.801 31.961-4.38 44-.304 6.325-.838 17.35-1.186 24.5-1.071 21.979 2.041 71.738 6.181 98.838.853 5.589 2.231 14.662 3.06 20.162 3.639 24.136 15.852 74.882 22.381 93 .991 2.75 3.004 8.825 4.473 13.5 16.007 50.95 42.388 100.299 74.305 139 2.948 3.575 6.069 7.4 6.936 8.5 8.597 10.913 37.16 40.225 50.671 52 3.786 3.3 7.382 6.469 7.991 7.043 2.547 2.401 21.704 17.56 29.106 23.032 4.4 3.253 8.225 6.146 8.5 6.429 2.1 2.162 43.375 28.996 44.601 28.996.243 0 2.12 1.089 4.17 2.419 8.559 5.554 53.305 28.289 59.229 30.095 1.375.419 4.834 1.825 7.686 3.124 2.852 1.299 5.783 2.362 6.512 2.362.776 0 2.101-2.702 3.188-6.5 5.749-20.071 23.955-33.608 49.741-36.983 14.343-1.877 23.599-.91 40.373 4.217 8.816 2.694 24.101 10.328 31 15.482 20.603 15.39 35.133 31.516 46.337 51.422 4.991 8.869 12.527 28.659 14.799 38.862 2.582 11.597 2.554 36.301-.053 46.5-2.95 11.544-11.915 31.094-17.584 38.345-10.626 13.591-21.584 24.108-33.18 31.843-7.286 4.86-21.901 12.812-23.546 12.812-.507 0-2.18-2.812-3.718-6.25-10.254-22.924-18.549-37.746-30.886-55.192-25.148-35.56-63.511-71.981-108.292-102.809-10.358-7.131-33.188-21.614-36.377-23.078-.825-.378-3.075-1.644-5-2.813-11.115-6.748-32.674-17.517-33.472-16.719-.221.22 3.508 4.442 8.286 9.381 30.606 31.641 60.849 70.706 76.65 99.009 1.394 2.496 3.177 5.535 3.963 6.754 3.906 6.056 21.573 40.567 21.573 42.14 0 .237 1.505 3.726 3.345 7.754 6.22 13.614 20.172 52.83 18.791 52.817-1.809-.017-21.185-3.079-24.636-3.893-18.067-4.264-23.503-5.877-41.5-12.316-20.459-7.32-47.252-19.475-63.893-28.987-4.617-2.639-8.699-4.798-9.072-4.798-.373 0-2.446-1.337-4.607-2.972-2.16-1.635-4.285-2.985-4.722-3-1.186-.042-21.916-14.467-32.206-22.41-18.773-14.493-31.241-26.256-50.282-47.44-1.255-1.397-4.63-5.825-7.5-9.842-7.103-9.942-8.341-9.558-5.083 1.576.9 3.073 2.553 8.738 3.674 12.588 5.642 19.374 20.916 53.782 31.79 71.613 2.554 4.188 4.814 8.033 5.022 8.545.701 1.722 15.775 23.814 18.089 26.511a99.606 99.606 0 014.29 5.443c8.925 12.38 37.143 41.314 53.305 54.656 10.445 8.623 29.607 22.732 30.874 22.732.381 0 1.621.821 2.757 1.825 5.943 5.254 47.724 27.907 56.564 30.668 1.375.429 5.2 2.002 8.5 3.495 9.519 4.306 35.979 13.352 49.776 17.018 2.626.697 5.025 1.673 5.331 2.167.568.919 1.297 5.396 3.883 23.827.81 5.775 1.898 12.75 2.417 15.5.52 2.75 1.606 8.6 2.415 13 3.854 20.974 5.844 30.525 7.604 36.5 1.052 3.575 2.212 8.075 2.576 10 1.396 7.381 10.477 33.997 14.592 42.771 1.735 3.701 4.174 8.979 5.419 11.729 5.176 11.434 16.417 28.394 27.838 42 6.931 8.258 26.724 28.142 32.85 33 2.773 2.2 6.225 5.034 7.671 6.297 11.586 10.126 45.214 28.811 62.128 34.522 15.688 5.297 35.152 9.735 49 11.173 16.779 1.743 41.481.907 57.5-1.946 5.205-.927 13.5-3.55 13.5-4.269 0-.515-7.763-9.981-10.754-13.114-.702-.735-2.504-2.985-4.005-5-1.501-2.014-2.967-3.888-3.257-4.163-1.13-1.071-10.622-13.66-12.422-16.474-1.046-1.636-2.726-3.859-3.732-4.939-1.007-1.08-1.83-2.297-1.83-2.704 0-.407-.579-1.335-1.287-2.062-.707-.726-4.374-6.271-8.147-12.321-3.774-6.05-7.177-11.225-7.564-11.5-.386-.275-.882-.95-1.102-1.5-.358-.895-5.315-9.509-10.202-17.727-3.086-5.192-19.177-36.995-21.582-42.657a674.888 674.888 0 00-5.05-11.5c-4.18-9.253-6.828-15.931-11.55-29.116-3.181-8.886-4.779-12.091-6.156-12.35-5.142-.969-22.829-9.062-30.145-13.793-12.069-7.805-25.402-22.095-32.057-34.357-4.069-7.498-8.25-16.102-10.027-20.637l-2.013-5.137 3.066-.613c1.686-.337 5.996-.613 9.578-.613 11.671 0 34.889-3.579 56.238-8.669 14.646-3.492 40.82-13.202 52.5-19.476 2.75-1.478 7.675-4.129 10.943-5.893 3.269-1.763 6.584-3.846 7.366-4.629 3.063-3.062 4.993-.019 11.415 18.001 4.617 12.953 4.933 14.052 8.808 30.666 4.704 20.167 3.782 36.9-2.417 43.882-8.369 9.425-32.084 7.807-58.354-3.98-2.332-1.046-4.505-1.902-4.83-1.902-1.337 0 3.794 15.543 9.079 27.5 1.255 2.84 2.635 6.072 7.043 16.5 4.185 9.902 22.615 45.321 30.44 58.5 7.108 11.972 23.036 36.252 29.191 44.5 25.844 34.629 58.2 69.003 82.816 87.979 2.475 1.908 4.725 3.736 5 4.062.275.326 3.2 2.585 6.5 5.02 3.3 2.435 6.225 4.658 6.5 4.939 3.004 3.072 37.63 25 39.477 25 .689 0 2.397-.9 3.796-2 1.398-1.1 2.803-2 3.121-2 1.046 0 26.91-17.186 36.106-23.992 28.29-20.935 57.622-49.628 83.862-82.035.68-.839 3.236-4.214 5.681-7.5 2.445-3.285 4.684-6.198 4.974-6.473.291-.275 1.292-1.625 2.223-3a496.044 496.044 0 014.894-7c18.403-25.883 31.512-48.22 46.95-80 4.409-9.075 8.893-18.23 9.966-20.345 1.072-2.114 1.95-4.276 1.95-4.804 0-.529.853-2.849 1.896-5.156 4.868-10.768 11.36-28.772 10.636-29.496-.198-.199-1.187.072-2.196.6-3.766 1.973-22.074 8.133-28.648 9.64-14.977 3.432-28.891 1.298-33.472-5.135-3.44-4.831-5.514-14.783-4.856-23.304.318-4.125.744-8.175.946-9 .202-.825.714-3.75 1.138-6.5.863-5.598 3.963-17.917 6.039-24 3.445-10.096 9.448-26.251 10.644-28.644l1.321-2.644 4.122 2.836c11.409 7.85 36.837 19.261 57.43 25.772 18.718 5.918 45.635 10.785 66.766 12.072 7.297.444 13.516 1.056 13.82 1.361.788.787-5.263 14.978-9.912 23.247-13.929 24.772-33.622 41.028-59.426 49.055-6.151 1.913-6.279 2.027-7.837 6.945-2.096 6.613-6.279 18.25-7.908 22-.717 1.65-2.945 6.995-4.951 11.878-4.068 9.9-19.733 42.117-24.614 50.622a1056.935 1056.935 0 00-5.659 10c-9.852 17.713-29.912 47.884-40.559 61.003-.671.827-2.775 3.527-4.675 6s-6.535 7.957-10.3 12.185c-7.878 8.848-7.964 8.598 3.936 11.434 19.11 4.554 50.099 5.063 73.319 1.204 10.815-1.798 30.592-6.995 37.5-9.856 23.609-9.777 30.099-13.065 45-22.801 20.275-13.248 39.571-30.435 55.482-49.419 3.343-3.987 6.683-7.925 7.422-8.75 1.947-2.171 15.596-22.657 15.596-23.407 0-.348 1.051-2.311 2.336-4.363 9.113-14.555 23.513-55.052 28.172-79.23a5708.31 5708.31 0 015.997-30.5c2.036-10.222 3.358-18.026 4.489-26.5 2.084-15.617 3.049-21.212 3.947-22.889.601-1.124 5.417-3.038 13.742-5.463 7.05-2.052 13.717-4.119 14.817-4.592 1.1-.473 4.925-1.864 8.5-3.09 20.466-7.019 53.129-22.414 71.5-33.701 12.751-7.833 25.032-15.94 26.747-17.655.805-.805 2.807-2.284 4.448-3.287 6.079-3.714 33.205-27.38 41.808-36.476 8.225-8.696 19.639-21.593 21.416-24.198.806-1.182 1.727-2.374 2.048-2.649.32-.275 2.48-2.975 4.799-6 2.319-3.025 4.594-5.962 5.055-6.526.462-.564 1.693-2.364 2.736-4 1.043-1.636 2.176-3.199 2.517-3.474.342-.275 4.308-6.452 8.815-13.726 9.849-15.896 20.24-35.965 26.029-50.274a4714.863 4714.863 0 016.093-15c4.035-9.842 11.384-35.938 10.399-36.924-.315-.315-1.549.774-2.742 2.419-21.39 29.504-52.927 58.227-90.168 82.123-16.636 10.674-39.258 23.003-51.936 28.304-3.885 1.625-8.414 3.611-10.064 4.413-11.197 5.447-43.808 16.607-58.5 20.02-13.309 3.092-30.863 6.115-31.546 5.433-1.083-1.083 12.328-38.953 18.629-52.608 1.605-3.476 2.917-6.507 2.917-6.737 0-1.062 12.577-26.512 17.166-34.734 6.787-12.16 19.994-33.583 25.714-41.709 4.712-6.695 17.643-24.339 19.788-27 16.182-20.078 22.338-27.028 43.815-49.461 2.612-2.729 4.308-5.109 3.769-5.288-1.101-.367-24.496 11.542-35.252 17.944a422.285 422.285 0 01-8 4.602c-2.475 1.384-5.892 3.572-7.594 4.86-1.702 1.289-3.406 2.343-3.786 2.343-.642 0-27.514 17.863-28.62 19.025-.275.289-3.874 2.989-7.998 6-8.449 6.169-7.904 5.736-21.502 17.063-21.099 17.574-40.625 36.926-56.5 55.999-1.454 1.746-2.363 2.912-8.9 11.413-1.692 2.2-3.531 4.544-4.088 5.208-.557.664-1.012 1.639-1.012 2.166 0 .528-.337 1.109-.75 1.293-.823.366-3.384 4.198-10.91 16.333-5.153 8.307-17.136 32.209-19.428 38.75-.723 2.063-1.678 3.75-2.124 3.75-2.345 0-24.771-12.226-27.958-15.241-.732-.693-2.935-2.457-4.897-3.92-4.044-3.018-15.277-13.902-18.77-18.188-8.261-10.136-16.161-24.469-21.028-38.151-4.904-13.784-5.879-36.119-2.313-53 3.821-18.087 10.903-34.763 21.447-50.5 15.197-22.681 34.083-39.448 56.789-50.415 19.373-9.357 36.865-12.587 53.942-9.96 19.111 2.94 27.949 6.953 38.736 17.588 5.654 5.574 11.169 15.659 12.016 21.973.354 2.638 1.01 3.813 2.13 3.812 7.046-.01 63.503-26.194 83.348-38.656 2.052-1.288 4.104-2.342 4.562-2.342.457 0 1.703-.801 2.769-1.781 1.067-.98 4.414-3.179 7.439-4.887 5.912-3.338 35.161-23.032 35.996-24.237.277-.4 2.529-2.117 5.004-3.816 2.475-1.7 5.4-3.92 6.501-4.934 1.1-1.015 3.575-3.031 5.5-4.482 1.924-1.45 4.474-3.475 5.665-4.5a272.922 272.922 0 014.5-3.767c18.796-15.329 44.32-41.358 61.975-63.201 6.668-8.25 10.112-12.816 19.381-25.696 22.219-30.875 46.293-82.198 58.494-124.699 1.184-4.125 3.256-11.325 4.604-16 1.348-4.675 3.081-11.2 3.852-14.5.771-3.3 1.906-7.8 2.522-10 1.499-5.353 2.781-10.456 3.392-13.5.276-1.375 1.686-8.125 3.134-15s2.829-13.625 3.069-15c.241-1.375.861-4.525 1.378-7 .518-2.475 1.24-6.975 1.604-10 .365-3.025.834-6.4 1.043-7.5.209-1.1.835-5.6 1.392-10 .556-4.4 1.204-9.125 1.439-10.5.234-1.375 1.239-9.7 2.233-18.5 1.485-13.16 1.804-24.164 1.794-62-.011-45.867-.705-58.514-4.495-82-.533-3.3-1.679-10.95-2.547-17-2.196-15.303-9.337-47.723-13.987-63.5-5.727-19.434-13.789-43.293-17.315-51.245-1.038-2.34-2.894-6.73-4.126-9.755-3.486-8.561-15.908-33.663-20.908-42.25-2.482-4.262-5.142-7.75-5.911-7.75-.801 0-1.163.61-.848 1.431.302.788.816 5.4 1.142 10.25.326 4.851.849 11.294 1.162 14.319 1.154 11.152 1.843 57.261 1.231 82.5-.644 26.584-1.25 37.279-2.865 50.5a504.87 504.87 0 00-1.524 14.5c-.334 3.85-1.011 9.25-1.504 12-.492 2.75-1.094 6.35-1.336 8-1.135 7.721-3.006 18.059-5.339 29.5-3.017 14.791-2.866 14.106-3.509 16-.279.825-1.709 6.45-3.177 12.5-7.533 31.056-21.587 68.001-37.849 99.5-6.257 12.12-23.191 40.565-27.98 47-16.671 22.402-29.511 37.643-43.741 51.924-24.788 24.875-41.827 38.369-76.281 60.408-3.154 2.017-5.975 3.668-6.269 3.668-.295 0-2.439 1.212-4.766 2.693-5.966 3.797-28.626 15.22-38.73 19.523-29.842 12.709-62.493 19.812-84.5 18.383-32.131-2.086-47.059-13.915-46.93-37.189.156-28.072 24.139-50.656 60.567-57.032 10.895-1.907 17.783-1.242 26.363 2.543 4.908 2.166 11.143 8.449 12.725 12.825.647 1.79 1.53 3.254 1.961 3.254.63 0 47.397-31.07 59.314-39.407 1.65-1.154 3.775-2.547 4.723-3.096 3.568-2.065 61.334-41.051 62.598-42.247.727-.687 1.627-1.264 2-1.282.374-.017 1.464-.628 2.423-1.356 1.641-1.245 1.563-1.854-1.31-10.218-1.681-4.892-3.893-10.694-4.916-12.894-1.024-2.2-3.918-8.445-6.431-13.879l-4.571-9.878 13.362-26.122c7.348-14.366 15.645-30.508 18.436-35.871l5.075-9.75h-3.569c-1.963 0-9.025 1.086-15.694 2.412-6.669 1.327-14.151 2.709-16.626 3.071-2.475.363-7.727 1.299-11.671 2.081-3.944.781-10.421 1.882-14.392 2.445s-8.215 1.274-9.431 1.579c-1.883.472-3.546-1.197-11.223-11.267-18.138-23.793-29.633-36.817-53.239-60.321-16.838-16.765-24.048-23.62-32.626-31.017-18.638-16.073-32.544-27.189-51.278-40.99l-11.36-8.369.67-4.562c.612-4.165 2.169-15.055 4.584-32.062.508-3.575 1.409-10.775 2.001-16 .593-5.225 1.258-10.625 1.477-12 .219-1.375.891-6.517 1.493-11.426.603-4.91 1.252-9.185 1.443-9.5.191-.316.66-3.499 1.04-7.074.381-3.575 1.102-8.699 1.602-11.386 1.167-6.265 1.151-8.614-.058-8.614-.533 0-6.271 3.622-12.75 8.05-34.696 23.705-40.953 28.021-42.782 29.51-1.1.896-3.012 2.108-4.25 2.695-1.237.586-2.25 1.444-2.25 1.906 0 .461-.675.839-1.5.839s-1.5.42-1.5.933c0 .513-.821 1.193-1.824 1.511-1.003.318-2.691 1.361-3.752 2.317-2.645 2.385-21.956 15.239-22.893 15.239-.416 0-5.452-2.7-11.192-6s-10.649-6-10.908-6c-.259 0-2.149-1.054-4.201-2.341-13.675-8.584-82.906-43.581-97.73-49.404-2.2-.864-4.45-1.911-5-2.326-.55-.415-4.6-2.165-9-3.89-4.4-1.724-9.35-3.723-11-4.441-1.65-.718-5.7-2.315-9-3.549s-6.9-2.596-8-3.027c-12.016-4.703-36.106-12.725-43.823-14.592-1.553-.376-3.188-1.645-3.635-2.819-.761-2.002-4.717-10.482-14.28-30.611-6.064-12.763-13.522-28.582-17.443-37a1849.308 1849.308 0 00-7.382-15.602 944.53 944.53 0 01-6.798-14.5c-3.539-7.779-12.909-27.723-24.032-51.155C935.298 6.827 933 1.539 933 .993c0-1.941-3.064-.956-3.912 1.257m-45.629 628c1.04 1.788 2.205 3.475 2.589 3.75.611.437 5.463 8.888 13.779 24 5.156 9.371 13.294 25.111 21.831 42.227 4.863 9.749 9.123 17.737 9.467 17.75.343.012 4.933-8.509 10.199-18.937 11.088-21.956 19.116-37.235 25.506-48.54 2.487-4.4 5.015-8.9 5.618-10 .603-1.1 2.858-4.618 5.011-7.818 3.193-4.746 4.294-5.705 5.978-5.204 1.134.337 4.5 1.282 7.478 2.098 15.588 4.273 45.899 16.392 56.585 22.623 1.1.641 5.375 2.94 9.5 5.109 8.339 4.383 29.579 17.467 34.993 21.555a241.752 241.752 0 007.128 5.137c1.999 1.375 5.342 3.85 7.427 5.5 8.397 6.643 18.187 14.663 22.252 18.228l4.3 3.772-4.635 10-6.955 15c-1.276 2.75-5.072 11.525-8.435 19.5-3.363 7.975-7.293 17.2-8.733 20.5-1.44 3.3-2.983 6.9-3.429 8-2.38 5.865-9.057 22.901-11.367 29-1.458 3.85-3.084 7.9-3.613 9-2.042 4.243-16.179 44.071-20.588 58-1.915 6.05-3.895 11.772-4.4 12.716-.914 1.706-3.495 10.285-8.208 27.284l-1.386 5-.636-14.522c-.991-22.627-3.113-33.3-12.52-62.978-5.542-17.486-6.908-26.721-6.043-40.851.904-14.752 4.343-22.32 11.892-26.172 10.056-5.13 24.641 1.34 29.358 13.023l2.824 7c1.161 2.883-.129 5.878 11.851-27.5 3.949-11 7.966-21.8 8.929-24 .962-2.2 3.897-9.122 6.521-15.381l4.771-11.381-4.399-4.172c-8.319-7.889-20.422-17.295-32.712-25.423-6.771-4.479-12.5-8.143-12.73-8.143-.23 0-2.789-1.509-5.688-3.354-5.086-3.237-31.256-16.412-39.328-19.8-9.303-3.903-16.141-5.467-18.007-4.117-1.498 1.084-6.536 8.682-10.445 15.753C978.907 684.484 960 722.964 960 724.341c0 .251-1.986 4.664-4.413 9.807-5.441 11.531-19.451 43.278-20.886 47.328-.58 1.637-1.609 4.045-2.286 5.351-1.211 2.333-1.269 2.292-3.324-2.353-1.15-2.601-2.091-4.883-2.091-5.071 0-.189-1.08-2.72-2.399-5.623-1.32-2.904-4.96-11.13-8.089-18.28-3.129-7.15-7.675-17.208-10.101-22.352-2.426-5.143-4.411-9.531-4.411-9.751 0-.681-9.835-21.296-15.932-33.397-7.825-15.526-12.01-23.045-15.906-28.572-3.266-4.635-3.274-4.638-7.863-3.95-2.526.379-5.314 1.071-6.196 1.538-.882.467-5.653 2.516-10.603 4.554-8.933 3.677-26.573 12.618-33.73 17.096-2.052 1.284-3.929 2.334-4.171 2.334-1.642 0-33.825 21.668-35.599 23.968-.275.356-1.449 1.297-2.61 2.09-1.16.793-5.089 4.231-8.731 7.64l-6.622 6.199 2.962 6.6c4.051 9.031 12.687 30.496 15.692 39.003 1.359 3.85 4.012 11.5 5.895 17 1.882 5.5 3.83 10.9 4.328 12 .497 1.1 1.167 2.816 1.488 3.813.707 2.195 2.598 1.289 2.598-1.245 0-3.647 4.078-10.885 8.352-14.824 4.948-4.562 12.855-6.991 19.002-5.837 6.084 1.141 12.424 7.946 14.728 15.808 3.026 10.324 1.76 33.46-2.488 45.466-2.612 7.384-6.108 19.154-9.45 31.819-3.524 13.352-5.14 25.807-5.223 40.25-.051 8.808-.38 12.852-.916 11.25-.46-1.375-2.031-6.55-3.489-11.5-6.893-23.392-24.141-73.535-31.326-91.071-1.111-2.711-3.677-9.204-5.703-14.429-6.64-17.127-11.218-28.406-13.874-34.186-1.437-3.127-2.613-5.928-2.613-6.225 0-.296-1.338-3.46-2.974-7.031a512.771 512.771 0 01-5.603-12.775c-1.447-3.456-3.67-8.533-4.942-11.283-1.271-2.75-4.31-9.316-6.754-14.592l-4.443-9.592 11.418-9.408c13.461-11.09 18.223-14.87 21.307-16.908 1.248-.825 3.444-2.434 4.88-3.575C770.877 678.256 789.59 666 790.441 666c.413 0 2.161-1.012 3.886-2.25 4.852-3.481 38.288-20.75 40.176-20.75.286 0 2.426-.848 4.758-1.885 10.575-4.703 18.1-7.428 29.239-10.587 6.6-1.872 12.24-3.432 12.534-3.466.294-.034 1.385 1.401 2.425 3.188m166.463-170.68c12.457 2.28 37.571 12.945 54.209 23.02 3.097 1.876 5.948 3.41 6.336 3.41.388 0 2.58 1.28 4.87 2.845 2.289 1.565 8.438 5.476 13.663 8.691 16.2 9.968 51.686 34.585 54 37.459.275.341 1.504 1.307 2.732 2.145 4.967 3.39 13.214 10.698 21.014 18.622 12.712 12.914 18.172 26.218 16.94 41.278-.294 3.598-1.334 8.548-2.311 11-2.085 5.232-19.174 30.946-21.043 31.663-.705.27-1.978-.206-2.831-1.059s-3.677-3.259-6.276-5.347c-2.599-2.089-4.95-4.033-5.225-4.321-.275-.288-3.65-2.982-7.5-5.987s-7.509-5.919-8.13-6.476c-2.455-2.2-28.514-21.109-39.37-28.567-6.325-4.345-11.995-8.315-12.599-8.822-.605-.507-4.88-3.273-9.5-6.146-4.621-2.874-9.076-5.808-9.901-6.521-.825-.713-4.2-2.858-7.5-4.767-3.3-1.909-13.425-7.94-22.5-13.403-19.832-11.936-24.299-14.391-52-28.571-11.825-6.053-21.397-11.361-21.272-11.796.314-1.086 11.869-27.032 15.35-34.468 3.442-7.351 9.107-11.819 17.593-13.874 7.735-1.873 11.055-1.874 21.251-.008m-216.854-.167c12.212 2.921 14.749 5.584 22.959 24.097.488 1.1 3.156 7.103 5.93 13.34 2.774 6.236 5.043 11.474 5.043 11.64 0 .165-9.408 5.039-20.906 10.832-11.498 5.792-26.235 13.56-32.75 17.262-6.514 3.702-13.869 7.856-16.344 9.23-2.475 1.374-4.725 2.801-5 3.17-.275.37-1.233.941-2.129 1.271-1.928.709-28.216 17.318-42.22 26.675-17.584 11.749-35.908 24.501-37.775 26.288-.757.725-2.726 2.178-4.376 3.23-3.585 2.284-15.574 11.64-31.153 24.312-6.255 5.088-11.705 9.233-12.11 9.212-1.804-.093-19.903-27.92-21.861-33.609-3.971-11.542-1.279-28.051 6.531-40.043 4.882-7.497 17.423-19.83 29.093-28.609 3.025-2.275 7.075-5.405 9-6.954 4.719-3.797 4.193-3.414 15.5-11.322 20.064-14.033 34.354-23.127 59.5-37.866 11.369-6.664 30.041-15.532 39.5-18.76 5.186-1.769 19.828-4.622 24-4.676 2.2-.029 6.506.548 9.568 1.28m112.928-234.904c16.638 3.5 31.903 14.067 41.785 28.926 13.099 19.697 14.474 45.348 3.592 67.014-12.43 24.748-40.471 39.508-67.793 35.686-11-1.539-18.332-4.136-27.008-9.566-24.659-15.436-36.616-44.92-29.564-72.904 1.859-7.379 6.911-18.532 9.728-21.476.695-.727 1.264-1.665 1.264-2.084 0-.994 13.101-14.095 14.095-14.095.419 0 1.357-.587 2.084-1.305 2.661-2.63 16.499-8.758 22.821-10.107 8.767-1.871 20.355-1.906 28.996-.089m-.151 604.079c.502.594 2.147 3.033 3.655 5.422s3.162 4.828 3.676 5.422c1.147 1.324 10.585 15.76 16.068 24.578 9.399 15.114 20.278 36.39 23.713 46.374 2.616 7.606 3.524 18.682 2.14 26.126-3.095 16.656-16.092 30.461-30.18 32.057-9.922 1.124-21.766-2.085-31.389-8.505-2.878-1.921-3.036-1.926-5-.163-2.26 2.028-8.274 5.254-13.387 7.179-4.86 1.83-21.114 1.799-24.738-.048C874.804 959.07 867 945.852 867 927.378c0-8.749.859-13.085 4.327-21.837 2.722-6.868 13.827-27.937 20.843-39.541 9.246-15.295 18.504-29.083 34.722-51.715l4.392-6.129 6.824 9.672c3.753 5.32 7.235 10.157 7.737 10.75M938.94 1036.5c1.786 3.85 4.827 10.375 6.757 14.5 4.812 10.282 7.612 16.358 11.059 24 1.613 3.575 4.251 9.35 5.863 12.833l2.93 6.332 27.631-27.643c15.197-15.203 28.731-29.303 30.076-31.332a275.535 275.535 0 004.577-7.19c2.645-4.34 2.683-3.546.586 12.444-1.719 13.114-5.11 23.034-11.049 32.323-3.25 5.084-12.877 15.139-28.431 29.694-8.367 7.83-19.088 17.913-39.563 37.207-8.321 7.841-14.75 14.762-15.89 17.107l-1.916 3.938-2.627-4.106c-3.205-5.011-8.944-10.949-23.814-24.638-43.441-39.994-58.854-55.681-62.879-63.999-5.118-10.578-6.99-16.909-8.121-27.47-.589-5.5-1.351-11.575-1.694-13.5-.549-3.087-.12-2.673 3.632 3.5 3.173 5.222 11.439 14.218 32.546 35.422l28.293 28.421 3.108-6.921a935.806 935.806 0 015.46-11.922c1.293-2.75 4.921-10.625 8.062-17.5 3.141-6.875 7.601-16.55 9.912-21.5 2.311-4.95 5.042-10.913 6.07-13.251l1.868-4.251 2.153 5.251c1.184 2.888 3.614 8.401 5.401 12.251M658.197 795c19.902 27.065 45.711 75.077 59.938 111.5 2.148 5.5 4.324 10.9 4.836 12 2.347 5.042 17.01 49.242 18.91 57 .539 2.2 1.906 7.6 3.038 12 1.131 4.4 2.063 8.306 2.069 8.68.022 1.234-5.906-.986-16.455-6.164-11.213-5.503-22.105-12.424-32.29-20.516-6.33-5.029-17.632-16.475-23.159-23.451-5.782-7.3-16.084-22.988-16.084-24.494 0-.263-1.538-3.758-3.419-7.767-8.031-17.121-13.58-44.052-13.553-65.788.024-20.167 7.191-64.478 9.921-61.342.403.463 3.215 4.217 6.248 8.342m558.114 12.5c3.082 16.739 3.689 23.338 3.689 40.076 0 21.61-2.131 35.07-8.775 55.424-6.342 19.43-19.982 41.052-35.669 56.543-6.103 6.026-19.561 16.516-27.425 21.376-10.296 6.363-27.388 14.858-30.809 15.312-2.009.267-2.006.183.335-9.231 1.3-5.225 3.352-12.65 4.561-16.5 1.208-3.85 2.253-7.225 2.321-7.5 1.376-5.542 4.31-14.676 9.474-29.5 2.671-7.665 11.649-30.427 14.67-37.188 1.274-2.854 2.317-5.414 2.317-5.691 0-.789 9.592-20.996 15.722-33.121 11.187-22.127 28.979-51.208 41.624-68.036l3.154-4.197 1.577 6.616c.868 3.639 2.323 10.667 3.234 15.617m-50.166-465.536c15.882 4.909 27.53 16.801 31.453 32.112 2.241 8.748 2.353 11.266.89 20.015-3.877 23.174-22.266 38.925-45.42 38.901-34.923-.035-56.97-34.932-42.263-66.897 3.03-6.586 14.126-18.181 19.702-20.589 14.275-6.164 24.019-7.133 35.638-3.542m-442.826.053c9.673 2.987 18.493 9.226 24.013 16.983 6.24 8.771 8.65 16.582 8.636 28-.037 30.907-28.633 52.361-59.226 44.433-12.631-3.273-25.396-14.547-29.801-26.32-5.908-15.788-4.472-32.217 3.877-44.346 3.273-4.756 11.56-12.828 15.129-14.739 11.402-6.102 25.652-7.631 37.372-4.011m139.908 830.231c1.284 1.239 7.922 8.552 14.749 16.252 6.828 7.7 14.689 16.49 17.469 19.534a1554.49 1554.49 0 019.055 10.009c2.2 2.46 7.633 8.52 12.074 13.465 4.441 4.946 9.353 10.455 10.915 12.242 1.563 1.788 3.33 3.246 3.926 3.241.597-.005 2.21-1.433 3.585-3.173s3.625-4.323 5-5.741c2.266-2.336 14.523-15.98 21.154-23.548 1.46-1.666 4.261-4.829 6.225-7.029 1.964-2.2 9.769-11.013 17.346-19.585 13.794-15.606 18.588-19.915 22.154-19.915 2.673 0 3.28 2.352 2.017 7.809-.597 2.58-1.473 7.391-1.947 10.691-3.708 25.836-3.325 25.144-26.848 48.5-10.248 10.175-25.1 25.925-33.004 35-7.905 9.075-14.69 16.857-15.078 17.294-.389.436-6.266-5.639-13.06-13.5-6.795-7.862-21.713-23.688-33.152-35.169-25.099-25.192-26.878-27.739-28.35-40.585-.35-3.047-1.01-7.115-1.469-9.04-.458-1.925-1.094-5.525-1.414-8-.32-2.475-.856-5.967-1.191-7.761-.366-1.96-.125-3.844.604-4.724 1.065-1.283 1.563-1.282 4.06.009 1.565.809 3.896 2.485 5.18 3.724m475.093-712.753c11.572 3.014 20.208 9.44 25.784 19.187 9.264 16.191 7.248 34.664-5.221 47.848-6.288 6.649-9.408 8.644-17.798 11.379-20.848 6.796-43.461-4.282-50.838-24.907-2.247-6.284-2.646-16.91-.892-23.751 2.92-11.384 7.88-18.228 17.817-24.585 9.717-6.215 20.357-7.982 31.148-5.171m-793.886.182c15.315 4.235 26.563 16.704 29.469 32.666 1.318 7.24-.007 17.772-3.049 24.244-2.482 5.281-10.51 14.427-15.163 17.277-6.103 3.736-15.739 6.238-23.162 6.013-6.236-.189-9.464-1-18.696-4.696-4.531-1.815-14.222-12.258-17.334-18.681-2.631-5.428-2.912-7.001-2.953-16.5-.036-8.114.397-11.636 1.904-15.5 4.491-11.517 15.095-21.171 27.05-24.624 7.728-2.233 14.362-2.293 21.934-.199m343.227 856.779c6.244 5.104 27.844 26.783 36.784 36.918l6.946 7.873 2.387-2.873c13.669-16.455 32.943-35.808 43.582-43.759 3.215-2.402 3.774-2.57 3.343-1-.48 1.748-1.442 5.824-2.217 9.385-.179.825-1.983 6.675-4.008 13s-4.107 13.075-4.627 15c-.52 1.925-1.328 4.4-1.795 5.5-2.576 6.064-5.152 12.721-6.606 17.074-1.532 4.586-4.56 11.558-9.739 22.426-3.016 6.328-12.966 24.398-13.766 25-.365.275-2.011 2.676-3.657 5.336l-2.994 4.837-4.458-6.837c-5.789-8.877-12.986-21.525-15.84-27.836a3356 3356 0 00-5.236-11.5c-1.636-3.575-4.099-9.65-5.473-13.5-1.374-3.85-3.085-8.35-3.803-10-1.296-2.979-7.864-22.959-11.012-33.5-2.801-9.377-4.265-16.099-3.44-15.793.434.161 2.967 2.073 5.629 4.249m-60.379 112.548c15.828 5.922 37.408 28.316 49.144 50.996l2.846 5.5-4.886-4.556c-7.431-6.928-15.29-13.159-21.386-16.954-3.025-1.884-5.725-3.689-6-4.013-1.081-1.273-10.175-5.008-14.614-6.003-13.745-3.08-23.994 5.412-23.223 19.242l.337 6.047-4.34-4.706c-6.515-7.066-9.543-14.393-9.986-24.158-.3-6.624-.003-8.811 1.632-12 6.076-11.853 15.851-14.866 30.476-9.395m226.571-1.362c9.312 3.007 13.71 10.267 13.544 22.358-.084 6.135-.657 8.683-3.15 14-2.875 6.132-9.55 15-11.291 15-.437 0-.347-1.621.2-3.602 2.389-8.652-3.524-19.074-12.138-21.393-10.991-2.96-23.094 2.481-45.268 20.349-5.912 4.764-10.75 8.503-10.75 8.308 0-2.181 12.515-21.847 17.597-27.652 10.875-12.422 24.432-23.085 33.403-26.272 8.798-3.125 11.128-3.268 17.853-1.096" fill="#FFB200FF" stroke="#FFB200FF"/><path d="M270.606 1138.25c-.283 2.338-.771 7.85-1.084 12.25-.312 4.4-.855 10.25-1.205 13-.916 7.182-.957 64.048-.056 76.607l.761 10.606-7.261 3.018c-3.994 1.66-10.186 4.026-13.761 5.258-6.468 2.229-9.19 3.306-16.151 6.392-2.008.891-3.986 1.619-4.395 1.619-.41 0-6.642 2.298-13.849 5.107a18400.461 18400.461 0 01-41.105 15.947c-1.1.425-5.6 2.226-10 4.001-4.4 1.776-9.546 3.659-11.434 4.185-1.889.526-5.714 1.978-8.5 3.227-2.787 1.249-9.566 3.964-15.066 6.033-11.807 4.44-31.746 12.201-36 14.012-1.65.702-7.95 3.092-14 5.31-6.05 2.218-17.75 6.693-26 9.944-8.25 3.251-18.375 7.167-22.5 8.703-4.125 1.536-9.075 3.455-11 4.264-6.154 2.586-7.397 3.062-12.75 4.88-7.826 2.657-6.996 3.592 4.25 4.793 2.75.293 10.175 1.248 16.5 2.121 6.325.873 15.1 1.991 19.5 2.483 10.078 1.128 38.692 4.64 44 5.4 2.2.315 9.4 1.25 16 2.077 6.6.828 15.375 1.945 19.5 2.483 4.125.539 13.575 1.652 21 2.475 7.425.823 15.975 1.969 19 2.547 3.025.578 11.575 1.723 19 2.543 7.425.82 17.1 1.943 21.5 2.496 4.4.553 13.85 1.688 21 2.523 7.15.835 15.475 1.932 18.5 2.437 3.025.505 11.575 1.612 19 2.46 23.018 2.629 30.439 3.577 32.142 4.106.904.28 2.087 1.732 2.63 3.226 5.867 16.151 14.285 37.735 18.024 46.217 5.742 13.026 21.219 43.526 28.075 55.329 2.821 4.856 5.129 9.048 5.129 9.317 0 .268 1.068 1.92 2.373 3.671 1.306 1.751 3.491 5.208 4.855 7.683 1.365 2.475 6.609 10.682 11.653 18.237 5.045 7.555 9.394 14.317 9.666 15.025.447 1.165-4.284 8.601-10.369 16.301-2.914 3.688-17.111 22.484-19.341 25.607-.915 1.282-8.351 11.33-16.524 22.33-8.173 11-19.022 25.625-24.11 32.5-5.087 6.875-9.802 13.184-10.476 14.02-2.695 3.339-7.284 9.543-8.227 11.125-.996 1.669-23.772 32.153-32.217 43.12-2.442 3.171-4.292 6.176-4.111 6.678.18.502 2.578-.151 5.328-1.45a1506.87 1506.87 0 0112.5-5.8c17.433-7.992 21.871-10.043 28.738-13.281 3.981-1.876 7.423-3.412 7.649-3.412.227 0 5.97-2.639 12.762-5.864 13.622-6.468 14.427-6.84 47.351-21.864 12.65-5.772 26.263-12.02 30.25-13.884 7.033-3.286 16.944-7.853 28.25-13.017 3.025-1.382 9.088-4.199 13.472-6.262l7.973-3.749 17.027 17.09c9.366 9.4 21.753 21.356 27.528 26.57 5.775 5.214 10.95 9.986 11.5 10.604 1.284 1.444 10.504 9.585 17.413 15.376 2.953 2.475 6.093 5.193 6.978 6.04 1.56 1.493 11.554 9.978 15.609 13.252 1.1.889 8.091 6.699 15.535 12.912 7.445 6.213 19.145 15.787 26 21.277 6.856 5.489 12.69 10.221 12.965 10.514.275.293 6.125 4.994 13 10.447 6.875 5.453 16.1 12.787 20.5 16.299 4.4 3.511 8.685 6.919 9.523 7.572 29.028 22.63 53.201 44.779 60.358 55.303 2.117 3.114 8.05 12.275 10.322 15.942 9.602 15.491 16.671 34.681 19.694 53.458 1.979 12.295 4.644 17.772 11.999 24.665 9.426 8.834 13.375 12.293 22.094 19.351 4.394 3.557 8.569 7.01 9.277 7.673 4.544 4.257 25.278 20.295 26.236 20.295.815 0 1.029-1.889.709-6.25-.253-3.437-.956-13.9-1.563-23.25-.606-9.35-1.352-20.15-1.656-24-.304-3.85-.983-14.2-1.509-23-.526-8.8-1.175-18.25-1.442-21-.267-2.75-.763-10.175-1.103-16.5-.34-6.325-.786-13.975-.991-17-.205-3.025-.645-9.55-.977-14.5-.333-4.95-.794-9.676-1.026-10.502-.233-.827-1.12-13.877-1.972-29-.853-15.124-1.957-33.573-2.453-40.998-.497-7.425-1.604-24.3-2.46-37.5-.856-13.2-1.75-26.25-1.985-29-.813-9.49-2.687-36.035-3.38-47.889l-.695-11.89-11.299-4.277c-29.053-10.998-54.837-24.239-54.56-28.018.22-2.989 4.494-18.805 5.385-19.926.437-.55 1.11-2.687 1.496-4.75.674-3.607.594-3.75-2.097-3.75-3.03 0-10.527-1.651-25.425-5.6-9.489-2.516-12.85-3.596-18.5-5.949a412.008 412.008 0 00-6.442-2.6c-11.79-4.627-30.001-15.001-44.507-25.352-3.468-2.474-6.709-4.499-7.202-4.499-3.044 0-40.257-37.377-56.75-57-9.646-11.476-10.488-12.832-8.666-13.959.889-.549.244-2.288-2.354-6.351-1.969-3.076-3.579-5.798-3.579-6.048 0-.249-2.211-5.108-4.912-10.798-2.702-5.689-5.696-12.819-6.653-15.844-.957-3.025-2.057-5.95-2.443-6.5-.387-.55-.957-1.9-1.267-3-.31-1.1-1.76-6.05-3.223-11-1.463-4.95-3.018-10.575-3.454-12.5-.437-1.925-1.697-6.875-2.8-11-1.103-4.125-2.788-12-3.745-17.5-.956-5.5-2.143-11.649-2.637-13.665-.862-3.521-1.025-3.634-4.132-2.886-8.49 2.045-22.667 4.291-23.957 3.796-.794-.305-2.153-2.96-3.02-5.9-.866-2.94-2.924-9.845-4.573-15.345-1.649-5.5-4.207-15.625-5.684-22.5-4.594-21.373-4.358-20.713-7.859-22.022-1.727-.646-6.066-2.421-9.641-3.944-3.575-1.523-8.075-3.36-10-4.083-6.889-2.586-37.685-18.779-47.444-24.947-10.036-6.343-32.171-21.804-34.692-24.233-.75-.722-2.714-2.355-4.364-3.628-11.691-9.021-37.47-33.946-48.889-47.27-13.083-15.267-30.582-38.975-34.647-46.943-1.102-2.161-2.193-3.93-2.423-3.93-.23 0-.651 1.913-.935 4.25m184.081 278.906c5.206 1.948 11.277 6.287 14.117 10.09 1.21 1.621 2.034 1.38 11.5-3.35a4035.096 4035.096 0 0113.906-6.924l3.711-1.829 2.734 5.401c1.504 2.97 2.534 5.586 2.29 5.814-.245.228-6.261 3.321-13.37 6.873l-12.926 6.459-.167 9.905c-.15 8.829-.484 10.503-3.075 15.405-3.791 7.172-10.544 13.701-17.407 16.829-4.539 2.069-7.073 2.514-14.5 2.545-7.888.032-9.68-.305-14.5-2.734-3.025-1.525-7.412-4.635-9.749-6.913l-4.248-4.141-10.252 5.142c-10.558 5.295-15.678 7.615-17.023 7.715-.424.031-1.864-2.301-3.199-5.184l-2.428-5.241 11.699-5.839c6.435-3.211 12.661-6.353 13.834-6.982 1.935-1.037 2.046-1.56 1.186-5.594-1.928-9.039 2.028-21.081 9.509-28.945 10.054-10.57 24.358-13.74 38.358-8.502m195.858 183.223l4.426 3.379-6.514 8.871c-3.583 4.879-7.618 10.221-8.967 11.871-2.906 3.553-3.059 4.787-.821 6.628.917.754 2.942 4.175 4.5 7.6 2.365 5.203 2.831 7.566 2.831 14.357 0 6.985-.426 9.022-3.027 14.471-7.522 15.762-23.119 23.22-40.473 19.354-3.3-.735-6.283-1.353-6.629-1.373-.654-.038-10.671 13.182-15.383 20.302l-2.707 4.091-5.219-3.701-5.22-3.701 3.567-5.014c1.962-2.758 3.922-5.464 4.356-6.014 3.689-4.672 9.687-13.137 9.708-13.7.015-.385-1.231-2.635-2.768-5-9.113-14.017-7.758-31.724 3.346-43.725 8.425-9.106 24.831-13.518 36.051-9.695 2.633.897 5.14 1.278 5.572.846.655-.655 5.082-6.722 15.306-20.976 2.124-2.962 2.838-2.862 8.065 1.129m933.974-456.128c-13.536 21.527-29.421 40.598-53.648 64.406-6.804 6.686-14.621 14.062-17.371 16.391-2.75 2.329-5.225 4.549-5.5 4.933-.275.384-2.3 2.008-4.5 3.609s-4.9 3.668-6 4.595c-5.758 4.849-26.983 19.503-30 20.711-.55.22-2.8 1.603-5 3.072-8.022 5.359-41.638 22.722-47.5 24.534-1.375.426-4.75 1.782-7.5 3.015-2.75 1.232-6.662 2.826-8.694 3.542-3.255 1.147-3.812 1.844-4.691 5.871-4.786 21.908-6.721 29.924-9.312 38.57-1.648 5.5-3.576 12.097-4.286 14.661-2.217 8.017-.986 7.746-19.81 4.356-5.387-.97-9.97-1.588-10.185-1.373-.215.215-1.572 6.458-3.016 13.874-3.343 17.165-4.965 23.809-11.468 46.982-3.074 10.954-10.544 29.137-17.382 42.313-3.607 6.949-6.309 13.351-6.061 14.362.944 3.857-40.969 49.927-59.102 64.965-16.282 13.502-42.626 29.187-60.993 36.316-4.4 1.707-8.9 3.542-10 4.078-4.304 2.094-33.198 8.966-37.699 8.966-3.246 0-3.485 1.23-1.309 6.73 1.752 4.425 5.672 18.915 5.871 21.696.269 3.781-25.52 17.023-54.564 28.018l-11.299 4.277-.695 11.89c-.608 10.387-2.143 32.423-3.337 47.889-.524 6.793-2.228 32.437-3.488 52.5-.57 9.075-1.46 21.675-1.977 28-.518 6.325-1.208 18.25-1.535 26.5-.326 8.25-1 19.275-1.498 24.5-1.659 17.422-1.9 20.717-3.476 47.5-.292 4.95-.756 11.925-1.033 15.5-.277 3.575-.929 13.25-1.448 21.5-.52 8.25-1.202 18.6-1.517 23a6337.97 6337.97 0 00-1.662 24.5c-.599 9.075-1.295 19.313-1.547 22.75-.319 4.36-.104 6.25.71 6.25.958 0 21.692-16.038 26.236-20.295.708-.663 4.883-4.116 9.277-7.673 8.719-7.058 12.668-10.517 22.094-19.351 7.355-6.893 10.02-12.37 11.999-24.665 3.023-18.777 10.092-37.967 19.694-53.458 2.272-3.667 8.205-12.828 10.322-15.942 6.326-9.301 27.621-29.273 51.358-48.165l9-7.163c.838-.667 6.698-5.316 13.023-10.333 6.325-5.016 12.402-9.871 13.505-10.788 1.103-.917 5.153-4.131 9-7.143 3.847-3.012 7.22-5.721 7.495-6.019.275-.299 6.109-5.035 12.965-10.524 6.855-5.49 18.555-15.064 26-21.277 7.444-6.213 14.21-11.839 15.035-12.501 1.313-1.054 7.951-6.662 17.423-14.717 7.648-6.505 22.185-19.318 23.077-20.34.55-.63 5.725-5.409 11.5-10.618 5.775-5.21 18.15-17.173 27.5-26.585l17-17.112 8 3.764c4.4 2.07 10.475 4.894 13.5 6.276 11.306 5.164 21.217 9.731 28.25 13.017 3.988 1.864 17.6 8.112 30.25 13.884 32.924 15.024 33.729 15.396 47.351 21.864 6.792 3.225 12.535 5.864 12.762 5.864.226 0 3.668 1.536 7.649 3.412 6.867 3.238 11.305 5.289 28.738 13.281a1506.87 1506.87 0 0112.5 5.8c2.75 1.299 5.148 1.952 5.328 1.45.181-.502-1.669-3.507-4.111-6.678-8.445-10.967-31.221-41.451-32.217-43.12-.943-1.582-5.532-7.786-8.227-11.125-.674-.836-5.386-7.145-10.47-14.02-5.083-6.875-15.93-21.5-24.104-32.5-8.173-11-15.612-21.048-16.53-22.33-2.296-3.204-16.499-22.003-19.347-25.607-6.08-7.693-10.816-15.136-10.37-16.297.271-.707 5.165-8.368 10.876-17.026 5.711-8.657 11.58-17.765 13.044-20.24 1.463-2.475 3.099-5.175 3.636-6 6.428-9.878 26.726-49.054 34.196-66 3.739-8.482 12.157-30.066 18.024-46.217.543-1.494 1.726-2.946 2.63-3.226 1.703-.529 9.124-1.477 32.142-4.106 7.425-.848 15.975-1.955 19-2.46 3.025-.505 11.35-1.602 18.5-2.437 7.15-.835 16.6-1.97 21-2.523 4.4-.553 14.075-1.676 21.5-2.496 7.425-.82 15.975-1.965 19-2.543 3.025-.579 11.575-1.74 19-2.581 7.425-.841 16.65-1.927 20.5-2.414 3.85-.486 12.625-1.589 19.5-2.449 6.875-.861 14.3-1.823 16.5-2.138 5.308-.76 33.922-4.272 44-5.4 4.4-.492 13.175-1.61 19.5-2.483 6.325-.873 13.75-1.828 16.5-2.121 11.246-1.201 12.076-2.136 4.25-4.793-5.353-1.818-6.596-2.294-12.75-4.88-1.925-.809-6.875-2.728-11-4.264s-14.25-5.452-22.5-8.703c-8.25-3.251-19.95-7.726-26-9.944-6.05-2.218-12.35-4.608-14-5.31-4.254-1.811-24.193-9.572-36-14.012-5.5-2.069-12.279-4.784-15.066-6.033-2.786-1.249-6.611-2.701-8.5-3.227-1.888-.526-7.034-2.409-11.434-4.185-4.4-1.775-8.9-3.576-10-4.001-12.081-4.668-30.49-11.81-41.105-15.947-7.207-2.809-13.439-5.107-13.849-5.107-.409 0-2.162-.622-3.895-1.381-8.068-3.537-10.589-4.541-16.651-6.63-3.575-1.232-9.757-3.593-13.737-5.247l-7.237-3.008.737-11.617c.961-15.142.92-62.096-.064-73.617-.423-4.95-1.123-13.608-1.557-19.239-.433-5.632-1.017-10.469-1.297-10.75-.281-.28-3.127 3.653-6.326 8.74M1430.5 1416.056c10.886 3.761 19.687 12.29 23.161 22.444 1.541 4.505 2.266 15.847 1.237 19.357-.263.896 4.264 3.71 13.298 8.268l13.696 6.91-2.424 5.232c-1.334 2.878-2.772 5.207-3.196 5.176-1.345-.1-6.465-2.42-17.023-7.715l-10.252-5.142-4.248 4.141c-2.337 2.278-6.724 5.388-9.749 6.913-4.82 2.429-6.612 2.766-14.5 2.734-7.427-.031-9.961-.476-14.5-2.545-6.863-3.128-13.616-9.657-17.407-16.829-2.591-4.902-2.925-6.576-3.075-15.405l-.167-9.905-12.926-6.459c-7.109-3.552-13.125-6.645-13.37-6.873-.244-.228.786-2.844 2.29-5.814l2.734-5.401 3.711 1.829c2.04 1.005 8.226 4.084 13.746 6.841l10.036 5.014 3.964-4.008c8.809-8.907 23.726-12.645 34.964-8.763m-210.98 183.194c10.224 14.254 14.651 20.321 15.306 20.976.432.432 2.939.051 5.572-.846 3.41-1.162 6.91-1.495 12.164-1.158 27.595 1.771 42.345 31.332 27.233 54.578-1.537 2.365-2.79 4.615-2.784 5 .008.574 6.599 9.881 9.701 13.7.447.55 2.417 3.256 4.379 6.014l3.567 5.014-5.22 3.701-5.219 3.701-2.707-4.091c-4.712-7.12-14.729-20.34-15.383-20.302-.346.02-3.329.638-6.629 1.373-17.354 3.866-32.951-3.592-40.473-19.354-2.601-5.449-3.027-7.486-3.027-14.471 0-6.791.466-9.154 2.831-14.357 1.558-3.425 3.583-6.846 4.5-7.6 2.238-1.841 2.085-3.075-.821-6.628-1.349-1.65-5.383-6.99-8.964-11.867l-6.511-8.868 4.232-3.331c5.057-3.98 6.137-4.135 8.253-1.184M59 831.771c0 .425 3.201 3.237 7.114 6.25 3.912 3.014 7.624 5.943 8.25 6.511.863.784 26.502 21.429 38.62 31.097L138 895.632c12.925 10.336 23.95 19.131 24.5 19.545.55.413 3.312 2.68 6.138 5.037 2.825 2.357 8.641 6.986 12.923 10.286s8.27 6.474 8.862 7.053c.592.579 16.152 13.065 34.577 27.745 18.425 14.68 34.175 27.291 35 28.024.825.733 8.475 6.894 17 13.692 14.174 11.301 15.489 12.621 15.377 15.422-.118 2.905-.793 5.589-6.812 27.064l-2.522 9 7.728 7.342c7.346 6.977 15.388 13.543 30.135 24.603 6.751 5.062 22.108 15.555 22.767 15.555.202 0 2.27 1.226 4.597 2.724 2.326 1.499 5.13 3.235 6.23 3.859 1.1.624 5.15 2.935 9 5.134 3.85 2.199 12.85 6.801 20 10.226 7.15 3.426 13.828 6.669 14.84 7.207 3.411 1.815 29.286 11.65 41.27 15.686 12.896 4.343 30.057 8.83 30.828 8.06.522-.523-7.141-20.876-12.385-32.896-6.073-13.919-16.727-35.443-22.027-44.5-2.897-4.95-6.402-11.137-7.789-13.75-1.386-2.612-2.855-4.75-3.262-4.75-.408 0-1.006-.787-1.329-1.75-.324-.962-1.163-2.624-1.867-3.692-20.89-31.713-41.251-57.506-63.662-80.645L347.063 965.5l-.031-6.097c-.03-5.649.228-6.364 3.516-9.75 3.246-3.342 4.022-3.653 9.117-3.653 4.907 0 7.007.757 17.701 6.38 22.418 11.786 44.737 25.445 65.055 39.812 8.365 5.915 32.478 24.384 33.579 25.719.275.334 4.1 3.753 8.5 7.598 4.4 3.845 8.225 7.247 8.5 7.56.275.314 2.384 2.253 4.686 4.309l4.186 3.739 5.587-11.308c5.974-12.095 13.581-26.201 14.758-27.367.395-.39 3.32.223 6.5 1.364 3.181 1.141 10.058 3.246 15.283 4.677 8.796 2.41 25.349 7.26 32.571 9.545 5.797 1.834 6.694 1.338 11.365-6.287 2.44-3.982 7.952-12.547 12.25-19.032 4.298-6.484 7.814-12.063 7.814-12.397 0-.811-6.789-9.299-9.449-11.812-13.656-12.906-35.872-26.392-49.324-29.94l-5.187-1.368-2.867 3.574-2.867 3.574-4.368-3.42c-2.403-1.881-5.256-4.207-6.342-5.17-1.085-.962-3.074-1.75-4.419-1.75-2.343 0-3.774.323-16.177 3.653-6.939 1.862-14.274 5.62-19.784 10.134-4.399 3.604-10.376 14.387-11.548 20.836-.312 1.717-1.974 4.53-3.694 6.25-2.889 2.888-3.646 3.127-9.913 3.127-6.924 0-10.99-1.294-26.561-8.45-30.683-14.102-56.636-28.559-83-46.233l-13.5-9.049c-2.428-1.627-20.869-15.396-23.962-17.891-.846-.683-3.869-3.197-6.719-5.587-4.024-3.377-6.59-4.643-11.5-5.676-3.475-.732-11.944-2.647-18.819-4.257-6.875-1.609-14.3-3.337-16.5-3.838-2.2-.502-8.725-2.026-14.5-3.388a1555.9 1555.9 0 00-18-4.128c-10.362-2.282-17.451-3.918-32-7.385-6.875-1.639-15.2-3.504-18.5-4.145-6.862-1.333-9.848-2.023-21-4.85-10.278-2.607-16.016-3.895-21-4.716-2.2-.363-9.85-2.111-17-3.885-7.15-1.775-15.7-3.801-19-4.502-12.422-2.641-32.107-7.208-34.899-8.097-3.531-1.124-6.601-1.195-6.601-.152m1737 .226c-2.406.808-22.058 5.378-34.5 8.023-3.3.701-11.85 2.727-19 4.502-7.15 1.774-14.8 3.522-17 3.885-4.984.821-10.722 2.109-21 4.716-11.152 2.827-14.138 3.517-21 4.85-3.3.641-11.625 2.506-18.5 4.145-14.549 3.467-21.638 5.103-32 7.385-4.125.909-12 2.722-17.5 4.03-5.5 1.307-13.375 3.126-17.5 4.042-4.125.915-11.755 2.735-16.955 4.045-5.2 1.309-10.406 2.38-11.57 2.38-1.849 0-6.103 3.053-12.975 9.311-1.1 1.002-3.462 2.728-5.25 3.837-1.787 1.108-3.25 2.331-3.25 2.718s-1.462 1.562-3.25 2.612c-1.787 1.05-3.744 2.385-4.349 2.966-3.2 3.076-39.568 27.556-40.938 27.556-.328 0-2.071 1.125-3.874 2.5s-3.626 2.5-4.053 2.5c-.426 0-3.308 1.529-6.405 3.398-12.16 7.338-32.431 17.678-48.631 24.805l-12 5.279c-8.856 3.897-18.569 6.518-24.152 6.518-5.593 0-6.272-.257-9.681-3.667-2.017-2.016-3.667-4.298-3.667-5.069 0-3.464-6.373-16.304-9.791-19.726-5.598-5.605-14.59-10.143-25.709-12.974-11.854-3.018-14.471-3.142-17.096-.814-1.086.963-3.939 3.289-6.342 5.17l-4.368 3.42-2.867-3.574-2.867-3.574-4.782 1.261c-7.121 1.878-20.481 8.604-31.19 15.7-8.623 5.713-27.988 23.627-27.988 25.889 0 .482 3.516 6.183 7.814 12.667 4.298 6.485 9.81 15.05 12.25 19.032 4.671 7.625 5.568 8.121 11.365 6.287 7.222-2.285 23.775-7.135 32.571-9.545 5.225-1.431 12.102-3.536 15.283-4.677 3.18-1.141 6.105-1.754 6.5-1.364 1.205 1.194 8.953 15.516 13.794 25.499 7.203 14.856 6.104 14.325 14.084 6.812 7.158-6.739 13.199-12.123 17.22-15.345a756.631 756.631 0 006.619-5.408c7.3-6.028 8.039-6.607 16.115-12.619 4.337-3.229 8.11-6.142 8.385-6.475.275-.332 2.15-1.684 4.167-3.005 2.017-1.32 8.779-5.776 15.027-9.901 13.05-8.616 12.702-8.395 23.306-14.819 10.305-6.242 17.742-10.373 29.445-16.354 8.241-4.212 10.223-4.827 15.553-4.827 5.598 0 6.377.276 9.306 3.298 2.87 2.961 3.195 3.905 3.19 9.25l-.007 5.952-7.508 7.87c-4.129 4.328-10.989 11.753-15.244 16.5-4.254 4.746-7.978 8.855-8.276 9.13-1.687 1.561-18.649 22.915-24.623 31-8.493 11.494-24.955 36.422-29.058 44-1.637 3.025-4.921 8.875-7.298 13-7.687 13.343-21.344 42.905-27.487 59.5-2.036 5.5-4.15 10.842-4.698 11.871-.9 1.693-.676 1.819 2.355 1.325 13.106-2.134 47.095-13.309 64.35-21.155a874.98 874.98 0 0110-4.458c23.626-10.319 55.026-28.878 76.992-45.506 11.941-9.039 31.395-25.673 32.686-27.948.623-1.097-.407-5.426-6.334-26.629-3.74-13.377-4.472-11.931 13.156-25.986 8.525-6.798 16.175-12.959 17-13.692.825-.733 16.575-13.344 35-28.024 18.425-14.68 33.985-27.166 34.577-27.745.592-.579 4.58-3.753 8.862-7.053s10.098-7.929 12.923-10.286c2.826-2.357 5.588-4.624 6.138-5.037.55-.414 11.575-9.209 24.5-19.545a196376.46 196376.46 0 0125.016-20.003c12.118-9.668 37.757-30.313 38.62-31.097.626-.568 4.338-3.497 8.25-6.511 3.913-3.013 7.114-5.825 7.114-6.25 0-.983-3.759-.862-7 .226M427 635.693c0 .97 4.004 16.805 6.905 27.307 1.139 4.125 3.382 12.45 4.984 18.5 1.602 6.05 3.206 11.726 3.566 12.612.625 1.543 6.436 4.487 20.545 10.407 13.842 5.809 36.435 12.348 48.5 14.038 2.75.385 5.9.903 7 1.152 11.979 2.707 28.399.221 42.171-6.387 4.318-2.071 5.585-3.333 7.68-7.651 2.782-5.734 4.03-11.514 3.042-14.088-.473-1.233-1.367-1.528-3.328-1.097-2.429.533-4.131-.941-18.117-15.699-24.758-26.124-22.645-24.289-29.674-25.753-10.87-2.264-22.1 1.26-25.067 7.868-.889 1.979-2.962 5.061-4.607 6.848-2.777 3.016-3.453 3.25-9.383 3.25-6.996 0-6.036.549-42.217-24.119-11.88-8.099-12-8.171-12-7.188m991 10.921c-8.525 5.765-16.293 11.136-17.261 11.934-.969.799-2.175 1.452-2.679 1.452s-1.512.579-2.239 1.287c-3.944 3.843-8.714 5.713-14.573 5.713-5.723 0-6.179-.186-9.382-3.835-1.851-2.109-4.145-5.28-5.097-7.048-1.83-3.397-8.053-6.802-14.276-7.812-1.866-.303-6.453.021-10.193.718-7.708 1.439-5.04-.834-30.248 25.764-14.265 15.052-15.649 16.241-18.244 15.671-2.741-.602-2.808-.514-2.793 3.713.017 4.828 1.591 10.053 4.254 14.116 2.682 4.093 13.797 8.978 25.731 11.307 4.935.963 18.743 1.005 23.5.071 2.2-.431 6.475-1.206 9.5-1.721 15.845-2.697 32.818-7.796 46.737-14.041 2.33-1.046 7.18-3.079 10.778-4.519 3.597-1.441 7.022-3.519 7.611-4.62.589-1.101 2.382-7.01 3.984-13.133 1.603-6.122 3.78-14.281 4.839-18.131 2.322-8.438 5.591-20.968 6.458-24.75.347-1.512.285-2.72-.138-2.684-.423.036-7.744 4.783-16.269 10.548" fill="#FFB200FF" stroke="#FFB200FF"/></svg>