<svg version="1.0" xmlns="http://www.w3.org/2000/svg" width="2000pt" height="1999pt" viewBox="0 0 2000 1999"><path d="M999.683.65c-.375.376-.691 1.846-.7 3.267-.01 1.421-.668 5.65-1.462 9.398-.794 3.749-1.724 8.699-2.066 11-.342 2.302-1.514 8.91-2.604 14.685-1.982 10.496-2.799 14.981-6.832 37.5-1.183 6.6-2.53 14.025-2.994 16.5-.79 4.216-1.377 7.441-5.542 30.5-.895 4.95-2.269 12.488-3.055 16.75l-2.856 15.5a4405.826 4405.826 0 00-2.957 16.25 2488.336 2488.336 0 01-6.2 33c-.803 4.125-2.111 11.1-2.907 15.5-.795 4.4-1.67 8.9-1.944 10-.274 1.1-1.419 6.95-2.545 13-1.125 6.05-2.281 12.125-2.568 13.5a523.123 523.123 0 00-1.547 8c-1.679 9.005-9.486 47.881-14.459 72a8791.218 8791.218 0 00-7.048 34.5c-1.326 6.6-3.082 15.038-3.903 18.75-1.575 7.115-3.36 15.339-6.023 27.75-.885 4.125-2.022 9.3-2.526 11.5-.503 2.2-1.829 8.05-2.945 13-1.116 4.95-2.461 10.8-2.989 13-.528 2.2-1.627 6.925-2.442 10.5-3.518 15.43-14.088 59.233-16.046 66.5-.742 2.75-3.237 12.2-5.546 21-5.893 22.464-10.359 38.685-11.977 43.5-.462 1.375-1.593 5.2-2.513 8.5-1.642 5.885-11.793 38.24-15.666 49.933-2.351 7.097-12.436 34.233-13.776 37.067-.52 1.1-2.819 6.5-5.108 12-4.751 11.412-13.264 28.726-19.176 39-9.623 16.724-26.233 39.214-28.366 38.407-.898-.339-12.021-12.871-31.022-34.951a523.607 523.607 0 00-7.502-8.5c-1.976-2.176-11.404-12.956-20.952-23.956-9.547-11-17.629-20.225-17.96-20.5-.33-.275-5.057-5.675-10.504-12-5.447-6.325-10.365-11.988-10.929-12.585-.564-.596-3.051-3.49-5.526-6.431-2.475-2.941-6.138-7.178-8.141-9.415-2.002-2.238-8.955-10.144-15.45-17.569-6.494-7.425-12.281-13.99-12.859-14.589-.577-.598-3.3-3.719-6.05-6.934-21.464-25.095-25.485-29.432-25.473-27.477.009 1.476 1.484 11.044 4.511 29.25 2.67 16.063 3.527 21.192 3.887 23.25.759 4.338 2.552 15.212 3.134 19 .337 2.2 2.403 14.575 4.59 27.5 2.186 12.925 4.622 27.55 5.413 32.5a5630.808 5630.808 0 005.863 36c3.215 19.291 4.703 28.346 6.08 37 .788 4.95 2.124 13.05 2.97 18 .845 4.95 1.998 11.925 2.562 15.5 1.566 9.936 1.996 12.37 2.477 14 .243.825.88 4.425 1.416 8 1.06 7.076 3.043 19.128 5.595 34 .897 5.225 2.237 13.325 2.979 18 2.134 13.452 6.389 38.978 7.501 45a617.388 617.388 0 012.053 12c.571 3.575 1.714 10.55 2.539 15.5.826 4.95 2.149 13.05 2.942 18 .793 4.95 1.656 10.125 1.919 11.5.264 1.375 1.42 8.35 2.569 15.5 1.15 7.15 2.29 14.125 2.532 15.5.243 1.375.898 5.425 1.456 9 3.142 20.125 5.362 32.663 6.001 33.893.67 1.289 1.36-3.483 3.962-27.393 2.484-22.828 8.147-49.928 12.002-57.44 5.005-9.751 16.727-17.06 27.36-17.06 10.513 0 21.755 6.906 25.677 15.772 6.687 15.116 2.832 38.748-8.315 50.978l-2.051 2.25h2.687c3.829 0 15.795 3.457 22.342 6.454 11.65 5.333 25.207 16.953 35.069 30.058 15.08 20.039 19.93 27.229 33.919 50.285 6.783 11.179 12.332 20.478 12.332 20.666 0 .187 3.978 7.697 8.84 16.689 10.211 18.884 22.059 42.394 27.893 55.348 2.229 4.95 5.226 11.559 6.66 14.686 1.434 3.127 2.607 5.908 2.607 6.18 0 .272 1.386 3.563 3.081 7.314 4.073 9.016 2.665 5.818 22.158 50.32 2.77 6.325 6.263 14.2 7.762 17.5 5.023 11.059 6.736 14.947 10.879 24.699 2.266 5.334 4.12 9.936 4.12 10.225 0 .578-1.272.408-14.5-1.938-24.962-4.426-52.419-12.692-73.921-22.254-10.023-4.458-35.589-17.645-43.079-22.221-18.941-11.572-43.097-29.455-58-42.938-17.555-15.882-41.27-40.949-52.575-55.573-2.976-3.85-6.427-8.12-7.668-9.49-1.241-1.369-2.257-2.8-2.257-3.178 0-.379-.58-1.284-1.289-2.011-3.043-3.118-17.253-24.65-26.941-40.821-13.822-23.071-22.247-39.428-32.707-63.5-1.195-2.75-2.585-5.9-3.09-7-.505-1.1-1.843-4.475-2.973-7.5-1.13-3.025-2.449-6.4-2.93-7.5-.481-1.1-1.863-4.925-3.07-8.5-1.207-3.575-2.579-7.4-3.048-8.5-2.344-5.5-10.609-33.568-15.754-53.5-11.275-43.686-16.856-88.531-17.796-143-.447-25.884-.198-34.435 1.647-56.5 1.195-14.3 2.236-27.775 2.312-29.944l.139-3.945-3.591 4.945c-5.661 7.793-11.66 14.079-18.805 19.7-3.632 2.858-6.829 5.459-7.104 5.781-.675.79-11.41 7.201-17.074 10.198-23.834 12.609-62.668 11.242-85.332-3.002-4.258-2.676-4.788-2.667-18.594.337-4.125.897-10.2 2.213-13.5 2.923-6.762 1.456-31.634 6.939-41.5 9.149a836.777 836.777 0 01-13 2.782c-8.631 1.761-29.006 6.279-36.5 8.093-3.3.799-12.3 2.843-20 4.541-7.7 1.699-20.975 4.633-29.5 6.52-8.525 1.887-27.875 6.127-43 9.424-15.125 3.296-35.6 7.798-45.5 10.004-9.9 2.206-21.15 4.668-25 5.47-7.16 1.492-14.247 3.048-27.5 6.036-4.125.93-10.65 2.358-14.5 3.173-12.691 2.686-18.834 4.027-33.5 7.315-7.975 1.788-17.2 3.831-20.5 4.541-5.7 1.227-11.822 2.61-26.5 5.988-3.575.823-9.65 2.165-13.5 2.982-3.85.817-13.075 2.853-20.5 4.523-7.425 1.671-16.312 3.563-19.75 4.205-10.002 1.868-7.844 3.361 6 4.152 6.738.385 14.05.885 16.25 1.111 2.2.226 11.2.897 20 1.491 8.8.595 18.025 1.288 20.5 1.542 2.475.253 11.25.909 19.5 1.458 8.25.548 17.7 1.239 21 1.535 3.3.297 12.525.983 20.5 1.527 17.704 1.206 47.732 3.396 74.5 5.432 11 .837 29.45 2.208 41 3.047 50.269 3.65 62.12 4.515 81 5.913 11 .815 23.888 1.786 28.64 2.158l8.64.677.66 5.109c5.5 42.564 25.767 84.829 50.499 105.31 7.178 5.945 20.852 14.842 21.623 14.07.267-.266-1.031-4.036-2.884-8.378-7.783-18.239-11.898-33.685-14.311-53.726-1.64-13.624-1.65-15.412-.147-26.964 2.777-21.343 10.109-33.541 26.043-43.325 21.553-13.234 48.681-10.056 66.572 7.8 23.991 23.944 36.21 65.476 30.544 103.822-1.369 9.27-7.014 29.998-10.076 37-7.401 16.928-16.131 32.91-25.126 46-5.231 7.612-15.624 21.412-18.014 23.917-.914.959-3.593 4.044-5.952 6.854-8.455 10.076-17.433 19.898-31.711 34.694-6.287 6.514-34.697 36.487-44 46.42-8.267 8.827-9.111 9.714-33.307 35.036-10.281 10.759-21.618 22.69-25.193 26.512a1939.609 1939.609 0 01-13.747 14.509c-3.986 4.157-7.249 7.926-7.25 8.375-.004 1.01 2.972.104 9.497-2.891 2.75-1.262 9.05-3.915 14-5.895 4.95-1.981 9.9-4.01 11-4.511 5.764-2.624 11.452-5.02 11.918-5.02.29 0 2.902-1.079 5.805-2.399 2.902-1.319 15.627-6.753 28.277-12.075 24.614-10.355 28.871-12.158 32-13.552 1.1-.49 7.625-3.187 14.5-5.993 6.875-2.806 14.408-5.975 16.739-7.041 2.332-1.067 4.474-1.94 4.761-1.94.287 0 2.429-.873 4.761-1.94 2.331-1.067 7.03-3.052 10.441-4.411l6.201-2.47 1.769 4.661c6.564 17.291 20.516 35.75 34.328 45.416 2.475 1.732 5.095 3.733 5.821 4.446.727.714 1.749 1.298 2.27 1.298.522 0 2.627 1.025 4.679 2.277 11.309 6.905 29.746 11.578 48.98 12.414 14.992.653 17.112.044 10.625-3.049-5.806-2.769-21.346-14.854-27.997-21.773-17.587-18.296-26.926-36.356-30.827-59.619-4.208-25.093.681-39.509 16.474-48.578 27.637-15.87 74.164.371 99.178 34.622 2.092 2.863 4.151 5.656 4.576 6.206 1.706 2.208 10.143 20.257 11.218 24 9.407 32.746 9.179 57.459-.881 95.758-3.255 12.391-12.477 39.489-16.078 47.242-.511 1.1-1.878 4.25-3.038 7s-2.51 5.9-3 7c-.49 1.1-1.84 4.25-3 7s-2.51 5.9-3 7c-.491 1.1-9.24 21.672-19.443 45.715-10.204 24.043-19.743 46.318-21.198 49.5a492.722 492.722 0 00-5.364 12.285c-5.134 12.283-15.137 35.506-17.565 40.777-1.336 2.903-2.43 5.515-2.43 5.805 0 .456-1.704 4.518-5 11.918-.49 1.1-1.84 4.25-3 7s-2.51 5.9-3 7c-.49 1.1-1.84 4.25-3 7s-2.51 5.9-3 7c-.49 1.1-1.848 4.25-3.018 7a479.746 479.746 0 01-3.554 8.151c-.786 1.733-1.428 3.388-1.428 3.677 0 .289-1.52 3.821-3.378 7.849-1.858 4.028-6.174 13.848-9.592 21.823a5029.15 5029.15 0 01-14.046 32.5c-.481 1.1-1.83 4.25-2.998 7-1.167 2.75-2.747 6.35-3.509 8-.79 1.71-.98 3.142-.441 3.33.52.182 26.037-24.633 56.705-55.144 30.667-30.511 71.981-71.61 91.807-91.33l36.048-35.856 6.361 6.662c9.968 10.44 27.484 21.075 43.484 26.402 10.961 3.649 15.014 4.367 39.059 6.917 4.888.519 29.708-1.402 30.751-2.379.413-.387-4.312-2.393-10.5-4.457-28.608-9.544-52.106-26.581-60.596-43.934-5.704-11.658-6.66-16.039-6.595-30.211.07-14.924 1.567-20.453 8.369-30.889 9.728-14.927 25.595-25.25 48.071-31.274 9.501-2.546 40.508-2.56 51-.023 15.168 3.668 26.765 8.251 38 15.02 20.886 12.584 42.245 34.793 54.014 56.166 4.864 8.833 4.762 8.632 6.793 13.5 5.041 12.085 6.791 18.958 8.652 33.992 1.394 11.263 1.394 13.655-.004 24.495-.851 6.607-2.037 13.588-2.634 15.513-5.708 18.408-12.408 31.075-20.112 38.028l-2.802 2.528 2.57 15.972c1.413 8.785 3.442 21.372 4.507 27.972 1.066 6.6 2.426 15.15 3.021 19 .596 3.85 1.275 8.125 1.509 9.5.233 1.375.888 5.65 1.454 9.5.566 3.85 1.71 11.275 2.542 16.5 1.448 9.091 2.579 16.413 5.943 38.5.838 5.5 2.204 14.275 3.036 19.5.831 5.225 2.219 14.225 3.084 20a5301.3 5301.3 0 005.96 38.75 2725.42 2725.42 0 012.941 19.25c.775 5.225 2.137 14 3.027 19.5.891 5.5 2.294 14.5 3.119 20 1.513 10.092 3.063 20.096 5.809 37.5.824 5.225 2.176 14.09 3.003 19.7.828 5.61 1.731 11.235 2.007 12.5.277 1.265.737 3.978 1.023 6.029.286 2.051 1.199 7.622 2.029 12.381.83 4.759 1.509 9.916 1.509 11.462 0 2.976 1.743 4.962 2.406 2.741.215-.722 1.145-6.713 2.065-13.313.92-6.6 2.092-14.025 2.606-16.5.834-4.023 3.314-20.011 7.447-48 .772-5.225 2.11-14 2.975-19.5.864-5.5 2.216-14.5 3.003-20 .788-5.5 2.137-14.5 2.998-20 .861-5.5 2.236-14.5 3.055-20s2.134-14.275 2.921-19.5c.788-5.225 2.107-14 2.933-19.5.825-5.5 2.2-14.5 3.055-20s2.253-14.725 3.106-20.5a5926.424 5926.424 0 016.797-45c2.862-18.516 6.233-40.472 7.602-49.5 3.887-25.651 4.664-30.583 6.103-38.741l1.013-5.741-3.497-3.497c-9.874-9.874-17.839-26.461-22.098-46.021-2.074-9.524-2.336-31.66-.47-39.702 5.141-22.157 12.57-38.514 24.887-54.798 29.681-39.242 65.931-59 108.244-59 12.15 0 28.973 2.776 36.349 5.997 1.1.481 4.179 1.796 6.842 2.923 5.791 2.45 16.796 9.71 21.658 14.286 12.997 12.233 18.839 27.771 17.743 47.192-1.125 19.948-10.422 35.904-29.112 49.971-9.497 7.148-24.278 14.571-38.382 19.276-6.188 2.064-10.913 4.07-10.5 4.457 1.043.977 25.863 2.898 30.751 2.379 29.865-3.167 36.517-4.789 54.5-13.282 8.123-3.836 22.129-13.843 28.046-20.037l6.363-6.662 36.046 35.866c19.825 19.726 61.137 60.824 91.804 91.33 30.668 30.505 56.185 55.316 56.705 55.134.539-.188.349-1.62-.441-3.33-.762-1.65-2.342-5.25-3.509-8-1.168-2.75-2.517-5.9-2.998-7a2877.252 2877.252 0 01-12.311-28.5c-3.795-8.929-13.77-31.92-16.704-38.5-.49-1.1-1.841-4.25-3.001-7s-2.51-5.9-3-7c-.49-1.1-1.84-4.25-3-7s-2.51-5.9-3-7c-.49-1.1-1.84-4.25-3-7s-2.51-5.9-3-7c-3.296-7.4-5-11.462-5-11.918 0-.29-1.092-2.902-2.426-5.805-1.335-2.902-6.548-14.952-11.586-26.777-5.038-11.825-10.471-24.344-12.074-27.82-1.603-3.476-2.914-6.542-2.914-6.814 0-.272-1.105-2.911-2.457-5.865-1.351-2.954-9.481-21.937-18.068-42.186-15.986-37.7-17.655-41.618-19.944-46.815a441.472 441.472 0 01-2.371-5.5c-3.807-9.059-5.382-12.743-6.198-14.5-1.709-3.679-7.624-19.895-10.849-29.742-6.994-21.354-10.768-38.8-12.334-57.01-1.702-19.797-.107-34.21 6.224-56.248 1.075-3.743 9.512-21.792 11.218-24 .425-.55 2.484-3.343 4.576-6.206 7.387-10.116 15.939-18.248 26.43-25.135 14.332-9.409 25.718-13.428 44.315-15.642 5.973-.711 18.9 1.661 25.171 4.619 18.439 8.698 24.22 23.375 19.736 50.114-3.901 23.263-13.24 41.323-30.827 59.619-6.651 6.919-22.191 19.004-27.997 21.773-6.487 3.093-4.367 3.702 10.625 3.049 19.234-.836 37.671-5.509 48.98-12.414 2.052-1.252 4.157-2.277 4.679-2.277.521 0 1.543-.584 2.27-1.298.726-.713 3.346-2.714 5.821-4.446 13.817-9.67 27.764-28.124 34.334-45.431l1.774-4.676 13.196 5.436c7.258 2.989 14.096 5.862 15.196 6.384 1.1.522 7.625 3.243 14.5 6.049 11.324 4.62 15.442 6.343 21.5 8.992 1.1.481 12.35 5.221 25 10.534 12.65 5.312 25.375 10.738 28.277 12.057 2.903 1.32 5.515 2.399 5.805 2.399.466 0 6.154 2.396 11.918 5.02 1.1.501 6.05 2.53 11 4.511 4.95 1.98 11.25 4.633 14 5.895 6.525 2.995 9.501 3.901 9.497 2.891-.001-.449-3.264-4.218-7.25-8.375a1939.609 1939.609 0 01-13.747-14.509c-5.471-5.85-15.141-15.999-47.693-50.058-2.094-2.19-7.131-7.559-11.194-11.929-7.578-8.15-34.677-36.722-43.613-45.981-14.278-14.796-23.256-24.618-31.711-34.694-2.359-2.81-5.038-5.895-5.952-6.854-2.126-2.228-12.411-15.792-17.3-22.813-6.415-9.214-13.898-22.137-19.457-33.604-6.917-14.266-6.51-13.269-10.537-25.824-5.24-16.338-7.395-29.646-7.338-45.305.116-31.279 12.749-64.213 31.912-83.193 18.037-17.866 45.072-21.031 66.62-7.8 15.934 9.784 23.266 21.982 26.043 43.325 1.503 11.552 1.493 13.34-.147 26.964-2.413 20.041-6.528 35.487-14.311 53.726-1.853 4.342-3.151 8.112-2.884 8.378.771.772 14.445-8.125 21.623-14.07 24.698-20.452 45.007-62.805 50.499-105.31l.66-5.109 8.64-.677c4.752-.372 17.64-1.343 28.64-2.158 18.88-1.398 30.731-2.263 81-5.913 11.55-.839 30-2.21 41-3.047 26.768-2.036 56.796-4.226 74.5-5.432 7.975-.544 17.2-1.23 20.5-1.527 3.3-.296 12.75-.987 21-1.535 8.25-.549 17.025-1.205 19.5-1.458 2.475-.254 11.7-.947 20.5-1.542 8.8-.594 17.8-1.265 20-1.491 2.2-.226 9.513-.726 16.25-1.111 13.844-.791 16.002-2.284 6-4.152-3.437-.642-12.325-2.534-19.75-4.205-7.425-1.67-16.65-3.706-20.5-4.523a977.416 977.416 0 01-13.5-2.982c-14.678-3.378-20.8-4.761-26.5-5.988-3.3-.71-12.525-2.753-20.5-4.541-14.666-3.288-20.809-4.629-33.5-7.315-3.85-.815-10.375-2.243-14.5-3.173-13.253-2.988-20.34-4.544-27.5-6.036-3.85-.802-15.1-3.264-25-5.47s-30.375-6.708-45.5-10.004a17889.957 17889.957 0 01-43-9.424c-8.525-1.887-21.8-4.821-29.5-6.52-7.7-1.698-16.7-3.742-20-4.541-7.494-1.814-27.869-6.332-36.5-8.093a836.777 836.777 0 01-13-2.782c-11.286-2.528-35.224-7.793-42.5-9.348-3.85-.822-9.925-2.138-13.5-2.923-12.403-2.723-13.634-2.768-16.675-.61-13.852 9.83-42.823 14.727-63.601 10.751-13.385-2.562-19.204-4.89-33.224-13.293-3.3-1.978-6.225-3.851-6.5-4.162-.275-.311-3.666-3.093-7.536-6.182-3.87-3.089-9.117-8.037-11.659-10.996a5012.542 5012.542 0 01-6.758-7.879l-2.137-2.5.628 9.5c.345 5.225 1.045 12.425 1.555 16 .51 3.575 1.199 21.35 1.53 39.5.877 48.01-1.196 76.763-9.01 125-4.248 26.226-11.903 55.969-23.292 90.5-2.449 7.425-5.031 14.85-5.737 16.5a166.893 166.893 0 00-2.575 6.5c-8.759 23.742-25.934 59.109-39.898 82.159-.886 1.463-2.925 4.838-4.532 7.5-9.341 15.48-31.533 46.552-40.462 56.654-14.966 16.931-20.42 22.772-30.712 32.889-6.548 6.436-13.676 13.186-15.841 15a816.36 816.36 0 00-9.5 8.144c-18.702 16.289-47.092 35.031-72.064 47.576-20.917 10.507-48.231 21.219-64 25.098-12.376 3.044-17.156 4.127-24.5 5.549-9.513 1.842-18.896 3.288-19.262 2.969-.236-.206 1.45-4.398 5.243-13.038l8.994-20.5c4.222-9.625 9.196-20.875 11.054-25 1.857-4.125 6.813-15.375 11.012-25 4.199-9.625 8.237-18.85 8.972-20.5a3830.688 3830.688 0 0010.342-23.5c7.954-18.205 32.346-65.603 41.831-81.285 2.923-4.832 5.314-8.998 5.314-9.258 0-.888 19.926-32.521 23.269-36.94.424-.559 4.348-5.824 8.721-11.699 13.219-17.759 23.722-27.951 36.211-35.139 5.658-3.257 21.833-8.679 25.889-8.679 3.449 0 3.673-1 .806-3.594-3.416-3.091-6.875-9.787-9.077-17.57-1.675-5.918-1.971-9.16-1.578-17.309.526-10.897 1.482-13.923 6.339-20.056 11.873-14.99 36.325-13.201 47.54 3.479 3.516 5.23 4.286 7.389 7.506 21.05 3.561 15.104 9.027 54.297 9.338 66.95.022.89.377 1.083.919.5.485-.523 1.599-5.45 2.476-10.95 6.085-38.181 13.561-83.649 15.619-95 .498-2.75 1.183-7.025 1.522-9.5.339-2.475 1.046-6.75 1.573-9.5.526-2.75 2.772-16.025 4.992-29.5 2.219-13.475 4.665-28.325 5.437-33 .771-4.675 2.801-16.6 4.511-26.5 1.71-9.9 3.762-22.05 4.561-27a5242.35 5242.35 0 016.025-36.5c.791-4.675 2.083-12.55 2.871-17.5.788-4.95 2.129-13.162 2.981-18.25.852-5.087 2.241-13.412 3.087-18.5.845-5.087 2.212-13.3 3.037-18.25.825-4.95 1.92-11.7 2.434-15 .513-3.3 3.205-19.5 5.982-36 2.776-16.5 6.161-36.975 7.522-45.5 1.362-8.525 2.669-16.472 2.906-17.66.237-1.187.748-4.337 1.134-7 .387-2.662 1.301-7.747 2.031-11.3 2.063-10.036 2.708-10.446-14.067 8.96-5.467 6.325-11.131 12.85-12.587 14.5A16374.217 16374.217 0 001337 638l-11 12.517a1692.91 1692.91 0 00-7.033 8.052c-7.053 8.163-22.714 26.236-24.636 28.431a968.005 968.005 0 00-4.342 5c-6.232 7.237-12.666 14.567-14.028 15.981-.847.879-5.787 6.53-10.978 12.558-5.191 6.029-9.705 11.186-10.031 11.461-.327.275-5.043 5.675-10.482 12-5.438 6.325-10.137 11.725-10.442 12-.304.275-5.035 5.675-10.513 12-5.479 6.325-10.58 12.139-11.338 12.921-1.183 1.222-1.821.941-4.545-2-10.273-11.09-23.342-31.323-34.245-53.017-15.632-31.101-28.985-67.277-45.367-122.904-3.453-11.725-3.855-13.13-5.507-19.244-3.326-12.303-4.759-17.371-5.727-20.256-.554-1.65-1.358-4.575-1.787-6.5-.838-3.763-6.37-25.241-7.984-31-.54-1.925-2.567-10.25-4.506-18.5s-3.94-16.575-4.446-18.5c-1.407-5.353-4.403-18.106-9.044-38.5-1.127-4.95-2.483-10.8-3.015-13-1.21-5.008-7.172-32.549-10.065-46.5-1.198-5.775-2.744-13.2-3.435-16.5-.691-3.3-2.924-14.1-4.962-24-4.027-19.566-4.004-19.456-5.625-27.5-.61-3.025-1.776-8.65-2.591-12.5-1.731-8.176-10.974-54.601-11.747-59-.29-1.65-1.689-9.075-3.11-16.5-1.42-7.425-3.251-17.1-4.069-21.5-.819-4.4-2.183-11.6-3.032-16-.849-4.4-2.153-11.375-2.897-15.5-.744-4.125-2.08-11.325-2.969-16a2067.717 2067.717 0 01-3.144-17 6523.645 6523.645 0 00-2.901-16c-4.035-22.061-4.781-26.118-6.063-33a1100.544 1100.544 0 01-2.826-16c-.785-4.675-2.32-13.225-3.412-19a1461.775 1461.775 0 01-3.612-20c-.896-5.225-2.264-12.65-3.041-16.5-1.811-8.977-3.617-19.041-4.218-23.5-.508-3.771-1.508-5.443-2.602-4.35m-98.585 766.928c7.703 1.461 19.541 6.074 22.51 8.771.697.633 2.968 2.501 5.046 4.151 15.469 12.28 26.546 30.304 31.958 52 2.337 9.37 2.34 30.925.006 42-2.946 13.981-10.104 34-15.91 44.5-5.007 9.055-10.468 17.963-13.919 22.707-2.084 2.864-3.789 5.391-3.789 5.614 0 .224 1.913 1.703 4.25 3.288 21.136 14.328 34.822 28.475 41.009 42.391 3.583 8.061 7.131 23.832 8.96 39.828 1.349 11.803 2.286 315.137.969 313.647-.474-.536-2.475-5.025-4.446-9.975-1.972-4.95-5.91-14.625-8.752-21.5-2.842-6.875-8.952-21.849-13.577-33.276a49034.359 49034.359 0 00-10.936-27c-1.39-3.423-2.966-7.005-3.502-7.96-.536-.955-.975-2.218-.975-2.805 0-.588-.842-2.957-1.872-5.264-2.221-4.978-14.88-39.002-18.49-49.695a7307.073 7307.073 0 00-6.978-20.5c-2.446-7.15-6.111-18.4-8.146-25a4983.28 4983.28 0 00-6.526-21c-14.288-45.483-23.737-87.568-25.595-114-.741-10.546 1.425-24.192 5.039-31.744l2.276-4.756h-2.789c-5.742 0-17.569-3.174-22.9-6.147-6.45-3.596-13.185-10.297-16.108-16.027-1.136-2.226-2.713-7.157-3.505-10.956-1.272-6.099-1.26-7.686.098-13.543 2.893-12.474 10.001-21.687 21.084-27.327 4.217-2.146 6.255-2.5 14.412-2.5 9.293 0 9.672.093 17.385 4.281 4.337 2.355 8.028 4.139 8.203 3.964.175-.174-.905-1.651-2.399-3.281-1.494-1.63-5.185-5.878-8.203-9.439-3.017-3.561-7.119-8.286-9.115-10.5-1.996-2.214-10.48-11.9-18.853-21.525-8.374-9.625-16.433-18.85-17.909-20.5-1.476-1.65-7.106-8.142-12.51-14.426-5.405-6.285-11.124-12.81-12.709-14.5-1.584-1.691-2.883-3.367-2.885-3.725-.011-1.533 22.984-19.849 24.919-19.849.592 0 1.08-.337 1.084-.75.004-.412 1.017-1.258 2.25-1.879s6.517-3.359 11.742-6.084c10.646-5.553 17.238-7.898 27.5-9.784 9.597-1.764 12.963-1.753 22.598.075m221.231-.027c12.773 2.234 24.183 6.713 37.484 14.714 11.35 6.827 14.975 9.425 25.916 18.571l5.229 4.371-5.229 6.084c-2.876 3.346-5.904 6.82-6.729 7.719-2.585 2.817-7.188 8.118-16.925 19.49-5.18 6.05-9.917 11.45-10.525 12-.609.55-5.563 6.175-11.008 12.5-5.445 6.325-10.16 11.725-10.477 12-.318.275-3.047 3.425-6.065 7-3.018 3.575-5.716 6.725-5.995 7-4.054 3.995-12.805 14.866-12.341 15.33.339.339 2.24-.64 4.226-2.175 19.368-14.977 46.674-6.173 55.35 17.845 6.284 17.394-1.054 36.231-17.729 45.517-6.023 3.353-16.971 6.483-22.68 6.483-2.518 0-2.916.303-2.298 1.75 5.511 12.907 5.785 14.321 5.862 30.25.041 8.525-.466 18.2-1.127 21.5-.661 3.3-2.149 10.95-3.307 17-5.778 30.185-17.555 72.078-35.422 126-4.192 12.65-8.008 23.9-8.481 25-.472 1.1-2.523 6.725-4.558 12.5-2.035 5.775-4.097 11.4-4.583 12.5-.486 1.1-2.482 6.275-4.435 11.5-1.953 5.225-4.211 10.918-5.017 12.651-.806 1.733-1.465 3.652-1.465 4.264 0 .612-.448 1.894-.996 2.849-.548.955-2.526 5.561-4.397 10.236-5.715 14.28-12.64 31.335-14.009 34.5a165.726 165.726 0 00-2.604 6.5c-.718 1.925-2.275 5.75-3.46 8.5-1.184 2.75-5.051 12.044-8.594 20.654-3.542 8.61-6.533 15.566-6.648 15.459-.557-.523-.358-301.056.204-307.113 2.293-24.718 6.457-41.133 13.417-52.889 3.618-6.112 17.621-21.099 24.587-26.316 7.849-5.877 14.495-10.295 15.49-10.295 1.926 0 .98-2.055-5.098-11.08-16.296-24.197-25.812-49.135-28.97-75.92-1.081-9.171-1.016-11.955.515-22 3.149-20.662 10.779-36.686 24.328-51.088 6.315-6.713 19.412-16.912 21.718-16.912.393 0 2.133-.673 3.866-1.495 3.587-1.701 15.428-4.216 20.651-4.385 1.925-.063 7.473.581 12.329 1.431" fill="#FFB200FF" stroke="#FFB200FF"/><path d="M38.141 547.341c2.623 4.047 29.449 43.524 42.239 62.159 4.53 6.6 13.421 19.65 19.759 29a10554.38 10554.38 0 0018.018 26.5 17599.72 17599.72 0 0115.346 22.5c21.609 31.735 26.207 38.446 31.171 45.5 2.902 4.125 8.18 11.775 11.728 17 14.545 21.423 47.048 68.619 55.093 80 2.138 3.025 3.945 5.605 4.014 5.734.103.192 6.212-1.005 16.491-3.23 1.814-.392 27.12-6.072 35.5-7.968 17.691-4.001 21.51-4.852 27-6.015 3.3-.699 12.525-2.725 20.5-4.503s17.2-3.805 20.5-4.504c22.529-4.771 24.725-5.362 24.305-6.535-.277-.773-42.239-32.912-52.69-40.356-2.412-1.718-7.587-5.623-11.5-8.679-3.913-3.056-25.34-19.286-47.615-36.067-37.218-28.038-53.096-40.068-57-43.184-.825-.659-16.125-12.181-34-25.605-46.278-34.753-60.429-45.446-61-46.09-.275-.31-2.975-2.334-6-4.498s-5.725-4.179-6-4.478c-1.455-1.582-65.228-49.172-66.598-49.698-1.243-.477-1.071.225.739 3.017m1892.251 20.698c-17.54 13.221-32.567 24.585-33.392 25.252-.825.668-3.975 2.998-7 5.178-3.025 2.181-5.725 4.243-6 4.582-.275.339-20.525 15.664-45 34.055s-50.35 37.901-57.5 43.354c-7.15 5.454-30.325 22.968-51.5 38.921-21.175 15.952-40.557 30.605-43.07 32.562a478.165 478.165 0 01-7.5 5.72c-1.612 1.189-5.18 3.867-7.93 5.949a22212.21 22212.21 0 01-27.5 20.725c-25.839 19.453-24.574 18.422-23.691 19.306.639.639 9.087 2.699 23.691 5.777 3.575.753 13.025 2.823 21 4.6 7.975 1.777 17.2 3.802 20.5 4.501 5.49 1.163 9.309 2.014 27 6.015 8.38 1.896 33.686 7.576 35.5 7.968 10.279 2.225 16.388 3.422 16.491 3.23.069-.129 1.876-2.709 4.014-5.734 8.849-12.519 30.262-43.6 55.114-80a2203.463 2203.463 0 0111.734-17c2.887-4.125 9.529-13.8 14.761-21.5 5.231-7.7 11.085-16.25 13.009-19 1.923-2.75 7.724-11.3 12.891-19 5.167-7.7 9.64-14.225 9.941-14.5.3-.275 4.171-5.9 8.601-12.5 9.872-14.708 27.224-40.224 48.962-72 18.713-27.352 20.735-30.5 19.591-30.5-.453 0-15.176 10.817-32.717 24.039M1828.5 1024.538c-.55.234-7.075 1.131-14.5 1.993-20.296 2.356-46.755 5.603-57 6.997-6.688.909-19.568 2.564-31.25 4.014-6.462.802-17.262 2.166-24 3.031-6.737.865-17.2 2.201-23.25 2.97l-23 2.922c-6.6.838-16.95 2.173-23 2.966-21.135 2.77-36.054 4.697-43.002 5.553-5.262.649-8.478 1.752-12.941 4.44-4.949 2.98-6.882 3.576-11.595 3.576-4.27 0-6.236-.503-8.025-2.054-1.592-1.381-3.14-1.861-4.724-1.463-1.296.325-6.037 1.033-10.535 1.573-4.498.541-9.078 1.407-10.178 1.925-1.919.904-29.889 11.819-39.75 15.512-2.612.978-4.75 2.186-4.75 2.683 0 3.456 23.01 39.506 27.973 43.824.316.275 3.035 3.65 6.042 7.5 5.583 7.149 7.28 9.131 17.545 20.5 11.103 12.297 12.764 14 13.651 14 .849 0 5.401-2.13 42.151-19.726 8.876-4.25 31.888-15.668 51.138-25.372 46.407-23.396 156.874-79.136 177-89.312 15.993-8.086 15.998-8.09 11.5-8.284-2.475-.107-4.95-.003-5.5.232m-1666.5-.243c0 .316 8.438 4.804 18.75 9.975 10.313 5.171 38.775 19.535 63.25 31.92 67.746 34.282 136.952 68.94 152 76.121 7.425 3.543 19.575 9.36 27 12.927a4256.23 4256.23 0 0019.388 9.261l5.888 2.777 3.661-3.888c3.772-4.006 13.012-14.211 18.467-20.398 1.703-1.931 5.257-6.206 7.898-9.5 2.642-3.295 5.349-6.665 6.016-7.49 10.925-13.511 28.682-41.224 28.682-44.765 0-1.008-2.811-2.256-22-9.769-22.925-8.976-24.004-9.317-33.5-10.578-11.435-1.517-13.068-1.463-15.035.504-1.104 1.104-3.407 1.608-7.345 1.608-4.8 0-6.702-.581-11.639-3.554-6.186-3.725-6.633-3.822-31.981-6.968-6.6-.819-16.95-2.133-23-2.92l-23.5-3.057c-6.875-.894-17.45-2.24-23.5-2.991-6.05-.75-16.512-2.072-23.25-2.937a6923.388 6923.388 0 00-24-3.031c-11.682-1.45-24.562-3.105-31.25-4.014-5.29-.72-19.143-2.464-32-4.03-6.325-.77-17.35-2.119-24.5-2.998-19.304-2.373-24.5-2.84-24.5-2.205m1198.222-23.899c-16.265 12.362-30.885 23.558-35.862 27.464-2.137 1.677-3.312 3.611-3.679 6.052-.296 1.974-1.235 7.863-2.085 13.088-2.744 16.865-4.56 28.481-4.578 29.284-.01.431-1.384 2.118-3.052 3.75-2.659 2.599-3.743 2.962-8.75 2.937-4.875-.025-6.181-.453-8.876-2.906-2.775-2.525-3.239-3.712-3.8-9.721-.352-3.764-.879-8.518-1.172-10.563l-.533-3.719-2.668 1.696c-1.467.933-2.892 1.956-3.167 2.275-.275.318-10.85 8.42-23.5 18.004-12.65 9.584-23.9 18.199-25 19.145-1.1.946-8.13 6.354-15.623 12.019-27.027 20.433-59.387 45.181-59.877 45.791-.275.342-4.136 3.371-8.579 6.73-10.873 8.22-15.138 14.725-7.207 10.994 1.807-.85 5.761-2.646 8.786-3.99 5.683-2.524 12.748-5.791 28.852-13.342 5.143-2.411 9.514-4.384 9.714-4.384.199 0 5.589-2.475 11.978-5.5 6.39-3.025 11.761-5.5 11.937-5.5.176 0 4.303-1.836 9.17-4.08a3762.233 3762.233 0 0113.349-6.124c2.475-1.125 7.2-3.299 10.5-4.831 3.3-1.533 8.25-3.78 11-4.994 5.369-2.371 14.351-6.458 24-10.923 3.3-1.527 7.575-3.476 9.5-4.332 1.925-.856 7.325-3.32 12-5.476 4.675-2.157 13.9-6.341 20.5-9.299 6.6-2.958 14.656-6.742 17.903-8.41 6.267-3.218 6.356-3.354 12.316-19.031.836-2.2 1.901-4.9 2.367-6 5.692-13.449 21.659-67.5 19.94-67.5-.445 0-7.556 5.128-15.804 11.396m-735.198-10.205c.046 2.55 4.861 20.454 8.958 33.309 4.219 13.241 8.958 27.515 9.96 30 .443 1.1 2.791 7.175 5.216 13.5l4.411 11.5 7.965 4.011c4.381 2.206 10.441 5.098 13.466 6.427 3.025 1.329 9.55 4.3 14.5 6.603a1979.64 1979.64 0 0014 6.45c2.75 1.246 9.05 4.169 14 6.496 10.546 4.957 19.594 9.117 24.5 11.264 1.925.843 6.875 3.086 11 4.986 4.125 1.899 9.3 4.274 11.5 5.278 2.2 1.004 7.982 3.662 12.849 5.905 4.867 2.244 8.994 4.08 9.17 4.08.176 0 5.547 2.475 11.937 5.5 6.389 3.025 11.779 5.5 11.978 5.5.2 0 4.571 1.973 9.714 4.384 14.578 6.835 23.001 10.723 27.352 12.624 2.2.961 6.559 2.928 9.686 4.37 3.127 1.442 5.951 2.622 6.276 2.622 1.742 0-2.893-5.97-6.83-8.798-2.512-1.803-5.143-3.839-5.849-4.523-.706-.685-2.858-2.333-4.783-3.664-1.925-1.33-3.725-2.695-4-3.032-.275-.338-10.802-8.459-23.394-18.048-12.592-9.589-29.242-22.27-37-28.18-7.758-5.909-14.783-11.322-15.61-12.029-.827-.707-11.852-9.124-24.5-18.705-12.648-9.582-23.221-17.714-23.496-18.071-.275-.358-1.512-1.184-2.75-1.835-1.781-.938-2.251-.917-2.253.1-.001.707-.491 5.335-1.088 10.285-.899 7.463-1.529 9.47-3.684 11.75-2.308 2.442-3.315 2.75-8.989 2.75-5.647 0-6.712-.322-9.157-2.767-1.867-1.867-2.961-4.224-3.365-7.25-.329-2.466-1.32-8.758-2.202-13.983-.881-5.225-2.06-12.875-2.618-17-.559-4.125-1.465-8.625-2.015-10s-5.585-5.934-11.189-10.13c-5.605-4.197-17.189-13.003-25.743-19.57-18.237-13.999-17.954-13.808-17.923-12.109M1517 924.586c-21.473 6.627-36.29 25.978-45.878 59.914-3.679 13.025-5.672 36.424-3.23 37.934.878.542 6.76-1.801 18.608-7.413 3.3-1.564 8.25-3.844 11-5.068 2.75-1.225 9.275-4.236 14.5-6.692a1119.8 1119.8 0 0118-8.24 1099.888 1099.888 0 0015-6.805c3.575-1.667 10.1-4.655 14.5-6.64 11.873-5.356 11.042-4.407 10.69-12.21-.811-17.974-9.665-32.99-23.634-40.085-11.943-6.066-20.637-7.447-29.556-4.695m-1053.5.342c-14.088 5.022-22.541 11.65-27.372 21.464-3.999 8.123-5.755 14.192-6.618 22.878l-.673 6.77 4.831 2.115c2.658 1.164 9.483 4.305 15.168 6.98 5.685 2.676 10.488 4.865 10.673 4.865.185 0 5.131 2.25 10.991 5 5.86 2.75 10.799 5 10.976 5 .176 0 4.754 2.078 10.172 4.619 10.704 5.018 19.577 9.098 25.852 11.887 2.2.978 6.222 2.839 8.937 4.136 2.716 1.297 5.303 2.358 5.75 2.358 1.379 0 .896-19.076-.684-27-6.536-32.78-21.389-58.728-38.503-67.262-11.819-5.894-20.505-7.016-29.5-3.81m864.499 336.172c-.001.22-.685 4.225-1.52 8.9-2.569 14.387-1.652 31.165 2.769 50.679 1.17 5.161 1.194 5.186 6.713 6.818 3.046.901 6.573 2.058 7.836 2.571 3.423 1.389 8.693 1.132 14.515-.707 15.077-4.764 25.688-8.71 25.688-9.554 0-.522-.675-1.625-1.5-2.45-.999-.999-1.5-3.498-1.5-7.485 0-5.413.295-6.254 3.091-8.808 1.701-1.553 4.288-3.44 5.75-4.194 1.463-.753 3.109-1.704 3.659-2.112.55-.408 4.6-3.368 9-6.577 8.577-6.257 15.78-13.688 20.773-21.431 1.697-2.633 1.697-2.753 0-2.812-.975-.034-12.798-.476-26.273-.981-40.149-1.507-69-2.283-69.001-1.857m-699.499.947c-5.5.395-16.075.774-23.5.842-7.425.067-17.181.41-21.679.76l-8.18.637 1.68 2.606c4.887 7.586 12.163 15.077 20.679 21.289 4.4 3.209 8.45 6.169 9 6.577.55.408 2.196 1.359 3.659 2.112 1.462.754 4.049 2.641 5.75 4.194 2.796 2.554 3.091 3.395 3.091 8.808 0 3.987-.501 6.486-1.5 7.485-.825.825-1.5 1.928-1.5 2.45 0 .844 10.611 4.79 25.688 9.554 5.822 1.839 11.092 2.096 14.515.707 1.263-.513 4.79-1.67 7.836-2.571 5.519-1.632 5.543-1.657 6.713-6.818 4.421-19.514 5.338-36.292 2.769-50.679-.835-4.675-1.519-8.612-1.52-8.75-.002-.514-33.882.107-43.501.797m675-110.047c-2.2 1.063-4.697 1.947-5.55 1.966-.852.019-1.977.411-2.5.873-.522.461-6.8 2.994-13.95 5.628-7.15 2.635-14.8 5.57-17 6.524-2.2.954-7.375 2.986-11.5 4.516-12.605 4.674-48.376 18.495-50.5 19.512-1.1.526-7.85 3.161-15 5.855-7.15 2.693-14.125 5.365-15.5 5.938-9.384 3.908-25.849 10.188-26.713 10.188-.573 0-1.66.75-2.415 1.666-1.253 1.522-1.026 1.605 2.628.954 2.2-.392 9.625-1.342 16.5-2.111 6.875-.769 18.35-2.087 25.5-2.928 21.968-2.583 39.39-4.567 53.5-6.092 31.093-3.361 35.195-4.038 36.719-6.063 6.204-8.238 19.682-27.194 23.412-32.926 9.938-15.274 10.059-15.503 8.132-15.466-.97.019-3.563.903-5.763 1.966m-607.825 6.75c10.528 16.361 15.627 23.737 22.731 32.88l7.094 9.13 8.5.689c4.675.378 10.525 1.096 13 1.594 2.475.499 9.225 1.353 15 1.899 9.873.933 20.156 2.081 50 5.58l26.5 3.108c7.7.903 15.513 1.693 17.361 1.756 3.229.109 3.268.068 1-1.065-1.298-.648-7.761-3.268-14.361-5.823-6.6-2.555-13.125-5.113-14.5-5.686-1.375-.573-8.35-3.245-15.5-5.938-7.15-2.694-13.9-5.323-15-5.843-2.865-1.355-33.152-13.131-62-24.108-7.15-2.721-13.9-5.386-15-5.923-3.115-1.521-28.611-11-29.586-11-.478 0 1.665 3.938 4.761 8.75" fill="#FFB200FF" stroke="#FFB200FF"/></svg>