<svg version="1.0" xmlns="http://www.w3.org/2000/svg" width="2000pt" height="1928pt" viewBox="0 0 2000 1928"><path d="M753.726 323.008c-10.422 2.368-18.249 5.339-30.226 11.474-13.086 6.702-21.795 12.53-33.923 22.698-22.851 19.158-61.426 46.525-80.077 56.81-3.3 1.82-6.225 3.579-6.5 3.91-.275.33-2.075 1.48-4 2.555a6113.361 6113.361 0 00-12 6.744c-11.523 6.492-48.032 24.962-55.726 28.192-6.094 2.559-13.428 5.786-22.117 9.734-2.389 1.085-6.889 2.89-10 4.012-3.111 1.121-7.174 2.721-9.029 3.556-1.854.834-4.554 1.887-6 2.339-1.445.452-7.128 2.454-12.628 4.447-5.5 1.994-13.6 4.698-18 6.009-4.4 1.312-11.825 3.564-16.5 5.006-10.101 3.116-27.376 7.605-38.5 10.005-4.4.949-10.7 2.332-14 3.073-3.3.74-10.05 2.055-15 2.92-4.95.865-11.025 1.985-13.5 2.489-2.475.504-6.975 1.182-10 1.508-3.025.325-8.425 1.004-12 1.507-3.575.504-9.65 1.143-13.5 1.422-35.478 2.563-42.598 2.789-71.615 2.269-28.397-.509-31.96-.394-34.997 1.123-3.674 1.836-4.401 3.644-3.466 8.627 1.25 6.66 11.397 14.995 25.578 21.008 2.475 1.05 6.3 2.678 8.5 3.617 18.723 7.996 66.62 16.894 75.362 14 15.176-5.023 26.844-7.021 41.138-7.044 10.292-.016 23.074 1.674 25.909 3.426.577.357 2.747.2 4.82-.349 2.074-.549 6.921-1.731 10.771-2.627 22.512-5.239 45.697-14.419 70-27.716 14.375-7.864 19.983-11.005 21-11.758.55-.408 3.925-2.312 7.5-4.232 8.917-4.788 12.027-6.579 23-13.245 8.563-5.203 13.552-8.613 34.301-23.45 7.339-5.249 28.509-18.773 28.326-18.096-.07.258-4.627 3.848-10.127 7.977-11.431 8.582-31.391 27.929-33.934 32.892-.941 1.837-1.442 4.041-1.114 4.897.911 2.373 15.639.96 29.048-2.786 6.05-1.691 12.575-3.448 14.5-3.906 5.672-1.35 20.53-6.438 34.895-11.95 12.604-4.836 17.541-6.162 11.353-3.048-4.264 2.145-26.224 16.758-31.248 20.792-5.819 4.673-18.23 16.951-20.351 20.134-.907 1.359-1.649 4.362-1.649 6.672 0 3.939.225 4.274 3.616 5.393 4.201 1.387 11.19.797 25.884-2.186 17.207-3.493 37.625-10.874 57.465-20.775 4.567-2.278 8.453-3.992 8.638-3.808.184.184-3.364 3.687-7.884 7.783-14.694 13.315-33.928 33.219-40.033 41.426-9.965 13.396-10.865 18.291-3.9 21.212 6.648 2.788 25.082.147 39.714-5.69 1.1-.438 4.925-1.735 8.5-2.88 3.575-1.146 11-4.018 16.5-6.382l10-4.299-6.655 7.031c-17.208 18.177-27.757 36.438-28.616 49.535-.374 5.691-.159 6.749 1.717 8.446 2.907 2.631 10.646 2.476 19.054-.381 8.424-2.862 24.87-10.899 32.5-15.881l6-3.918-3 3.962c-1.65 2.179-3.464 4.48-4.031 5.114-2.804 3.136-9.466 14.933-11.946 21.153-3.096 7.767-4.283 17.536-2.643 21.75.982 2.522 1.509 2.748 6.345 2.729 11.186-.045 27.562-8.688 42.275-22.311l7-6.482-2.728 7.157c-3.935 10.328-4.822 17.17-3.326 25.657.741 4.199 4.024 12 5.051 12 .252 0 3.397-1.107 6.991-2.459 9.32-3.508 14.595-7.393 26.512-19.522 10.68-10.871 17.384-15.214 29.5-19.11 6.447-2.073 22.073-1.771 28 .542 20.548 8.017 29.528 16.699 32.878 31.787.623 2.805 1.626 5.263 2.23 5.465 1.491.497 4.478-9.376 5.413-17.895 1.638-14.923-1.605-25.344-10.779-34.631-5.018-5.08-10.324-8.041-31.242-17.433-12.712-5.707-16.2-7.471-22-11.124-8.374-5.274-10.708-7.214-16.528-13.73-6.873-7.694-10.666-16.497-13.484-31.288-2.56-13.437-3.855-19.529-6.188-29.102a1324.01 1324.01 0 01-3.215-13.5c-.695-3.025-2.847-10.099-4.78-15.72-1.934-5.621-3.244-10.051-2.911-9.844.72.447 8.167 15.164 10.911 21.564 4.817 11.235 9.266 24.535 12.209 36.5 1.758 7.15 3.568 13.9 4.022 15 .454 1.1 1.33 3.655 1.948 5.678 1.264 4.137 7.395 14.017 11.084 17.86 5.86 6.106 10.024 8.653 24.432 14.95 1.1.481 6.5 2.508 12 4.504 22.285 8.09 35.056 16.309 41.187 26.508 4.753 7.906 6.315 14.265 6.302 25.654-.016 13.192-3.377 24.729-13.067 44.846-6.888 14.301-8.987 17.642-33.605 53.5-5.097 7.425-9.727 14.175-10.287 15-.56.825-4.142 6-7.959 11.5a4334.47 4334.47 0 00-12.077 17.5c-2.826 4.125-8.244 12-12.04 17.5a3938.92 3938.92 0 00-7.918 11.5c-.559.825-2.904 4.2-5.212 7.5-2.307 3.3-6.509 9.375-9.337 13.5a3535.258 3535.258 0 01-10.833 15.68c-3.129 4.499-5.325 8.405-4.88 8.681.446.275 3.053-1.606 5.795-4.181 2.742-2.574 8.331-7.605 12.419-11.18 4.088-3.575 8.152-7.175 9.031-8 .879-.825 4.707-4.2 8.507-7.5 8.576-7.449 15-13.101 24.553-21.606 4.082-3.633 8.996-7.899 10.921-9.48 1.925-1.581 4.175-3.558 5-4.394.825-.836 4.2-3.767 7.5-6.513s7.73-6.571 9.845-8.5c2.115-1.929 4.994-4.407 6.398-5.507 1.404-1.1 5.074-4.141 8.155-6.758 19.343-16.431 35.192-11.479 41.528 12.974 2.83 10.919 1.534 33.374-2.504 43.4-1.273 3.161-5.112 5.409-7.605 4.452-1.902-.73-2.962-.503-2.608.558.115.345.688 8.445 1.273 18 .586 9.556 1.278 20.074 1.539 23.374.261 3.3.928 12.975 1.483 21.5.554 8.525 1.215 17.3 1.467 19.5.253 2.2.74 10.75 1.083 19 .343 8.25.791 16.575.996 18.5.205 1.925.888 11.375 1.519 21 .63 9.625 1.256 18.85 1.391 20.5.134 1.65.574 9.075.977 16.5.403 7.425.912 14.625 1.132 16 .22 1.375.858 10.6 1.419 20.5s1.257 20.475 1.547 23.5c.289 3.025 1.181 16.197 1.982 29.271.8 13.073 1.663 24.773 1.918 26 .254 1.226.729 8.828 1.054 16.893.326 8.065.747 15.49.936 16.5.189 1.01.673 8.811 1.075 17.336.402 8.525.88 16.295 1.061 17.267.182.972.823 9.972 1.424 20 .602 10.028 1.3 20.933 1.551 24.233 1.986 26.056 7.411 109.265 8.966 137.5.317 5.775.992 15.9 1.498 22.5.507 6.6 1.182 16.725 1.5 22.5.318 5.775.796 12.75 1.061 15.5.265 2.75 1.147 15.8 1.961 29 .813 13.2 1.944 30.3 2.513 38 1.437 19.464 3.566 52.95 5.91 93 1.095 18.7 2.451 40.075 3.014 47.5.563 7.425 1.485 21.6 2.048 31.5.563 9.9 1.205 19.125 1.425 20.5.22 1.375.707 9.25 1.081 17.5s.835 16.35 1.025 18c.189 1.65.612 8.175.939 14.5.327 6.325 1.026 16.675 1.552 23 .526 6.325 1.431 22.525 2.01 36 .94 21.88 1.632 29.603 3.401 38 .289 1.375.797 3.85 1.128 5.5 1.122 5.591 8.551 31.989 9.494 33.736.516.955.938 2.457.938 3.337 0 3.017 14.308 44.491 15.241 44.18.937-.312 2.216-3.599 7.886-20.253 13.167-38.676 20.441-68.066 21.33-86.18.653-13.311 2.048-37.209 4.018-68.82.823-13.2 2.168-35.196 2.989-48.879.822-13.683 1.708-26.283 1.97-28 .262-1.717.754-9.196 1.093-16.621.339-7.425.802-15.75 1.029-18.5.812-9.845 2.479-37.348 3.455-57 .546-11 1.425-25.175 1.953-31.5.528-6.325 1.226-16 1.55-21.5.324-5.5.784-12.025 1.022-14.5.238-2.475.917-12.825 1.509-23 .592-10.175 1.247-19.85 1.454-21.5.208-1.65.644-8.625.97-15.5.326-6.875 1.005-17.45 1.508-23.5.504-6.05 1.172-15.5 1.485-21 .312-5.5.999-16.075 1.526-23.5.526-7.425 1.179-18.225 1.45-24 .509-10.818 2.774-45.827 4.563-70.5.558-7.7 1.696-24.125 2.529-36.5.832-12.375 2.18-32.4 2.996-44.5.816-12.1 2.619-40 4.007-62l3.945-62.5c.781-12.375 1.649-24.75 1.929-27.5s.783-9.5 1.117-15c.335-5.5.807-12.25 1.049-15 .416-4.734 1.149-15.97 3.407-52.25.539-8.662 1.43-21.6 1.979-28.75.549-7.15 1.247-17.5 1.552-23 .304-5.5 1.25-20.8 2.103-34 3.557-55.083 4.003-63.024 3.568-63.5-.251-.275-.657.063-.902.75-.677 1.894-4.748 1.496-6.694-.655-1.81-2-4.39-9.494-5.026-14.595-1.612-12.94-1.642-18.64-.146-27.309 3.615-20.952 14.032-30.433 28.629-26.06 5.624 1.685 18.638 12.28 62.484 50.869a1374.39 1374.39 0 0010.633 9.237c3.036 2.605 6.656 5.755 8.044 7l10.41 9.344c4.337 3.895 9.686 8.617 11.886 10.494 2.2 1.877 6.339 5.607 9.198 8.288 6.119 5.74 9.302 8.091 9.302 6.872 0-.483-2.47-4.446-5.489-8.807a1685.97 1685.97 0 01-6.497-9.428c-.554-.825-3.94-5.686-7.524-10.802s-8.638-12.541-11.232-16.5c-2.593-3.959-5.094-7.648-5.557-8.198-.463-.55-4.39-6.175-8.727-12.5a5226.387 5226.387 0 00-11.679-16.972 4870.734 4870.734 0 01-12.369-18 12053.41 12053.41 0 00-20.661-30.046c-10.576-15.328-24.265-37.144-24.265-38.671 0-.289-1.293-3.289-2.872-6.668-9.951-21.28-13.019-37.996-9.62-52.412 4.687-19.881 16.494-29.241 53.492-42.403 27.605-9.82 38.113-21.455 45.003-49.828 5.208-21.444 12.337-41.127 19.889-54.911l4.608-8.41-3.724 11.91c-2.049 6.551-4.421 15.061-5.272 18.911-.85 3.85-2.419 10.6-3.486 15-1.066 4.4-2.886 13.175-4.043 19.5-2.43 13.286-5.856 23.156-10.046 28.94-4.245 5.859-10.835 12.316-15.972 15.649-2.451 1.591-4.682 3.159-4.957 3.486-.523.62-20.586 10.392-27.5 13.393-20.112 8.731-28.287 14.989-33.235 25.441-4.51 9.527-4.302 26.173.479 38.341.81 2.063 1.842 3.75 2.294 3.75.451 0 1.346-2.532 1.988-5.626 3.025-14.57 11.338-23.022 29.974-30.475 7.333-2.932 9.667-3.399 17-3.399 4.675 0 10.75.614 13.5 1.364 9.246 2.521 19.287 8.154 24.794 13.908 11.801 12.329 16.445 16.532 21.987 19.899 5.026 3.053 14.846 7.329 16.832 7.329.352 0 1.677-2.362 2.943-5.25 1.831-4.174 2.293-6.992 2.254-13.75-.045-7.996-1.271-13.105-5.831-24.304-.404-.993 2.135.932 5.643 4.277s8.178 7.306 10.378 8.802c2.2 1.495 4.225 2.95 4.5 3.232 3.983 4.08 20.715 10.993 26.607 10.993 10 0 11.272-13.456 2.845-30.099-2.538-5.014-9.493-15.632-14.544-22.207-1.939-2.523-1.573-2.397 3.634 1.25 3.184 2.231 6.352 4.056 7.04 4.056.688 0 1.401.338 1.585.75.535 1.205 16.75 8.864 23.771 11.229 3.541 1.193 9.103 2.236 12.36 2.318 5.098.129 6.185-.175 7.812-2.185 2.401-2.965 2.394-7.275-.026-14.849-4.149-12.988-13.811-28.453-25.443-40.726-4.152-4.38-7.432-8.08-7.29-8.221.142-.142 4.463 1.554 9.602 3.77 21.981 9.476 43.106 15.345 55.381 15.385 8.411.028 8.948-.103 11.2-2.718 2.088-2.425 2.234-3.127 1.255-6-1.22-3.577-5.997-11.303-10.359-16.753-2.615-3.267-37.779-38.406-44.082-44.05-2.596-2.325-2.185-2.235 4.652 1.018 15.214 7.241 26.053 11.895 34.5 14.812 12.844 4.437 25.561 7.536 38.144 9.295 15.288 2.136 20.296-1.392 15.452-10.886-2.81-5.509-15.496-17.795-25.887-25.072-4.79-3.354-9.196-6.5-9.791-6.99-.595-.491-5.275-3.42-10.4-6.509-5.125-3.09-9.035-5.618-8.688-5.618.72 0 10.859 3.722 19.17 7.037 1.1.439 3.35 1.248 5 1.798s6.375 2.21 10.5 3.689c17.637 6.325 43.214 12.476 51.874 12.476 5.763 0 6.126-.139 6.126-2.35 0-5.058-17.049-23.259-32.5-34.697-3.3-2.443-6.225-4.67-6.5-4.95-.275-.28-2.443-1.857-4.817-3.506-5.875-4.079-3.599-3.362 3.526 1.111 11.338 7.117 39.045 25.981 42.791 29.134 3.809 3.205 28.583 17.996 49 29.255 8.25 4.549 17.475 9.687 20.5 11.417 15.267 8.733 40.33 19.189 56 23.361 19.221 5.118 21.84 5.441 30.5 3.77 16.484-3.182 37.628-1.611 54.988 4.085 7.179 2.355 8.901 2.552 16.997 1.941 9.222-.696 28.856-3.777 36.015-5.652 2.2-.576 6.475-1.656 9.5-2.399 18.017-4.43 35.486-11.766 46.183-19.394 3.823-2.727 9.817-11.499 9.817-14.369 0-.905-1.071-2.891-2.381-4.413l-2.381-2.768-44.869-.145c-24.678-.08-46.669-.455-48.869-.833-2.2-.377-8.95-1.102-15-1.609-11.651-.977-28.041-3.117-38-4.962-3.3-.611-8.475-1.536-11.5-2.054-3.025-.519-9.55-1.851-14.5-2.961-4.95-1.11-13.275-2.948-18.5-4.084-5.225-1.136-10.85-2.47-12.5-2.964-1.65-.494-5.7-1.635-9-2.534-3.3-.899-7.125-2.005-8.5-2.457-1.375-.452-7.225-2.256-13-4.008-5.775-1.753-12.975-3.989-16-4.969-8.43-2.731-42.748-15.834-49.5-18.899-3.3-1.498-9.6-4.27-14-6.16-18.635-8.005-56.746-27.919-78-40.756-18.167-10.973-54.689-35.211-57.5-38.161-.275-.289-3.2-2.548-6.5-5.02-3.3-2.472-6.225-4.737-6.5-5.032-.275-.295-1.85-1.571-3.5-2.834-1.65-1.263-4.594-3.766-6.541-5.563-5.323-4.908-22.63-17.554-27.752-20.278a699.025 699.025 0 01-8.607-4.666c-19.852-10.987-46.862-16.409-60.748-12.195-8.96 2.72-12.939 5.749-16.314 12.42-4.035 7.979-4.572 11.961-3.865 28.648.955 22.549.977 64.862.036 72-2.694 20.44-4.201 28.803-7.302 40.5-11.466 43.262-36.587 75.807-69.879 90.53-6.649 2.94-22.239 5.836-27.392 5.088-13.198-1.917-19.599-5.002-28.089-13.537-12.606-12.672-19.668-32.297-20.901-58.081l-.646-13.5-42.439-.261c-23.341-.144-42.751.081-43.132.5-.381.419-.987 5.936-1.347 12.261-2.272 39.884-17.567 65.587-42.488 71.401-14.116 3.293-29.798-.258-46.99-10.641-7.748-4.679-19.053-14.23-24.999-21.12-1.357-1.573-2.952-3.373-3.544-4-2.016-2.137-12.273-18.125-14.844-23.14-4.633-9.035-8.717-18.261-8.717-19.693 0-.774-.388-1.835-.862-2.357-.818-.902-2.29-5.732-4.098-13.45-9.443-40.302-10.888-66.257-6.386-114.682 1.209-13.001-3.089-26.891-10.28-33.22-7.978-7.023-23.557-8.973-40.648-5.09m252.79 224.501c1.687 3.295 5.262 10.941 7.943 16.991 2.682 6.05 6.638 14.825 8.792 19.5a3148.53 3148.53 0 015.277 11.5c.748 1.65 2.961 6.505 4.916 10.788 1.956 4.284 3.556 7.97 3.556 8.191 0 .221 1.717 4.142 3.815 8.712 2.098 4.57 4.416 9.884 5.151 11.809.735 1.925 2.618 6.344 4.185 9.82 1.567 3.476 2.849 6.501 2.849 6.722 0 .222 1.104 2.778 2.454 5.681 1.349 2.902 3.846 8.877 5.548 13.277 1.702 4.4 3.7 9.35 4.44 11 4.567 10.174 6.726 18.165 6.215 23-.422 4.002-6.693 21.754-11.657 33-.485 1.1-2.285 5.375-4 9.5-1.715 4.125-3.524 8.4-4.022 9.5-.497 1.1-4.354 9.875-8.57 19.5-4.217 9.625-8.959 20.324-10.537 23.775-1.579 3.451-2.871 6.554-2.871 6.895 0 .341-1.529 3.817-3.397 7.725a4227.812 4227.812 0 00-8.384 17.696c-2.743 5.826-6.838 13.522-9.1 17.104l-4.113 6.512-.004 474.073c-.003 473.932-.056 482.108-3.147 485.647-.454.521-1.586-.794-2.582-3-1.688-3.739-1.786-26.765-2.035-481.232l-.263-477.305-2.076-2.195c-1.142-1.207-3.25-4.445-4.686-7.195-3.952-7.575-14.273-29.766-20.231-43.5-2.853-6.575-5.194-11.802-10.524-23.5-.752-1.65-2.259-5.306-3.349-8.125-1.09-2.819-2.876-7.094-3.969-9.5-6.597-14.517-11.341-26.155-18.499-45.375-3.974-10.671-4.113-12.443-1.576-20.13 1.247-3.779 2.565-7.32 2.929-7.87.364-.55 1.471-3.25 2.461-6 .989-2.75 2.377-6.35 3.084-8 .707-1.65 2.963-7.05 5.015-12 2.051-4.95 4.738-11.26 5.97-14.023 1.233-2.762 3.828-8.837 5.768-13.5 1.94-4.662 5.323-12.302 7.518-16.977 2.195-4.675 5.447-11.875 7.227-16a893.888 893.888 0 015.967-13.5c1.502-3.3 3.75-8.25 4.996-11 17.838-39.379 17.742-39.266 23.516-27.991" fill="#FFB200FF" stroke="#FFB200FF"/><path d="M1945 681.229c-12.202 3.052-19.708 11.734-23.624 27.325-1.334 5.311-1.475 7.622-.654 10.7l1.048 3.925-3.427-.643c-1.885-.353-6.806-2.203-10.936-4.111-9.856-4.552-16.171-5.823-25.163-5.063-9.875.835-16.202 4.01-24.194 12.139-3.548 3.609-7.505 6.826-8.794 7.15-4.733 1.188-1.399 3.17 10.744 6.387l4.5 1.193-2.5 1.634c-9.91 6.48-16.741 17.655-17.687 28.936-1.156 13.789 2.502 23.982 12.272 34.199 6.704 7.011 12.393 14.177 12.405 15.628.006.62.685 1.687 1.51 2.372 1.293 1.073 1.5.663 1.5-2.974 0-4.443-2.599-14.861-4.111-16.476-1.364-1.458-1.055-4.55.455-4.55 3.475 0 10.267 9.057 12.461 16.616.657 2.264 1.195 6.899 1.195 10.3 0 10.33-4.164 16.022-11.75 16.062-2.337.012-4.25.469-4.25 1.016 0 1.302 7.578 6.784 11.872 8.589 4.372 1.837 14.449 1.819 18.029-.032 4.228-2.186 8.917-8.061 9.68-12.129.373-1.991.438-6.276.144-9.521-.295-3.246-.389-5.901-.211-5.901.178 0 3.15.724 6.603 1.608 4.357 1.117 9.205 1.491 15.845 1.224 8.632-.346 9.996-.674 13.951-3.358 2.719-1.844 5.555-5.058 7.466-8.461 2.764-4.921 3.083-6.364 3.101-14 .023-10.003-2.029-15.342-8.142-21.178-6.499-6.204-11.733-8.34-20.338-8.3-4.125.02-10.286.419-13.691.887-6.059.832-6.255.785-9.25-2.209l-3.059-3.059v5.346c0 4.237.516 5.96 2.488 8.304 3.153 3.746 8.276 6.196 12.959 6.196 4.057 0 8.553 3.557 8.553 6.766 0 2.472-3.011 5.582-7.006 7.237-2.667 1.104-4.335 1.12-9.33.089-9.882-2.042-15.478-6.051-19.222-13.772-2.653-5.471-2.637-18.4.029-23.787 2.685-5.426 8.794-11.309 14.38-13.848 6.635-3.017 19.529-2.916 27.128.211 17.511 7.207 33.406 26.122 38.444 45.748 4.91 19.128-1.461 52.836-12.92 68.356-16.243 22.001-49.092 38.95-110.503 57.016a7662.68 7662.68 0 00-12 3.542c-2.475.735-8.55 2.525-13.5 3.978-14.854 4.359-32.711 10.548-37.5 12.998-14.04 7.18-29.285 21.147-37.072 33.964-7.321 12.051-11.928 27.021-11.928 38.759 0 12.022 3.965 26.213 11.523 41.243 4.282 8.515 12.804 21.723 17.745 27.5 1.646 1.925 8.222 8.926 14.612 15.558 27.017 28.036 30.637 32.096 40.339 45.239 7.673 10.394 11.424 17.097 14.207 25.389 2.957 8.806 3.184 13.376 1.069 21.496-4.923 18.898-11.802 27.342-24.64 30.246-4.76 1.076-13.275-.514-19.855-3.707-9.285-4.506-24.662-18.084-33.712-29.768-8.215-10.606-19.331-30.509-26.726-47.854-7.393-17.338-11.181-22.445-24.559-33.118-15.631-12.469-19.22-16.982-21.58-27.135-1.068-4.597-1.033-6.135.228-9.836.822-2.412 2.13-4.913 2.906-5.557 1.176-.976.664-2.046-3.072-6.418-5.507-6.447-11.122-18.339-13.162-27.878-1.209-5.651-1.398-10.842-.897-24.672.77-21.274-.325-25.798-8.769-36.235-5.565-6.878-6.393-6.384-6.808 4.056-.31 7.829-.781 9.687-4.242 16.75-3.287 6.707-5.643 9.657-15.13 18.944-11.481 11.239-14.477 15.385-14.477 20.034 0 3.766-1.958 2.682-5.5-3.045-2.856-4.618-2.994-5.348-2.876-15.158.096-8.034.621-11.639 2.384-16.351 1.243-3.325 2.017-6.288 1.721-6.585-.468-.468-6.991 3.197-10.151 5.702-15.7 12.45-23.411 20.663-32.733 34.868-12.279 18.71-20.794 38.924-22.459 53.313-.367 3.178-.999 5.983-1.404 6.233-1.402.867-7.324-4.032-10.543-8.721-1.779-2.591-4.517-7.991-6.086-12-2.746-7.015-2.85-7.912-2.764-23.79.086-16.043.851-21.416 4.315-30.315 1.916-4.921 1.2-5.208-2.654-1.068-2.062 2.216-5.997 8.18-8.743 13.253-4.742 8.763-15.701 22.13-18.142 22.13-1.543 0-2.341-5.845-2.354-17.25-.006-5.362-.25-9.75-.543-9.75-.293 0-1.98.619-3.75 1.374-3.848 1.644-7.411 4.792-11.177 9.876-1.528 2.063-3.392 3.75-4.143 3.75-1.488 0-5.254-7.018-7.375-13.742-1.063-3.37-1.614-4.013-2.68-3.127-.739.612-1.343 1.718-1.343 2.457 0 2.03-5.977 8.415-7.854 8.39-2.792-.038-5.903-3.28-7.347-7.655l-1.379-4.177-4.72 4.523c-5.747 5.507-11.728 7.016-13.641 3.44-.627-1.17-1.038-3.832-.915-5.916.123-2.085-.111-4.331-.519-4.991-1.239-2.004-4.362-1.352-6.491 1.355-7.663 9.741-7.372 37.519.493 47.131 2.286 2.794 2.301 2.797 2.337.466.13-8.504 5.804-17.774 12.642-20.656 5.46-2.301 6.394-.742 6.394 10.671 0 5.555.553 11.951 1.23 14.215 1.185 3.967 8.551 12.616 10.744 12.616.622 0 1.035-3.448 1.048-8.75.025-10.068 2.263-16.512 6.388-18.391 4.769-2.173 9.75 3.509 8.248 9.409-.312 1.228-1.359 5.018-2.326 8.424-1.529 5.383-1.602 7.108-.558 13.198 1.344 7.836 5.793 17.11 8.209 17.11.405 0 .996-2.51 1.313-5.577.755-7.321 2.804-10.423 6.882-10.423 3.819 0 10.279 6.252 11.31 10.946.724 3.295 1.951 3.959 2.874 1.554 1.027-2.677 3.579-1.603 8.911 3.75 2.876 2.888 9.053 7.786 13.728 10.886 9.871 6.545 27.559 16.864 28.907 16.864.509 0 1.075.338 1.259.75.183.413 2.286 2.077 4.673 3.698 5.922 4.023 16.116 15.217 19.47 21.38 6.044 11.104 7.797 17.764 8.405 31.922.313 7.288.913 13.25 1.334 13.25 1.525 0 9.117-10.034 12.494-16.512 4.049-7.768 4.394-10.488 1.332-10.488-1.848 0-2.043-.409-1.498-3.134.588-2.942 3.889-6.866 5.776-6.866 1.455 0 .926-2.69-.811-4.128-2.75-2.275-5.338-9.01-4.247-11.05.524-.979 3.574-3.56 6.777-5.735 6.974-4.736 14.928-13.312 15.727-16.958 1.701-7.762 2.246-7.233 2.322 2.249l.079 9.879-6.595 6.371c-3.627 3.505-7.227 6.372-8 6.372-1.94 0-1.757 1.371.448 3.367 2.28 2.063 3.581 16.374 2.028 22.291-4.142 15.776-17.428 30.087-51.881 55.885-5.775 4.325-12.7 9.909-15.388 12.41-4.216 3.922-4.783 4.203-4.122 2.047 2.152-7.019 7.285-14.773 16.101-24.324 10.727-11.62 14.702-19.663 15.925-32.224.703-7.218-.669-20.333-2.766-26.448-2.699-7.868-8.835-15.222-17.48-20.949l-4.376-2.898-5.514 2.438c-3.032 1.342-10.071 3.161-15.641 4.043-9.348 1.48-10.902 1.477-20.183-.049-11.733-1.928-16.165-3.448-27.056-9.279-4.4-2.355-12.273-6.404-17.495-8.998-9.44-4.689-9.552-4.716-19.5-4.679-6.59.025-11.11.539-13.241 1.506l-3.237 1.469 3.487 1.261c2.617.946 3.486 1.839 3.486 3.579 0 2.592-2.157 3.516-8.261 3.538-6.745.025-23.071 3.049-30.739 5.695-20.665 7.13-33.407 18.018-39.002 33.323-2.312 6.326-3.818 19.996-2.203 19.996.588 0 1.333-.829 1.655-1.842.846-2.665 4.62-5.903 7.8-6.692 3.374-.838 3.415-.326.75 9.291-1.1 3.97-2.038 10.261-2.084 13.98-.09 7.177-.927 14.073-2.865 23.611-.654 3.216-.992 6.045-.751 6.285.241.241 3.262-2.3 6.715-5.647 6.699-6.494 11.332-9.451 13.505-8.617.737.283 1.618 2.678 1.958 5.323.593 4.607 1.641 9.764 3.52 17.308 1.327 5.331 7.263 24.302 8.135 26 2.682 5.223 9.127 21.982 10.961 28.5.886 3.15 1.399 9.81 1.387 18-.017 11.715-.24 13.356-2.262 16.604-1.318 2.117-3.909 4.354-6.28 5.423-3.985 1.797-4.063 1.793-6.167-.311-1.942-1.942-2.007-2.38-.734-4.924a576.602 576.602 0 001.763-3.542c.201-.412-.551-.75-1.671-.75s-3.295-.547-4.833-1.215c-3.252-1.413-24.164-15.424-29.488-19.757-2.172-1.768-2.341-6.544-.354-10.028 4.139-7.26 4.712-9.401 3.559-13.298-.766-2.592-2.365-4.657-5.031-6.5-3.035-2.099-3.919-3.371-3.961-5.702-.063-3.487-4.016-8.415-8.686-10.828-3.791-1.958-13.11-3.197-16.9-2.245-2.651.665-2.67.721-.718 2.088 1.104.773 2.556 2.732 3.228 4.354 1.669 4.03.209 6.418-5.184 8.478-4.366 1.667-7.762 5.711-7.762 9.242 0 .979.967 3.778 2.149 6.22 2.824 5.832 1.782 9.548-2.803 9.996-3.045.298-3.167.145-5.196-6.5-2.46-8.056-6.794-13.702-11.779-15.348-9.485-3.13-21.758 3.18-29.427 15.131-4.527 7.054-4.142 7.978 2.55 6.115 4.392-1.222 6.02-1.29 8.11-.338 2.283 1.041 2.53 1.6 1.949 4.413-1.803 8.723-1.789 10.803.087 12.878 2.79 3.085 8.082 5.422 15.61 6.892 3.713.726 6.75 1.617 6.75 1.98 0 1.189-3.445 3.677-5.936 4.286-1.597.391-4.632-.421-8.819-2.359-3.512-1.625-6.938-2.955-7.615-2.955-.676 0-1.658-.427-2.18-.949-.523-.522-2.75-1.232-4.95-1.578-3.571-.561-4.35-.284-7.264 2.582-1.796 1.765-3.499 4.388-3.786 5.828-.287 1.439-1.153 4.642-1.925 7.117-2.593 8.318-3.683 15.458-3.353 21.962l.328 6.461 2.5-2.475c1.375-1.361 5.2-4.575 8.5-7.142 12.589-9.795 22.293-12.428 26.427-7.171 1.14 1.449 2.073 3.249 2.073 4 0 2.614-3.807 5.139-11.129 7.38-9.738 2.981-14.196 5.306-16.284 8.492-1.604 2.449-1.612 3.09-.111 9.688 1.659 7.292 3.636 12.017 6.3 15.055 2.105 2.402 3.224 2.193 3.224-.602 0-3.531 4.05-8.914 8.259-10.978 5.001-2.453 8.634-1.519 13.172 3.385 2.007 2.17 4.25 3.945 4.984 3.945 6.104 0 10.585-2.865 14.468-9.251 4.993-8.21 9.863-8.741 22.18-2.418 8.576 4.403 23.123 13.596 28.275 17.868l2.838 2.353-2.753 2.753c-1.515 1.514-4.479 3.723-6.588 4.908-2.109 1.185-3.835 2.501-3.835 2.924 0 1.251 6.915 2.906 15.779 3.776 4.554.447 8.551 1.084 8.883 1.416.332.332-.581 3.106-2.029 6.165-2.713 5.73-3.286 8.506-1.755 8.506.482 0 1.459-.701 2.17-1.558 2.392-2.882 8.391-4.679 18.411-5.513 21.982-1.831 38.354-7.646 47.625-16.918l4.823-4.823 1.148 3.477c.631 1.913.967 5.021.747 6.906-.623 5.334 1.498 4.346 10.593-4.935 14.17-14.46 17.445-24.96 14.7-47.136-3.191-25.784-11.229-60.541-20.536-88.807-5.045-15.32-4.744-17.906 2.25-19.305 5.078-1.015 7.255.154 16.191 8.697 16.758 16.023 21.392 18.915 30.3 18.915 3.207 0 6.706-.468 7.775-1.04 1.608-.861 2.096-.645 2.824 1.25.484 1.259 2.809 4.474 5.166 7.143l4.286 4.853 1.815-3.538c3.796-7.4 4.528-4.217 1.341 5.832-1.996 6.291-2.736 20.192-1.572 29.5 1.144 9.144 3.033 14.885 7.238 22 2.538 4.295 2.62 4.865 1.797 12.5-1.677 15.561-1.118 17.276 3.016 9.255 2.633-5.108 6.521-9.415 10.264-11.37l2.75-1.436.012 4.275c.014 5.026 1.94 12.757 4.565 18.319 1.958 4.149 11.467 14.457 13.336 14.457 1.438 0 1.381-.92-.534-8.544-1.338-5.323-1.404-6.981-.379-9.456 1.232-2.975 2.371-3.497 6.79-3.111 2.173.189 2.259-.047 1.671-4.595-.34-2.637-.162-5.919.397-7.294.782-1.926 1.03-2.074 1.079-.645.116 3.403 5.172 12.102 9.111 15.678 4.693 4.26 11.187 6.527 31.791 11.1 12.538 2.783 21.85 7.141 24.805 11.608 1.861 2.813 2.241 5.308 2.877 18.878.9 19.204.126 29.882-3.108 42.881-2.993 12.026-5.067 17.764-10.376 28.708-4.788 9.868-14.075 24.989-15.667 25.509-.621.203-2.268-1.563-3.66-3.924-1.393-2.361-3.934-5.627-5.649-7.257-4.305-4.093-11.376-4.087-18.561.016-5.922 3.381-15.52 12.652-17.936 17.325l-1.715 3.315 3.326-.831c1.829-.456 5.8-.837 8.825-.846l5.5-.015.5 7.101c.724 10.275 2.954 11.991 12.043 9.268 6.914-2.072 11.365 1.118 9.549 6.842-1.422 4.481-10.682 6.967-19.592 5.261-10.251-1.963-15.896-2.258-18.957-.99-7.568 3.135-15.043 20.226-15.043 34.397 0 7.254 1.315 10.664 2.675 6.934 2.8-7.679 17.381-11.52 25.003-6.587 1.963 1.271 2.29 1.203 3.302-.689 2.132-3.983 8.966-8.037 13.548-8.037 4.822 0 6.325 1.318 7.125 6.247.438 2.7.057 3.957-1.799 5.937-2.911 3.106-9.256 7.104-13.689 8.626-3.705 1.272-7.362.112-12.328-3.913-3.255-2.637-6.362-2.086-10.327 1.833-9.707 9.591-9.588 28.028.263 41.02 2.998 3.954 4.227 4.117 4.227.562 0-4.137 3.951-9.196 7.743-9.916 4.192-.796 7.501.075 12.268 3.23 2.117 1.401 4.667 2.39 5.666 2.198.999-.193 3.843-3.096 6.32-6.453 2.477-3.356 5.853-6.98 7.503-8.052 3.736-2.429 11.58-5.572 12.245-4.907.272.272.185 2.15-.195 4.173-.696 3.712-7.708 11.666-15.359 17.425-3.813 2.869-6.191 6.832-6.191 10.314 0 5.852 11.778 20.408 21.502 26.575 5.57 3.533 9.148 4.139 7.976 1.351-3.623-8.621-.361-13.099 12.657-17.372 7.928-2.603 10.332-4.235 12.279-8.338 2.727-5.746 1.905-12.248-2.709-21.441-.663-1.321-1.205-5.435-1.205-9.142v-6.741l12.358-12.157 12.358-12.158 3.738 4.05c2.057 2.227 4.224 4.049 4.818 4.049.673 0 1.093-2.841 1.118-7.553.055-10.675.618-13.817 5.18-28.947 6.584-21.838 8.997-37.726 10.993-72.397.552-9.569 1.357-18.031 1.79-18.805.433-.774 3.456-3.183 6.717-5.353 5.415-3.604 6.039-3.8 7.18-2.255.688.931 1.282 3.069 1.32 4.751.039 1.683.415 3.94.836 5.016.632 1.615 1.3.831 3.831-4.5 4.336-9.133 4.375-9.289 5.294-21.231.835-10.85 2.385-17.726 3.995-17.726 1.785 0 5.86 4.702 6.543 7.551.389 1.622.948 3.369 1.242 3.883.782 1.366 2.034-2.391 2.143-6.434.052-1.925 1.001-6.2 2.109-9.5 3.986-11.877 5.23-19.281 4.035-24.023-1.802-7.159-1.384-16.996.914-21.501 3.353-6.572 10.096-6.654 15.723-.192l3.235 3.716.015-3.812c.018-4.596-2.609-13.184-5.158-16.86-2.3-3.317-9.89-8.003-15.735-9.713-2.424-.709-9.849-1.686-16.5-2.17-37.963-2.765-42.185-3.359-47.241-6.645-5.254-3.416-5.495-11.3-.566-18.522 2.948-4.319 4.665-9.778 3.076-9.778-.971 0-1.159-15.284-.231-18.75.352-1.313 1.38-2.25 2.468-2.25 2.077 0 2.742 1.971 3.141 9.316l.261 4.816 6.897-8.316c3.794-4.574 8.274-11.241 9.956-14.816 2.549-5.418 3.115-6.084 3.4-4 .638 4.66 4.366 12.74 7.063 15.308 2.275 2.166 2.946 2.362 4.405 1.285 1.793-1.324 7.779-12.604 7.779-14.659 0-.648 1.729-4.386 3.843-8.306 2.113-3.92 4.646-9.255 5.627-11.855l1.785-4.728 2.622 1.834c2.741 1.917 13.464 7.045 18.623 8.907 11.07 3.993 15.202 4.625 30 4.585 14.282-.038 15.451-.196 24.422-3.297 22.185-7.67 36.097-22.559 41.65-44.574 3.662-14.521 1.417-42.689-4.544-57-.459-1.1-2.107-5.125-3.664-8.945-3.08-7.558-10.92-19.87-18.183-28.555-2.53-3.025-15.26-16.3-28.288-29.5-29.339-29.726-33.013-33.998-37.847-44-4.529-9.373-6.046-15.861-6.046-25.868 0-14.553 4.899-22.995 16.721-28.816 5.668-2.79 7.671-3.258 13.708-3.205 9.093.08 14.614 1.939 33.467 11.269l15.397 7.62 10.326.34c15.445.509 26.774-2.82 38.239-11.235 4.897-3.596 10.142-9.549 10.142-11.514 0-.696-.912-.66-2.75.108-4.762 1.99-26.511 1.374-36.408-1.033-16.456-4.001-30.374-9.616-37.094-14.964-4.526-3.603-3.657-4.203 6.084-4.199 6.286.002 30.914 3.157 34.168 4.378.825.309 8.033 1.262 16.018 2.118 12.826 1.375 15.404 1.387 22.115.103 9.342-1.788 15.846-5.611 23.116-13.589 5.12-5.618 11.515-16.582 10.352-17.746-.303-.302-3.599.182-7.326 1.077-10.825 2.599-22.503 3.822-41.581 4.355-18.056.504-23.694-.257-23.694-3.198 0-2.053 2.175-3.252 8-4.41 13.55-2.694 15.968-3.268 23.991-5.695 49.327-14.923 79.761-40.554 92.496-77.896 5.573-16.339 6.939-37.325 3.58-55-2.948-15.518-3.745-17.979-10.018-30.98-5.933-12.293-12.625-21.717-23.095-32.52-13.923-14.367-17.92-21.14-18.685-31.666-.896-12.327.108-15.842 6.298-22.031l5.4-5.4-4.734.225c-2.603.124-6.308.619-8.233 1.101m-1903-.366c0 .625.369 1.137.82 1.137 1.538 0 6.906 5.492 8.795 9 1.46 2.711 1.876 5.53 1.844 12.5-.062 13.534-2.86 18.614-20.496 37.213C17.156 757.385 6.405 777.339 1.828 798.5c-1.719 7.947-1.729 39.984-.015 48 1.825 8.535 7.469 22.824 12.23 30.96 14.128 24.145 41.687 44.38 75.524 55.453 7.745 2.534 27.672 7.69 33.094 8.563 2.288.368 4.916 1.504 5.84 2.525 1.592 1.759 1.513 1.941-1.542 3.52-2.769 1.432-5.757 1.598-21.34 1.184-18.958-.504-29.216-1.573-41.409-4.317-4.01-.902-7.471-1.46-7.692-1.24-1.224 1.225 6.708 13.962 12.107 19.441 7.295 7.404 11.788 9.894 21.561 11.95 6.492 1.366 8.716 1.362 21.772-.037 7.998-.858 15.179-1.786 15.959-2.063 3.425-1.219 28.811-4.438 34.888-4.424 11.796.027 11.405 1.9-1.827 8.76-6.948 3.601-21.285 8.547-32.061 11.059-11.064 2.58-28.706 2.405-35.268-.349-4.748-1.992 3.428 7.894 12.044 14.563 2.58 1.998 12.12 5.931 17.951 7.402 8.42 2.124 23.498 2.039 29.323-.166 2.493-.943 9.933-4.444 16.533-7.779 22.525-11.381 32.385-12.686 45.621-6.038 10.996 5.523 15.89 15.098 15.289 29.908-.709 17.459-5.962 28.673-20.872 44.557-3.321 3.538-13.463 13.92-22.538 23.072-21.296 21.477-28.13 28.914-34.46 37.496-9.913 13.442-16.217 27.222-20.131 44-2.671 11.448-2.644 36.363.048 45.5 6.626 22.487 22.194 37.239 46.043 43.625 10.097 2.704 31.086 2.499 41.698-.408 8.238-2.256 20.984-7.786 25.718-11.158 3.718-2.647 3.8-2.629 4.599 1.009.371 1.688 2.874 7.425 5.564 12.75s4.897 10.27 4.906 10.99c.034 2.919 7.28 14.192 9.122 14.192 1.56 0 7.235-9.406 8.877-14.713l1.67-5.396 2.755 6.484c1.603 3.77 4.817 8.71 7.682 11.804 2.71 2.927 5.695 6.559 6.634 8.071.938 1.513 2.039 2.75 2.445 2.75.406 0 .872-3.037 1.034-6.75.262-5.984.534-6.784 2.398-7.05 1.989-.284 2.132.254 2.669 9.991.362 6.567.196 10.521-.459 10.925-1.226.758-.173 6.354 1.533 8.144 5.218 5.477 6.426 14.755 2.405 18.47-5.137 4.745-7.424 5.13-48.797 8.221-12.415.927-18.339 2.185-24.072 5.109-7.382 3.767-12.91 13.354-12.841 22.273.039 5.036.076 5.101 1.463 2.548 1.5-2.759 6.948-5.881 10.263-5.881 6.526 0 10.485 10.085 8.401 21.399-1.782 9.668-1.421 14.219 1.991 25.101 1.725 5.5 3.412 12.475 3.749 15.5.559 5.01.724 5.305 1.853 3.316.682-1.202 1.24-2.781 1.24-3.51 0-1.79 4.745-6.806 6.438-6.806 1.538 0 3.166 7.994 4.441 21.814.613 6.641 1.607 10.459 4.157 15.963 1.844 3.979 3.727 6.86 4.185 6.402.458-.458 1.109-3.173 1.448-6.035.339-2.861.977-5.425 1.417-5.697 1.231-.761 11.7 6.291 13.085 8.816.705 1.282 1.751 10.557 2.452 21.737 2.046 32.635 4.846 51.391 9.976 66.847 3.669 11.051 5.627 20.432 6.137 29.403.305 5.363.904 9.75 1.331 9.75.428 0 2.326-1.809 4.219-4.021 4.066-4.75 5.237-4.563 9.619 1.539 1.739 2.421 5.762 6.444 8.94 8.941 10.969 8.618 13.004 14.15 9.118 24.78-1.259 3.444-2.607 6.711-2.995 7.261-1.395 1.973-1.901 8.074-.996 12 1.203 5.218 5.404 8.899 12.714 11.139 7.948 2.436 12.87 5.649 14.113 9.213.571 1.638.914 3.129.763 3.313-.151.184-.553 1.798-.893 3.585-.475 2.493-.271 3.25.876 3.25 5.301 0 23.668-17.392 26.844-25.419 1.761-4.451 1.781-5.002.287-8.135-.882-1.848-4.98-6.132-9.108-9.521-5.283-4.335-8.256-7.664-10.037-11.239-3.322-6.665-3.283-7.91.219-7.044 6.432 1.591 12.765 6.056 16.886 11.906 4.993 7.087 7.088 8.247 11.008 6.093 1.571-.863 4.41-2.304 6.308-3.203 6.979-3.303 14.18.417 15.615 8.066.36 1.923.943 3.495 1.294 3.494.962-.003 6.684-9.01 8.258-12.998.828-2.098 1.365-7.106 1.341-12.5-.033-7.284-.46-9.799-2.241-13.192-2.197-4.186-7.79-9.308-10.163-9.308-.69 0-3.823 1.586-6.963 3.523l-5.708 3.524-4.362-1.539c-8.925-3.149-16.023-9.252-16.023-13.777 0-.804.933-2.647 2.073-4.096 4.25-5.403 15.279-1.944 19.87 6.233.642 1.143 1.161 1.118 3.163-.152 3.703-2.35 8.188-2.923 13.135-1.677 4.993 1.257 11.759 6.238 11.759 8.656 0 1.264.276 1.32 1.5.305 2.007-1.666 1.958-10.034-.107-18.169-2.357-9.289-6.157-16.832-10.621-21.081-3.57-3.398-4.454-3.75-9.422-3.75-3.015 0-6.378.48-7.473 1.066-1.096.586-5.454 1.14-9.685 1.231-11.993.257-17.864-4.056-14.494-10.647 1.309-2.561 1.83-2.791 5.13-2.261 12.371 1.988 11.69 2.038 14.113-1.027 1.922-2.432 2.172-3.633 1.666-7.994-.758-6.517.506-7.767 7.114-7.038 2.628.29 6.305.844 8.169 1.233l3.391.705-3.031-4.384c-8.915-12.896-23.855-21.886-31.526-18.969-3.617 1.375-8.599 6.542-10.352 10.736-.769 1.842-2.034 3.349-2.811 3.349-2.42 0-15.244-22.174-20.603-35.627-5.991-15.037-8.168-25.659-8.711-42.495-.277-8.592-.18-20.369.216-26.172.93-13.65 1.796-14.77 16.037-20.75 1.994-.837 6.177-1.835 18.5-4.413 9.411-1.969 18.956-5.443 23.152-8.427 3.777-2.685 8.352-9.29 9.441-13.632 1.126-4.483 2.407-2.601 2.407 3.535 0 5.863.062 6.003 2.413 5.413 3.132-.786 6.6 2.558 6.552 6.318-.019 1.513-.639 5.563-1.376 9-1.688 7.866-.668 8.102 6.067 1.403 7.35-7.312 10.127-13.59 11.21-25.342l.634-6.886 4 2.613c3.663 2.393 8.942 9.028 11.107 13.962 1.244 2.835 1.735-10.802.576-16-.781-3.504-.524-4.659 2.071-9.312 5.83-10.45 6.917-14.713 7.44-29.188.313-8.637.068-15.121-.678-18-.642-2.475-1.696-7.2-2.342-10.5l-1.174-6 2.793 4.661 2.793 4.661 4.329-4.661c2.38-2.563 4.641-5.673 5.024-6.91.566-1.831 1.043-2.064 2.562-1.25 2.789 1.492 12.569 1.206 16.619-.487 4.313-1.802 9.889-6.058 17.88-13.648 13.479-12.803 14.871-13.642 20.691-12.478 4.016.803 5.809 2.333 5.809 4.955 0 1.154-2.434 9.762-5.408 19.128-6.417 20.203-7.539 24.265-11.057 40.029-1.474 6.6-3.096 13.8-3.604 16-4.99 21.568-6.752 45.654-3.999 54.676 1.688 5.533 8.773 15.562 15.947 22.574 7.423 7.254 9.256 7.856 8.43 2.767-.577-3.558 1.203-9.517 2.843-9.517.5 0 2.258 1.536 3.906 3.413 8.205 9.345 25.404 15.591 48.203 17.506 8.735.734 11.593 1.391 15.178 3.493 2.43 1.423 4.675 2.588 4.989 2.588 1.211 0 .485-3.691-1.428-7.261-3.511-6.551-2.563-7.739 6.178-7.739 5.211 0 15.389-2.491 16.318-3.994.293-.474-.37-1.149-1.474-1.499-1.104-.35-4.3-2.45-7.104-4.666l-5.097-4.029 8.84-6.516c9.435-6.955 20.967-13.691 28.328-16.545 8.526-3.306 12.453-1.999 17.266 5.749 3.575 5.754 5.816 7.418 10.818 8.038 4.7.582 5.77.151 7.533-3.038.608-1.1 2.531-2.835 4.275-3.857 6.307-3.694 14.419.757 17.338 9.514l1.392 4.177 2.273-2.417c3.042-3.236 4.86-7.781 6.208-15.521.965-5.543.892-6.772-.531-8.944-1.795-2.739-8.919-6.358-17.514-8.898-2.998-.886-6.261-2.343-7.25-3.237-4.149-3.756-.363-10.317 5.953-10.317 5.994 0 14.464 4.787 26.117 14.762 2.403 2.056 4.765 3.888 5.25 4.071 1.992.753-.604-22.138-3.024-26.658-.601-1.124-1.093-3.357-1.093-4.961 0-3.579-3.605-9.135-7.257-11.185-2.502-1.404-3.236-1.336-9.478.877-3.721 1.319-8.918 3.51-11.549 4.869-4.465 2.306-5.032 2.376-8.494 1.058-6.134-2.334-5.306-4.254 2.491-5.776 6.909-1.348 11.621-3.248 14.03-5.657 2.336-2.336 3.52-7.041 2.33-9.263-.59-1.103-1.073-3.59-1.073-5.526 0-3.182.312-3.578 3.25-4.12 1.917-.354 5.057.042 7.656.965 2.423.861 4.578 1.394 4.787 1.184.599-.599-1.905-5.788-4.686-9.712-7.294-10.291-18.858-15.783-27.338-12.984-4.645 1.533-9.861 7.437-11.536 13.056-2.515 8.439-2.89 9-6.005 9-4.66 0-5.557-5.198-2.055-11.915 1.976-3.792 1.995-4.139.414-7.472-1.737-3.66-4.288-5.795-8.487-7.104-1.375-.428-2.831-1.28-3.235-1.894-1.483-2.251-.7-6.206 1.753-8.852l2.519-2.716-2.602-.653c-9.36-2.349-24.435 4.882-24.435 11.722 0 2.665-1.248 4.495-4.849 7.112-5.539 4.024-6.603 10.62-2.673 16.56 1.363 2.06 2.771 5.205 3.128 6.99.563 2.816.193 3.674-2.796 6.484-5.523 5.191-25.921 18.479-30.572 19.916-3.169.979-4.095 1.702-3.609 2.819 2.88 6.622-.041 10.111-6.281 7.504-6.788-2.836-8.573-7.82-8.424-23.525.123-12.895 1.332-17.807 9.201-37.374 3.34-8.306 7.122-18.565 8.405-22.797 2.566-8.469 6.461-26.041 6.485-29.26.009-1.125.417-2.679.908-3.455 1.458-2.303 6.577.474 14.296 7.756 3.755 3.542 7.024 6.244 7.264 6.004.24-.24-.246-3.342-1.081-6.893-.834-3.551-1.916-12.082-2.405-18.957-.5-7.03-1.783-15.546-2.932-19.46-1.124-3.829-1.672-7.333-1.217-7.788 1.733-1.733 7.008 1.604 10.666 6.748 1.289 1.813 1.423 1.392 1.43-4.5.023-21.511-15.817-39.15-42.944-47.821-7.421-2.372-23.105-5.179-28.935-5.179-8.955 0-11.839-3.935-5.185-7.077l3.354-1.584-3.367-1.419c-2.085-.879-6.795-1.412-12.367-1.399-9.634.023-14.576 1.394-24 6.656-28.539 15.937-41.697 19.422-61.5 16.291-5.775-.913-12.716-2.714-15.425-4.002l-4.924-2.341-5.228 3.47c-6.725 4.463-13.036 11.335-15.326 16.685-.994 2.321-2.617 8.842-3.608 14.491-1.572 8.961-1.64 11.193-.531 17.5 2.185 12.424 5.277 18.33 15.545 29.693 7.273 8.049 12.175 15.06 15.006 21.461 1.37 3.098 2.491 5.844 2.491 6.104 0 .259-1.766-1.295-3.924-3.453-2.159-2.159-8.346-7.219-13.75-11.245-5.404-4.027-10.051-7.555-10.326-7.84-.275-.286-3.875-3.094-8-6.241-18.511-14.122-31.634-29.559-36.058-42.417-1.62-4.71-1.769-6.758-1.026-14.087.727-7.178 1.24-8.855 3.149-10.295l2.281-1.721-2.923-1.546c-4.049-2.142-12.346-10.351-13.483-13.341-.517-1.36-.879-6.831-.804-12.158.075-5.327.325-8.56.555-7.185 1.736 10.369 8.483 19.584 19.009 25.96 2.86 1.733 5.467 3.992 5.794 5.022.729 2.295-1.504 7.731-4.43 10.784l-2.172 2.266 3.554 3.352c4.11 3.876 4.964 8.616 1.554 8.616-1.1 0-2 .615-2 1.366 0 2.974 7.416 15.947 11.911 20.836l4.761 5.177.652-11.939c1.103-20.187 5.823-32.185 18.176-46.204 4.239-4.81 14.212-11.924 26.837-19.142 16.279-9.308 26.738-16.468 32.229-22.063 5.279-5.38 6.482-5.883 8.434-3.531 1.888 2.275 2.716 1.829 3.403-1.836.773-4.117 5.239-9.285 8.796-10.178 5.735-1.439 7.726.977 9.33 11.329.637 4.112.756 4.237 2.505 2.654 1.01-.914 2.862-3.756 4.117-6.315 1.906-3.89 2.286-6.312 2.315-14.75.023-6.905-.381-10.596-1.278-11.677-1.638-1.974-1.799-8.718-.275-11.565.63-1.176 2.282-2.424 3.671-2.772 5.935-1.49 11.023 8.884 10.174 20.744-.27 3.776-.201 6.866.153 6.866.759 0 5.147-2.964 6.602-4.459 4.744-4.875 6.912-13.253 6.235-24.096-.642-10.288.306-11.39 7.055-8.204 6.038 2.85 9.134 7.342 10.481 15.21.617 3.602 1.368 6.543 1.669 6.537 1.366-.031 5.089-7.361 6.496-12.79 1.954-7.542 1.982-21.206.056-27.554-3.997-13.174-11.44-16.181-11.263-4.551.089 5.847-.614 6.907-4.579 6.907-3.599 0-6.643-1.794-11.346-6.688-1.75-1.822-3.388-3.312-3.639-3.312-.25 0-.742 1.529-1.093 3.399-.776 4.138-4.115 8.601-6.435 8.601-2.873 0-6.063-2.907-8.581-7.817-1.612-3.143-2.582-4.19-2.951-3.183l-2.64 7.209c-2.625 7.167-4.929 10.131-7.199 9.26-.936-.36-1.947-1.423-2.245-2.363-.859-2.706-7.687-8.864-11.666-10.521l-3.632-1.513-.618 3.089c-.34 1.699-.625 7.42-.633 12.714-.009 5.294-.367 10.178-.796 10.853-.7 1.102-4.902-2.518-12.475-10.749-1.335-1.452-6.42-10.175-9.561-16.407-2.535-5.026-9.785-12.937-9.515-10.382.077.721 1.337 5.36 2.802 10.31 2.325 7.855 2.673 10.844 2.734 23.5.075 15.249-1.105 21.064-6.369 31.382-2.037 3.994-10.971 13.618-12.641 13.618-1.102 0-2.131-3.429-2.15-7.169-.016-3.112-2.374-12.585-4.562-18.331-.838-2.2-1.8-4.844-2.138-5.876-1.219-3.729-10.115-20.29-14.838-27.624-9.597-14.904-21.928-27.818-34.746-36.39-4.526-3.027-8.383-5.068-8.571-4.535-.187.533.6 4.067 1.75 7.852 4.113 13.541 2.495 27.782-3.803 33.478-2.087 1.888-2.106 1.883-2.106-.554 0-4.129-5.1-11.229-13.577-18.902-14.698-13.304-20.077-22.899-21.132-37.699-.323-4.537-.933-8.25-1.355-8.25-1.463 0-9.11 9.49-11.267 13.983-2.009 4.183-2.175 6.108-2.25 26.017-.044 11.825-.418 23.075-.83 25-2.138 9.981-7.7 21.595-13.485 28.153-2.257 2.56-4.104 4.941-4.104 5.291 0 .35.984 1.968 2.187 3.594 3.262 4.413 2.985 14.043-.592 20.594-3.672 6.724-6.605 9.806-17.72 18.623-14.507 11.508-20.389 19.374-26.352 35.245-2.674 7.118-9.822 21.366-13.979 27.864-1.949 3.047-3.544 5.792-3.544 6.099 0 .307-3.101 4.717-6.892 9.798-15.518 20.803-30.484 32.742-45.435 36.244-5.506 1.29-6.796 1.272-11.936-.165-10.413-2.911-18.479-12.736-22.153-26.984-3.908-15.158-1.637-24.684 10.305-43.221 8.41-13.055 15.219-20.994 39.564-46.135 21.159-21.85 27.752-30.247 36.902-47 11.98-21.933 14.846-48.869 7.201-67.673-2.385-5.866-6.846-14.479-8.684-16.767-10.982-13.669-16.367-18.873-26.742-25.841-9.371-6.294-19.171-10.305-39.63-16.218a2270.71 2270.71 0 01-17.5-5.149 2111.28 2111.28 0 00-13-3.854c-17.286-5.021-39.528-12.446-49.5-16.524-32.923-13.462-51.739-26.201-64.255-43.504-3.582-4.953-8.425-17.95-10.794-28.97-2.372-11.034-2.423-31.052-.098-38.647 8.431-27.537 33.965-48.873 55.695-46.537 20.206 2.173 32.085 22.628 23.422 40.334-3.514 7.184-8.192 10.821-16.547 12.869-7.515 1.842-11.466 1.415-15.376-1.661C75.324 794.75 79.068 787 86.275 787c3.952 0 10.731-3.48 13.158-6.753 1.18-1.593 2.091-4.775 2.339-8.177l.407-5.57-3.14 3.25c-3.526 3.649-4.132 3.728-15.754 2.047-9.196-1.329-18.017-.208-20.88 2.655-.851.851-1.93 1.548-2.397 1.548-1.804 0-9.09 8.277-11.245 12.775-4.48 9.353-2.156 23.925 5.041 31.601 4.603 4.91 9.604 6.58 19.696 6.578 4.95-.001 10.8-.472 13-1.047 9.225-2.412 8.524-2.577 7.337 1.72-1.284 4.653-.523 12.146 1.665 16.376.884 1.711 3.697 4.435 6.249 6.054 8.486 5.382 21.178 3.362 29.735-4.732l2.987-2.825-5.385-.5c-4.774-.443-5.737-.936-8.486-4.343-2.952-3.657-3.099-4.263-3.032-12.5.059-7.272.505-9.566 2.791-14.339 2.753-5.751 8.489-11.818 11.174-11.818 1.617 0 1.959 2.064.588 3.55-1.992 2.157-4.217 11.575-3.928 16.623l.305 5.327 3.301-5.71c1.815-3.141 6.383-8.938 10.152-12.882 3.768-3.944 8.133-9.699 9.699-12.789 2.663-5.254 2.848-6.404 2.848-17.684 0-10.903-.241-12.535-2.5-16.939-2.863-5.581-10.567-14.391-14.36-16.421-2.764-1.479-2.634-3.075.251-3.075.975 0 4.773-.942 8.441-2.093 6.505-2.042 8.717-3.907 4.634-3.907-1.169 0-5.105-2.992-9.25-7.03-3.974-3.871-9.687-8.246-12.716-9.737-4.965-2.444-6.522-2.701-16-2.633-10.249.074-10.751.187-21 4.721-5.775 2.556-11.175 4.653-12 4.661-1.206.013-1.519-1.604-1.598-8.233-.228-19.279-12.279-33.086-30.13-34.519-4.313-.347-6.272-.149-6.272.633" fill="#FFB200FF" stroke="#FFB200FF"/><path d="M1624.5 569.595c-9.701 2.382-29.059 11.676-30.31 14.551-.17.391-3.667 1.503-7.771 2.471l-7.461 1.759 4.47 2.782c3.882 2.416 6.572 5.394 6.572 7.276 0 .311-1.569.566-3.486.566-1.917 0-5.517.543-8 1.207-3.986 1.067-4.514 1.534-4.514 4 0 2.273-.442 2.793-2.374 2.793-4.364 0-16.061 5.358-19.626 8.991-2.068 2.106-5.672 3.711-10 4.453-1.925.33-4.547 1.405-5.827 2.39l-2.327 1.791 2.144 3.634c2.939 4.981 2.461 10.107-.987 10.593-2.479.349-2.483.336-.592-1.754 1.595-1.763 1.719-2.518.756-4.63-.632-1.388-1.864-2.798-2.738-3.134-1.66-.637-14.084 5.136-18.429 8.563-12.362 9.751-14.337 10.803-21.491 11.445-8.646.776-11.882 2.866-12.316 7.955-.289 3.379 1.326 7.152 4.473 10.453 1.797 1.886 3.308 1.529 6.358-1.5l2.769-2.75-2.672 3.5c-2.611 3.419-4.35 6.666-5.52 10.306-.32.993.06 3.339.843 5.214 1.411 3.376 2.024 3.765 14.149 8.97 4.412 1.894 8.169 10.303 5.374 12.03-1.416.876-32.407.878-43.467.004-18.515-1.463-29.353-6.25-35.654-15.748-2.176-3.28-2.838-5.455-2.842-9.335-.005-5.676-1.717-8.836-4.498-8.3-2.765.533-3.54 5.142-2.397 14.254 1.154 9.203 3.316 14.763 8.017 20.612 3.226 4.015 12.571 10.521 18.374 12.793 3.571 1.398 18.577 3.177 27 3.2l6 .017 7 6.931c3.85 3.811 8.733 7.722 10.852 8.689 3.424 1.563 4.138 1.598 6.42.311 3.707-2.09 3.704-3.395-.009-4.487-3.901-1.149-4.63-3.883-2.257-8.472 2.251-4.353 7.261-6.21 17.166-6.363 10.023-.155 13.635 1.811 14.136 7.692l.309 3.619-3.309-1.105c-1.819-.608-3.735-1.494-4.258-1.968-.522-.475-2.037-.864-3.367-.864-2.622 0-2.624-.06.233 7.713 1.851 5.036 1.275 9.15-2.116 15.1-2.452 4.302-7.373 8.176-10.395 8.183-.877.002-2.41-.896-3.405-1.996-.995-1.1-2.415-2-3.155-2-2.227 0-1.517 3.49 1.237 6.076 2.337 2.194 3.335 2.403 10.5 2.202l7.918-.221v3.971c0 2.185.305 3.972.677 3.972.373 0 1.835-1.353 3.25-3.007 1.436-1.678 3.992-3.277 5.783-3.617 2.692-.512 3.713-.107 6.327 2.507 1.714 1.714 3.307 3.117 3.54 3.117.233 0 .423-1.147.423-2.55 0-3.784 2.254-7.477 7.663-12.553 2.66-2.496 5.617-6.195 6.571-8.218 1.305-2.77 2.341-3.679 4.191-3.679 2.921 0 3.714-1.093 4.691-6.463 1.573-8.645 3.134-13.213 7.171-20.975 3.986-7.665 10.93-16.054 15.166-18.322 1.622-.869 1.737-1.306.681-2.579-.7-.843-2.704-1.838-4.453-2.212-1.75-.374-3.734-1.126-4.411-1.67-.865-.697-2.201-.173-4.5 1.763-2.628 2.213-3.331 2.445-3.579 1.181-.869-4.427 8.68-16.518 15.195-19.24 4.449-1.859 4.538-2.954.413-5.087-3.651-1.888-4.97-3.074-6.528-5.868-1.001-1.796-.646-2.088 3.984-3.273 7.019-1.796 11.087-4.547 14.627-9.89 5.97-9.014 6.394-20.384 1.015-27.223-2.199-2.795-.967-4.275 1.71-2.053 5.81 4.822 7.862 20.064 3.895 28.94-3.433 7.682-8.788 13.187-14.959 15.378-2.429.862-3.244 1.473-2.043 1.529 2.186.103 8.261 2.107 10.25 3.381 2.671 1.712.987 3.287-5.268 4.928-3.584.94-7.072 2.163-7.75 2.717-.677.554-2.694 2.18-4.482 3.612-3.974 3.184-4.142 5.196-.5 5.978 1.513.325 4.143 1.346 5.845 2.269 3.446 1.87 9.865 7.096 9.281 7.557-.207.163-2.401 1.082-4.876 2.041-7.415 2.874-15.008 12.379-19.043 23.836-1.016 2.885-2.554 12.178-3.417 20.652-1.251 12.274-2.019 16.137-3.773 19-5.406 8.819-15.391 13.381-36.267 16.567-16.336 2.494-25.547 4.566-29.795 6.703-8.339 4.196-15.705 13.599-15.705 20.048v2.594l5.25-1.398c8.78-2.337 17.245-1.369 25.4 2.904l2.793 1.463-3.844 1.606c-2.114.883-4.351 1.612-4.971 1.619-2.784.031-17.009 8.245-24.016 13.868-2.227 1.787-5.057 3.119-6.627 3.119-3.088 0-16.43 2.718-19.485 3.969-1.1.451-4.025 1.55-6.5 2.442-2.475.892-5.616 2.482-6.98 3.533l-2.48 1.911 4.786 1.205c4.92 1.239 10.674 5.86 10.674 8.572 0 .842-2.476 2.559-5.75 3.988-11.938 5.212-14.574 6.786-20.388 12.168-3.285 3.042-8.246 8.914-11.024 13.049-2.778 4.136-5.744 8.227-6.591 9.091-1.395 1.425-1.151 1.542 2.612 1.254 6.905-.529 6.722 3.858-.46 11.001-1.835 1.824-3.349 3.767-3.365 4.317-.015.55 2.783 1.139 6.219 1.309 7.163.354 15.796 2.562 20.442 5.226l3.194 1.832 3.659-6.683c5.844-10.674 13.962-19.737 23.676-26.429 2.599-1.79 4.736-3.592 4.75-4.005.014-.412-2.25-.75-5.031-.75-9.518 0-20.946-4.283-20.941-7.849.002-.97 2.167-2.799 5.25-4.434 2.887-1.531 9.523-6.833 14.748-11.783 11.782-11.161 14.049-12.955 21.273-16.834 7.206-3.87 8.149-3.933 3.127-.207-5.368 3.982-8.898 7.453-15.885 15.615-7.406 8.651-11.163 12.22-14.954 14.202l-2.938 1.536 2.938 1.611c2.326 1.274 6.049 1.613 17.855 1.626 11.384.013 15.02.327 15.353 1.325.666 1.996-2.408 4.824-10.713 9.855-4.156 2.518-7.781 4.866-8.056 5.217-.275.351-2.3 1.811-4.5 3.244-5.291 3.447-13.969 12.094-17.305 17.245-1.472 2.272-2.956 4.356-3.299 4.631-2.344 1.883-10.57 21.659-9.467 22.762.272.272 2.65-.857 5.283-2.51 4.609-2.893 9.271-4.772 17.788-7.172 2.2-.62 11.65-2.014 21-3.097 9.35-1.084 18.805-2.401 21.012-2.928 10.299-2.459 21.873-8.753 29.525-16.055 6.847-6.535 13.232-12 14.018-12 2.072 0 .756 5.445-2.495 10.331-1.892 2.843-7.732 9.366-12.977 14.496-21.326 20.858-27.746 30.398-31.318 46.54-2.624 11.857-1.455 32.981 2.58 46.633.569 1.925 1.535 5.525 2.147 8a654.573 654.573 0 002.133 8.359l1.021 3.86 4.177-8.317c5.16-10.273 13.49-19.457 21.536-23.746 5.843-3.115 13.141-4.275 13.141-2.09 0 1.649-2.032 5.06-4.692 7.877-3.306 3.5-8.795 15.222-10.719 22.888-3.317 13.216-1.302 29.527 5.555 44.962 1.934 4.354 3.856 4.837 3.856.969 0-2.265.245-3.116 5.103-17.762 4.359-13.141 12.577-28.2 21.149-38.756 3.711-4.57 18.965-19.602 23.546-23.204 6.066-4.769 17.663-11.867 20.59-12.601 2.036-.511 2.742-.088 4.04 2.421 2.247 4.346 2.02 16.152-.453 23.545-2.372 7.091-2.346 6.595-.343 6.595 4.954 0 17.545-13.465 23.357-24.979 3.55-7.032 5.47-17.353 4.664-25.067-.747-7.146-.096-7.499 8.501-4.606 11.26 3.79 16.956 10.053 19.88 21.861.585 2.36 1.454 14.191 1.931 26.291.929 23.533 2.141 30.649 6.893 40.451 3.561 7.346 8.964 12.497 15.324 14.609 4.516 1.501 5.843 1.557 10.253.437 4.541-1.153 15.565-7.171 15.565-8.497 0-.289-2.362-1.584-5.25-2.878-6.692-2.998-9.261-5.842-11.926-13.204-4.037-11.153-3.443-28.339 1.394-40.291 3.234-7.991 4.158-10.07 6.503-14.627 1.415-2.75 6.07-10.4 10.346-17 14.733-22.744 18.187-34.425 14.438-48.82-2.083-7.997-4.951-13.216-9.915-18.043-4.644-4.515-6.992-8.178-6.134-9.566.308-.499 2.771-.303 5.609.446 9.54 2.517 13.566 6.51 19.848 19.688 4.685 9.828 8.93 15.795 11.234 15.795.638 0 .762-.703.309-1.75-.417-.962-1.092-9.175-1.5-18.25-.803-17.847-2.126-26.436-4.925-31.968-.983-1.943-2.112-5.039-2.51-6.882-.685-3.172-.599-3.311 1.628-2.635 7.369 2.24 10.922 10.085 13.858 30.599 1.636 11.428 6.417 19.935 13.193 23.475 4.115 2.15 14.613 1.822 18.55-.578 4.493-2.739 4.459-6.011-.061-6.011-1.951 0-4.211-.838-5.5-2.039-1.897-1.767-2.189-3.099-2.189-9.979 0-10.004 3.908-22.375 12.997-41.137 7.229-14.924 7.831-25.432 2.498-43.657-1.14-3.895-1.104-4.24.372-3.566.898.41 3.883.907 6.633 1.103 3.857.276 5.8-.146 8.5-1.848l3.5-2.205-4.5-1.215c-13.195-3.564-16.233-7.315-25.074-30.957-6.792-18.164-11.814-24.89-22.136-29.649-5.057-2.332-5.395-3.851-.856-3.851 5.738 0 9.083 1.338 14.259 5.704l7.475 6.309c5.996 5.065 11.739 7.304 19.832 7.732 6.992.371 8.557.125 12.421-1.95 5.054-2.713 9.63-7.95 10.668-12.209.63-2.584.495-2.83-1.189-2.165-6.78 2.674-11.843 1.885-17.01-2.651-3.304-2.901-11.39-12.969-11.39-14.182 0-2.177-23.272-37.593-26.013-39.588-1.031-.75-2.987-4.705-2.987-6.039 0-1.626 6.131-.744 13.225 1.903 3.847 1.435 8.029 2.136 12.75 2.136 7.194 0 8.758-1.019 4.775-3.111-5.662-2.973-25.515-21.576-37.262-34.918-24.709-28.061-29.562-32.718-39.038-37.463-4.062-2.035-11.506-4.772-16.542-6.085-9.011-2.347-10.206-2.9-14.625-6.768l-2.216-1.941 3.145-1.607c4.33-2.212 7.188-6.438 7.188-10.628 0-6.284-4.594-8.139-9.074-3.663-2.995 2.991-10.448 1.954-27.326-3.799l-15.5-5.284-15-.315c-8.25-.173-15.9-.093-17 .177m11.505 43.919c1.348 4.085 2.215 4.216 8.662 1.301 4.112-1.859 6.698-2.193 17.333-2.241 6.875-.03 16.02.319 20.322.777 6.755.72 7.72 1.059 7.08 2.491-.409.912-1.067 6.383-1.465 12.158-.397 5.775-1.292 12.75-1.989 15.5-1.511 5.967-6.437 14.051-10.798 17.72-1.732 1.458-3.15 2.847-3.15 3.086 0 .24 3.263.753 7.25 1.14 3.988.388 9.275 1.615 11.75 2.727l4.5 2.022-5.476 1.44c-6.334 1.665-12.014 4.793-17.589 9.686-4.984 4.373-4.125 1.543 1.586-5.23 2.188-2.596 3.979-5.201 3.979-5.789 0-1.576-3.595-2.273-11.797-2.288l-7.296-.014 4.349-4.412c2.393-2.427 5.675-6.364 7.294-8.75 1.619-2.386 3.216-4.563 3.547-4.838 4.21-3.49 7.316-20.153 4.928-26.435l-.975-2.565h-12.976c-13.83 0-20.749 1.034-26.809 4.006-2.071 1.015-4.039 1.542-4.373 1.17-1.385-1.54-2.815-14.564-1.74-15.859 1.469-1.77 2.494-.919 3.853 3.197M344 569.979c-4.577.876-15.867 4.303-19.5 5.92-4.931 2.194-11.398 4.066-16 4.633-4.354.536-5.445.283-8.444-1.958-5.591-4.178-9.056-2.963-9.056 3.176 0 4.737 2.266 8.54 6.423 10.778 1.967 1.06 3.545 2.162 3.505 2.449-.04.288-1.522 1.724-3.294 3.192-2.079 1.722-6.684 3.59-12.98 5.265-19.177 5.102-25.96 10.015-47.729 34.566-20.814 23.474-36.745 39.017-44.621 43.534-1.757 1.008-2.968 2.2-2.691 2.649 1.147 1.855 14.095.816 20.986-1.683 3.791-1.375 8.108-2.5 9.595-2.5 2.522 0 2.637.186 1.731 2.785-.534 1.531-1.973 3.895-3.198 5.252-6.02 6.67-23.727 33.5-23.727 35.952 0 .418-2.505 4.19-5.566 8.382-6.887 9.43-12.49 13.128-18.734 12.364-2.31-.283-4.987-.837-5.95-1.232-2.45-1.004-2.202.667.848 5.716 4.248 7.034 9.332 10.013 18.042 10.572 5.577.358 8.538.034 12.12-1.325 4.5-1.707 6.578-3.117 19.552-13.263 5.721-4.475 10.538-5.96 15.383-4.743 2.77.695 2.744.732-2.196 3.089-9.542 4.555-16.576 12.165-19.825 21.451-7.405 21.159-10.711 28.067-15.79 32.997-4.327 4.199-6.854 5.516-12.884 6.713l-4.5.893 3.5 2.195c3.509 2.2 10.009 2.807 14.567 1.359l2.067-.657-1.869 7.5c-3.614 14.501-2.594 26.127 3.421 39 10.186 21.8 13.255 31.463 13.288 41.836.024 7.57-.191 8.512-2.335 10.25-1.298 1.053-3.886 1.914-5.75 1.914-4.114 0-4.398 1.704-.84 5.046 2.065 1.94 3.871 2.469 9.518 2.788 4.068.23 8.172-.105 9.86-.804 6.661-2.759 11.65-11.91 13.647-25.03 2.085-13.702 3.386-18.538 6.121-22.756 2.222-3.426 6.812-7.244 8.709-7.244 1.302 0 .486 5.296-1.379 8.951-3.33 6.527-4.183 11.84-4.949 30.83-.472 11.681-1.16 18.703-1.907 19.45-1.603 1.603-1.466 2.769.325 2.769 1.952 0 7.076-7.065 10.153-14 6.571-14.809 10.368-18.6 21.603-21.565 4.473-1.181 4.75-1.14 4.75.698 0 1.533-6.809 10.191-10.118 12.867-.341.275-1.874 3.2-3.408 6.5-3.651 7.855-4.569 20.785-2.04 28.731 3.243 10.185 5.886 15.456 12.374 24.669 11.476 16.296 19.467 33.899 22.202 48.906 1.108 6.076 1.109 8.682.006 15.475-2.253 13.872-6.907 21.171-15.056 23.613-2.178.652-3.96 1.54-3.96 1.972 0 2.888 10.406 8.529 17.715 9.601 8.444 1.24 17.363-4.76 22.674-15.254 2.27-4.485 3.004-6.738 5.631-17.281.626-2.512 1.484-14.437 1.906-26.5.804-22.955 1.685-27.815 6.321-34.887 3.508-5.352 13.111-10.781 20.753-11.734 2.46-.306 2.495-.214 2.162 5.848-.42 7.64 2.062 19.144 5.639 26.13 5.489 10.723 18.05 24.211 22.547 24.211 2.058 0 2.059-.747.007-6.715-1.052-3.062-1.636-7.972-1.621-13.636.02-7.559.322-9.149 2.065-10.893l2.042-2.041 6.308 3.283c11.949 6.218 25.433 17.492 36.277 30.33 14.432 17.085 23.142 34.52 28.675 57.394.945 3.908 1.569 4.967 2.479 4.212 2.274-1.888 6.411-15.004 8.049-25.519 1.524-9.787 1.519-11.049-.08-19.1-1.963-9.885-5.767-18.828-10.83-25.461-3.619-4.74-5.719-8.199-5.719-9.418 0-1.364 8.9.337 13.659 2.61 7.463 3.564 16.273 13.299 21.39 23.635l4.366 8.819 2.237-9c1.23-4.95 2.931-11.475 3.779-14.5 3.845-13.712 4.085-40.749.441-49.676a573.573 573.573 0 00-2.643-6.324c-3.352-7.872-11.452-18.256-24.574-31.5-14.581-14.717-17.945-18.991-19.106-24.277-.96-4.372.855-4.209 6.003.539 13.242 12.216 17.677 15.62 24.948 19.148 9.431 4.577 17.798 6.501 37.5 8.621 19.004 2.045 29.26 4.985 37.308 10.695 1.544 1.096 3.091 1.708 3.439 1.36.347-.347-.197-2.984-1.21-5.859-6.608-18.755-16.908-30.984-37.442-44.453-11.886-7.797-15.412-10.826-14.784-12.704.232-.695 5.584-1.076 15.273-1.089 11.558-.014 15.552-.367 17.741-1.567l2.825-1.549-3.912-2.589c-2.152-1.424-6.349-5.438-9.325-8.92-7.288-8.524-16.792-18.082-20.194-20.307-4.363-2.855-2.553-2.833 2.87.035 6.564 3.47 10.475 6.505 19.448 15.087 9.305 8.9 14.354 12.96 19.213 15.449 4.231 2.167 4.504 2.888 1.963 5.187-3.164 2.864-8.8 4.612-17.103 5.304-4.46.372-8.11 1.062-8.11 1.533 0 .471.512.856 1.139.856 2.055 0 14.866 11.188 20.282 17.714 2.919 3.516 6.55 8.956 8.069 12.089 1.52 3.134 2.905 5.859 3.079 6.056.174.198 1.579-.532 3.123-1.62 3.941-2.779 12.616-5.072 20.553-5.432 3.709-.169 6.738-.532 6.731-.807-.008-.275-1.617-2.3-3.577-4.5-5.291-5.94-6.689-8.303-5.991-10.122.489-1.272 1.514-1.518 4.61-1.102 2.19.293 3.982.304 3.982.023 0-.281-1.339-2.201-2.975-4.267-1.636-2.066-4.461-5.956-6.278-8.644-1.817-2.688-4.191-5.947-5.276-7.242-3.498-4.178-15.425-11.953-22.456-14.64-3.764-1.438-7.103-3.292-7.42-4.119-.903-2.353 5.458-8.221 9.914-9.147 2.114-.44 4.007-1.287 4.206-1.884.797-2.392-15.468-8.342-29.215-10.687-7.023-1.198-9.028-2.066-16.419-7.106-8.824-6.017-18.337-10.812-23.831-12.012-5.724-1.25-3.319-3.647 6.204-6.183 6.495-1.73 12.06-1.719 17.887.034l4.659 1.402v-3.337c0-4.972-1.411-7.819-6.189-12.487-4.381-4.281-14.768-9.978-18.195-9.979-1.036-.001-3.511-.42-5.5-.931-1.989-.512-8.791-1.679-15.116-2.593-16.713-2.416-26.002-5.779-32.836-11.889-4.132-3.694-6.037-9.614-7.15-22.214-1.342-15.212-2.702-21.555-6.079-28.374-4.883-9.858-14.786-19-20.582-19-1.375 0-1.129-.63 1.21-3.092 3.325-3.499 8.395-6.331 13.187-7.365 3.938-.85 4.018-1.502.607-4.914-3.756-3.755-8.09-6.142-13.857-7.632-2.75-.711-5.426-1.674-5.946-2.141-1.382-1.239 2.161-3.552 7.624-4.977l4.679-1.22-4.72-2.187c-5.099-2.363-8.964-6.36-12.428-12.856-3.217-6.033-3.167-20.29.093-26.415 2.16-4.057 4.612-6.12 5.829-4.903.3.3-.507 1.969-1.793 3.711-3.268 4.425-3.35 17.493-.148 23.491 3.941 7.383 12.709 13.428 19.56 13.485 3.663.031.517 4.894-5.27 8.146-2.189 1.231-3.98 2.55-3.98 2.932 0 .382 1.463 1.294 3.25 2.027 4.624 1.897 10.501 7.586 13.853 13.41 1.583 2.75 2.882 5.338 2.888 5.75.017 1.402-2.712.757-5.251-1.24-2.527-1.988-2.536-1.988-7.094.028-5.471 2.421-6.653 3.964-4.134 5.4 9.281 5.291 19.938 25.505 22.699 43.054.209 1.327 1.312 2.162 3.301 2.5 2.05.349 3.463 1.459 4.502 3.536.833 1.665 4.114 5.712 7.292 8.993 3.178 3.281 6.026 7.093 6.329 8.472 1.395 6.35 1.303 6.285 4.342 3.032 3.846-4.118 7.269-3.979 11.721.473 3.981 3.981 5.573 3.717 5.117-.847l-.315-3.151 6-.062c9.547-.1 10.453-.3 13.045-2.893 4.521-4.52 1.885-7.887-2.775-3.545-2.542 2.368-3.651 2.462-7.216.612-5.091-2.641-9.533-10.853-9.548-17.651-.003-1.396.894-4.303 1.994-6.461 1.1-2.158 2-4.278 2-4.711 0-1.341-3.263-.878-8.889 1.26l-5.388 2.048.59-3.638c.784-4.829 1.888-5.975 7.185-7.458 5.296-1.483 17.161-.11 21.047 2.436 6.128 4.016 6.359 11.032.401 12.224-3.846.769-3.726 1.999.387 3.961 3.126 1.49 3.576 1.464 7.25-.424 2.154-1.107 7.067-4.974 10.917-8.593 6.855-6.443 7.114-6.58 12.5-6.61 3.025-.016 9.736-.476 14.913-1.021 16.118-1.698 28.109-9.195 34.784-21.748 2.936-5.522 4.997-21.27 3.351-25.6-1.967-5.175-6.048-2.482-6.048 3.991 0 15.257-14.028 24.838-39.409 26.916-7.073.58-35.823.952-42.473.55-1.04-.062-1.242-1.132-.817-4.333.68-5.125 4.338-8.616 11.128-10.621 5.655-1.67 9.571-5.993 9.571-10.566 0-3.303-2.818-8.354-7.846-14.063-1.525-1.733-.838-1.319 1.628.978 3.481 3.243 4.589 3.78 5.994 2.905 2.264-1.412 6.187-8.327 6.208-10.944.037-4.748-6.841-8.422-15.79-8.433-3.655-.005-5.213-.74-10.302-4.857-6.157-4.983-18.259-12.329-23.678-14.374-2.397-.905-3.394-.871-4.634.158-2.047 1.7-2.059 6.669-.017 7.453 2.223.853.842 2.533-1.564 1.903-1.642-.429-1.993-1.349-1.967-5.156.017-2.548.692-5.507 1.5-6.574.807-1.068 1.468-2.481 1.468-3.142 0-1.263-6.896-4.417-9.659-4.417-.89 0-5.268-2.427-9.73-5.393-5.281-3.512-10.106-5.857-13.83-6.72-4.891-1.135-5.803-1.709-6.298-3.963-.663-3.022-5.425-4.924-12.328-4.924-3.96 0-4.072-.088-3.036-2.362.592-1.3 3.111-3.649 5.597-5.22l4.52-2.857-6.368-1.637c-3.821-.981-9.733-3.738-14.783-6.893-13.864-8.662-19.084-10.193-36.085-10.582-7.975-.182-16.525.056-19 .53m24 42.002c0 1.09-.529 5.065-1.175 8.832l-1.174 6.851-4.076-2.198c-6.943-3.744-12.209-4.573-27.075-4.26l-14 .294-.293 8.414c-.412 11.822 3.247 19.832 14.654 32.086l5.12 5.5-8.464.523c-11.175.692-11.926 1.57-6.558 7.666 6.227 7.072 7.136 9.233 2.396 5.698-2.12-1.582-4.097-3.201-4.394-3.598-1.018-1.367-13.92-6.789-16.153-6.789-1.939 0-2.042-.182-.772-1.369 2.218-2.073 7.561-3.58 15.224-4.292l6.908-.642-3.923-3.598C315.995 653.53 312 643.53 312 630.449c0-3.922-.62-9.192-1.378-11.71l-1.378-4.58 8.628-.822c16.667-1.589 29.982-1.077 36.695 1.413 3.336 1.238 6.368 2.25 6.736 2.25.369 0 1.328-1.575 2.133-3.5 1.579-3.78 4.564-4.773 4.564-1.519m992.761-526.297c-7.653.462-7.209.008-11.097 11.369-3.743 10.938-7.34 26.104-8.645 36.447-.624 4.95-1.403 10.575-1.73 12.5-.805 4.727-.772 46.118.042 53 .358 3.025 1.12 9.775 1.694 15 .573 5.225 1.233 10.625 1.464 12 .232 1.375.957 5.65 1.612 9.5 2 11.767 1.54 12.425-1.747 2.5-5.58-16.845-6.255-19.57-9.291-37.5-2.752-16.25-3.246-21.505-3.529-37.5-.399-22.57 2.653-46.603 8.826-69.5l1.348-5-4.104.038c-2.257.021-5.679.319-7.604.662-1.925.344-6.65 1.113-10.5 1.71-3.85.597-10.15 1.778-14 2.625-3.85.846-9.025 1.941-11.5 2.432-9.75 1.936-25.328 5.966-26.01 6.728-.396.443-1.218 3.505-1.826 6.805-4.233 22.957-4.105 63.326.29 91.5 1.416 9.075 3.304 19.65 4.196 23.5 2.305 9.951 11.389 42.615 12.516 45l.944 2-1.639-2c-2.379-2.903-12.063-22.376-15.044-30.252-7.947-20.991-15.049-46.179-17.456-61.906-4.169-27.234-5.371-39.726-6.372-66.216-.087-2.297-.475-2.59-3.099-2.341-1.65.157-5.025.936-7.5 1.73-13.931 4.473-38.782 12.781-40.5 13.541-1.1.486-5.6 2.261-10 3.944-4.4 1.683-8.9 3.484-10 4.003-1.1.518-4.25 1.806-7 2.862-4.744 1.823-7.49 3.016-24 10.435-13.819 6.209-61.477 30.594-63.682 32.584-.375.339-.812 3.903-.971 7.92-.209 5.271.082 7.534 1.047 8.13 4.642 2.87 52.959 43.919 60.106 51.066.275.275 3.2 2.933 6.5 5.906 9.482 8.544 41.767 40.812 38.614 38.594-1.564-1.1-8.114-6.05-14.555-11-6.442-4.95-12.691-9.673-13.886-10.496-1.195-.823-6.777-4.975-12.405-9.226-5.627-4.252-11.927-8.861-14-10.243-2.072-1.383-7.593-5.242-12.268-8.577-4.675-3.334-10.975-7.688-14-9.674-3.025-1.987-5.725-3.876-6-4.198-.275-.322-5.293-3.823-11.152-7.78l-10.652-7.194-1.025 2.694c-2.678 7.035-6.625 41.715-8.684 76.306l-.632 10.613 4.03 1.612c2.216.887 6.187 2.569 8.822 3.738a523.745 523.745 0 006.793 2.963c8.218 3.444 38.418 16.864 44.5 19.774 11.044 5.284 17.571 9.819 19.315 13.419 2.802 5.786.289 6.26-8.08 1.524-3.154-1.785-12.154-5.798-20-8.919-18.276-7.27-56.997-20.408-57.795-19.609-.336.336-1.135 5.71-1.776 11.942-1.217 11.844-1.711 126.119-.55 127.279.338.337 3.713-.787 7.5-2.498a5546.4 5546.4 0 019.888-4.46c7.806-3.506 13.542-5.833 19.636-7.966 3.651-1.278 8.151-3.026 10-3.883 3.929-1.821 21.781-8.337 26.862-9.804 1.925-.556 10.025-3.164 18-5.797 17.379-5.737 23.042-7.499 29-9.023 2.475-.634 6.24-1.603 8.367-2.154l3.866-1.003-.724-22.68c-.399-12.474-.878-22.936-1.064-23.249-.867-1.454 1.619-24.608 3.13-29.156 4.636-13.957 25.323-23.559 44.674-20.735 24.954 3.641 48.043 12.989 77.251 31.277 6.809 4.264 27.072 18.554 30.818 21.734 10.33 8.772 44.235 30.938 64.182 41.96 3.3 1.824 7.483 4.146 9.296 5.161 1.812 1.015 8.112 4.289 14 7.275 8.944 4.537 13.344 6.666 21.454 10.376 1.794.821.467-2.004-3.045-6.483-3.38-4.312-12.205-18.766-12.205-19.992 0-.262-1.132-2.951-2.516-5.976-5.459-11.936-11.959-33.652-14.445-48.267-3.437-20.198-3.664-21.863-5.536-40.605-1.721-17.226-2.025-60.422-.496-70.418 4.349-28.433 8.361-43.4 17.982-67.082 4.116-10.133 6.235-14.912 13.745-31 4.954-10.613 8.964-21.29 10.391-27.669 2.71-12.108-3.873-19.296-22.002-24.028-9.057-2.364-11.329-2.527-38.623-2.769-15.95-.141-32.033-.074-35.739.15m34.318 928.969c-.587 2.116-1.07 4.405-1.073 5.086-.009 1.981-5.381 20.521-10.507 36.261-6.961 21.376-16.613 45.159-26.583 65.5-8.868 18.094-10.781 21.699-18.837 35.5-6.728 11.525-30.475 46.777-33.009 49-.314.275-2.795 3.425-5.515 7-15.232 20.02-47.088 53.249-69.517 72.514-5.755 4.942-11.177 9.661-12.051 10.486-.873.825-3.107 2.625-4.962 4-1.856 1.375-5.658 4.32-8.45 6.545-30.565 24.36-70.702 49.709-113.075 71.414-7.7 3.944-14.31 7.479-14.69 7.856-.881.875-1.578 9.053-2.275 26.685-.535 13.558-1.406 26.873-3.531 54-1.497 19.108-1.693 17.884 2.746 17.097 7.751-1.374 47.042-5.13 65.909-6.3 16.085-.998 67.829-1.041 79.841-.067 47.168 3.827 82.066 14.338 114.977 34.63 4.963 3.06 9.248 5.829 9.523 6.153.275.325 2.744 2.142 5.487 4.038 2.742 1.897 5.594 4.018 6.336 4.714.743.696 2.935 2.474 4.872 3.952 6.613 5.044 20.55 18.77 28.21 27.783 18.441 21.7 30.432 41.256 41.053 66.953 4.586 11.094 7.742 15.823 12.044 18.048 6.193 3.203 12.67 1.297 20.977-6.172 4.873-4.381 12.32-14.1 15.193-19.829.828-1.65 3.568-6.825 6.09-11.5 4.768-8.84 15.572-33.373 20.037-45.5 7.679-20.858 19.625-60.459 21.201-70.283.625-3.894.373-4.666-2.775-8.5-9.196-11.201-32.47-30.86-45.346-38.301-2.684-1.551-5.104-3.102-5.379-3.447-.642-.806-19.348-11.288-24.182-13.551-3.545-1.659-3.86-1.646-8.5.346-6.549 2.811-19.334 5.891-27.818 6.701-16.08 1.535-17.703 1.884-21.654 4.666-1.923 1.354-4.418 1.869-9.054 1.869-5.926 0-6.636-.244-9.596-3.298-2.565-2.646-3.196-4.127-3.196-7.5 0-3.688-.275-4.203-2.25-4.213-4.204-.02-11.26-2.739-14.511-5.592-3.023-2.653-3.239-3.272-3.239-9.291 0-4.701.467-6.965 1.724-8.354 1.644-1.816 1.609-1.992-.75-3.772-1.361-1.026-6.228-3.797-10.817-6.156l-8.343-4.289-2.139 2.982c-3.688 5.143-9.735 10.245-12.891 10.876-1.669.334-6.444.607-10.611.607-7.169 0-7.756-.173-10.875-3.196l-3.298-3.196v2.493c0 1.568-1.407 3.867-3.792 6.196-3.521 3.438-4.222 3.703-9.792 3.703-5.759 0-6.161-.17-10.031-4.25-5.878-6.197-6.987-8.425-8.99-18.061-1.711-8.236-1.942-8.689-4.413-8.689-1.576 0-3.714-1.155-5.404-2.918l-2.795-2.918.446-15.332c.328-11.29.879-16.3 2.089-19.004.904-2.02 1.854-5.364 2.11-7.433.49-3.95 3.407-8.649 7.275-11.718 3.038-2.41 2.898-3.811-.703-7.019-2.818-2.511-3-3.118-3-10.016 0-6.649.299-7.757 3.165-11.742 5.162-7.178 15.666-16.899 20.497-18.97 6.504-2.788 22.919-2.763 27.53.041l3.241 1.971 2.284-2.145c1.876-1.763 2.283-3.195 2.283-8.028 0-5.353.292-6.151 3.25-8.883l3.25-3.002 12 .308c13.202.339 16.282 1.304 22.519 7.061 4.72 4.356 8.981 10.07 8.981 12.043 0 .884 1.51 3.092 3.356 4.906 1.846 1.814 3.871 4.281 4.5 5.482 1.686 3.219 1.44 17.224-.362 20.68-.822 1.576-1.494 3.035-1.494 3.244 0 .208 4.116 3.104 9.146 6.435 16.502 10.928 18.299 11.364 17.34 4.207-1.014-7.564-7.107-25.149-14.464-41.75-1.616-3.645-5.813-17.908-7.018-23.849l-1.187-5.85-2.713 2.6c-2.318 2.22-3.606 2.599-8.832 2.599-5.499 0-6.43-.312-9.195-3.077-2.735-2.735-3.077-3.727-3.077-8.934 0-3.221.898-11.174 1.995-17.673 2.356-13.957 2.418-15.316.701-15.316-.717 0-2.805-1.549-4.64-3.442l-3.335-3.441.558-11.809c.793-16.756 4.098-24.293 15.887-36.238 13.186-13.36 27.205-20.244 48.191-23.663 8.493-1.384 10.643-2.065 10.643-3.374 0-2.562 6.081-7.737 10.5-8.936 8.925-2.422 31.89-.951 38.601 2.473 1.959 1 2.885 1.044 3.75.179 1.866-1.866 1.346-3.589-2.116-7.017-4.269-4.226-6.269-7.445-7.8-12.554-1.175-3.923-1.477-4.178-4.943-4.178-5.74 0-13.413-6.205-18.253-14.76-2.387-4.219-2.428-4.241-4.23-2.25-1.402 1.549-3.08 2.01-7.314 2.01-5.26 0-5.691-.205-10.095-4.809-7.421-7.758-8.608-12.36-8.558-33.191.033-13.817.379-18.262 1.645-21.121l1.603-3.621-5.145-.592c-2.83-.326-6.124-.878-7.321-1.227-1.866-.543-2.328-.086-3.245 3.214m-799.579-2.348c-3.3.559-6.113 1.094-6.252 1.19-.138.097.419 2.387 1.239 5.09 1.03 3.393 1.495 9.487 1.502 19.68.014 18.702-1.487 24.848-7.775 31.842l-4.399 4.893h-6.849c-3.766 0-7.126-.45-7.466-1-1.061-1.716-1.98-1.122-3.966 2.566-1.056 1.961-4.815 6.273-8.353 9.583l-6.432 6.018 3.914 9.166 3.915 9.167 7.961.631c4.379.347 9.194.957 10.7 1.356 2.956.782 8.761 6.715 8.761 8.954 0 .897 1.814 1.617 5.25 2.082 12.681 1.717 24.064 5.008 33.75 9.757 6.957 3.411 10.236 5.897 18.062 13.694 13.231 13.181 16.395 20.112 17.434 38.18l.652 11.346-2.854 3.25c-1.57 1.788-3.628 3.25-4.574 3.25-2.312 0-2.245 4.426.28 18.5 1.085 6.05 1.979 13.274 1.987 16.054.011 4.412-.405 5.459-3.285 8.25-2.646 2.565-4.127 3.196-7.5 3.196-5.026 0-5.41 1.361-.952 3.374 6.083 2.746 7.492 2.801 11.943.462 3.63-1.908 6.246-2.325 16.651-2.655l12.343-.392 3.407 3.302c3.148 3.051 3.406 3.768 3.406 9.45 0 4.757.427 6.536 1.888 7.858 1.785 1.615 2.071 1.597 5.25-.342 2.828-1.724 5.031-2.049 13.862-2.044 9.757.005 10.858.211 15.567 2.912 2.786 1.598 8.46 6.513 12.607 10.922 8.413 8.943 5.491 7.639 34.326 15.316 8.25 2.197 17.925 4.605 21.5 5.351 3.575.746 9.65 2.065 13.5 2.931 28.747 6.463 63.404 9.023 80.917 5.977 20.806-3.619 27.158-9.332 19.333-17.389-4.872-5.017-11.894-9.197-35.142-20.92-27.158-13.695-38.382-20.833-71.608-45.544-25.537-18.993-47.715-38.257-72.015-62.555-21.334-21.331-26.243-26.65-40.485-43.863-1.1-1.329-2.456-2.92-3.014-3.534-.558-.614-2.572-3.142-4.475-5.617-1.902-2.475-3.709-4.725-4.013-5-.549-.495-6.533-8.528-17.136-23-7.977-10.89-26.862-40.126-26.862-41.587 0-.211-1.314-2.527-2.92-5.148-1.606-2.621-5.152-9.04-7.88-14.265-4.529-8.676-5.295-9.602-8.83-10.673-4.589-1.391-8.743-1.396-16.87-.022m348.126-846.509c-.276.446-.073 2.718.45 5.047 1.145 5.095 3.491 24.163 5.495 44.657.807 8.25 1.911 19.5 2.453 25 .542 5.5 1.635 18.775 2.429 29.5.793 10.725 1.678 21.3 1.967 23.5.288 2.2.749 8.95 1.024 15 .274 6.05 1.032 20.45 1.685 32 1.419 25.131 1.685 79.621.553 113.453-.449 13.449-.899 24.924-1 25.5-.124.716 13.269 1.047 42.318 1.047h42.5l-.5-18.5c-.938-34.695-.445-112.308.842-132.5 2.973-46.675 4.405-66.363 5.672-78 .3-2.75.964-9.95 1.475-16 1.568-18.532 3.788-39.379 5.59-52.5.945-6.875 1.763-13.625 1.819-15l.102-2.5-57.186-.258c-31.452-.142-57.412.107-57.688.554" fill="#FFB200FF" stroke="#FFB200FF"/><path d="M1289 860.926c-4.3.88-9.17 3.368-11.066 5.653-1.245 1.501-1.19 1.848.443 2.816 9.82 5.82 10.97 7.564 7.467 11.319-3.977 4.263-4.844 6.628-4.844 13.22 0 7.001 2.09 10.066 6.865 10.066 1.576 0 4.009-.9 5.408-2 1.398-1.1 3.008-2 3.578-2 1.58 0 4.149 4.162 4.149 6.723 0 2.07-.461 2.277-5.066 2.277-6.217 0-7.95-.869-14.979-7.511-6.309-5.961-12.587-9.515-16.665-9.433-4.903.1-9.578 2.32-11.242 5.341-1.075 1.95-2.923 3.288-5.656 4.095-6.699 1.978-10.295 4.678-12.635 9.486-2.418 4.969-3.437 15.005-2.295 22.618l.688 4.589 3.441-4.021c4.473-5.224 8.971-6.792 13.757-4.792 2.024.846 4.196 2.779 5.111 4.549.876 1.694 1.939 3.079 2.364 3.079.424 0 2.55-1.823 4.724-4.05 5.115-5.241 8.669-6.95 14.452-6.95 5.191 0 8.001 2.061 8.001 5.869 0 3.458-3.52 9.502-7.64 13.12-6.026 5.29-11.481 7.176-27.655 9.559-2.861.422-4.03 1.178-4.75 3.071-2.267 5.962-.127 24.544 3.562 30.939 1.288 2.231 4.51 6.056 7.161 8.499l4.819 4.443.782-6.331c1.256-10.183 3.578-12.169 14.224-12.169 5.167 0 6.327-1.249 7.06-7.601.953-8.25 1.37-9.315 4.201-10.732 5.495-2.751 11.136.77 16.211 10.119l2.559 4.714 7.983.106c11.205.148 10.981.101 14.548 3.102l3.218 2.708-3.69 3.19c-3.679 3.18-9.629 5.108-11.74 3.803-.663-.41-.928-.134-.656.682.742 2.226 9.471 6.171 14.784 6.681 3.613.347 7.03-.225 12.832-2.149 9.563-3.173 11.205-3.212 20.45-.498 12.764 3.749 18.069 4.404 22.918 2.834 2.375-.77 4.994-1.313 5.819-1.208.825.106 9.15 1.12 18.5 2.255 9.35 1.135 18.757 2.593 20.906 3.24 4.865 1.466 8.594 5.368 8.594 8.994 0 3.631 1.445 3.513 3.002-.245 1.239-2.991 7.237-8.995 8.986-8.995 2.554 0 6.13 2.637 6.674 4.921 1.003 4.21 1.389 4.3 3.698.86 2.684-3.997 7.674-4.965 10.836-2.104 2.729 2.471 4.804 6.691 4.804 9.773 0 2.802 1.142 3.252 3.179 1.252 2.918-2.865 12.459-9.515 14.571-10.155 2.567-.778 2.928-2.073.805-2.887-.794-.305-1.705-2.266-2.023-4.357-.318-2.092-1.356-6.278-2.305-9.303-2.698-8.592-2.408-28.48.539-37.03 2.689-7.801 8.726-18.391 14.235-24.971 2.199-2.627 3.999-5.03 3.999-5.34 0-.31-2.137.1-4.75.912-7.261 2.255-17.001 4.186-24.75 4.908-12.284 1.144-27.947 4.219-32 6.282-1.65.84-5.572 3.541-8.715 6.003-3.475 2.721-6.317 4.246-7.25 3.888-2.039-.783-2.052-10.376-.024-17.061 2.043-6.734 1.956-7.142-1.912-8.977-4.34-2.059-10.767-2.054-17.667.014-7.839 2.349-31.599 2.277-36.896-.112-3.947-1.78-6.036-4.891-6.036-8.99 0-1.338-1.077-3.228-2.458-4.314-1.998-1.572-2.585-3.175-3.138-8.576-.836-8.159-3.134-11.09-9.501-12.122-2.422-.392-6.315-1.543-8.653-2.557-5.239-2.274-5.34-1.638-1.193 7.507 1.681 3.708 2.918 7.933 2.75 9.389-.292 2.515-.623 2.662-6.648 2.947-5.486.26-7.201-.132-12.735-2.913-5.589-2.809-6.476-3.646-7.038-6.642-.615-3.28.615-14.26 2.128-18.995.624-1.953.365-2.25-1.963-2.25-3.347 0-5.881-1.334-9.905-5.216-5.671-5.47-15.917-8.441-23.646-6.858m-589 .011c-4.795.967-9.002 3.304-14.483 8.049-3.011 2.605-5.612 4.014-7.411 4.014-3.785 0-4.273.776-2.566 4.077 1.536 2.97 2.052 17.479.695 19.538-.404.613-3.246 2.525-6.316 4.25-4.688 2.633-6.637 3.135-12.182 3.135-8.67 0-9.191-1.134-5.056-11a122.028 122.028 0 013.099-6.711c1.964-3.862 1.229-4.981-1.943-2.96-1.285.818-5.008 2.028-8.274 2.689-8.543 1.729-11.563 4.981-11.563 12.453 0 4.713-.405 5.999-2.497 7.939-1.374 1.273-2.787 3.839-3.141 5.702-.987 5.198-2.116 6.755-6.148 8.483-5.466 2.343-29.578 2.292-37.606-.079-7.355-2.173-15.886-1.682-18.64 1.072-1.885 1.884-1.884 2.009.059 8.252 2.185 7.02 2.51 12.289.938 15.226-1.43 2.672-2.069 2.5-7.938-2.139-10.146-8.02-12.944-8.868-41.027-12.428-12.731-1.614-19.089-2.878-24.906-4.951-4.114-1.465-6.777-1.316-4.551.256 2.762 1.952 9.949 11.891 13.28 18.366 5.875 11.421 7.521 17.854 7.505 29.33-.018 12.292-4.483 32.46-7.208 32.559-1.371.05-1.334.242.24 1.25 1.024.655 3.949 2.53 6.5 4.167 2.552 1.637 5.99 4.223 7.64 5.746 1.65 1.523 3.284 2.771 3.631 2.773.347.003 1.151-2.056 1.785-4.575 1.343-5.333 5.266-9.434 8.98-9.387 3.06.039 6.713 2.807 7.311 5.54.333 1.522.829 1.091 2.358-2.05 3.828-7.867 10.155-6.825 15.38 2.533l2.445 4.379.89-3.468c.49-1.907 1.582-4.238 2.428-5.181 2.127-2.372 8.658-4.544 15.792-5.253 3.3-.327 7.575-.804 9.5-1.058 1.925-.254 7.292-.938 11.926-1.519 4.635-.581 8.75-1.256 9.144-1.499.395-.244 2.326.228 4.292 1.05 4.799 2.005 9.166 1.88 16.529-.472 14.029-4.482 17.015-4.673 26.865-1.717 4.914 1.475 10.467 2.682 12.34 2.681 3.304-.001 10.07-2.217 14.654-4.801 2.561-1.444 3.087-3.733.643-2.795-2.695 1.034-8.828-1.204-11.8-4.306-3.224-3.365-2.894-4.402 2.225-6.98 2.983-1.502 5.206-1.762 11.715-1.37l8.033.485 2.27-4.366c3.099-5.96 6.525-9.694 10.384-11.317 2.755-1.158 3.652-1.15 5.981.055 3.676 1.901 4.799 4.302 4.799 10.259 0 6.056 1.738 8.133 6.821 8.148 8.145.024 10.819 1.012 12.546 4.632.898 1.884 1.633 5.711 1.633 8.506v5.081l2.75-1.744c4.99-3.166 7.948-6.532 10.803-12.296 2.508-5.061 2.867-7.02 3.247-17.723.506-14.256.517-14.238-9.677-15.518C727.39 951.723 715 942.879 715 932.448c0-4.885 1.874-6.448 7.733-6.448 5.544 0 12.066 3.504 16.197 8.702l2.431 3.058 2.1-3.13c1.156-1.721 3.726-4.008 5.712-5.08 3.548-1.916 3.685-1.918 7.779-.072 2.291 1.033 5.106 3.199 6.255 4.812 1.682 2.363 2.249 2.646 2.916 1.454 1.761-3.146 2.022-12.291.531-18.551-2.129-8.935-5.322-12.711-12.645-14.96-4.591-1.409-6.449-2.591-8.231-5.234-5.292-7.853-16.128-6.185-26.697 4.11-6.475 6.307-10.106 8.066-15.883 7.694-4.523-.292-4.687-.41-4.39-3.183.17-1.583 1.015-3.585 1.878-4.448 1.425-1.426 1.918-1.369 5.39.629 8.38 4.823 11.924 2.165 11.924-8.943 0-7.01-.19-7.666-3-10.358-4.601-4.408-4.01-6.913 2.5-10.587 3.025-1.707 5.5-3.411 5.5-3.786 0-.991-3.468-3.806-6.703-5.441-3.538-1.789-11.738-2.669-16.297-1.749m-49.047 536.9c-2.18 1.765-2.209 1.96-.619 4.229 1.071 1.53 1.666 4.37 1.666 7.954 0 5.125-.302 5.869-3.75 9.229-3.06 2.981-4.993 3.889-10.5 4.931l-6.75 1.276v4.407c0 3.52-.552 4.919-2.741 6.948-1.508 1.397-3.926 2.799-5.375 3.115l-2.635.574 1.877 6c1.032 3.3 2.322 6.9 2.866 8 .544 1.1 2.152 5.138 3.574 8.974 1.422 3.835 3.208 8.11 3.968 9.5.761 1.389 2.348 4.776 3.526 7.526 7.641 17.829 16.032 29.991 23.596 34.2 2.971 1.653 17.463 5.073 26.425 6.235 14.79 1.919 43.699 3.307 55.919 2.685 6.875-.35 21.5-1.077 32.5-1.616 18.822-.922 29.659-1.774 51-4.009 4.95-.518 11.983-1.178 15.628-1.466 3.646-.287 12.566-1.215 19.822-2.06 12.211-1.423 18.213-2.245 44.05-6.031a1429.62 1429.62 0 0118.785-2.602c7.212-.94 9.166-1.521 8.75-2.605-.294-.767-1.204-7.095-2.022-14.063-.817-6.967-1.956-16.268-2.531-20.668-.575-4.4-1.479-11.336-2.01-15.413-.53-4.077-1.149-7.597-1.375-7.824-.226-.226-5.966.997-12.754 2.716-54.711 13.861-115.626 19.855-157.843 15.532-7.975-.816-16.3-1.905-18.5-2.419-19.749-4.616-24.559-6.591-37.994-15.602-13.605-9.125-29.803-26.697-41.25-44.747l-3.017-4.757-2.286 1.851M931 283.705a215.352 215.352 0 00-7.093 5.739c-1.976 1.681-4.455 3.731-5.509 4.556-2.268 1.776-13.403 11.064-14.987 12.5-.606.55-4.658 4.15-9.003 8-22.336 19.791-42.158 39.836-56.931 57.571C834.61 375.512 826 387.655 826 388.256c0 .276-1.529 3.041-3.397 6.144-5.218 8.665-6.907 17.185-6.309 31.832.601 14.73 1.794 23.242 5.261 37.523C826.369 483.587 835.716 508 838.494 508c.669 0 6.871-2.475 13.784-5.5s12.847-5.5 13.187-5.5c.34 0 3.412-1.303 6.827-2.896 3.414-1.593 10.708-4.79 16.208-7.106 5.5-2.316 17.089-7.313 25.753-11.104 8.664-3.792 16.001-6.894 16.305-6.894.801 0 9.514-3.833 12.442-5.474l2.5-1.401.172-35.812c.176-36.671-.577-58.626-3.216-93.813-2.051-27.349-5.481-51.52-7.306-51.489-.357.006-2.225 1.218-4.15 2.694m-262.664-98.25c-10.767 4.684-18.574 19.345-25.851 48.545-1.85 7.425-3.861 16.65-4.47 20.5-.608 3.85-1.52 8.8-2.026 11-.506 2.2-2.31 11.425-4.008 20.5s-3.685 19.2-4.416 22.5c-.731 3.3-1.875 8.7-2.543 12-6.851 33.846-17.758 65.563-29.342 85.329-1.99 3.394-3.126 6.171-2.525 6.171 2.774 0 42.796-28.349 50.976-36.108 4.038-3.83 4.974-5.544 7.309-13.392 1.474-4.95 3.067-9.9 3.542-11 .474-1.1 1.668-4.25 2.652-7 .983-2.75 2.366-6.125 3.071-7.5.706-1.375 1.285-3.069 1.289-3.764.003-.695.441-2.045.973-3 .531-.955 2.409-5.336 4.173-9.736 4.531-11.303 16.847-35.624 22.533-44.5 11.71-18.277 19.481-24.927 33.327-28.518 13.393-3.474 49.566-.338 75.866 6.578 13.346 3.509 44.464 13.087 48.634 14.969 1.1.497 8.525 3.443 16.5 6.547 7.975 3.104 19.126 7.887 24.78 10.629l10.28 4.986 3.72-2.815c2.046-1.549 4.473-3.504 5.394-4.346.921-.841 4.391-3.555 7.71-6.03 3.32-2.475 6.054-4.784 6.076-5.132.022-.348-7.272-4.353-16.21-8.9-8.937-4.548-16.925-8.643-17.75-9.099-2.572-1.425-41.073-19.869-41.474-19.869-.209 0-3.675-1.517-7.703-3.372-4.028-1.854-9.573-4.354-12.323-5.554-2.75-1.201-5.9-2.581-7-3.067-6.284-2.779-27.772-11.497-32.478-13.177-3.037-1.085-6.422-2.354-7.522-2.821-8.079-3.428-34.651-12.289-44-14.672-26.646-6.792-35.741-8.265-51-8.262-8.831.002-14.015.445-16.164 1.38m.397 477.201c-3.347.581-5.506 1.693-12.952 6.673-6.952 4.649-7.978 7.828-5.337 16.535 2.642 8.711 2.885 10.928 1.55 14.15-1.06 2.559-1.77 2.986-4.96 2.986-4.667 0-7.034-2.445-7.034-7.264 0-3.055-.602-4.036-3.94-6.421-5.863-4.189-6.588-8.345-2.337-13.397l2.723-3.236-5.973.566c-6.13.582-10.969 2.39-17.978 6.72-9.004 5.563-10.017 8.342-5.044 13.846 3.558 3.938 4.418 6.531 2.549 7.686-2.449 1.514-.816 5.718 4.444 11.439 6.454 7.021 9.105 11.868 10.093 18.46l.728 4.852-5.011 4.625c-4.086 3.77-5.148 5.455-5.749 9.124-1.069 6.523-1.924 7.664-9.328 12.454-12.335 7.98-37.681 19.424-46.812 21.137l-3.337.626 1.088-3.121c1.742-4.997.606-6.467-4.383-5.671-5.198.829-18.079 7.616-22.483 11.846-3.727 3.579-4.277 8.294-1.779 15.229.793 2.2 1.461 5.463 1.485 7.25.054 3.997-.765 4.067-14.503 1.24-5.372-1.105-9.996-1.78-10.277-1.5-.664.664-1.132.389 9.824 5.771 12.269 6.026 13.968 6.63 23.314 8.284 11.261 1.994 23.623 8.491 32.936 17.31 5.726 5.422 5.142 6.141-5 6.168l-8.75.022 6.302 3.396c9.997 5.388 16.674 10.98 20.841 17.455 2.121 3.296 4.173 6.018 4.559 6.048.386.031 2.213-1.5 4.06-3.402 4.062-4.182 12.202-8.117 19.988-9.662 3.163-.627 5.75-1.509 5.75-1.96 0-.45-2.925-2.906-6.5-5.457-3.575-2.551-6.5-5.059-6.5-5.573 0-1.798 8.568-10.222 16.5-16.223 4.4-3.329 8.225-6.315 8.5-6.636.275-.32 2.524-2.146 4.997-4.057 4.814-3.719 8.581-6.817 10.386-8.541 3.086-2.947 6.794-4.271 13.617-4.863 4.125-.357 9.975-.863 13-1.123 9.814-.844 12.288-1.543 14.239-4.024 2.573-3.27 4.312-3.065 10.578 1.251 9.516 6.554 18.268 5.693 26.104-2.568 4.233-4.462 10.458-14.06 9.646-14.872-.33-.33-1.133-.068-1.784.583-2.574 2.574-11.253.17-19.015-5.267-1.848-1.294-2.333-1.25-4.434.402-3.111 2.447-5.662 1.651-9.652-3.011-5.946-6.946-8.004-12.337-7.432-19.464.826-10.299 7.989-26.763 12.997-29.877 1.322-.822 2.905-.636 6.5.762 8.113 3.155 10.785 3.197 13.764.218l2.625-2.625-2.115-3.421c-1.716-2.777-2.059-4.7-1.818-10.203.259-5.909.591-6.926 2.582-7.915 1.398-.695 3.822-.854 6.25-.41 2.539.465 3.965.352 3.965-.313 0-.571-2.433-3.413-5.406-6.316-6.482-6.329-13.41-9.898-17.354-8.942-1.507.366-4.828 1.057-7.379 1.537-6.61 1.243-8.648 2.856-10.781 8.528-3.727 9.914-4.149 10.5-7.566 10.5-4.778 0-9.514-5.903-9.514-11.859 0-2.486.718-3.386 4.25-5.329 4.576-2.517 6.071-6.321 3.513-8.936-6.947-7.105-5.953-13.346 2.592-16.271l3.855-1.319-3.089-2.2c-3.157-2.248-13.187-3.505-19.388-2.43m647.209.228c-6.235 2.049-9.244 5.116-5.019 5.116 2.361 0 7.751 4.396 8.575 6.994.661 2.083-1.452 6.893-3.932 8.951-.861.715-1.566 2.823-1.566 4.686 0 3.017.436 3.559 4.009 4.989 5 2.001 5.829 4.7 3.24 10.541-2.467 5.565-4.34 7.051-8.385 6.657-3.009-.293-3.508-.879-6.338-7.442-4.019-9.319-4.826-10.167-10.358-10.878-2.567-.33-5.449-1.027-6.404-1.549-2.793-1.526-5.494-1.119-10.958 1.649-4.914 2.49-14.806 11.502-14.806 13.488 0 .538 1.188.654 2.732.266 4.168-1.046 8.2-.82 9.551.534 1.934 1.937 1.556 14.184-.535 17.376-2.363 3.606-2.201 5.211.717 7.123 3.294 2.159 5.98 2.036 12.239-.558 4.201-1.741 5.718-1.956 7.638-1.081 5.082 2.316 12.94 21.435 13.052 31.754.056 5.243-.388 6.699-3.515 11.535-3.465 5.359-9.067 10.965-10.956 10.965-.508 0-1.71-.825-2.673-1.833-1.692-1.773-1.99-1.706-8.959 2-7.383 3.925-10.951 4.621-14.357 2.798-6.519-3.489 6.427 14.623 13.638 19.08 5.538 3.422 13.574 2.486 20.159-2.348 5.872-4.31 8.61-4.633 10.811-1.274 1.883 2.875 2.896 3.072 26.458 5.146 8.351.734 9.933 1.347 15.046 5.825 4.384 3.84 7.244 6.111 19.653 15.606 11.76 8.999 19.317 16.355 19.258 18.747-.024.991-2.812 3.701-6.415 6.235-3.505 2.465-6.191 4.776-5.969 5.137.223.36 2.097.955 4.166 1.322 8.637 1.534 20.56 7.493 23.019 11.506 1.774 2.894 2.375 2.631 5.583-2.447 4.052-6.415 13.5-14.597 21.763-18.847l7.101-3.653h-9.102c-6.369 0-9.103-.357-9.103-1.19 0-2.158 9.786-10.23 18.213-15.023 4.56-2.593 11.211-5.403 14.787-6.248 3.575-.845 8.75-2.049 11.5-2.676 5.01-1.142 27.101-11.595 26.267-12.429-.398-.398-5.957.507-12.767 2.079-1.375.317-4.862.845-7.75 1.172-5.084.576-5.25.516-5.25-1.89 0-1.366.889-5.142 1.975-8.39 2.574-7.693 2.523-10.777-.225-13.672-5.302-5.586-18.345-12.593-25.147-13.51l-3.897-.526.524 4.652c.62 5.501.618 5.502-8.805 2.293-14.431-4.914-37.38-16.377-43.871-21.913-3.705-3.16-4.605-4.658-5.558-9.25-.987-4.753-1.805-6.042-6.166-9.72-4.683-3.948-4.995-4.494-4.534-7.932.831-6.193 5.197-14.283 10.585-19.615 4.259-4.214 5.119-5.665 5.119-8.638 0-1.966-.45-3.574-1-3.574-2.182 0-.811-3.687 2.5-6.726 1.925-1.767 3.5-4.092 3.5-5.166 0-5.826-15.019-14.868-26.314-15.843l-6.186-.534 2.8 2.247c2.447 1.963 2.763 2.827 2.5 6.852-.272 4.173-.7 4.875-4.55 7.454-3.648 2.445-4.25 3.344-4.25 6.348 0 5.49-1.487 7.368-5.835 7.368-2.071 0-4.305-.54-4.965-1.2-1.672-1.672-1.499-9.84.3-14.146 2.339-5.599 1.981-12.89-.75-15.248-3.238-2.795-7.741-5.833-11.617-7.837-3.781-1.956-16.212-2.993-20.191-1.685M982.433 1.986c-29.78 8.633-50.214 34.594-51.324 65.203-.924 25.496 14.436 51.786 37.243 63.743l5.851 3.068h-38.436l.559 2.25c1.366 5.502 3.844 15.509 4.518 18.25l.738 3 59.545.258 59.546.258 2.308-8.758c1.269-4.817 2.517-10.22 2.773-12.008l.465-3.25h-37.687l6.708-3.92c16.18-9.455 27.368-23.468 32.971-41.295 3.135-9.976 3.147-30.124.024-39.388-8.108-24.048-25.758-41.286-48.467-47.337-10-2.665-28.275-2.701-37.335-.074m32.782 21.976c14.295 4.784 25.448 15.365 30.607 29.036.726 1.926 1.573 7.867 1.881 13.202.815 14.127-1.308 21.332-9.439 32.035-4.994 6.572-8.539 9.492-16.173 13.319-12.013 6.022-22.357 6.908-34.471 2.953-18.917-6.175-30.207-19.347-33.434-39.007-3.445-20.993 9.992-43.073 31.005-50.948 8.334-3.123 21.672-3.385 30.024-.59m-21.661 553.54c-3.605 7.426-6.554 13.765-6.554 14.088 0 .599-4.699 11.414-9.384 21.596-1.439 3.127-2.616 5.945-2.616 6.261 0 .316-.866 2.482-1.924 4.814-4.578 10.085-7.172 16.119-13.002 30.239-3.406 8.25-7.567 18.15-9.246 22-4.933 11.309-8.828 22.442-8.828 25.232 0 2.181 5.691 17.649 10.584 28.768.726 1.65 2.705 6.6 4.398 11 1.693 4.4 3.476 8.9 3.961 10 1.425 3.229 9.731 23.526 12.039 29.419 1.865 4.762 3.986 9.773 7.018 16.581 1.987 4.462 4.941 11.356 7.498 17.5 4.655 11.187 12.213 26.703 13.349 27.406 1.235.763 5.763-7.771 12.17-22.94 4.677-11.07 13.371-31.246 15.564-36.117.781-1.733 1.419-3.577 1.419-4.096 0-.52.649-2.252 1.441-3.849 3.798-7.653 22.886-54.959 27.525-68.217l2.209-6.313-5.192-13.187c-2.856-7.253-5.866-14.762-6.69-16.687l-2.35-5.5c-.47-1.1-2.045-4.925-3.502-8.5-2.325-5.707-4.268-10.285-7.426-17.5-.481-1.1-2.005-4.7-3.386-8-15.862-37.902-29.583-67.462-31.325-67.484-.659-.009-4.146 6.06-7.75 13.486m-403.066-76.649c-.543.511-4.546 2.11-8.895 3.553-16.265 5.396-19.986 5.958-40.093 6.057-21.961.109-20.29-.328-44.521 11.651-30.803 15.228-56.461 33.096-69.589 48.464l-4.53 5.301 4.07 3.677c2.239 2.022 4.07 4.557 4.07 5.632 0 1.786.498 1.902 5.75 1.335 3.163-.342 7.775-.834 10.25-1.094 18.728-1.968 50.288-11.001 69.5-19.892 10.548-4.881 10.622-4.856 2.755.937-8.341 6.142-29.517 27.096-34.892 34.526-4.266 5.897-9.363 14.685-9.363 16.142 0 .49 1.688 1.656 3.75 2.593 2.063.936 7.125 3.924 11.25 6.64l7.5 4.938 11.5-2.231c17.108-3.319 38.657-10.972 53-18.822 6.731-3.684 18.377-10.848 21-12.918 16.775-13.238 21.838-18.11 24.724-23.793 4.337-8.542 7.729-12.866 20.028-25.525 5.089-5.238 13.091-12.621 17.783-16.407 4.693-3.786 8.347-7.069 8.12-7.295-.226-.226-2.829.681-5.783 2.015-9.343 4.221-15.439 6.561-23.521 9.029-7.47 2.281-10.791 3.14-21.544 5.572-6.215 1.406-35.613 1.374-39.679-.043-2.456-.856-3.559-.807-4.899.22-1.16.889-1.044.512.355-1.145 1.146-1.359 3.356-4.7 4.912-7.425 4.549-7.97 14.655-18.959 24.412-26.545 4.946-3.846 6.547-5.587 5.321-5.788-.964-.159-2.197.13-2.741.641m820.565 2.357c10.56 7.622 24.759 23.11 30.062 32.79 2.978 5.437 4.718 4.903-18.301 5.616-17.671.547-26.423-.607-43.566-5.746-6.926-2.076-8.118-2.512-14.399-5.268-2.008-.881-3.923-1.602-4.255-1.602-.332 0-2.936-1.125-5.786-2.5-5.844-2.819-5.808-2.809-5.808-1.66 0 .462 1.521 1.925 3.38 3.25 7.353 5.242 21.955 18.731 29.727 27.462 4.039 4.537 10.825 14.318 13.235 19.077 5.121 10.112 39.817 35.08 58.199 41.881 2.728 1.009 5.409 2.141 5.959 2.516 4.795 3.269 43.134 13.009 44.405 11.282 1.08-1.467 9.498-6.812 15.37-9.761 6.623-3.325 7.959-5.978 5.19-10.304-8.737-13.652-23.812-29.691-40.163-42.736-3.409-2.719-6.07-5.072-5.914-5.228.156-.156 3.012 1.08 6.346 2.746 16.34 8.165 52.87 18.609 71.766 20.517 2.75.278 6.688.725 8.75.993 3.398.443 3.75.27 3.75-1.836 0-2.592 4.294-7.11 7.75-8.154 1.238-.374 2.25-.995 2.25-1.381 0-1.091-13.264-14.435-18.66-18.773-2.662-2.14-5.065-4.175-5.34-4.522-1.304-1.647-26.35-17.869-27.589-17.869-.776 0-1.415-.337-1.419-.75-.004-.412-1.017-1.249-2.25-1.859-1.233-.61-8.796-4.435-16.807-8.5-25.679-13.031-22.629-12.19-44.935-12.387-19.074-.168-22.789-.626-36.5-4.505-6.141-1.737-12.895-4.237-13.95-5.164-.522-.459-1.849-.835-2.947-.835-1.487 0-.862.819 2.45 3.21M1733 566.448c-4.125 1.294-9.225 2.65-11.334 3.014-3.165.545-3.688.954-3 2.349.459.929.834 5.872.834 10.984 0 9.109.05 9.305 2.5 9.811 5.999 1.24 16.891 6.221 21.979 10.049 7.52 5.659 14.167 12.269 27.43 27.279 3.594 4.067 4.257 4.405 8.241 4.199 4.491-.232 20.293-3.19 34.85-6.523 3.096-.709 15.763-4.606 18-5.538 1.1-.458 4.025-1.615 6.5-2.572 7.678-2.968 8.236-3.209 18.482-7.978 19.402-9.031 35.518-21.937 35.518-28.444 0-4.232-2.25-5.072-13.684-5.112-5.399-.018-14.316-.455-19.816-.971-18.962-1.777-40.009-3.908-43.5-4.403-5.059-.719-11.153-1.416-22.5-2.576-5.5-.562-13.375-1.485-17.5-2.051-19.155-2.63-30.293-3.961-32.784-3.918-1.494.026-6.091 1.106-10.216 2.401m-1480.5-1.907c-.992.381-16.93 2.36-40 4.967-6.6.746-16.05 1.845-21 2.443-4.95.598-15.975 1.761-24.5 2.584-8.525.824-16.072 1.705-16.772 1.958-.699.254-9.249.73-19 1.06-9.75.329-18.74 1.091-19.978 1.692-5.251 2.551-.353 11.027 11.062 19.14 11.406 8.108 19.914 12.54 37.951 19.773 14.026 5.624 30.673 10.625 42.737 12.84 3.025.556 6.625 1.258 8 1.561 1.375.303 4.975.793 8 1.089l5.5.538 5-5.809c10.732-12.467 21.205-22.692 27.592-26.938 3.672-2.441 6.998-4.439 7.391-4.439.393 0 2.133-.649 3.866-1.441 1.733-.793 5.064-1.935 7.401-2.539l4.25-1.097v-9.762c0-6.106.437-10.198 1.167-10.928 1.343-1.343 2.293-.95-11.207-4.632-8.665-2.362-14.787-3.085-17.46-2.06m1226.027 717.816c-1.796 1.313-1.772 1.689.773 11.75 5.738 22.683 10.45 45.441 11.676 56.393 1.295 11.564 1.309 32.722.027 39.482-1.244 6.561-7.406 15.499-18.239 26.453l-7.847 7.935 13.025 4.258c19.992 6.538 42.356 16.375 51.212 22.528 1.46 1.014 3.089 1.844 3.62 1.844 1.633 0 4.689-14.328 7.678-36 .873-6.325 1.999-13.525 2.504-16 .505-2.475 1.203-6.75 1.553-9.5.349-2.75.876-6.012 1.171-7.25.514-2.155.267-2.25-5.875-2.25-5.973 0-6.637-.232-9.691-3.382l-3.277-3.382.291-11.419c.259-10.136.063-11.75-1.744-14.368-5.4-7.825-7.384-17.515-7.384-36.065 0-15.199-.054-15.588-2.619-18.951-2.537-3.327-2.832-3.433-9.528-3.433-5.634 0-7.967-.534-12.632-2.891-3.146-1.59-6.578-3.84-7.626-5-2.202-2.437-4.438-2.675-7.068-.752M667.5 579.698c-18.996 6.954-47.404 9.426-55.227 4.804l-3.135-1.852-5.815 4.425c-3.198 2.434-6.717 5.242-7.819 6.241-2.913 2.64-22.057 15.582-24.19 16.354-4.68 1.692-16.319 10.182-22.841 16.659-3.97 3.944-9.526 10.6-12.346 14.792-5.061 7.524-5.127 7.719-5.127 15.292v7.67l7.75-.574c9.932-.735 20.77-2.232 30.25-4.177 7.675-1.575 26.305-7.004 29-8.45 2.637-1.415 19.1-8.882 19.584-8.882 1.288 0 15.045-9.244 23.557-15.83 9.609-7.435 9.646-7.48 11.413-14.064 2.106-7.851 7.616-17.118 15.619-26.271 3.205-3.666 5.827-6.928 5.827-7.25 0-.871-2.03-.524-6.5 1.113m660.5-.781c0 .504.386 1.066.857 1.25.472.183 3.219 3.033 6.105 6.333 6.962 7.959 13.689 19.579 15.172 26.207.921 4.116 2.054 6.109 4.876 8.577 16.277 14.238 41.208 27.709 64.044 34.607 11.25 3.398 30.939 6.819 41.946 7.288l7.5.319.584-8.499.583-8.499-4.43-6.736c-6.147-9.346-21.238-23.377-29.859-27.763-3.783-1.924-9.578-5.27-12.878-7.436-6.921-4.542-26.174-19.228-27.036-20.624-.751-1.214-4.464-1.23-4.464-.019 0 2.44-17.341 4.289-25.5 2.72-1.1-.212-4.25-.704-7-1.094-4.997-.709-14.574-3.1-24-5.992-5.861-1.798-6.5-1.861-6.5-.639" fill="#FFB200FF" stroke="#FFB200FF"/><path d="M767.878 675.75c-5.341 5.589-10.811 11.999-15.14 17.74-.419.555-2.107 2.759-3.75 4.898-2.335 3.038-2.988 4.907-2.988 8.553 0 3.966-.495 5.147-3.298 7.863-1.813 1.758-4.288 3.196-5.5 3.196-2.277 0-2.957 1.415-1.202 2.5.55.34 1 3.581 1 7.202 0 6.541-.031 6.615-4.857 11.441L727.286 744h-8.988c-10.507 0-11.184.449-14.29 9.476-2.52 7.325-2.512 9.007.06 12.62 1.69 2.373 2.796 2.904 6.048 2.904 3.68 0 6.48 1.042 14.384 5.352 1.65.9 5.178 1.638 7.84 1.642 3.9.005 5.404.539 7.75 2.753 2.643 2.495 2.91 3.353 2.91 9.36 0 5.452-.456 7.297-2.593 10.503-3.312 4.968-11.776 13.782-16.807 17.505-3.723 2.754-4.382 2.885-14.515 2.885-8.649 0-11.295-.365-14.289-1.969-3.078-1.65-4.193-1.789-6.872-.855l-3.199 1.115.645 9.605c.355 5.282 1.18 12.87 1.834 16.862l1.189 7.259 3.553-.759c4.598-.981 23.754-.982 27.254-.001 1.485.416 5.423 3.277 8.75 6.357 6.048 5.6 6.05 5.603 6.05 11.348 0 4.743-.436 6.217-2.5 8.443-1.375 1.484-2.5 3.071-2.5 3.527 0 .456 4.25 1.015 9.443 1.242 7.418.325 9.886.814 11.506 2.28 2.686 2.431 3.255 1.713 1.994-2.52-2.595-8.716-5.064-26.343-6.619-47.261-1.475-19.839-1.532-25.209-.441-41.028 2.163-31.35 5.291-50.575 12.47-76.645 2.416-8.772 11.377-31.744 15.171-38.888 5.614-10.573 4.475-10.907-4.646-1.362M774 945.5c-1.827 1.945-3.343 2.5-6.829 2.5h-4.481l1.905 2.103c3.6 3.974 2.752 30.993-1.311 41.767l-1.648 4.371 4.932 4.63c10.913 10.246 33.084 25.706 47.307 32.988 18.215 9.325 50.391 20.232 59.322 20.109 2.229-.03 2.207-.114-.697-2.618-1.65-1.422-4.35-3.771-6-5.22-1.65-1.448-5.656-4.883-8.902-7.632-12.308-10.422-35.358-34.046-46.344-47.498-13.497-16.526-22.33-29.017-30.584-43.25-1.515-2.612-3.107-4.75-3.538-4.75-.431 0-1.84 1.125-3.132 2.5m449 .363c0 2.227-24.525 37.038-32.47 46.088-21.451 24.431-43.63 46.229-58.453 57.446-6.247 4.727-5.296 5.616 3.879 3.627 21.353-4.628 48.815-16.01 68.526-28.401 9.414-5.918 25.427-17.85 30.774-22.931 3.502-3.328 3.675-3.76 2.555-6.381-.661-1.546-1.521-3.261-1.912-3.811-.39-.55-1.483-5.95-2.429-12-1.976-12.638-1.571-25.171.938-29 2.222-3.391 2.133-3.5-2.849-3.5-2.443 0-4.719-.45-5.059-1-.756-1.224-3.5-1.332-3.5-.137m35-130.958c0 21.304-2.867 47.889-6.633 61.515-.748 2.706-1.249 4.998-1.114 5.094.136.095 4.635-.035 9.997-.29 10.305-.489 11.574-1.263 7.75-4.724-1.623-1.469-2-3.08-2-8.555v-6.744l5.504-5.031c4.464-4.08 6.589-5.256 11.25-6.227 7.522-1.568 23.869-.706 28.097 1.48 1.732.896 3.149 1.337 3.149.981s.641-5.205 1.425-10.776c.783-5.57 1.71-13.39 2.06-17.378l.636-7.25h-2.626c-1.445 0-3.491-.462-4.547-1.028-1.45-.776-2.871-.542-5.811.958-3.029 1.545-6.082 2.016-13.765 2.121-5.429.074-11.126-.352-12.66-.948-3.129-1.215-15.863-13.385-17.633-16.853-2.455-4.807-3.079-2.04-3.079 13.655m89.527-189.957c-.839 1.622-3.181 4.209-5.205 5.75-3.319 2.527-4.425 2.793-11.251 2.708-7.971-.1-17.225-3.059-25.321-8.097-2.062-1.284-3.75-2.032-3.75-1.663s1.563 3.862 3.473 7.763c1.91 3.9 4.524 9.791 5.808 13.091l2.335 6 12.442.514c12.281.507 12.523.563 18.726 4.343 3.455 2.106 7.566 4.908 9.134 6.227 2.486 2.093 3.009 2.209 4.089.908 1.798-2.167 13.971-1.939 21.68.405 7.642 2.324 16.78 7.78 20.978 12.525 1.74 1.968 3.428 3.578 3.75 3.578.322 0 .585-2.547.585-5.661v-5.661l-7.75-7.676c-4.262-4.222-11.8-11.011-16.75-15.086-4.95-4.075-9.225-7.637-9.5-7.915-.623-.63-10.009-7.592-15.947-11.828-2.446-1.745-4.797-3.173-5.224-3.173-.428 0-1.464 1.327-2.302 2.948M1226 669.52c0 .286 1.039 2.198 2.308 4.25 1.27 2.051 3.319 6.205 4.554 9.23 1.235 3.025 2.617 6.4 3.072 7.5.455 1.1 1.609 4.025 2.566 6.5.957 2.475 2.1 5.4 2.54 6.5 2.624 6.55 7.28 24.043 9.849 37 2.635 13.289 3.731 20.247 5.727 36.362l.54 4.363 2.727-2.613c2.151-2.06 3.721-2.612 7.437-2.612 3.47 0 6.22-.855 10.445-3.249 3.826-2.167 7.566-3.416 11.235-3.75 5.132-.467 5.618-.742 7.262-4.103 1.727-3.531 1.71-3.756-.859-11.5-1.441-4.344-2.992-8.296-3.446-8.782-.454-.487-5.08-.799-10.28-.694l-9.455.191-5.111-5.192c-5.01-5.09-5.111-5.312-5.111-11.228 0-4.213.5-6.588 1.655-7.864 1.568-1.733 1.499-1.829-1.304-1.829-2.047 0-3.966-1.039-6.228-3.373-3.091-3.189-3.257-3.734-3.032-9.942.229-6.312.076-6.782-3.929-12.087-4.971-6.584-21.038-23.598-22.285-23.598-.482 0-.877.234-.877.52m-577-45.487c-1.375 1.081-2.95 2.318-3.5 2.748-.55.431-2.575 1.751-4.5 2.934-1.925 1.184-4.4 2.974-5.5 3.978-1.1 1.004-4.024 3.396-6.497 5.316-8.98 6.972-12.772 10.395-25.753 23.246-8.432 8.347-9.25 9.493-9.25 12.951 0 2.087.323 3.794.719 3.794.395 0 2.982-2.198 5.75-4.884C609.354 665.49 620.345 661 632.575 661c4.926 0 7.271.456 8.618 1.675 1.747 1.581 2.032 1.506 5.079-1.328 1.775-1.651 5.673-4.529 8.662-6.396 5.382-3.363 5.569-3.4 19.97-3.923l14.538-.528 1.279-4c2.321-7.256 2.609-7.941 6.371-15.172 2.052-3.945 3.502-7.401 3.222-7.681-.28-.28-2.603.777-5.161 2.349-7.934 4.874-19.729 8.312-26.439 7.708-6.617-.596-11.692-3.775-13.866-8.684-1.556-3.516-2.443-3.665-5.848-.987m745.089 96.956c-2.427 2.732-5.065 6.315-5.863 7.963-1.42 2.932-1.365 3.075 2.628 6.798 3.111 2.901 4.364 5.042 5.284 9.029 1.317 5.705 1.107 5.524 15.422 13.308 10.607 5.768 25.109 8.876 27.016 5.79.456-.738 3.209-.961 8.04-.651 6.477.415 7.414.255 7.926-1.357.319-1.006.215-2.418-.231-3.138-2.371-3.826-24.823-22.375-43.855-36.231-1.511-1.1-4.119-3.012-5.796-4.25-1.677-1.237-3.749-2.245-4.604-2.24-.856.006-3.541 2.246-5.967 4.979m-804.091 2.996c-24.489 18.01-43.623 34.629-42.786 37.162.302.912 2.593 1.449 7.032 1.647 3.739.167 7.036.839 7.631 1.556.756.91 2.827 1.078 7.427.602 5.136-.532 8.698-1.87 18.276-6.866 14.29-7.453 15.422-8.392 15.422-12.784 0-2.641 1.002-4.459 4.544-8.246 3.776-4.037 4.433-5.3 3.887-7.474-.739-2.947-8.992-12.582-10.776-12.582-.638 0-5.434 3.143-10.657 6.985M645 828.581c-7.409 6.112-7.571 6.241-15 11.858a2159.954 2159.954 0 00-6.932 5.253c-.237.186 1 1.815 2.75 3.621 2.922 3.014 3.182 3.82 3.182 9.878 0 5.133-.356 6.732-1.606 7.211-1.768.679-1.524 2.65 1.109 8.951l1.562 3.737 2.717-1.899c1.495-1.045 4.863-2.182 7.485-2.528 2.622-.346 6.087-1.312 7.701-2.146 1.613-.834 4.08-1.517 5.482-1.517 2.87 0 3.166-1.584 1.589-8.5-.885-3.881-2.726-22.591-3.271-33.25-.147-2.887-.493-5.24-.768-5.228-.275.011-2.975 2.063-6 4.559m706-1.81c0 5.142-2.376 28.435-3.528 34.589-1.8 9.613-1.8 9.64-.081 9.64.765 0 3.352.89 5.75 1.978 2.397 1.088 5.719 1.988 7.381 2 1.873.014 4.436 1.187 6.741 3.087 3.701 3.051 5.737 3.166 5.737.326 0-.82.713-2.87 1.585-4.555 1.549-2.995 1.514-3.138-1.5-6.248-2.704-2.79-3.085-3.878-3.085-8.809 0-4.917.378-6.003 3-8.625 1.65-1.65 2.982-3.372 2.961-3.827-.022-.455-3.243-3.302-7.158-6.327-3.915-3.025-7.61-5.956-8.211-6.514-3.494-3.246-9.592-7.515-9.592-6.715" fill="#FFB200FF" stroke="#FFB200FF"/></svg>